<svg version="1.1" viewBox="0.0 0.0 705.0 351.0" fill="none" stroke="none" stroke-linecap="square" stroke-miterlimit="10" width="705" height="351" xmlns:xlink="http://www.w3.org/1999/xlink" xmlns="http://www.w3.org/2000/svg"><path fill="#ffffff" d="M0 0L705.0 0L705.0 351.0L0 351.0L0 0Z" fill-rule="nonzero"/><path stroke="#333333" stroke-width="1.0" stroke-linecap="butt" d="M83.5 82.5L83.5 281.5" fill-rule="nonzero"/><path stroke="#cccccc" stroke-width="1.0" stroke-linecap="butt" d="M233.5 82.5L233.5 281.5" fill-rule="nonzero"/><path stroke="#cccccc" stroke-width="1.0" stroke-linecap="butt" d="M382.5 82.5L382.5 281.5" fill-rule="nonzero"/><path stroke="#cccccc" stroke-width="1.0" stroke-linecap="butt" d="M531.5 82.5L531.5 281.5" fill-rule="nonzero"/><path stroke="#cccccc" stroke-width="1.0" stroke-linecap="butt" d="M681.5 82.5L681.5 281.5" fill-rule="nonzero"/><path stroke="#333333" stroke-width="1.0" stroke-linecap="butt" d="M83.5 281.5L687.5 281.5" fill-rule="nonzero"/><path stroke="#cccccc" stroke-width="1.0" stroke-linecap="butt" d="M83.5 231.5L687.5 231.5" fill-rule="nonzero"/><path stroke="#cccccc" stroke-width="1.0" stroke-linecap="butt" d="M83.5 182.5L687.5 182.5" fill-rule="nonzero"/><path stroke="#cccccc" stroke-width="1.0" stroke-linecap="butt" d="M83.5 132.5L687.5 132.5" fill-rule="nonzero"/><path stroke="#cccccc" stroke-width="1.0" stroke-linecap="butt" d="M83.5 82.5L687.5 82.5" fill-rule="nonzero"/><clipPath id="id_0"><path d="M83.55 82.95L687.45 82.95L687.45 281.45L83.55 281.45L83.55 82.95Z" clip-rule="nonzero"/></clipPath><path stroke="#4285f4" stroke-width="2.0" stroke-linecap="butt" stroke-opacity="0.4" clip-path="url(#id_0)" d="M0 124.0067L687.45 116.189" fill-rule="nonzero"/><path fill="#4285f4" clip-path="url(#id_0)" d="M94.029205 153.36787C94.029205 155.85315 92.01449 157.86787 89.529205 157.86787C87.04393 157.86787 85.029205 155.85315 85.029205 153.36787C85.029205 150.8826 87.04393 148.86787 89.529205 148.86787C92.01449 148.86787 94.029205 150.8826 94.029205 153.36787Z" fill-rule="nonzero"/><path fill="#4285f4" clip-path="url(#id_0)" d="M94.029205 91.904335C94.029205 94.38962 92.01449 96.404335 89.529205 96.404335C87.04393 96.404335 85.029205 94.38962 85.029205 91.904335C85.029205 89.41905 87.04393 87.404335 89.529205 87.404335C92.01449 87.404335 94.029205 89.41905 94.029205 91.904335Z" fill-rule="nonzero"/><path fill="#4285f4" clip-path="url(#id_0)" d="M94.029205 138.63719C94.029205 141.12247 92.01449 143.13719 89.529205 143.13719C87.04393 143.13719 85.029205 141.12247 85.029205 138.63719C85.029205 136.1519 87.04393 134.13719 89.529205 134.13719C92.01449 134.13719 94.029205 136.1519 94.029205 138.63719Z" fill-rule="nonzero"/><path fill="#4285f4" clip-path="url(#id_0)" d="M147.84209 98.06458C147.84209 100.549866 145.82736 102.56458 143.34209 102.56458C140.8568 102.56458 138.84209 100.549866 138.84209 98.06458C138.84209 95.5793 140.8568 93.56458 143.34209 93.56458C145.82736 93.56458 147.84209 95.5793 147.84209 98.06458Z" fill-rule="nonzero"/><path fill="#4285f4" clip-path="url(#id_0)" d="M147.84209 130.25056C147.84209 132.73584 145.82736 134.75056 143.34209 134.75056C140.8568 134.75056 138.84209 132.73584 138.84209 130.25056C138.84209 127.76528 140.8568 125.750565 143.34209 125.750565C145.82736 125.750565 147.84209 127.76528 147.84209 130.25056Z" fill-rule="nonzero"/><path fill="#4285f4" clip-path="url(#id_0)" d="M685.97076 118.37538C685.97076 120.860664 683.95605 122.87538 681.47076 122.87538C678.98553 122.87538 676.97076 120.860664 676.97076 118.37538C676.97076 115.8901 678.98553 113.87538 681.47076 113.87538C683.95605 113.87538 685.97076 115.8901 685.97076 118.37538Z" fill-rule="nonzero"/><path fill="#4285f4" clip-path="url(#id_0)" d="M685.97076 115.63299C685.97076 118.11826 683.95605 120.13299 681.47076 120.13299C678.98553 120.13299 676.97076 118.11826 676.97076 115.63299C676.97076 113.147705 678.98553 111.13299 681.47076 111.13299C683.95605 111.13299 685.97076 113.147705 685.97076 115.63299Z" fill-rule="nonzero"/><path fill="#000000" d="M381.92188 330.45L381.92188 321.85626L383.07812 321.85626L387.59375 328.60626L387.59375 321.85626L388.6875 321.85626L388.6875 330.45L387.51562 330.45L383.0 323.7L383.0 330.45L381.92188 330.45Z" fill-rule="nonzero"/><path fill="#000000" d="M28.550013 203.90312L22.331263 203.90312L22.331263 202.96562L23.206263 202.96562Q22.190638 202.27812 22.190638 200.98125Q22.190638 200.41875 22.393763 199.95Q22.596888 199.46562 22.925013 199.23125Q23.253138 198.99687 23.690638 198.90312Q23.987513 198.85625 24.721888 198.85625L28.550013 198.85625L28.550013 199.90312L24.768763 199.90312Q24.112513 199.90312 23.800013 200.02812Q23.487513 200.15312 23.300013 200.46562Q23.096888 200.77812 23.096888 201.2Q23.096888 201.87187 23.534388 202.37187Q23.956263 202.85625 25.143763 202.85625L28.550013 202.85625L28.550013 203.90312ZM26.690638 197.325L26.534388 196.29375Q27.159388 196.2 27.487513 195.80937Q27.815638 195.40312 27.815638 194.66875Q27.815638 193.95 27.534388 193.60625Q27.237513 193.24687 26.831263 193.24687Q26.471888 193.24687 26.268763 193.55937Q26.128138 193.77812 25.909388 194.6375Q25.612513 195.79375 25.409388 196.24687Q25.190638 196.68437 24.815638 196.91875Q24.440638 197.15312 23.971888 197.15312Q23.565638 197.15312 23.206263 196.96562Q22.846888 196.77812 22.612513 196.45Q22.440638 196.2 22.315638 195.77812Q22.190638 195.35625 22.190638 194.85625Q22.190638 194.1375 22.409388 193.59062Q22.612513 193.02812 22.971888 192.7625Q23.331263 192.49687 23.925013 192.40312L24.065638 193.43437Q23.596888 193.49687 23.331263 193.84062Q23.050013 194.16875 23.050013 194.79375Q23.050013 195.5125 23.300013 195.825Q23.534388 196.1375 23.862513 196.1375Q24.065638 196.1375 24.221888 196.0125Q24.393763 195.87187 24.503138 195.60625Q24.565638 195.45 24.768763 194.66875Q25.081263 193.54375 25.268763 193.10625Q25.456263 192.66875 25.815638 192.41875Q26.175013 192.16875 26.721888 192.16875Q27.253138 192.16875 27.721888 192.48125Q28.175013 192.77812 28.440638 193.35625Q28.690638 193.93437 28.690638 194.66875Q28.690638 195.8875 28.190638 196.52812Q27.675013 197.15312 26.690638 197.325ZM28.690638 187.7L19.815638 185.21562L19.815638 184.37187L28.690638 186.85625L28.690638 187.7ZM28.550013 180.77812L19.956263 180.77812L19.956263 179.62187L26.706263 175.10625L19.956263 175.10625L19.956263 174.0125L28.550013 174.0125L28.550013 175.18437L21.800013 179.7L28.550013 179.7L28.550013 180.77812Z" fill-rule="nonzero"/><path fill="#000000" d="M71.05 281.21564Q71.05 279.6844 71.3625 278.7625Q71.675 277.825 72.28438 277.325Q72.90938 276.825 73.84688 276.825Q74.53438 276.825 75.05 277.10626Q75.58125 277.3875 75.925 277.91876Q76.26875 278.4344 76.45625 279.1844Q76.64375 279.9344 76.64375 281.21564Q76.64375 282.73126 76.33125 283.65314Q76.03438 284.575 75.40938 285.09064Q74.8 285.59064 73.84688 285.59064Q72.6125 285.59064 71.89375 284.7Q71.05 283.6375 71.05 281.21564ZM72.12813 281.21564Q72.12813 283.325 72.62813 284.02814Q73.12813 284.73126 73.84688 284.73126Q74.58125 284.73126 75.06563 284.02814Q75.56563 283.325 75.56563 281.21564Q75.56563 279.09064 75.06563 278.40314Q74.58125 277.7 73.83125 277.7Q73.1125 277.7 72.675 278.3094Q72.12813 279.09064 72.12813 281.21564Z" fill-rule="nonzero"/><path fill="#000000" d="M62.596874 234.80937L62.596874 235.825L56.909374 235.825Q56.909374 235.45 57.034374 235.09062Q57.253124 234.5125 57.721874 233.95Q58.20625 233.3875 59.1125 232.65312Q60.51875 231.49687 61.003124 230.825Q61.503124 230.15312 61.503124 229.55937Q61.503124 228.93437 61.05 228.5125Q60.596874 228.075 59.878124 228.075Q59.1125 228.075 58.659374 228.52812Q58.20625 228.98125 58.190624 229.79375L57.1125 229.68437Q57.221874 228.46562 57.940624 227.84062Q58.675 227.2 59.909374 227.2Q61.14375 227.2 61.8625 227.8875Q62.58125 228.575 62.58125 229.59062Q62.58125 230.10625 62.3625 230.60625Q62.159374 231.09062 61.659374 231.65312Q61.175 232.2 60.05 233.15312Q59.096874 233.95 58.815624 234.24687Q58.55 234.52812 58.378124 234.80937L62.596874 234.80937ZM64.05 233.575L65.15938 233.48125Q65.28438 234.29375 65.72188 234.7Q66.175 235.10625 66.81563 235.10625Q67.56563 235.10625 68.09688 234.52812Q68.62813 233.95 68.62813 233.0125Q68.62813 232.10625 68.1125 231.59062Q67.6125 231.05937 66.78438 231.05937Q66.28438 231.05937 65.8625 231.29375Q65.45625 231.52812 65.22188 231.8875L64.2375 231.7625L65.06563 227.35625L69.34688 227.35625L69.34688 228.35625L65.90938 228.35625L65.45625 230.66875Q66.22188 230.12187 67.06563 230.12187Q68.19063 230.12187 68.95625 230.90312Q69.7375 231.68437 69.7375 232.91875Q69.7375 234.075 69.06563 234.93437Q68.2375 235.96562 66.81563 235.96562Q65.64375 235.96562 64.89375 235.30937Q64.15938 234.65312 64.05 233.575ZM71.05 231.59062Q71.05 230.05937 71.3625 229.1375Q71.675 228.2 72.28438 227.7Q72.90938 227.2 73.84688 227.2Q74.53438 227.2 75.05 227.48125Q75.58125 227.7625 75.925 228.29375Q76.26875 228.80937 76.45625 229.55937Q76.64375 230.30937 76.64375 231.59062Q76.64375 233.10625 76.33125 234.02812Q76.03438 234.95 75.40938 235.46562Q74.8 235.96562 73.84688 235.96562Q72.6125 235.96562 71.89375 235.075Q71.05 234.0125 71.05 231.59062ZM72.12813 231.59062Q72.12813 233.7 72.62813 234.40312Q73.12813 235.10625 73.84688 235.10625Q74.58125 235.10625 75.06563 234.40312Q75.56563 233.7 75.56563 231.59062Q75.56563 229.46562 75.06563 228.77812Q74.58125 228.075 73.83125 228.075Q73.1125 228.075 72.675 228.68437Q72.12813 229.46562 72.12813 231.59062Z" fill-rule="nonzero"/><path fill="#000000" d="M57.05 183.95L58.159374 183.85625Q58.284374 184.66875 58.721874 185.075Q59.175 185.48125 59.815624 185.48125Q60.565624 185.48125 61.096874 184.90312Q61.628124 184.325 61.628124 183.3875Q61.628124 182.48125 61.1125 181.96562Q60.6125 181.43437 59.784374 181.43437Q59.284374 181.43437 58.8625 181.66875Q58.45625 181.90312 58.221874 182.2625L57.2375 182.1375L58.065624 177.73125L62.346874 177.73125L62.346874 178.73125L58.909374 178.73125L58.45625 181.04375Q59.221874 180.49687 60.065624 180.49687Q61.190624 180.49687 61.95625 181.27812Q62.7375 182.05937 62.7375 183.29375Q62.7375 184.45 62.065624 185.30937Q61.2375 186.34062 59.815624 186.34062Q58.64375 186.34062 57.89375 185.68437Q57.159374 185.02812 57.05 183.95ZM64.05 181.96562Q64.05 180.43437 64.3625 179.5125Q64.675 178.575 65.28438 178.075Q65.90938 177.575 66.84688 177.575Q67.53438 177.575 68.05 177.85625Q68.58125 178.1375 68.925 178.66875Q69.26875 179.18437 69.45625 179.93437Q69.64375 180.68437 69.64375 181.96562Q69.64375 183.48125 69.33125 184.40312Q69.03438 185.325 68.40938 185.84062Q67.8 186.34062 66.84688 186.34062Q65.6125 186.34062 64.89375 185.45Q64.05 184.3875 64.05 181.96562ZM65.12813 181.96562Q65.12813 184.075 65.62813 184.77812Q66.12813 185.48125 66.84688 185.48125Q67.58125 185.48125 68.06563 184.77812Q68.56563 184.075 68.56563 181.96562Q68.56563 179.84062 68.06563 179.15312Q67.58125 178.45 66.83125 178.45Q66.1125 178.45 65.675 179.05937Q65.12813 179.84062 65.12813 181.96562ZM71.05 181.96562Q71.05 180.43437 71.3625 179.5125Q71.675 178.575 72.28438 178.075Q72.90938 177.575 73.84688 177.575Q74.53438 177.575 75.05 177.85625Q75.58125 178.1375 75.925 178.66875Q76.26875 179.18437 76.45625 179.93437Q76.64375 180.68437 76.64375 181.96562Q76.64375 183.48125 76.33125 184.40312Q76.03438 185.325 75.40938 185.84062Q74.8 186.34062 73.84688 186.34062Q72.6125 186.34062 71.89375 185.45Q71.05 184.3875 71.05 181.96562ZM72.12813 181.96562Q72.12813 184.075 72.62813 184.77812Q73.12813 185.48125 73.84688 185.48125Q74.58125 185.48125 75.06563 184.77812Q75.56563 184.075 75.56563 181.96562Q75.56563 179.84062 75.06563 179.15312Q74.58125 178.45 73.83125 178.45Q73.1125 178.45 72.675 179.05937Q72.12813 179.84062 72.12813 181.96562Z" fill-rule="nonzero"/><path fill="#000000" d="M57.1125 129.10625L57.1125 128.09062L62.675 128.09062L62.675 128.91875Q61.8625 129.79375 61.05 131.24687Q60.253124 132.68437 59.815624 134.21562Q59.4875 135.29375 59.409374 136.575L58.315624 136.575Q58.33125 135.55937 58.70625 134.12187Q59.096874 132.68437 59.8 131.35625Q60.51875 130.02812 61.33125 129.10625L57.1125 129.10625ZM64.05 134.325L65.15938 134.23125Q65.28438 135.04375 65.72188 135.45Q66.175 135.85625 66.81563 135.85625Q67.56563 135.85625 68.09688 135.27812Q68.62813 134.7 68.62813 133.7625Q68.62813 132.85625 68.1125 132.34062Q67.6125 131.80937 66.78438 131.80937Q66.28438 131.80937 65.8625 132.04375Q65.45625 132.27812 65.22188 132.6375L64.2375 132.5125L65.06563 128.10625L69.34688 128.10625L69.34688 129.10625L65.90938 129.10625L65.45625 131.41875Q66.22188 130.87187 67.06563 130.87187Q68.19063 130.87187 68.95625 131.65312Q69.7375 132.43437 69.7375 133.66875Q69.7375 134.825 69.06563 135.68437Q68.2375 136.71562 66.81563 136.71562Q65.64375 136.71562 64.89375 136.05937Q64.15938 135.40312 64.05 134.325ZM71.05 132.34062Q71.05 130.80937 71.3625 129.8875Q71.675 128.95 72.28438 128.45Q72.90938 127.95 73.84688 127.95Q74.53438 127.95 75.05 128.23125Q75.58125 128.5125 75.925 129.04375Q76.26875 129.55937 76.45625 130.30937Q76.64375 131.05937 76.64375 132.34062Q76.64375 133.85625 76.33125 134.77812Q76.03438 135.7 75.40938 136.21562Q74.8 136.71562 73.84688 136.71562Q72.6125 136.71562 71.89375 135.825Q71.05 134.7625 71.05 132.34062ZM72.12813 132.34062Q72.12813 134.45 72.62813 135.15312Q73.12813 135.85625 73.84688 135.85625Q74.58125 135.85625 75.06563 135.15312Q75.56563 134.45 75.56563 132.34062Q75.56563 130.21562 75.06563 129.52812Q74.58125 128.825 73.83125 128.825Q73.1125 128.825 72.675 129.43437Q72.12813 130.21562 72.12813 132.34062Z" fill-rule="nonzero"/><path fill="#000000" d="M54.01875 86.95L52.971874 86.95L52.971874 80.23125Q52.58125 80.59062 51.95625 80.96562Q51.346874 81.325 50.8625 81.49687L50.8625 80.48125Q51.7375 80.05937 52.39375 79.48125Q53.065624 78.8875 53.346874 78.325L54.01875 78.325L54.01875 86.95ZM57.05 82.71562Q57.05 81.18437 57.3625 80.2625Q57.675 79.325 58.284374 78.825Q58.909374 78.325 59.846874 78.325Q60.534374 78.325 61.05 78.60625Q61.58125 78.8875 61.925 79.41875Q62.26875 79.93437 62.45625 80.68437Q62.64375 81.43437 62.64375 82.71562Q62.64375 84.23125 62.33125 85.15312Q62.034374 86.075 61.409374 86.59062Q60.8 87.09062 59.846874 87.09062Q58.6125 87.09062 57.89375 86.2Q57.05 85.1375 57.05 82.71562ZM58.128124 82.71562Q58.128124 84.825 58.628124 85.52812Q59.128124 86.23125 59.846874 86.23125Q60.58125 86.23125 61.065624 85.52812Q61.565624 84.825 61.565624 82.71562Q61.565624 80.59062 61.065624 79.90312Q60.58125 79.2 59.83125 79.2Q59.1125 79.2 58.675 79.80937Q58.128124 80.59062 58.128124 82.71562ZM64.05 82.71562Q64.05 81.18437 64.3625 80.2625Q64.675 79.325 65.28438 78.825Q65.90938 78.325 66.84688 78.325Q67.53438 78.325 68.05 78.60625Q68.58125 78.8875 68.925 79.41875Q69.26875 79.93437 69.45625 80.68437Q69.64375 81.43437 69.64375 82.71562Q69.64375 84.23125 69.33125 85.15312Q69.03438 86.075 68.40938 86.59062Q67.8 87.09062 66.84688 87.09062Q65.6125 87.09062 64.89375 86.2Q64.05 85.1375 64.05 82.71562ZM65.12813 82.71562Q65.12813 84.825 65.62813 85.52812Q66.12813 86.23125 66.84688 86.23125Q67.58125 86.23125 68.06563 85.52812Q68.56563 84.825 68.56563 82.71562Q68.56563 80.59062 68.06563 79.90312Q67.58125 79.2 66.83125 79.2Q66.1125 79.2 65.675 79.80937Q65.12813 80.59062 65.12813 82.71562ZM71.05 82.71562Q71.05 81.18437 71.3625 80.2625Q71.675 79.325 72.28438 78.825Q72.90938 78.325 73.84688 78.325Q74.53438 78.325 75.05 78.60625Q75.58125 78.8875 75.925 79.41875Q76.26875 79.93437 76.45625 80.68437Q76.64375 81.43437 76.64375 82.71562Q76.64375 84.23125 76.33125 85.15312Q76.03438 86.075 75.40938 86.59062Q74.8 87.09062 73.84688 87.09062Q72.6125 87.09062 71.89375 86.2Q71.05 85.1375 71.05 82.71562ZM72.12813 82.71562Q72.12813 84.825 72.62813 85.52812Q73.12813 86.23125 73.84688 86.23125Q74.58125 86.23125 75.06563 85.52812Q75.56563 84.825 75.56563 82.71562Q75.56563 80.59062 75.06563 79.90312Q74.58125 79.2 73.83125 79.2Q73.1125 79.2 72.675 79.80937Q72.12813 80.59062 72.12813 82.71562Z" fill-rule="nonzero"/><path fill="#000000" d="M80.55 294.21564Q80.55 292.6844 80.8625 291.7625Q81.175 290.825 81.78438 290.325Q82.40938 289.825 83.34688 289.825Q84.03438 289.825 84.55 290.10626Q85.08125 290.3875 85.425 290.91876Q85.76875 291.4344 85.95625 292.1844Q86.14375 292.9344 86.14375 294.21564Q86.14375 295.73126 85.83125 296.65314Q85.53438 297.575 84.90938 298.09064Q84.3 298.59064 83.34688 298.59064Q82.1125 298.59064 81.39375 297.7Q80.55 296.6375 80.55 294.21564ZM81.62813 294.21564Q81.62813 296.325 82.12813 297.02814Q82.62813 297.73126 83.34688 297.73126Q84.08125 297.73126 84.56563 297.02814Q85.06563 296.325 85.06563 294.21564Q85.06563 292.09064 84.56563 291.40314Q84.08125 290.7 83.33125 290.7Q82.6125 290.7 82.175 291.3094Q81.62813 292.09064 81.62813 294.21564Z" fill-rule="nonzero"/><path fill="#000000" d="M218.07707 297.4344L218.07707 298.45L212.38957 298.45Q212.38957 298.075 212.51457 297.71564Q212.73332 297.1375 213.20207 296.575Q213.68645 296.0125 214.5927 295.27814Q215.99895 294.1219 216.48332 293.45Q216.98332 292.77814 216.98332 292.1844Q216.98332 291.5594 216.5302 291.1375Q216.07707 290.7 215.35832 290.7Q214.5927 290.7 214.13957 291.15314Q213.68645 291.60626 213.67082 292.41876L212.5927 292.3094Q212.70207 291.09064 213.42082 290.46564Q214.1552 289.825 215.38957 289.825Q216.62395 289.825 217.3427 290.5125Q218.06145 291.2 218.06145 292.21564Q218.06145 292.73126 217.8427 293.23126Q217.63957 293.71564 217.13957 294.27814Q216.6552 294.825 215.5302 295.77814Q214.57707 296.575 214.29582 296.8719Q214.0302 297.15314 213.85832 297.4344L218.07707 297.4344ZM219.5302 296.2L220.63957 296.10626Q220.76457 296.91876 221.20207 297.325Q221.6552 297.73126 222.29582 297.73126Q223.04582 297.73126 223.57707 297.15314Q224.10832 296.575 224.10832 295.6375Q224.10832 294.73126 223.5927 294.21564Q223.0927 293.6844 222.26457 293.6844Q221.76457 293.6844 221.3427 293.91876Q220.93645 294.15314 220.70207 294.5125L219.7177 294.3875L220.54582 289.98126L224.82707 289.98126L224.82707 290.98126L221.38957 290.98126L220.93645 293.29376Q221.70207 292.7469 222.54582 292.7469Q223.67082 292.7469 224.43645 293.52814Q225.2177 294.3094 225.2177 295.54376Q225.2177 296.7 224.54582 297.5594Q223.7177 298.59064 222.29582 298.59064Q221.12395 298.59064 220.37395 297.9344Q219.63957 297.27814 219.5302 296.2ZM226.5302 294.21564Q226.5302 292.6844 226.8427 291.7625Q227.1552 290.825 227.76457 290.325Q228.38957 289.825 229.32707 289.825Q230.01457 289.825 230.5302 290.10626Q231.06145 290.3875 231.4052 290.91876Q231.74895 291.4344 231.93645 292.1844Q232.12395 292.9344 232.12395 294.21564Q232.12395 295.73126 231.81145 296.65314Q231.51457 297.575 230.88957 298.09064Q230.2802 298.59064 229.32707 298.59064Q228.0927 298.59064 227.37395 297.7Q226.5302 296.6375 226.5302 294.21564ZM227.60832 294.21564Q227.60832 296.325 228.10832 297.02814Q228.60832 297.73126 229.32707 297.73126Q230.06145 297.73126 230.54582 297.02814Q231.04582 296.325 231.04582 294.21564Q231.04582 292.09064 230.54582 291.40314Q230.06145 290.7 229.31145 290.7Q228.5927 290.7 228.1552 291.3094Q227.60832 292.09064 227.60832 294.21564ZM233.5302 294.21564Q233.5302 292.6844 233.8427 291.7625Q234.1552 290.825 234.76457 290.325Q235.38957 289.825 236.32707 289.825Q237.01457 289.825 237.5302 290.10626Q238.06145 290.3875 238.4052 290.91876Q238.74895 291.4344 238.93645 292.1844Q239.12395 292.9344 239.12395 294.21564Q239.12395 295.73126 238.81145 296.65314Q238.51457 297.575 237.88957 298.09064Q237.2802 298.59064 236.32707 298.59064Q235.0927 298.59064 234.37395 297.7Q233.5302 296.6375 233.5302 294.21564ZM234.60832 294.21564Q234.60832 296.325 235.10832 297.02814Q235.60832 297.73126 236.32707 297.73126Q237.06145 297.73126 237.54582 297.02814Q238.04582 296.325 238.04582 294.21564Q238.04582 292.09064 237.54582 291.40314Q237.06145 290.7 236.31145 290.7Q235.5927 290.7 235.1552 291.3094Q234.60832 292.09064 234.60832 294.21564ZM240.5302 294.21564Q240.5302 292.6844 240.8427 291.7625Q241.1552 290.825 241.76457 290.325Q242.38957 289.825 243.32707 289.825Q244.01457 289.825 244.5302 290.10626Q245.06145 290.3875 245.4052 290.91876Q245.74895 291.4344 245.93645 292.1844Q246.12395 292.9344 246.12395 294.21564Q246.12395 295.73126 245.81145 296.65314Q245.51457 297.575 244.88957 298.09064Q244.2802 298.59064 243.32707 298.59064Q242.0927 298.59064 241.37395 297.7Q240.5302 296.6375 240.5302 294.21564ZM241.60832 294.21564Q241.60832 296.325 242.10832 297.02814Q242.60832 297.73126 243.32707 297.73126Q244.06145 297.73126 244.54582 297.02814Q245.04582 296.325 245.04582 294.21564Q245.04582 292.09064 244.54582 291.40314Q244.06145 290.7 243.31145 290.7Q242.5927 290.7 242.1552 291.3094Q241.60832 292.09064 241.60832 294.21564ZM247.5302 294.21564Q247.5302 292.6844 247.8427 291.7625Q248.1552 290.825 248.76457 290.325Q249.38957 289.825 250.32707 289.825Q251.01457 289.825 251.5302 290.10626Q252.06145 290.3875 252.4052 290.91876Q252.74895 291.4344 252.93645 292.1844Q253.12395 292.9344 253.12395 294.21564Q253.12395 295.73126 252.81145 296.65314Q252.51457 297.575 251.88957 298.09064Q251.2802 298.59064 250.32707 298.59064Q249.0927 298.59064 248.37395 297.7Q247.5302 296.6375 247.5302 294.21564ZM248.60832 294.21564Q248.60832 296.325 249.10832 297.02814Q249.60832 297.73126 250.32707 297.73126Q251.06145 297.73126 251.54582 297.02814Q252.04582 296.325 252.04582 294.21564Q252.04582 292.09064 251.54582 291.40314Q251.06145 290.7 250.31145 290.7Q249.5927 290.7 249.1552 291.3094Q248.60832 292.09064 248.60832 294.21564Z" fill-rule="nonzero"/><path fill="#000000" d="M362.0104 296.2L363.11978 296.10626Q363.24478 296.91876 363.68228 297.325Q364.1354 297.73126 364.77603 297.73126Q365.52603 297.73126 366.05728 297.15314Q366.58853 296.575 366.58853 295.6375Q366.58853 294.73126 366.0729 294.21564Q365.5729 293.6844 364.74478 293.6844Q364.24478 293.6844 363.8229 293.91876Q363.41666 294.15314 363.18228 294.5125L362.1979 294.3875L363.02603 289.98126L367.30728 289.98126L367.30728 290.98126L363.86978 290.98126L363.41666 293.29376Q364.18228 292.7469 365.02603 292.7469Q366.15103 292.7469 366.91666 293.52814Q367.6979 294.3094 367.6979 295.54376Q367.6979 296.7 367.02603 297.5594Q366.1979 298.59064 364.77603 298.59064Q363.60416 298.59064 362.85416 297.9344Q362.11978 297.27814 362.0104 296.2ZM369.0104 294.21564Q369.0104 292.6844 369.3229 291.7625Q369.6354 290.825 370.24478 290.325Q370.86978 289.825 371.80728 289.825Q372.49478 289.825 373.0104 290.10626Q373.54166 290.3875 373.8854 290.91876Q374.22916 291.4344 374.41666 292.1844Q374.60416 292.9344 374.60416 294.21564Q374.60416 295.73126 374.29166 296.65314Q373.99478 297.575 373.36978 298.09064Q372.7604 298.59064 371.80728 298.59064Q370.5729 298.59064 369.85416 297.7Q369.0104 296.6375 369.0104 294.21564ZM370.08853 294.21564Q370.08853 296.325 370.58853 297.02814Q371.08853 297.73126 371.80728 297.73126Q372.54166 297.73126 373.02603 297.02814Q373.52603 296.325 373.52603 294.21564Q373.52603 292.09064 373.02603 291.40314Q372.54166 290.7 371.79166 290.7Q371.0729 290.7 370.6354 291.3094Q370.08853 292.09064 370.08853 294.21564ZM376.0104 294.21564Q376.0104 292.6844 376.3229 291.7625Q376.6354 290.825 377.24478 290.325Q377.86978 289.825 378.80728 289.825Q379.49478 289.825 380.0104 290.10626Q380.54166 290.3875 380.8854 290.91876Q381.22916 291.4344 381.41666 292.1844Q381.60416 292.9344 381.60416 294.21564Q381.60416 295.73126 381.29166 296.65314Q380.99478 297.575 380.36978 298.09064Q379.7604 298.59064 378.80728 298.59064Q377.5729 298.59064 376.85416 297.7Q376.0104 296.6375 376.0104 294.21564ZM377.08853 294.21564Q377.08853 296.325 377.58853 297.02814Q378.08853 297.73126 378.80728 297.73126Q379.54166 297.73126 380.02603 297.02814Q380.52603 296.325 380.52603 294.21564Q380.52603 292.09064 380.02603 291.40314Q379.54166 290.7 378.79166 290.7Q378.0729 290.7 377.6354 291.3094Q377.08853 292.09064 377.08853 294.21564ZM383.0104 294.21564Q383.0104 292.6844 383.3229 291.7625Q383.6354 290.825 384.24478 290.325Q384.86978 289.825 385.80728 289.825Q386.49478 289.825 387.0104 290.10626Q387.54166 290.3875 387.8854 290.91876Q388.22916 291.4344 388.41666 292.1844Q388.60416 292.9344 388.60416 294.21564Q388.60416 295.73126 388.29166 296.65314Q387.99478 297.575 387.36978 298.09064Q386.7604 298.59064 385.80728 298.59064Q384.5729 298.59064 383.85416 297.7Q383.0104 296.6375 383.0104 294.21564ZM384.08853 294.21564Q384.08853 296.325 384.58853 297.02814Q385.08853 297.73126 385.80728 297.73126Q386.54166 297.73126 387.02603 297.02814Q387.52603 296.325 387.52603 294.21564Q387.52603 292.09064 387.02603 291.40314Q386.54166 290.7 385.79166 290.7Q385.0729 290.7 384.6354 291.3094Q384.08853 292.09064 384.08853 294.21564ZM390.0104 294.21564Q390.0104 292.6844 390.3229 291.7625Q390.6354 290.825 391.24478 290.325Q391.86978 289.825 392.80728 289.825Q393.49478 289.825 394.0104 290.10626Q394.54166 290.3875 394.8854 290.91876Q395.22916 291.4344 395.41666 292.1844Q395.60416 292.9344 395.60416 294.21564Q395.60416 295.73126 395.29166 296.65314Q394.99478 297.575 394.36978 298.09064Q393.7604 298.59064 392.80728 298.59064Q391.5729 298.59064 390.85416 297.7Q390.0104 296.6375 390.0104 294.21564ZM391.08853 294.21564Q391.08853 296.325 391.58853 297.02814Q392.08853 297.73126 392.80728 297.73126Q393.54166 297.73126 394.02603 297.02814Q394.52603 296.325 394.52603 294.21564Q394.52603 292.09064 394.02603 291.40314Q393.54166 290.7 392.79166 290.7Q392.0729 290.7 391.6354 291.3094Q391.08853 292.09064 391.08853 294.21564ZM397.0104 294.21564Q397.0104 292.6844 397.3229 291.7625Q397.6354 290.825 398.24478 290.325Q398.86978 289.825 399.80728 289.825Q400.49478 289.825 401.0104 290.10626Q401.54166 290.3875 401.8854 290.91876Q402.22916 291.4344 402.41666 292.1844Q402.60416 292.9344 402.60416 294.21564Q402.60416 295.73126 402.29166 296.65314Q401.99478 297.575 401.36978 298.09064Q400.7604 298.59064 399.80728 298.59064Q398.5729 298.59064 397.85416 297.7Q397.0104 296.6375 397.0104 294.21564ZM398.08853 294.21564Q398.08853 296.325 398.58853 297.02814Q399.08853 297.73126 399.80728 297.73126Q400.54166 297.73126 401.02603 297.02814Q401.52603 296.325 401.52603 294.21564Q401.52603 292.09064 401.02603 291.40314Q400.54166 290.7 399.79166 290.7Q399.0729 290.7 398.6354 291.3094Q398.08853 292.09064 398.08853 294.21564Z" fill-rule="nonzero"/><path fill="#000000" d="M511.5531 290.98126L511.5531 289.96564L517.1156 289.96564L517.1156 290.79376Q516.3031 291.66876 515.4906 293.1219Q514.6937 294.5594 514.2562 296.09064Q513.9281 297.16876 513.85 298.45L512.7562 298.45Q512.77185 297.4344 513.14685 295.9969Q513.5375 294.5594 514.2406 293.23126Q514.95935 291.90314 515.77185 290.98126L511.5531 290.98126ZM518.4906 296.2L519.6 296.10626Q519.725 296.91876 520.1625 297.325Q520.6156 297.73126 521.2562 297.73126Q522.0062 297.73126 522.5375 297.15314Q523.0687 296.575 523.0687 295.6375Q523.0687 294.73126 522.5531 294.21564Q522.0531 293.6844 521.225 293.6844Q520.725 293.6844 520.3031 293.91876Q519.89685 294.15314 519.6625 294.5125L518.6781 294.3875L519.5062 289.98126L523.7875 289.98126L523.7875 290.98126L520.35 290.98126L519.89685 293.29376Q520.6625 292.7469 521.5062 292.7469Q522.6312 292.7469 523.39685 293.52814Q524.1781 294.3094 524.1781 295.54376Q524.1781 296.7 523.5062 297.5594Q522.6781 298.59064 521.2562 298.59064Q520.08435 298.59064 519.33435 297.9344Q518.6 297.27814 518.4906 296.2ZM525.4906 294.21564Q525.4906 292.6844 525.8031 291.7625Q526.1156 290.825 526.725 290.325Q527.35 289.825 528.2875 289.825Q528.975 289.825 529.4906 290.10626Q530.02185 290.3875 530.3656 290.91876Q530.70935 291.4344 530.89685 292.1844Q531.08435 292.9344 531.08435 294.21564Q531.08435 295.73126 530.77185 296.65314Q530.475 297.575 529.85 298.09064Q529.2406 298.59064 528.2875 298.59064Q527.0531 298.59064 526.33435 297.7Q525.4906 296.6375 525.4906 294.21564ZM526.5687 294.21564Q526.5687 296.325 527.0687 297.02814Q527.5687 297.73126 528.2875 297.73126Q529.02185 297.73126 529.5062 297.02814Q530.0062 296.325 530.0062 294.21564Q530.0062 292.09064 529.5062 291.40314Q529.02185 290.7 528.27185 290.7Q527.5531 290.7 527.1156 291.3094Q526.5687 292.09064 526.5687 294.21564ZM532.4906 294.21564Q532.4906 292.6844 532.8031 291.7625Q533.1156 290.825 533.725 290.325Q534.35 289.825 535.2875 289.825Q535.975 289.825 536.4906 290.10626Q537.02185 290.3875 537.3656 290.91876Q537.70935 291.4344 537.89685 292.1844Q538.08435 292.9344 538.08435 294.21564Q538.08435 295.73126 537.77185 296.65314Q537.475 297.575 536.85 298.09064Q536.2406 298.59064 535.2875 298.59064Q534.0531 298.59064 533.33435 297.7Q532.4906 296.6375 532.4906 294.21564ZM533.5687 294.21564Q533.5687 296.325 534.0687 297.02814Q534.5687 297.73126 535.2875 297.73126Q536.02185 297.73126 536.5062 297.02814Q537.0062 296.325 537.0062 294.21564Q537.0062 292.09064 536.5062 291.40314Q536.02185 290.7 535.27185 290.7Q534.5531 290.7 534.1156 291.3094Q533.5687 292.09064 533.5687 294.21564ZM539.4906 294.21564Q539.4906 292.6844 539.8031 291.7625Q540.1156 290.825 540.725 290.325Q541.35 289.825 542.2875 289.825Q542.975 289.825 543.4906 290.10626Q544.02185 290.3875 544.3656 290.91876Q544.70935 291.4344 544.89685 292.1844Q545.08435 292.9344 545.08435 294.21564Q545.08435 295.73126 544.77185 296.65314Q544.475 297.575 543.85 298.09064Q543.2406 298.59064 542.2875 298.59064Q541.0531 298.59064 540.33435 297.7Q539.4906 296.6375 539.4906 294.21564ZM540.5687 294.21564Q540.5687 296.325 541.0687 297.02814Q541.5687 297.73126 542.2875 297.73126Q543.02185 297.73126 543.5062 297.02814Q544.0062 296.325 544.0062 294.21564Q544.0062 292.09064 543.5062 291.40314Q543.02185 290.7 542.27185 290.7Q541.5531 290.7 541.1156 291.3094Q540.5687 292.09064 540.5687 294.21564ZM546.4906 294.21564Q546.4906 292.6844 546.8031 291.7625Q547.1156 290.825 547.725 290.325Q548.35 289.825 549.2875 289.825Q549.975 289.825 550.4906 290.10626Q551.02185 290.3875 551.3656 290.91876Q551.70935 291.4344 551.89685 292.1844Q552.08435 292.9344 552.08435 294.21564Q552.08435 295.73126 551.77185 296.65314Q551.475 297.575 550.85 298.09064Q550.2406 298.59064 549.2875 298.59064Q548.0531 298.59064 547.33435 297.7Q546.4906 296.6375 546.4906 294.21564ZM547.5687 294.21564Q547.5687 296.325 548.0687 297.02814Q548.5687 297.73126 549.2875 297.73126Q550.02185 297.73126 550.5062 297.02814Q551.0062 296.325 551.0062 294.21564Q551.0062 292.09064 550.5062 291.40314Q550.02185 290.7 549.27185 290.7Q548.5531 290.7 548.1156 291.3094Q547.5687 292.09064 547.5687 294.21564Z" fill-rule="nonzero"/><path fill="#4285f4" d="M243.5 57.25C243.5 60.56371 240.8137 63.25 237.5 63.25C234.1863 63.25 231.5 60.56371 231.5 57.25C231.5 53.93629 234.1863 51.25 237.5 51.25C240.8137 51.25 243.5 53.93629 243.5 57.25Z" fill-rule="nonzero"/><path fill="#1a1a1a" d="M252.29688 61.25L252.29688 55.03125L253.23438 55.03125L253.23438 55.90625Q253.92188 54.890625 255.21875 54.890625Q255.78125 54.890625 256.25 55.09375Q256.73438 55.296875 256.96875 55.625Q257.20312 55.953125 257.29688 56.390625Q257.34375 56.6875 257.34375 57.421875L257.34375 61.25L256.29688 61.25L256.29688 57.46875Q256.29688 56.8125 256.17188 56.5Q256.04688 56.1875 255.73438 56.0Q255.42188 55.796875 255.0 55.796875Q254.32812 55.796875 253.82812 56.234375Q253.34375 56.65625 253.34375 57.84375L253.34375 61.25L252.29688 61.25ZM258.875 59.390625L259.90625 59.234375Q260.0 59.859375 260.39062 60.1875Q260.79688 60.515625 261.53125 60.515625Q262.25 60.515625 262.59375 60.234375Q262.95312 59.9375 262.95312 59.53125Q262.95312 59.171875 262.64062 58.96875Q262.42188 58.828125 261.5625 58.609375Q260.40625 58.3125 259.95312 58.109375Q259.51562 57.890625 259.28125 57.515625Q259.04688 57.140625 259.04688 56.671875Q259.04688 56.265625 259.23438 55.90625Q259.42188 55.546875 259.75 55.3125Q260.0 55.140625 260.42188 55.015625Q260.84375 54.890625 261.34375 54.890625Q262.0625 54.890625 262.60938 55.109375Q263.17188 55.3125 263.4375 55.671875Q263.70312 56.03125 263.79688 56.625L262.76562 56.765625Q262.70312 56.296875 262.35938 56.03125Q262.03125 55.75 261.40625 55.75Q260.6875 55.75 260.375 56.0Q260.0625 56.234375 260.0625 56.5625Q260.0625 56.765625 260.1875 56.921875Q260.32812 57.09375 260.59375 57.203125Q260.75 57.265625 261.53125 57.46875Q262.65625 57.78125 263.09375 57.96875Q263.53125 58.15625 263.78125 58.515625Q264.03125 58.875 264.03125 59.421875Q264.03125 59.953125 263.71875 60.421875Q263.42188 60.875 262.84375 61.140625Q262.26562 61.390625 261.53125 61.390625Q260.3125 61.390625 259.67188 60.890625Q259.04688 60.375 258.875 59.390625ZM268.5 61.390625L270.98438 52.515625L271.82812 52.515625L269.34375 61.390625L268.5 61.390625ZM275.42188 61.25L275.42188 52.65625L276.57812 52.65625L281.09375 59.40625L281.09375 52.65625L282.1875 52.65625L282.1875 61.25L281.01562 61.25L276.5 54.5L276.5 61.25L275.42188 61.25Z" fill-rule="nonzero"/><path stroke="#4285f4" stroke-width="4.0" stroke-linecap="butt" stroke-opacity="0.4" d="M299.5 57.25L311.5 57.25" fill-rule="nonzero"/><path fill="#1a1a1a" d="M320.0 58.984375L321.0625 58.84375Q321.23438 59.734375 321.67188 60.140625Q322.10938 60.53125 322.73438 60.53125Q323.48438 60.53125 324.0 60.015625Q324.51562 59.5 324.51562 58.734375Q324.51562 58.015625 324.03125 57.546875Q323.5625 57.0625 322.82812 57.0625Q322.53125 57.0625 322.07812 57.1875L322.20312 56.25Q322.3125 56.265625 322.375 56.265625Q323.04688 56.265625 323.57812 55.921875Q324.125 55.5625 324.125 54.828125Q324.125 54.25 323.73438 53.875Q323.34375 53.484375 322.71875 53.484375Q322.10938 53.484375 321.6875 53.875Q321.28125 54.265625 321.17188 55.03125L320.10938 54.84375Q320.29688 53.796875 320.98438 53.21875Q321.67188 52.625 322.6875 52.625Q323.39062 52.625 323.98438 52.9375Q324.57812 53.234375 324.89062 53.75Q325.20312 54.265625 325.20312 54.859375Q325.20312 55.40625 324.90625 55.875Q324.60938 56.328125 324.03125 56.59375Q324.78125 56.765625 325.20312 57.328125Q325.625 57.875 325.625 58.71875Q325.625 59.84375 324.79688 60.625Q323.98438 61.40625 322.73438 61.40625Q321.60938 61.40625 320.85938 60.734375Q320.10938 60.046875 320.0 58.984375ZM327.59375 61.25L327.59375 60.046875L328.79688 60.046875L328.79688 61.25L327.59375 61.25ZM333.375 61.25L333.375 59.1875L329.65625 59.1875L329.65625 58.21875L333.57812 52.65625L334.4375 52.65625L334.4375 58.21875L335.59375 58.21875L335.59375 59.1875L334.4375 59.1875L334.4375 61.25L333.375 61.25ZM333.375 58.21875L333.375 54.359375L330.6875 58.21875L333.375 58.21875ZM337.0 58.984375L338.0625 58.84375Q338.23438 59.734375 338.67188 60.140625Q339.10938 60.53125 339.73438 60.53125Q340.48438 60.53125 341.0 60.015625Q341.51562 59.5 341.51562 58.734375Q341.51562 58.015625 341.03125 57.546875Q340.5625 57.0625 339.82812 57.0625Q339.53125 57.0625 339.07812 57.1875L339.20312 56.25Q339.3125 56.265625 339.375 56.265625Q340.04688 56.265625 340.57812 55.921875Q341.125 55.5625 341.125 54.828125Q341.125 54.25 340.73438 53.875Q340.34375 53.484375 339.71875 53.484375Q339.10938 53.484375 338.6875 53.875Q338.28125 54.265625 338.17188 55.03125L337.10938 54.84375Q337.29688 53.796875 337.98438 53.21875Q338.67188 52.625 339.6875 52.625Q340.39062 52.625 340.98438 52.9375Q341.57812 53.234375 341.89062 53.75Q342.20312 54.265625 342.20312 54.859375Q342.20312 55.40625 341.90625 55.875Q341.60938 56.328125 341.03125 56.59375Q341.78125 56.765625 342.20312 57.328125Q342.625 57.875 342.625 58.71875Q342.625 59.84375 341.79688 60.625Q340.98438 61.40625 339.73438 61.40625Q338.60938 61.40625 337.85938 60.734375Q337.10938 60.046875 337.0 58.984375ZM344.45312 61.25L344.45312 52.65625L350.65625 52.65625L350.65625 53.671875L345.59375 53.671875L345.59375 56.296875L350.34375 56.296875L350.34375 57.3125L345.59375 57.3125L345.59375 60.234375L350.85938 60.234375L350.85938 61.25L344.45312 61.25ZM351.875 58.671875L351.875 57.609375L355.125 57.609375L355.125 58.671875L351.875 58.671875ZM356.0 57.015625Q356.0 55.484375 356.3125 54.5625Q356.625 53.625 357.23438 53.125Q357.85938 52.625 358.79688 52.625Q359.48438 52.625 360.0 52.90625Q360.53125 53.1875 360.875 53.71875Q361.21875 54.234375 361.40625 54.984375Q361.59375 55.734375 361.59375 57.015625Q361.59375 58.53125 361.28125 59.453125Q360.98438 60.375 360.35938 60.890625Q359.75 61.390625 358.79688 61.390625Q357.5625 61.390625 356.84375 60.5Q356.0 59.4375 356.0 57.015625ZM357.07812 57.015625Q357.07812 59.125 357.57812 59.828125Q358.07812 60.53125 358.79688 60.53125Q359.53125 60.53125 360.01562 59.828125Q360.51562 59.125 360.51562 57.015625Q360.51562 54.890625 360.01562 54.203125Q359.53125 53.5 358.78125 53.5Q358.0625 53.5 357.625 54.109375Q357.07812 54.890625 357.07812 57.015625ZM363.0 59.0L364.10938 58.90625Q364.23438 59.71875 364.67188 60.125Q365.125 60.53125 365.76562 60.53125Q366.51562 60.53125 367.04688 59.953125Q367.57812 59.375 367.57812 58.4375Q367.57812 57.53125 367.0625 57.015625Q366.5625 56.484375 365.73438 56.484375Q365.23438 56.484375 364.8125 56.71875Q364.40625 56.953125 364.17188 57.3125L363.1875 57.1875L364.01562 52.78125L368.29688 52.78125L368.29688 53.78125L364.85938 53.78125L364.40625 56.09375Q365.17188 55.546875 366.01562 55.546875Q367.14062 55.546875 367.90625 56.328125Q368.6875 57.109375 368.6875 58.34375Q368.6875 59.5 368.01562 60.359375Q367.1875 61.390625 365.76562 61.390625Q364.59375 61.390625 363.84375 60.734375Q363.10938 60.078125 363.0 59.0ZM369.875 54.234375L370.14062 53.40625Q371.07812 53.734375 371.5 53.96875Q371.39062 52.90625 371.375 52.515625L372.23438 52.515625Q372.21875 53.09375 372.09375 53.96875Q372.70312 53.65625 373.48438 53.40625L373.75 54.234375Q373.0 54.484375 372.29688 54.5625Q372.64062 54.875 373.29688 55.671875L372.59375 56.171875Q372.25 55.703125 371.79688 54.90625Q371.35938 55.734375 371.03125 56.171875L370.34375 55.671875Q371.01562 54.828125 371.3125 54.5625Q370.5625 54.421875 369.875 54.234375ZM374.59375 61.25L376.85938 58.015625L374.76562 55.03125L376.07812 55.03125L377.03125 56.484375Q377.29688 56.90625 377.46875 57.1875Q377.71875 56.796875 377.9375 56.5L378.98438 55.03125L380.25 55.03125L378.09375 57.953125L380.40625 61.25L379.125 61.25L377.84375 59.3125L377.5 58.796875L375.85938 61.25L374.59375 61.25ZM385.5 59.859375L385.5 57.5L383.17188 57.5L383.17188 56.515625L385.5 56.515625L385.5 54.1875L386.5 54.1875L386.5 56.515625L388.84375 56.515625L388.84375 57.5L386.5 57.5L386.5 59.859375L385.5 59.859375ZM393.0625 53.78125L393.0625 52.765625L398.625 52.765625L398.625 53.59375Q397.8125 54.46875 397.0 55.921875Q396.20312 57.359375 395.76562 58.890625Q395.4375 59.96875 395.35938 61.25L394.26562 61.25Q394.28125 60.234375 394.65625 58.796875Q395.04688 57.359375 395.75 56.03125Q396.46875 54.703125 397.28125 53.78125L393.0625 53.78125ZM400.15625 59.265625L401.17188 59.171875Q401.29688 59.890625 401.65625 60.21875Q402.03125 60.53125 402.59375 60.53125Q403.07812 60.53125 403.4375 60.3125Q403.8125 60.078125 404.04688 59.71875Q404.28125 59.34375 404.4375 58.71875Q404.59375 58.078125 404.59375 57.421875Q404.59375 57.34375 404.59375 57.203125Q404.28125 57.703125 403.73438 58.03125Q403.1875 58.34375 402.54688 58.34375Q401.46875 58.34375 400.73438 57.578125Q400.0 56.796875 400.0 55.53125Q400.0 54.21875 400.76562 53.421875Q401.54688 52.625 402.70312 52.625Q403.53125 52.625 404.21875 53.078125Q404.92188 53.53125 405.28125 54.375Q405.64062 55.203125 405.64062 56.78125Q405.64062 58.421875 405.28125 59.40625Q404.9375 60.375 404.21875 60.890625Q403.51562 61.390625 402.57812 61.390625Q401.5625 61.390625 400.92188 60.84375Q400.28125 60.28125 400.15625 59.265625ZM404.46875 55.46875Q404.46875 54.5625 403.98438 54.03125Q403.51562 53.5 402.82812 53.5Q402.125 53.5 401.59375 54.078125Q401.07812 54.640625 401.07812 55.5625Q401.07812 56.375 401.57812 56.890625Q402.07812 57.40625 402.79688 57.40625Q403.53125 57.40625 404.0 56.890625Q404.46875 56.375 404.46875 55.46875ZM408.625 56.59375Q407.96875 56.34375 407.64062 55.90625Q407.32812 55.453125 407.32812 54.84375Q407.32812 53.90625 408.0 53.265625Q408.6875 52.625 409.79688 52.625Q410.92188 52.625 411.60938 53.28125Q412.29688 53.9375 412.29688 54.875Q412.29688 55.46875 411.98438 55.90625Q411.67188 56.34375 411.03125 56.59375Q411.82812 56.84375 412.23438 57.421875Q412.64062 58.0 412.64062 58.796875Q412.64062 59.890625 411.85938 60.640625Q411.09375 61.390625 409.8125 61.390625Q408.54688 61.390625 407.76562 60.640625Q406.98438 59.890625 406.98438 58.765625Q406.98438 57.921875 407.40625 57.359375Q407.84375 56.796875 408.625 56.59375ZM408.40625 54.796875Q408.40625 55.40625 408.79688 55.796875Q409.20312 56.1875 409.82812 56.1875Q410.4375 56.1875 410.82812 55.8125Q411.21875 55.421875 411.21875 54.859375Q411.21875 54.28125 410.8125 53.890625Q410.40625 53.484375 409.8125 53.484375Q409.20312 53.484375 408.79688 53.875Q408.40625 54.265625 408.40625 54.796875ZM408.07812 58.765625Q408.07812 59.21875 408.28125 59.640625Q408.5 60.0625 408.92188 60.296875Q409.34375 60.53125 409.82812 60.53125Q410.57812 60.53125 411.0625 60.046875Q411.5625 59.5625 411.5625 58.8125Q411.5625 58.046875 411.0625 57.546875Q410.5625 57.046875 409.79688 57.046875Q409.04688 57.046875 408.5625 57.546875Q408.07812 58.03125 408.07812 58.765625ZM417.4375 61.25L417.4375 52.65625L421.25 52.65625Q422.40625 52.65625 423.0 52.890625Q423.59375 53.125 423.95312 53.71875Q424.3125 54.296875 424.3125 55.0Q424.3125 55.921875 423.71875 56.546875Q423.125 57.171875 421.89062 57.34375Q422.34375 57.5625 422.57812 57.765625Q423.07812 58.21875 423.51562 58.90625L425.01562 61.25L423.57812 61.25L422.45312 59.46875Q421.95312 58.6875 421.625 58.28125Q421.3125 57.875 421.04688 57.71875Q420.79688 57.546875 420.53125 57.46875Q420.34375 57.4375 419.90625 57.4375L418.57812 57.4375L418.57812 61.25L417.4375 61.25ZM418.57812 56.453125L421.03125 56.453125Q421.79688 56.453125 422.23438 56.296875Q422.6875 56.125 422.90625 55.78125Q423.14062 55.421875 423.14062 55.0Q423.14062 54.390625 422.6875 54.0Q422.25 53.609375 421.29688 53.609375L418.57812 53.609375L418.57812 56.453125ZM425.64062 56.953125Q425.6875 56.625 425.92188 56.28125Q426.29688 55.78125 427.14062 55.171875Q427.98438 54.5625 428.14062 54.375Q428.35938 54.140625 428.35938 53.890625Q428.35938 53.609375 428.14062 53.4375Q427.9375 53.25 427.54688 53.25Q427.15625 53.25 426.96875 53.390625Q426.78125 53.515625 426.65625 53.90625L425.76562 53.8125Q425.9375 53.171875 426.35938 52.859375Q426.78125 52.546875 427.5625 52.546875Q428.45312 52.546875 428.85938 52.90625Q429.28125 53.25 429.28125 53.75Q429.28125 54.234375 428.92188 54.671875Q428.67188 55.0 427.73438 55.671875Q427.23438 56.03125 427.03125 56.25L429.29688 56.25L429.29688 56.953125L425.64062 56.953125ZM438.84375 56.203125L433.17188 56.203125L433.17188 55.21875L438.84375 55.21875L438.84375 56.203125ZM438.84375 58.8125L433.17188 58.8125L433.17188 57.828125L438.84375 57.828125L438.84375 58.8125ZM443.0 57.015625Q443.0 55.484375 443.3125 54.5625Q443.625 53.625 444.23438 53.125Q444.85938 52.625 445.79688 52.625Q446.48438 52.625 447.0 52.90625Q447.53125 53.1875 447.875 53.71875Q448.21875 54.234375 448.40625 54.984375Q448.59375 55.734375 448.59375 57.015625Q448.59375 58.53125 448.28125 59.453125Q447.98438 60.375 447.35938 60.890625Q446.75 61.390625 445.79688 61.390625Q444.5625 61.390625 443.84375 60.5Q443.0 59.4375 443.0 57.015625ZM444.07812 57.015625Q444.07812 59.125 444.57812 59.828125Q445.07812 60.53125 445.79688 60.53125Q446.53125 60.53125 447.01562 59.828125Q447.51562 59.125 447.51562 57.015625Q447.51562 54.890625 447.01562 54.203125Q446.53125 53.5 445.78125 53.5Q445.0625 53.5 444.625 54.109375Q444.07812 54.890625 444.07812 57.015625ZM450.59375 61.25L450.59375 60.046875L451.79688 60.046875L451.79688 61.25L450.59375 61.25ZM453.0 57.015625Q453.0 55.484375 453.3125 54.5625Q453.625 53.625 454.23438 53.125Q454.85938 52.625 455.79688 52.625Q456.48438 52.625 457.0 52.90625Q457.53125 53.1875 457.875 53.71875Q458.21875 54.234375 458.40625 54.984375Q458.59375 55.734375 458.59375 57.015625Q458.59375 58.53125 458.28125 59.453125Q457.98438 60.375 457.35938 60.890625Q456.75 61.390625 455.79688 61.390625Q454.5625 61.390625 453.84375 60.5Q453.0 59.4375 453.0 57.015625ZM454.07812 57.015625Q454.07812 59.125 454.57812 59.828125Q455.07812 60.53125 455.79688 60.53125Q456.53125 60.53125 457.01562 59.828125Q457.51562 59.125 457.51562 57.015625Q457.51562 54.890625 457.01562 54.203125Q456.53125 53.5 455.78125 53.5Q455.0625 53.5 454.625 54.109375Q454.07812 54.890625 454.07812 57.015625ZM465.54688 60.234375L465.54688 61.25L459.85938 61.25Q459.85938 60.875 459.98438 60.515625Q460.20312 59.9375 460.67188 59.375Q461.15625 58.8125 462.0625 58.078125Q463.46875 56.921875 463.95312 56.25Q464.45312 55.578125 464.45312 54.984375Q464.45312 54.359375 464.0 53.9375Q463.54688 53.5 462.82812 53.5Q462.0625 53.5 461.60938 53.953125Q461.15625 54.40625 461.14062 55.21875L460.0625 55.109375Q460.17188 53.890625 460.89062 53.265625Q461.625 52.625 462.85938 52.625Q464.09375 52.625 464.8125 53.3125Q465.53125 54.0 465.53125 55.015625Q465.53125 55.53125 465.3125 56.03125Q465.10938 56.515625 464.60938 57.078125Q464.125 57.625 463.0 58.578125Q462.04688 59.375 461.76562 59.671875Q461.5 59.953125 461.32812 60.234375L465.54688 60.234375ZM470.96875 61.25L469.92188 61.25L469.92188 54.53125Q469.53125 54.890625 468.90625 55.265625Q468.29688 55.625 467.8125 55.796875L467.8125 54.78125Q468.6875 54.359375 469.34375 53.78125Q470.01562 53.1875 470.29688 52.625L470.96875 52.625L470.96875 61.25Z" fill-rule="nonzero"/><path fill="#757575" d="M263.04688 29.815624L265.57812 30.6125Q265.0 32.721874 263.64062 33.753124Q262.29688 34.76875 260.21875 34.76875Q257.65625 34.76875 256.0 33.01875Q254.35938 31.26875 254.35938 28.221874Q254.35938 25.003124 256.01562 23.221874Q257.67188 21.440624 260.375 21.440624Q262.75 21.440624 264.21875 22.846874Q265.10938 23.675 265.54688 25.221874L262.96875 25.83125Q262.73438 24.83125 262.0 24.253124Q261.28125 23.675 260.25 23.675Q258.8125 23.675 257.92188 24.70625Q257.03125 25.721874 257.03125 28.034374Q257.03125 30.471874 257.90625 31.51875Q258.79688 32.55 260.20312 32.55Q261.23438 32.55 261.98438 31.89375Q262.73438 31.221874 263.04688 29.815624ZM267.21875 29.753124Q267.21875 28.51875 267.82812 27.378124Q268.4375 26.221874 269.54688 25.6125Q270.65625 25.003124 272.03125 25.003124Q274.14062 25.003124 275.5 26.378124Q276.85938 27.753124 276.85938 29.8625Q276.85938 31.971874 275.48438 33.378124Q274.125 34.76875 272.04688 34.76875Q270.76562 34.76875 269.59375 34.190624Q268.4375 33.596874 267.82812 32.4875Q267.21875 31.3625 267.21875 29.753124ZM269.75 29.878124Q269.75 31.26875 270.40625 32.01875Q271.07812 32.753124 272.03125 32.753124Q273.0 32.753124 273.65625 32.01875Q274.3125 31.26875 274.3125 29.8625Q274.3125 28.4875 273.65625 27.753124Q273.0 27.01875 272.03125 27.01875Q271.07812 27.01875 270.40625 27.753124Q269.75 28.4875 269.75 29.878124ZM284.9375 34.55L284.9375 33.159374Q284.42188 33.89375 283.59375 34.33125Q282.76562 34.76875 281.84375 34.76875Q280.90625 34.76875 280.15625 34.3625Q279.40625 33.940624 279.0625 33.190624Q278.73438 32.440624 278.73438 31.128124L278.73438 25.221874L281.20312 25.221874L281.20312 29.503124Q281.20312 31.471874 281.34375 31.925Q281.48438 32.3625 281.84375 32.628124Q282.20312 32.878124 282.75 32.878124Q283.39062 32.878124 283.89062 32.534374Q284.39062 32.190624 284.57812 31.675Q284.76562 31.159374 284.76562 29.159374L284.76562 25.221874L287.23438 25.221874L287.23438 34.55L284.9375 34.55ZM298.28125 34.55L295.8125 34.55L295.8125 29.784374Q295.8125 28.26875 295.65625 27.83125Q295.5 27.39375 295.14062 27.14375Q294.78125 26.89375 294.28125 26.89375Q293.64062 26.89375 293.125 27.253124Q292.625 27.596874 292.4375 28.175Q292.25 28.753124 292.25 30.315624L292.25 34.55L289.78125 34.55L289.78125 25.221874L292.0625 25.221874L292.0625 26.58125Q293.29688 25.003124 295.14062 25.003124Q295.96875 25.003124 296.64062 25.3Q297.3125 25.596874 297.65625 26.05Q298.01562 26.503124 298.14062 27.096874Q298.28125 27.675 298.28125 28.753124L298.28125 34.55ZM305.07812 25.221874L305.07812 27.190624L303.39062 27.190624L303.39062 30.940624Q303.39062 32.08125 303.4375 32.284374Q303.48438 32.471874 303.65625 32.596874Q303.82812 32.70625 304.07812 32.70625Q304.40625 32.70625 305.0625 32.471874L305.28125 34.39375Q304.40625 34.76875 303.32812 34.76875Q302.65625 34.76875 302.10938 34.55Q301.57812 34.315624 301.32812 33.95625Q301.07812 33.596874 300.98438 32.9875Q300.90625 32.565624 300.90625 31.253124L300.90625 27.190624L299.76562 27.190624L299.76562 25.221874L300.90625 25.221874L300.90625 23.3625L303.39062 21.925L303.39062 25.221874L305.07812 25.221874ZM306.79688 23.95625L306.79688 21.659374L309.26562 21.659374L309.26562 23.95625L306.79688 23.95625ZM306.79688 34.55L306.79688 25.221874L309.26562 25.221874L309.26562 34.55L306.79688 34.55ZM320.28125 34.55L317.8125 34.55L317.8125 29.784374Q317.8125 28.26875 317.65625 27.83125Q317.5 27.39375 317.14062 27.14375Q316.78125 26.89375 316.28125 26.89375Q315.64062 26.89375 315.125 27.253124Q314.625 27.596874 314.4375 28.175Q314.25 28.753124 314.25 30.315624L314.25 34.55L311.78125 34.55L311.78125 25.221874L314.0625 25.221874L314.0625 26.58125Q315.29688 25.003124 317.14062 25.003124Q317.96875 25.003124 318.64062 25.3Q319.3125 25.596874 319.65625 26.05Q320.01562 26.503124 320.14062 27.096874Q320.28125 27.675 320.28125 28.753124L320.28125 34.55ZM322.5625 35.159374L325.39062 35.503124Q325.45312 36.003124 325.70312 36.190624Q326.0625 36.45625 326.8125 36.45625Q327.78125 36.45625 328.26562 36.159374Q328.59375 35.971874 328.76562 35.534374Q328.875 35.221874 328.875 34.39375L328.875 33.034374Q327.76562 34.55 326.07812 34.55Q324.20312 34.55 323.09375 32.95625Q322.23438 31.70625 322.23438 29.83125Q322.23438 27.4875 323.35938 26.253124Q324.5 25.003124 326.17188 25.003124Q327.90625 25.003124 329.03125 26.51875L329.03125 25.221874L331.34375 25.221874L331.34375 33.596874Q331.34375 35.2375 331.0625 36.05Q330.79688 36.878124 330.29688 37.346874Q329.8125 37.815624 328.98438 38.065624Q328.17188 38.33125 326.92188 38.33125Q324.54688 38.33125 323.54688 37.51875Q322.5625 36.70625 322.5625 35.471874Q322.5625 35.346874 322.5625 35.159374ZM324.76562 29.690624Q324.76562 31.175 325.34375 31.8625Q325.92188 32.55 326.76562 32.55Q327.67188 32.55 328.29688 31.846874Q328.92188 31.14375 328.92188 29.753124Q328.92188 28.3 328.3125 27.596874Q327.71875 26.89375 326.8125 26.89375Q325.92188 26.89375 325.34375 27.58125Q324.76562 28.26875 324.76562 29.690624ZM338.15625 30.3625L340.6875 30.1125Q340.90625 31.378124 341.60938 31.9875Q342.3125 32.58125 343.5 32.58125Q344.75 32.58125 345.39062 32.05Q346.03125 31.51875 346.03125 30.8Q346.03125 30.346874 345.75 30.034374Q345.48438 29.70625 344.82812 29.471874Q344.35938 29.315624 342.73438 28.909374Q340.64062 28.39375 339.79688 27.628124Q338.60938 26.565624 338.60938 25.034374Q338.60938 24.05 339.17188 23.20625Q339.73438 22.346874 340.78125 21.89375Q341.82812 21.440624 343.3125 21.440624Q345.75 21.440624 346.96875 22.503124Q348.20312 23.565624 348.26562 25.346874L345.65625 25.45625Q345.48438 24.471874 344.9375 24.034374Q344.39062 23.596874 343.29688 23.596874Q342.15625 23.596874 341.51562 24.065624Q341.10938 24.3625 341.10938 24.8625Q341.10938 25.315624 341.48438 25.64375Q341.98438 26.065624 343.875 26.51875Q345.78125 26.95625 346.6875 27.440624Q347.59375 27.909374 348.10938 28.753124Q348.625 29.58125 348.625 30.8Q348.625 31.909374 348.0 32.878124Q347.39062 33.83125 346.26562 34.315624Q345.14062 34.784374 343.46875 34.784374Q341.03125 34.784374 339.71875 33.659374Q338.40625 32.51875 338.15625 30.3625ZM350.21875 29.753124Q350.21875 28.51875 350.82812 27.378124Q351.4375 26.221874 352.54688 25.6125Q353.65625 25.003124 355.03125 25.003124Q357.14062 25.003124 358.5 26.378124Q359.85938 27.753124 359.85938 29.8625Q359.85938 31.971874 358.48438 33.378124Q357.125 34.76875 355.04688 34.76875Q353.76562 34.76875 352.59375 34.190624Q351.4375 33.596874 350.82812 32.4875Q350.21875 31.3625 350.21875 29.753124ZM352.75 29.878124Q352.75 31.26875 353.40625 32.01875Q354.07812 32.753124 355.03125 32.753124Q356.0 32.753124 356.65625 32.01875Q357.3125 31.26875 357.3125 29.8625Q357.3125 28.4875 356.65625 27.753124Q356.0 27.01875 355.03125 27.01875Q354.07812 27.01875 353.40625 27.753124Q352.75 28.4875 352.75 29.878124ZM364.15625 34.55L361.6875 34.55L361.6875 25.221874L363.98438 25.221874L363.98438 26.55Q364.5625 25.596874 365.03125 25.3Q365.51562 25.003124 366.10938 25.003124Q366.95312 25.003124 367.73438 25.471874L366.96875 27.628124Q366.34375 27.221874 365.8125 27.221874Q365.29688 27.221874 364.92188 27.503124Q364.5625 27.784374 364.35938 28.534374Q364.15625 29.284374 364.15625 31.659374L364.15625 34.55ZM373.07812 25.221874L373.07812 27.190624L371.39062 27.190624L371.39062 30.940624Q371.39062 32.08125 371.4375 32.284374Q371.48438 32.471874 371.65625 32.596874Q371.82812 32.70625 372.07812 32.70625Q372.40625 32.70625 373.0625 32.471874L373.28125 34.39375Q372.40625 34.76875 371.32812 34.76875Q370.65625 34.76875 370.10938 34.55Q369.57812 34.315624 369.32812 33.95625Q369.07812 33.596874 368.98438 32.9875Q368.90625 32.565624 368.90625 31.253124L368.90625 27.190624L367.76562 27.190624L367.76562 25.221874L368.90625 25.221874L368.90625 23.3625L371.39062 21.925L371.39062 25.221874L373.07812 25.221874ZM379.51562 31.1125L379.51562 28.64375L384.35938 28.64375L384.35938 31.1125L379.51562 31.1125ZM399.04688 29.815624L401.57812 30.6125Q401.0 32.721874 399.64062 33.753124Q398.29688 34.76875 396.21875 34.76875Q393.65625 34.76875 392.0 33.01875Q390.35938 31.26875 390.35938 28.221874Q390.35938 25.003124 392.01562 23.221874Q393.67188 21.440624 396.375 21.440624Q398.75 21.440624 400.21875 22.846874Q401.10938 23.675 401.54688 25.221874L398.96875 25.83125Q398.73438 24.83125 398.0 24.253124Q397.28125 23.675 396.25 23.675Q394.8125 23.675 393.92188 24.70625Q393.03125 25.721874 393.03125 28.034374Q393.03125 30.471874 393.90625 31.51875Q394.79688 32.55 396.20312 32.55Q397.23438 32.55 397.98438 31.89375Q398.73438 31.221874 399.04688 29.815624ZM405.64062 28.065624L403.39062 27.659374Q403.78125 26.3 404.70312 25.659374Q405.625 25.003124 407.4375 25.003124Q409.09375 25.003124 409.89062 25.39375Q410.70312 25.784374 411.03125 26.39375Q411.375 26.9875 411.375 28.596874L411.34375 31.4875Q411.34375 32.70625 411.45312 33.3Q411.57812 33.878124 411.90625 34.55L409.46875 34.55Q409.35938 34.3 409.21875 33.815624Q409.15625 33.596874 409.14062 33.534374Q408.5 34.14375 407.78125 34.45625Q407.0625 34.76875 406.25 34.76875Q404.79688 34.76875 403.96875 33.9875Q403.14062 33.190624 403.14062 32.003124Q403.14062 31.20625 403.51562 30.596874Q403.89062 29.971874 404.57812 29.64375Q405.26562 29.315624 406.54688 29.065624Q408.28125 28.7375 408.9375 28.45625L408.9375 28.20625Q408.9375 27.503124 408.57812 27.20625Q408.23438 26.89375 407.26562 26.89375Q406.60938 26.89375 406.23438 27.159374Q405.85938 27.409374 405.64062 28.065624ZM408.9375 30.065624Q408.46875 30.221874 407.4375 30.440624Q406.40625 30.659374 406.09375 30.878124Q405.60938 31.221874 405.60938 31.753124Q405.60938 32.26875 406.0 32.64375Q406.39062 33.01875 406.98438 33.01875Q407.65625 33.01875 408.25 32.58125Q408.70312 32.253124 408.84375 31.76875Q408.9375 31.440624 408.9375 30.565624L408.9375 30.065624ZM412.92188 31.89375L415.40625 31.503124Q415.5625 32.221874 416.04688 32.596874Q416.53125 32.971874 417.39062 32.971874Q418.35938 32.971874 418.84375 32.628124Q419.15625 32.378124 419.15625 31.971874Q419.15625 31.690624 418.98438 31.503124Q418.79688 31.33125 418.15625 31.175Q415.17188 30.51875 414.375 29.971874Q413.26562 29.221874 413.26562 27.8625Q413.26562 26.659374 414.21875 25.83125Q415.1875 25.003124 417.1875 25.003124Q419.10938 25.003124 420.03125 25.628124Q420.96875 26.253124 421.32812 27.471874L419.0 27.909374Q418.84375 27.3625 418.42188 27.08125Q418.01562 26.784374 417.23438 26.784374Q416.26562 26.784374 415.84375 27.05Q415.5625 27.253124 415.5625 27.55Q415.5625 27.815624 415.8125 28.003124Q416.14062 28.253124 418.10938 28.70625Q420.07812 29.14375 420.875 29.8Q421.64062 30.45625 421.64062 31.628124Q421.64062 32.909374 420.5625 33.846874Q419.5 34.76875 417.39062 34.76875Q415.48438 34.76875 414.375 33.9875Q413.26562 33.20625 412.92188 31.89375ZM429.20312 31.58125L431.65625 31.9875Q431.1875 33.346874 430.15625 34.065624Q429.14062 34.76875 427.59375 34.76875Q425.15625 34.76875 424.0 33.175Q423.07812 31.89375 423.07812 29.95625Q423.07812 27.628124 424.28125 26.315624Q425.5 25.003124 427.35938 25.003124Q429.4375 25.003124 430.64062 26.378124Q431.84375 27.753124 431.79688 30.596874L425.60938 30.596874Q425.625 31.690624 426.1875 32.3Q426.76562 32.909374 427.625 32.909374Q428.20312 32.909374 428.59375 32.596874Q429.0 32.284374 429.20312 31.58125ZM429.34375 29.08125Q429.3125 28.003124 428.78125 27.45625Q428.25 26.89375 427.5 26.89375Q426.6875 26.89375 426.17188 27.4875Q425.64062 28.065624 425.64062 29.08125L429.34375 29.08125ZM451.42188 34.55L448.59375 34.55L447.46875 31.628124L442.32812 31.628124L441.26562 34.55L438.5 34.55L443.51562 21.659374L446.26562 21.659374L451.42188 34.55ZM446.64062 29.45625L444.85938 24.675L443.125 29.45625L446.64062 29.45625Z" fill-rule="nonzero"/></svg>