<svg version="1.1" viewBox="0.0 0.0 705.0 351.0" fill="none" stroke="none" stroke-linecap="square" stroke-miterlimit="10" width="705" height="351" xmlns:xlink="http://www.w3.org/1999/xlink" xmlns="http://www.w3.org/2000/svg"><path fill="#ffffff" d="M0 0L705.0 0L705.0 351.0L0 351.0L0 0Z" fill-rule="nonzero"/><path stroke="#333333" stroke-width="1.0" stroke-linecap="butt" d="M83.5 82.5L83.5 281.5" fill-rule="nonzero"/><path stroke="#cccccc" stroke-width="1.0" stroke-linecap="butt" d="M233.5 82.5L233.5 281.5" fill-rule="nonzero"/><path stroke="#cccccc" stroke-width="1.0" stroke-linecap="butt" d="M382.5 82.5L382.5 281.5" fill-rule="nonzero"/><path stroke="#cccccc" stroke-width="1.0" stroke-linecap="butt" d="M531.5 82.5L531.5 281.5" fill-rule="nonzero"/><path stroke="#cccccc" stroke-width="1.0" stroke-linecap="butt" d="M681.5 82.5L681.5 281.5" fill-rule="nonzero"/><path stroke="#333333" stroke-width="1.0" stroke-linecap="butt" d="M83.5 281.5L687.5 281.5" fill-rule="nonzero"/><path stroke="#cccccc" stroke-width="1.0" stroke-linecap="butt" d="M83.5 241.5L687.5 241.5" fill-rule="nonzero"/><path stroke="#cccccc" stroke-width="1.0" stroke-linecap="butt" d="M83.5 202.5L687.5 202.5" fill-rule="nonzero"/><path stroke="#cccccc" stroke-width="1.0" stroke-linecap="butt" d="M83.5 162.5L687.5 162.5" fill-rule="nonzero"/><path stroke="#cccccc" stroke-width="1.0" stroke-linecap="butt" d="M83.5 122.5L687.5 122.5" fill-rule="nonzero"/><path stroke="#cccccc" stroke-width="1.0" stroke-linecap="butt" d="M83.5 82.5L687.5 82.5" fill-rule="nonzero"/><clipPath id="id_0"><path d="M83.55 82.95L687.45 82.95L687.45 281.45L83.55 281.45L83.55 82.95Z" clip-rule="nonzero"/></clipPath><path stroke="#4285f4" stroke-width="2.0" stroke-linecap="butt" stroke-opacity="0.4" clip-path="url(#id_0)" d="M0 139.9973L687.45 141.58543" fill-rule="nonzero"/><path fill="#4285f4" clip-path="url(#id_0)" d="M94.029205 169.34196C94.029205 171.82724 92.01449 173.84196 89.529205 173.84196C87.04393 173.84196 85.029205 171.82724 85.029205 169.34196C85.029205 166.85669 87.04393 164.84196 89.529205 164.84196C92.01449 164.84196 94.029205 166.85669 94.029205 169.34196Z" fill-rule="nonzero"/><path fill="#4285f4" clip-path="url(#id_0)" d="M94.029205 130.50424C94.029205 132.98953 92.01449 135.00424 89.529205 135.00424C87.04393 135.00424 85.029205 132.98953 85.029205 130.50424C85.029205 128.01897 87.04393 126.00425 89.529205 126.00425C92.01449 126.00425 94.029205 128.01897 94.029205 130.50424Z" fill-rule="nonzero"/><path fill="#4285f4" clip-path="url(#id_0)" d="M94.029205 141.52974C94.029205 144.01501 92.01449 146.02974 89.529205 146.02974C87.04393 146.02974 85.029205 144.01501 85.029205 141.52974C85.029205 139.04445 87.04393 137.02974 89.529205 137.02974C92.01449 137.02974 94.029205 139.04445 94.029205 141.52974Z" fill-rule="nonzero"/><path fill="#4285f4" clip-path="url(#id_0)" d="M147.84209 117.488525C147.84209 119.97381 145.82736 121.988525 143.34209 121.988525C140.8568 121.988525 138.84209 119.97381 138.84209 117.488525C138.84209 115.00324 140.8568 112.988525 143.34209 112.988525C145.82736 112.988525 147.84209 115.00324 147.84209 117.488525Z" fill-rule="nonzero"/><path fill="#4285f4" clip-path="url(#id_0)" d="M685.97076 148.48097C685.97076 150.96626 683.95605 152.98097 681.47076 152.98097C678.98553 152.98097 676.97076 150.96626 676.97076 148.48097C676.97076 145.9957 678.98553 143.98097 681.47076 143.98097C683.95605 143.98097 685.97076 145.9957 685.97076 148.48097Z" fill-rule="nonzero"/><path fill="#4285f4" clip-path="url(#id_0)" d="M685.97076 126.00745C685.97076 128.49272 683.95605 130.50745 681.47076 130.50745C678.98553 130.50745 676.97076 128.49272 676.97076 126.00745C676.97076 123.52216 678.98553 121.50745 681.47076 121.50745C683.95605 121.50745 685.97076 123.52216 685.97076 126.00745Z" fill-rule="nonzero"/><path fill="#4285f4" clip-path="url(#id_0)" d="M685.97076 152.30281C685.97076 154.78809 683.95605 156.80281 681.47076 156.80281C678.98553 156.80281 676.97076 154.78809 676.97076 152.30281C676.97076 149.81752 678.98553 147.80281 681.47076 147.80281C683.95605 147.80281 685.97076 149.81752 685.97076 152.30281Z" fill-rule="nonzero"/><path fill="#000000" d="M381.92188 330.45L381.92188 321.85626L383.07812 321.85626L387.59375 328.60626L387.59375 321.85626L388.6875 321.85626L388.6875 330.45L387.51562 330.45L383.0 323.7L383.0 330.45L381.92188 330.45Z" fill-rule="nonzero"/><path fill="#000000" d="M28.550013 203.90312L22.331263 203.90312L22.331263 202.96562L23.206263 202.96562Q22.190638 202.27812 22.190638 200.98125Q22.190638 200.41875 22.393763 199.95Q22.596888 199.46562 22.925013 199.23125Q23.253138 198.99687 23.690638 198.90312Q23.987513 198.85625 24.721888 198.85625L28.550013 198.85625L28.550013 199.90312L24.768763 199.90312Q24.112513 199.90312 23.800013 200.02812Q23.487513 200.15312 23.300013 200.46562Q23.096888 200.77812 23.096888 201.2Q23.096888 201.87187 23.534388 202.37187Q23.956263 202.85625 25.143763 202.85625L28.550013 202.85625L28.550013 203.90312ZM26.690638 197.325L26.534388 196.29375Q27.159388 196.2 27.487513 195.80937Q27.815638 195.40312 27.815638 194.66875Q27.815638 193.95 27.534388 193.60625Q27.237513 193.24687 26.831263 193.24687Q26.471888 193.24687 26.268763 193.55937Q26.128138 193.77812 25.909388 194.6375Q25.612513 195.79375 25.409388 196.24687Q25.190638 196.68437 24.815638 196.91875Q24.440638 197.15312 23.971888 197.15312Q23.565638 197.15312 23.206263 196.96562Q22.846888 196.77812 22.612513 196.45Q22.440638 196.2 22.315638 195.77812Q22.190638 195.35625 22.190638 194.85625Q22.190638 194.1375 22.409388 193.59062Q22.612513 193.02812 22.971888 192.7625Q23.331263 192.49687 23.925013 192.40312L24.065638 193.43437Q23.596888 193.49687 23.331263 193.84062Q23.050013 194.16875 23.050013 194.79375Q23.050013 195.5125 23.300013 195.825Q23.534388 196.1375 23.862513 196.1375Q24.065638 196.1375 24.221888 196.0125Q24.393763 195.87187 24.503138 195.60625Q24.565638 195.45 24.768763 194.66875Q25.081263 193.54375 25.268763 193.10625Q25.456263 192.66875 25.815638 192.41875Q26.175013 192.16875 26.721888 192.16875Q27.253138 192.16875 27.721888 192.48125Q28.175013 192.77812 28.440638 193.35625Q28.690638 193.93437 28.690638 194.66875Q28.690638 195.8875 28.190638 196.52812Q27.675013 197.15312 26.690638 197.325ZM28.690638 187.7L19.815638 185.21562L19.815638 184.37187L28.690638 186.85625L28.690638 187.7ZM28.550013 180.77812L19.956263 180.77812L19.956263 179.62187L26.706263 175.10625L19.956263 175.10625L19.956263 174.0125L28.550013 174.0125L28.550013 175.18437L21.800013 179.7L28.550013 179.7L28.550013 180.77812Z" fill-rule="nonzero"/><path fill="#000000" d="M71.05 281.21564Q71.05 279.6844 71.3625 278.7625Q71.675 277.825 72.28438 277.325Q72.90938 276.825 73.84688 276.825Q74.53438 276.825 75.05 277.10626Q75.58125 277.3875 75.925 277.91876Q76.26875 278.4344 76.45625 279.1844Q76.64375 279.9344 76.64375 281.21564Q76.64375 282.73126 76.33125 283.65314Q76.03438 284.575 75.40938 285.09064Q74.8 285.59064 73.84688 285.59064Q72.6125 285.59064 71.89375 284.7Q71.05 283.6375 71.05 281.21564ZM72.12813 281.21564Q72.12813 283.325 72.62813 284.02814Q73.12813 284.73126 73.84688 284.73126Q74.58125 284.73126 75.06563 284.02814Q75.56563 283.325 75.56563 281.21564Q75.56563 279.09064 75.06563 278.40314Q74.58125 277.7 73.83125 277.7Q73.1125 277.7 72.675 278.3094Q72.12813 279.09064 72.12813 281.21564Z" fill-rule="nonzero"/><path fill="#000000" d="M62.596874 244.73438L62.596874 245.75L56.909374 245.75Q56.909374 245.375 57.034374 245.01562Q57.253124 244.4375 57.721874 243.875Q58.20625 243.3125 59.1125 242.57812Q60.51875 241.42188 61.003124 240.75Q61.503124 240.07812 61.503124 239.48438Q61.503124 238.85938 61.05 238.4375Q60.596874 238.0 59.878124 238.0Q59.1125 238.0 58.659374 238.45312Q58.20625 238.90625 58.190624 239.71875L57.1125 239.60938Q57.221874 238.39062 57.940624 237.76562Q58.675 237.125 59.909374 237.125Q61.14375 237.125 61.8625 237.8125Q62.58125 238.5 62.58125 239.51562Q62.58125 240.03125 62.3625 240.53125Q62.159374 241.01562 61.659374 241.57812Q61.175 242.125 60.05 243.07812Q59.096874 243.875 58.815624 244.17188Q58.55 244.45312 58.378124 244.73438L62.596874 244.73438ZM64.05 243.5L65.15938 243.40625Q65.28438 244.21875 65.72188 244.625Q66.175 245.03125 66.81563 245.03125Q67.56563 245.03125 68.09688 244.45312Q68.62813 243.875 68.62813 242.9375Q68.62813 242.03125 68.1125 241.51562Q67.6125 240.98438 66.78438 240.98438Q66.28438 240.98438 65.8625 241.21875Q65.45625 241.45312 65.22188 241.8125L64.2375 241.6875L65.06563 237.28125L69.34688 237.28125L69.34688 238.28125L65.90938 238.28125L65.45625 240.59375Q66.22188 240.04688 67.06563 240.04688Q68.19063 240.04688 68.95625 240.82812Q69.7375 241.60938 69.7375 242.84375Q69.7375 244.0 69.06563 244.85938Q68.2375 245.89062 66.81563 245.89062Q65.64375 245.89062 64.89375 245.23438Q64.15938 244.57812 64.05 243.5ZM71.05 241.51562Q71.05 239.98438 71.3625 239.0625Q71.675 238.125 72.28438 237.625Q72.90938 237.125 73.84688 237.125Q74.53438 237.125 75.05 237.40625Q75.58125 237.6875 75.925 238.21875Q76.26875 238.73438 76.45625 239.48438Q76.64375 240.23438 76.64375 241.51562Q76.64375 243.03125 76.33125 243.95312Q76.03438 244.875 75.40938 245.39062Q74.8 245.89062 73.84688 245.89062Q72.6125 245.89062 71.89375 245.0Q71.05 243.9375 71.05 241.51562ZM72.12813 241.51562Q72.12813 243.625 72.62813 244.32812Q73.12813 245.03125 73.84688 245.03125Q74.58125 245.03125 75.06563 244.32812Q75.56563 243.625 75.56563 241.51562Q75.56563 239.39062 75.06563 238.70312Q74.58125 238.0 73.83125 238.0Q73.1125 238.0 72.675 238.60938Q72.12813 239.39062 72.12813 241.51562Z" fill-rule="nonzero"/><path fill="#000000" d="M57.05 203.8L58.159374 203.70625Q58.284374 204.51875 58.721874 204.925Q59.175 205.33125 59.815624 205.33125Q60.565624 205.33125 61.096874 204.75313Q61.628124 204.175 61.628124 203.2375Q61.628124 202.33125 61.1125 201.81563Q60.6125 201.28438 59.784374 201.28438Q59.284374 201.28438 58.8625 201.51875Q58.45625 201.75313 58.221874 202.1125L57.2375 201.9875L58.065624 197.58125L62.346874 197.58125L62.346874 198.58125L58.909374 198.58125L58.45625 200.89375Q59.221874 200.34688 60.065624 200.34688Q61.190624 200.34688 61.95625 201.12813Q62.7375 201.90938 62.7375 203.14375Q62.7375 204.3 62.065624 205.15938Q61.2375 206.19063 59.815624 206.19063Q58.64375 206.19063 57.89375 205.53438Q57.159374 204.87813 57.05 203.8ZM64.05 201.81563Q64.05 200.28438 64.3625 199.3625Q64.675 198.425 65.28438 197.925Q65.90938 197.425 66.84688 197.425Q67.53438 197.425 68.05 197.70625Q68.58125 197.9875 68.925 198.51875Q69.26875 199.03438 69.45625 199.78438Q69.64375 200.53438 69.64375 201.81563Q69.64375 203.33125 69.33125 204.25313Q69.03438 205.175 68.40938 205.69063Q67.8 206.19063 66.84688 206.19063Q65.6125 206.19063 64.89375 205.3Q64.05 204.2375 64.05 201.81563ZM65.12813 201.81563Q65.12813 203.925 65.62813 204.62813Q66.12813 205.33125 66.84688 205.33125Q67.58125 205.33125 68.06563 204.62813Q68.56563 203.925 68.56563 201.81563Q68.56563 199.69063 68.06563 199.00313Q67.58125 198.3 66.83125 198.3Q66.1125 198.3 65.675 198.90938Q65.12813 199.69063 65.12813 201.81563ZM71.05 201.81563Q71.05 200.28438 71.3625 199.3625Q71.675 198.425 72.28438 197.925Q72.90938 197.425 73.84688 197.425Q74.53438 197.425 75.05 197.70625Q75.58125 197.9875 75.925 198.51875Q76.26875 199.03438 76.45625 199.78438Q76.64375 200.53438 76.64375 201.81563Q76.64375 203.33125 76.33125 204.25313Q76.03438 205.175 75.40938 205.69063Q74.8 206.19063 73.84688 206.19063Q72.6125 206.19063 71.89375 205.3Q71.05 204.2375 71.05 201.81563ZM72.12813 201.81563Q72.12813 203.925 72.62813 204.62813Q73.12813 205.33125 73.84688 205.33125Q74.58125 205.33125 75.06563 204.62813Q75.56563 203.925 75.56563 201.81563Q75.56563 199.69063 75.06563 199.00313Q74.58125 198.3 73.83125 198.3Q73.1125 198.3 72.675 198.90938Q72.12813 199.69063 72.12813 201.81563Z" fill-rule="nonzero"/><path fill="#000000" d="M57.1125 158.88126L57.1125 157.86563L62.675 157.86563L62.675 158.69376Q61.8625 159.56876 61.05 161.02188Q60.253124 162.45938 59.815624 163.99063Q59.4875 165.06876 59.409374 166.35L58.315624 166.35Q58.33125 165.33438 58.70625 163.89688Q59.096874 162.45938 59.8 161.13126Q60.51875 159.80313 61.33125 158.88126L57.1125 158.88126ZM64.05 164.1L65.15938 164.00626Q65.28438 164.81876 65.72188 165.225Q66.175 165.63126 66.81563 165.63126Q67.56563 165.63126 68.09688 165.05313Q68.62813 164.475 68.62813 163.5375Q68.62813 162.63126 68.1125 162.11563Q67.6125 161.58438 66.78438 161.58438Q66.28438 161.58438 65.8625 161.81876Q65.45625 162.05313 65.22188 162.4125L64.2375 162.2875L65.06563 157.88126L69.34688 157.88126L69.34688 158.88126L65.90938 158.88126L65.45625 161.19376Q66.22188 160.64688 67.06563 160.64688Q68.19063 160.64688 68.95625 161.42813Q69.7375 162.20938 69.7375 163.44376Q69.7375 164.6 69.06563 165.45938Q68.2375 166.49063 66.81563 166.49063Q65.64375 166.49063 64.89375 165.83438Q64.15938 165.17813 64.05 164.1ZM71.05 162.11563Q71.05 160.58438 71.3625 159.6625Q71.675 158.725 72.28438 158.225Q72.90938 157.725 73.84688 157.725Q74.53438 157.725 75.05 158.00626Q75.58125 158.2875 75.925 158.81876Q76.26875 159.33438 76.45625 160.08438Q76.64375 160.83438 76.64375 162.11563Q76.64375 163.63126 76.33125 164.55313Q76.03438 165.475 75.40938 165.99063Q74.8 166.49063 73.84688 166.49063Q72.6125 166.49063 71.89375 165.6Q71.05 164.5375 71.05 162.11563ZM72.12813 162.11563Q72.12813 164.225 72.62813 164.92813Q73.12813 165.63126 73.84688 165.63126Q74.58125 165.63126 75.06563 164.92813Q75.56563 164.225 75.56563 162.11563Q75.56563 159.99063 75.06563 159.30313Q74.58125 158.6 73.83125 158.6Q73.1125 158.6 72.675 159.20938Q72.12813 159.99063 72.12813 162.11563Z" fill-rule="nonzero"/><path fill="#000000" d="M54.01875 126.65L52.971874 126.65L52.971874 119.93125Q52.58125 120.29063 51.95625 120.66563Q51.346874 121.025 50.8625 121.19688L50.8625 120.18125Q51.7375 119.75938 52.39375 119.18125Q53.065624 118.5875 53.346874 118.025L54.01875 118.025L54.01875 126.65ZM57.05 122.41563Q57.05 120.88438 57.3625 119.9625Q57.675 119.025 58.284374 118.525Q58.909374 118.025 59.846874 118.025Q60.534374 118.025 61.05 118.30625Q61.58125 118.5875 61.925 119.11875Q62.26875 119.63438 62.45625 120.38438Q62.64375 121.13438 62.64375 122.41563Q62.64375 123.93125 62.33125 124.85313Q62.034374 125.775 61.409374 126.29063Q60.8 126.79063 59.846874 126.79063Q58.6125 126.79063 57.89375 125.9Q57.05 124.8375 57.05 122.41563ZM58.128124 122.41563Q58.128124 124.525 58.628124 125.22813Q59.128124 125.93125 59.846874 125.93125Q60.58125 125.93125 61.065624 125.22813Q61.565624 124.525 61.565624 122.41563Q61.565624 120.29063 61.065624 119.60313Q60.58125 118.9 59.83125 118.9Q59.1125 118.9 58.675 119.50938Q58.128124 120.29063 58.128124 122.41563ZM64.05 122.41563Q64.05 120.88438 64.3625 119.9625Q64.675 119.025 65.28438 118.525Q65.90938 118.025 66.84688 118.025Q67.53438 118.025 68.05 118.30625Q68.58125 118.5875 68.925 119.11875Q69.26875 119.63438 69.45625 120.38438Q69.64375 121.13438 69.64375 122.41563Q69.64375 123.93125 69.33125 124.85313Q69.03438 125.775 68.40938 126.29063Q67.8 126.79063 66.84688 126.79063Q65.6125 126.79063 64.89375 125.9Q64.05 124.8375 64.05 122.41563ZM65.12813 122.41563Q65.12813 124.525 65.62813 125.22813Q66.12813 125.93125 66.84688 125.93125Q67.58125 125.93125 68.06563 125.22813Q68.56563 124.525 68.56563 122.41563Q68.56563 120.29063 68.06563 119.60313Q67.58125 118.9 66.83125 118.9Q66.1125 118.9 65.675 119.50938Q65.12813 120.29063 65.12813 122.41563ZM71.05 122.41563Q71.05 120.88438 71.3625 119.9625Q71.675 119.025 72.28438 118.525Q72.90938 118.025 73.84688 118.025Q74.53438 118.025 75.05 118.30625Q75.58125 118.5875 75.925 119.11875Q76.26875 119.63438 76.45625 120.38438Q76.64375 121.13438 76.64375 122.41563Q76.64375 123.93125 76.33125 124.85313Q76.03438 125.775 75.40938 126.29063Q74.8 126.79063 73.84688 126.79063Q72.6125 126.79063 71.89375 125.9Q71.05 124.8375 71.05 122.41563ZM72.12813 122.41563Q72.12813 124.525 72.62813 125.22813Q73.12813 125.93125 73.84688 125.93125Q74.58125 125.93125 75.06563 125.22813Q75.56563 124.525 75.56563 122.41563Q75.56563 120.29063 75.06563 119.60313Q74.58125 118.9 73.83125 118.9Q73.1125 118.9 72.675 119.50938Q72.12813 120.29063 72.12813 122.41563Z" fill-rule="nonzero"/><path fill="#000000" d="M54.01875 86.95L52.971874 86.95L52.971874 80.23125Q52.58125 80.59062 51.95625 80.96562Q51.346874 81.325 50.8625 81.49687L50.8625 80.48125Q51.7375 80.05937 52.39375 79.48125Q53.065624 78.8875 53.346874 78.325L54.01875 78.325L54.01875 86.95ZM62.596874 85.93437L62.596874 86.95L56.909374 86.95Q56.909374 86.575 57.034374 86.21562Q57.253124 85.6375 57.721874 85.075Q58.20625 84.5125 59.1125 83.77812Q60.51875 82.62187 61.003124 81.95Q61.503124 81.27812 61.503124 80.68437Q61.503124 80.05937 61.05 79.6375Q60.596874 79.2 59.878124 79.2Q59.1125 79.2 58.659374 79.65312Q58.20625 80.10625 58.190624 80.91875L57.1125 80.80937Q57.221874 79.59062 57.940624 78.96562Q58.675 78.325 59.909374 78.325Q61.14375 78.325 61.8625 79.0125Q62.58125 79.7 62.58125 80.71562Q62.58125 81.23125 62.3625 81.73125Q62.159374 82.21562 61.659374 82.77812Q61.175 83.325 60.05 84.27812Q59.096874 85.075 58.815624 85.37187Q58.55 85.65312 58.378124 85.93437L62.596874 85.93437ZM64.05 84.7L65.15938 84.60625Q65.28438 85.41875 65.72188 85.825Q66.175 86.23125 66.81563 86.23125Q67.56563 86.23125 68.09688 85.65312Q68.62813 85.075 68.62813 84.1375Q68.62813 83.23125 68.1125 82.71562Q67.6125 82.18437 66.78438 82.18437Q66.28438 82.18437 65.8625 82.41875Q65.45625 82.65312 65.22188 83.0125L64.2375 82.8875L65.06563 78.48125L69.34688 78.48125L69.34688 79.48125L65.90938 79.48125L65.45625 81.79375Q66.22188 81.24687 67.06563 81.24687Q68.19063 81.24687 68.95625 82.02812Q69.7375 82.80937 69.7375 84.04375Q69.7375 85.2 69.06563 86.05937Q68.2375 87.09062 66.81563 87.09062Q65.64375 87.09062 64.89375 86.43437Q64.15938 85.77812 64.05 84.7ZM71.05 82.71562Q71.05 81.18437 71.3625 80.2625Q71.675 79.325 72.28438 78.825Q72.90938 78.325 73.84688 78.325Q74.53438 78.325 75.05 78.60625Q75.58125 78.8875 75.925 79.41875Q76.26875 79.93437 76.45625 80.68437Q76.64375 81.43437 76.64375 82.71562Q76.64375 84.23125 76.33125 85.15312Q76.03438 86.075 75.40938 86.59062Q74.8 87.09062 73.84688 87.09062Q72.6125 87.09062 71.89375 86.2Q71.05 85.1375 71.05 82.71562ZM72.12813 82.71562Q72.12813 84.825 72.62813 85.52812Q73.12813 86.23125 73.84688 86.23125Q74.58125 86.23125 75.06563 85.52812Q75.56563 84.825 75.56563 82.71562Q75.56563 80.59062 75.06563 79.90312Q74.58125 79.2 73.83125 79.2Q73.1125 79.2 72.675 79.80937Q72.12813 80.59062 72.12813 82.71562Z" fill-rule="nonzero"/><path fill="#000000" d="M80.55 294.21564Q80.55 292.6844 80.8625 291.7625Q81.175 290.825 81.78438 290.325Q82.40938 289.825 83.34688 289.825Q84.03438 289.825 84.55 290.10626Q85.08125 290.3875 85.425 290.91876Q85.76875 291.4344 85.95625 292.1844Q86.14375 292.9344 86.14375 294.21564Q86.14375 295.73126 85.83125 296.65314Q85.53438 297.575 84.90938 298.09064Q84.3 298.59064 83.34688 298.59064Q82.1125 298.59064 81.39375 297.7Q80.55 296.6375 80.55 294.21564ZM81.62813 294.21564Q81.62813 296.325 82.12813 297.02814Q82.62813 297.73126 83.34688 297.73126Q84.08125 297.73126 84.56563 297.02814Q85.06563 296.325 85.06563 294.21564Q85.06563 292.09064 84.56563 291.40314Q84.08125 290.7 83.33125 290.7Q82.6125 290.7 82.175 291.3094Q81.62813 292.09064 81.62813 294.21564Z" fill-rule="nonzero"/><path fill="#000000" d="M218.07707 297.4344L218.07707 298.45L212.38957 298.45Q212.38957 298.075 212.51457 297.71564Q212.73332 297.1375 213.20207 296.575Q213.68645 296.0125 214.5927 295.27814Q215.99895 294.1219 216.48332 293.45Q216.98332 292.77814 216.98332 292.1844Q216.98332 291.5594 216.5302 291.1375Q216.07707 290.7 215.35832 290.7Q214.5927 290.7 214.13957 291.15314Q213.68645 291.60626 213.67082 292.41876L212.5927 292.3094Q212.70207 291.09064 213.42082 290.46564Q214.1552 289.825 215.38957 289.825Q216.62395 289.825 217.3427 290.5125Q218.06145 291.2 218.06145 292.21564Q218.06145 292.73126 217.8427 293.23126Q217.63957 293.71564 217.13957 294.27814Q216.6552 294.825 215.5302 295.77814Q214.57707 296.575 214.29582 296.8719Q214.0302 297.15314 213.85832 297.4344L218.07707 297.4344ZM219.5302 296.2L220.63957 296.10626Q220.76457 296.91876 221.20207 297.325Q221.6552 297.73126 222.29582 297.73126Q223.04582 297.73126 223.57707 297.15314Q224.10832 296.575 224.10832 295.6375Q224.10832 294.73126 223.5927 294.21564Q223.0927 293.6844 222.26457 293.6844Q221.76457 293.6844 221.3427 293.91876Q220.93645 294.15314 220.70207 294.5125L219.7177 294.3875L220.54582 289.98126L224.82707 289.98126L224.82707 290.98126L221.38957 290.98126L220.93645 293.29376Q221.70207 292.7469 222.54582 292.7469Q223.67082 292.7469 224.43645 293.52814Q225.2177 294.3094 225.2177 295.54376Q225.2177 296.7 224.54582 297.5594Q223.7177 298.59064 222.29582 298.59064Q221.12395 298.59064 220.37395 297.9344Q219.63957 297.27814 219.5302 296.2ZM226.5302 294.21564Q226.5302 292.6844 226.8427 291.7625Q227.1552 290.825 227.76457 290.325Q228.38957 289.825 229.32707 289.825Q230.01457 289.825 230.5302 290.10626Q231.06145 290.3875 231.4052 290.91876Q231.74895 291.4344 231.93645 292.1844Q232.12395 292.9344 232.12395 294.21564Q232.12395 295.73126 231.81145 296.65314Q231.51457 297.575 230.88957 298.09064Q230.2802 298.59064 229.32707 298.59064Q228.0927 298.59064 227.37395 297.7Q226.5302 296.6375 226.5302 294.21564ZM227.60832 294.21564Q227.60832 296.325 228.10832 297.02814Q228.60832 297.73126 229.32707 297.73126Q230.06145 297.73126 230.54582 297.02814Q231.04582 296.325 231.04582 294.21564Q231.04582 292.09064 230.54582 291.40314Q230.06145 290.7 229.31145 290.7Q228.5927 290.7 228.1552 291.3094Q227.60832 292.09064 227.60832 294.21564ZM233.5302 294.21564Q233.5302 292.6844 233.8427 291.7625Q234.1552 290.825 234.76457 290.325Q235.38957 289.825 236.32707 289.825Q237.01457 289.825 237.5302 290.10626Q238.06145 290.3875 238.4052 290.91876Q238.74895 291.4344 238.93645 292.1844Q239.12395 292.9344 239.12395 294.21564Q239.12395 295.73126 238.81145 296.65314Q238.51457 297.575 237.88957 298.09064Q237.2802 298.59064 236.32707 298.59064Q235.0927 298.59064 234.37395 297.7Q233.5302 296.6375 233.5302 294.21564ZM234.60832 294.21564Q234.60832 296.325 235.10832 297.02814Q235.60832 297.73126 236.32707 297.73126Q237.06145 297.73126 237.54582 297.02814Q238.04582 296.325 238.04582 294.21564Q238.04582 292.09064 237.54582 291.40314Q237.06145 290.7 236.31145 290.7Q235.5927 290.7 235.1552 291.3094Q234.60832 292.09064 234.60832 294.21564ZM240.5302 294.21564Q240.5302 292.6844 240.8427 291.7625Q241.1552 290.825 241.76457 290.325Q242.38957 289.825 243.32707 289.825Q244.01457 289.825 244.5302 290.10626Q245.06145 290.3875 245.4052 290.91876Q245.74895 291.4344 245.93645 292.1844Q246.12395 292.9344 246.12395 294.21564Q246.12395 295.73126 245.81145 296.65314Q245.51457 297.575 244.88957 298.09064Q244.2802 298.59064 243.32707 298.59064Q242.0927 298.59064 241.37395 297.7Q240.5302 296.6375 240.5302 294.21564ZM241.60832 294.21564Q241.60832 296.325 242.10832 297.02814Q242.60832 297.73126 243.32707 297.73126Q244.06145 297.73126 244.54582 297.02814Q245.04582 296.325 245.04582 294.21564Q245.04582 292.09064 244.54582 291.40314Q244.06145 290.7 243.31145 290.7Q242.5927 290.7 242.1552 291.3094Q241.60832 292.09064 241.60832 294.21564ZM247.5302 294.21564Q247.5302 292.6844 247.8427 291.7625Q248.1552 290.825 248.76457 290.325Q249.38957 289.825 250.32707 289.825Q251.01457 289.825 251.5302 290.10626Q252.06145 290.3875 252.4052 290.91876Q252.74895 291.4344 252.93645 292.1844Q253.12395 292.9344 253.12395 294.21564Q253.12395 295.73126 252.81145 296.65314Q252.51457 297.575 251.88957 298.09064Q251.2802 298.59064 250.32707 298.59064Q249.0927 298.59064 248.37395 297.7Q247.5302 296.6375 247.5302 294.21564ZM248.60832 294.21564Q248.60832 296.325 249.10832 297.02814Q249.60832 297.73126 250.32707 297.73126Q251.06145 297.73126 251.54582 297.02814Q252.04582 296.325 252.04582 294.21564Q252.04582 292.09064 251.54582 291.40314Q251.06145 290.7 250.31145 290.7Q249.5927 290.7 249.1552 291.3094Q248.60832 292.09064 248.60832 294.21564Z" fill-rule="nonzero"/><path fill="#000000" d="M362.0104 296.2L363.11978 296.10626Q363.24478 296.91876 363.68228 297.325Q364.1354 297.73126 364.77603 297.73126Q365.52603 297.73126 366.05728 297.15314Q366.58853 296.575 366.58853 295.6375Q366.58853 294.73126 366.0729 294.21564Q365.5729 293.6844 364.74478 293.6844Q364.24478 293.6844 363.8229 293.91876Q363.41666 294.15314 363.18228 294.5125L362.1979 294.3875L363.02603 289.98126L367.30728 289.98126L367.30728 290.98126L363.86978 290.98126L363.41666 293.29376Q364.18228 292.7469 365.02603 292.7469Q366.15103 292.7469 366.91666 293.52814Q367.6979 294.3094 367.6979 295.54376Q367.6979 296.7 367.02603 297.5594Q366.1979 298.59064 364.77603 298.59064Q363.60416 298.59064 362.85416 297.9344Q362.11978 297.27814 362.0104 296.2ZM369.0104 294.21564Q369.0104 292.6844 369.3229 291.7625Q369.6354 290.825 370.24478 290.325Q370.86978 289.825 371.80728 289.825Q372.49478 289.825 373.0104 290.10626Q373.54166 290.3875 373.8854 290.91876Q374.22916 291.4344 374.41666 292.1844Q374.60416 292.9344 374.60416 294.21564Q374.60416 295.73126 374.29166 296.65314Q373.99478 297.575 373.36978 298.09064Q372.7604 298.59064 371.80728 298.59064Q370.5729 298.59064 369.85416 297.7Q369.0104 296.6375 369.0104 294.21564ZM370.08853 294.21564Q370.08853 296.325 370.58853 297.02814Q371.08853 297.73126 371.80728 297.73126Q372.54166 297.73126 373.02603 297.02814Q373.52603 296.325 373.52603 294.21564Q373.52603 292.09064 373.02603 291.40314Q372.54166 290.7 371.79166 290.7Q371.0729 290.7 370.6354 291.3094Q370.08853 292.09064 370.08853 294.21564ZM376.0104 294.21564Q376.0104 292.6844 376.3229 291.7625Q376.6354 290.825 377.24478 290.325Q377.86978 289.825 378.80728 289.825Q379.49478 289.825 380.0104 290.10626Q380.54166 290.3875 380.8854 290.91876Q381.22916 291.4344 381.41666 292.1844Q381.60416 292.9344 381.60416 294.21564Q381.60416 295.73126 381.29166 296.65314Q380.99478 297.575 380.36978 298.09064Q379.7604 298.59064 378.80728 298.59064Q377.5729 298.59064 376.85416 297.7Q376.0104 296.6375 376.0104 294.21564ZM377.08853 294.21564Q377.08853 296.325 377.58853 297.02814Q378.08853 297.73126 378.80728 297.73126Q379.54166 297.73126 380.02603 297.02814Q380.52603 296.325 380.52603 294.21564Q380.52603 292.09064 380.02603 291.40314Q379.54166 290.7 378.79166 290.7Q378.0729 290.7 377.6354 291.3094Q377.08853 292.09064 377.08853 294.21564ZM383.0104 294.21564Q383.0104 292.6844 383.3229 291.7625Q383.6354 290.825 384.24478 290.325Q384.86978 289.825 385.80728 289.825Q386.49478 289.825 387.0104 290.10626Q387.54166 290.3875 387.8854 290.91876Q388.22916 291.4344 388.41666 292.1844Q388.60416 292.9344 388.60416 294.21564Q388.60416 295.73126 388.29166 296.65314Q387.99478 297.575 387.36978 298.09064Q386.7604 298.59064 385.80728 298.59064Q384.5729 298.59064 383.85416 297.7Q383.0104 296.6375 383.0104 294.21564ZM384.08853 294.21564Q384.08853 296.325 384.58853 297.02814Q385.08853 297.73126 385.80728 297.73126Q386.54166 297.73126 387.02603 297.02814Q387.52603 296.325 387.52603 294.21564Q387.52603 292.09064 387.02603 291.40314Q386.54166 290.7 385.79166 290.7Q385.0729 290.7 384.6354 291.3094Q384.08853 292.09064 384.08853 294.21564ZM390.0104 294.21564Q390.0104 292.6844 390.3229 291.7625Q390.6354 290.825 391.24478 290.325Q391.86978 289.825 392.80728 289.825Q393.49478 289.825 394.0104 290.10626Q394.54166 290.3875 394.8854 290.91876Q395.22916 291.4344 395.41666 292.1844Q395.60416 292.9344 395.60416 294.21564Q395.60416 295.73126 395.29166 296.65314Q394.99478 297.575 394.36978 298.09064Q393.7604 298.59064 392.80728 298.59064Q391.5729 298.59064 390.85416 297.7Q390.0104 296.6375 390.0104 294.21564ZM391.08853 294.21564Q391.08853 296.325 391.58853 297.02814Q392.08853 297.73126 392.80728 297.73126Q393.54166 297.73126 394.02603 297.02814Q394.52603 296.325 394.52603 294.21564Q394.52603 292.09064 394.02603 291.40314Q393.54166 290.7 392.79166 290.7Q392.0729 290.7 391.6354 291.3094Q391.08853 292.09064 391.08853 294.21564ZM397.0104 294.21564Q397.0104 292.6844 397.3229 291.7625Q397.6354 290.825 398.24478 290.325Q398.86978 289.825 399.80728 289.825Q400.49478 289.825 401.0104 290.10626Q401.54166 290.3875 401.8854 290.91876Q402.22916 291.4344 402.41666 292.1844Q402.60416 292.9344 402.60416 294.21564Q402.60416 295.73126 402.29166 296.65314Q401.99478 297.575 401.36978 298.09064Q400.7604 298.59064 399.80728 298.59064Q398.5729 298.59064 397.85416 297.7Q397.0104 296.6375 397.0104 294.21564ZM398.08853 294.21564Q398.08853 296.325 398.58853 297.02814Q399.08853 297.73126 399.80728 297.73126Q400.54166 297.73126 401.02603 297.02814Q401.52603 296.325 401.52603 294.21564Q401.52603 292.09064 401.02603 291.40314Q400.54166 290.7 399.79166 290.7Q399.0729 290.7 398.6354 291.3094Q398.08853 292.09064 398.08853 294.21564Z" fill-rule="nonzero"/><path fill="#000000" d="M511.5531 290.98126L511.5531 289.96564L517.1156 289.96564L517.1156 290.79376Q516.3031 291.66876 515.4906 293.1219Q514.6937 294.5594 514.2562 296.09064Q513.9281 297.16876 513.85 298.45L512.7562 298.45Q512.77185 297.4344 513.14685 295.9969Q513.5375 294.5594 514.2406 293.23126Q514.95935 291.90314 515.77185 290.98126L511.5531 290.98126ZM518.4906 296.2L519.6 296.10626Q519.725 296.91876 520.1625 297.325Q520.6156 297.73126 521.2562 297.73126Q522.0062 297.73126 522.5375 297.15314Q523.0687 296.575 523.0687 295.6375Q523.0687 294.73126 522.5531 294.21564Q522.0531 293.6844 521.225 293.6844Q520.725 293.6844 520.3031 293.91876Q519.89685 294.15314 519.6625 294.5125L518.6781 294.3875L519.5062 289.98126L523.7875 289.98126L523.7875 290.98126L520.35 290.98126L519.89685 293.29376Q520.6625 292.7469 521.5062 292.7469Q522.6312 292.7469 523.39685 293.52814Q524.1781 294.3094 524.1781 295.54376Q524.1781 296.7 523.5062 297.5594Q522.6781 298.59064 521.2562 298.59064Q520.08435 298.59064 519.33435 297.9344Q518.6 297.27814 518.4906 296.2ZM525.4906 294.21564Q525.4906 292.6844 525.8031 291.7625Q526.1156 290.825 526.725 290.325Q527.35 289.825 528.2875 289.825Q528.975 289.825 529.4906 290.10626Q530.02185 290.3875 530.3656 290.91876Q530.70935 291.4344 530.89685 292.1844Q531.08435 292.9344 531.08435 294.21564Q531.08435 295.73126 530.77185 296.65314Q530.475 297.575 529.85 298.09064Q529.2406 298.59064 528.2875 298.59064Q527.0531 298.59064 526.33435 297.7Q525.4906 296.6375 525.4906 294.21564ZM526.5687 294.21564Q526.5687 296.325 527.0687 297.02814Q527.5687 297.73126 528.2875 297.73126Q529.02185 297.73126 529.5062 297.02814Q530.0062 296.325 530.0062 294.21564Q530.0062 292.09064 529.5062 291.40314Q529.02185 290.7 528.27185 290.7Q527.5531 290.7 527.1156 291.3094Q526.5687 292.09064 526.5687 294.21564ZM532.4906 294.21564Q532.4906 292.6844 532.8031 291.7625Q533.1156 290.825 533.725 290.325Q534.35 289.825 535.2875 289.825Q535.975 289.825 536.4906 290.10626Q537.02185 290.3875 537.3656 290.91876Q537.70935 291.4344 537.89685 292.1844Q538.08435 292.9344 538.08435 294.21564Q538.08435 295.73126 537.77185 296.65314Q537.475 297.575 536.85 298.09064Q536.2406 298.59064 535.2875 298.59064Q534.0531 298.59064 533.33435 297.7Q532.4906 296.6375 532.4906 294.21564ZM533.5687 294.21564Q533.5687 296.325 534.0687 297.02814Q534.5687 297.73126 535.2875 297.73126Q536.02185 297.73126 536.5062 297.02814Q537.0062 296.325 537.0062 294.21564Q537.0062 292.09064 536.5062 291.40314Q536.02185 290.7 535.27185 290.7Q534.5531 290.7 534.1156 291.3094Q533.5687 292.09064 533.5687 294.21564ZM539.4906 294.21564Q539.4906 292.6844 539.8031 291.7625Q540.1156 290.825 540.725 290.325Q541.35 289.825 542.2875 289.825Q542.975 289.825 543.4906 290.10626Q544.02185 290.3875 544.3656 290.91876Q544.70935 291.4344 544.89685 292.1844Q545.08435 292.9344 545.08435 294.21564Q545.08435 295.73126 544.77185 296.65314Q544.475 297.575 543.85 298.09064Q543.2406 298.59064 542.2875 298.59064Q541.0531 298.59064 540.33435 297.7Q539.4906 296.6375 539.4906 294.21564ZM540.5687 294.21564Q540.5687 296.325 541.0687 297.02814Q541.5687 297.73126 542.2875 297.73126Q543.02185 297.73126 543.5062 297.02814Q544.0062 296.325 544.0062 294.21564Q544.0062 292.09064 543.5062 291.40314Q543.02185 290.7 542.27185 290.7Q541.5531 290.7 541.1156 291.3094Q540.5687 292.09064 540.5687 294.21564ZM546.4906 294.21564Q546.4906 292.6844 546.8031 291.7625Q547.1156 290.825 547.725 290.325Q548.35 289.825 549.2875 289.825Q549.975 289.825 550.4906 290.10626Q551.02185 290.3875 551.3656 290.91876Q551.70935 291.4344 551.89685 292.1844Q552.08435 292.9344 552.08435 294.21564Q552.08435 295.73126 551.77185 296.65314Q551.475 297.575 550.85 298.09064Q550.2406 298.59064 549.2875 298.59064Q548.0531 298.59064 547.33435 297.7Q546.4906 296.6375 546.4906 294.21564ZM547.5687 294.21564Q547.5687 296.325 548.0687 297.02814Q548.5687 297.73126 549.2875 297.73126Q550.02185 297.73126 550.5062 297.02814Q551.0062 296.325 551.0062 294.21564Q551.0062 292.09064 550.5062 291.40314Q550.02185 290.7 549.27185 290.7Q548.5531 290.7 548.1156 291.3094Q547.5687 292.09064 547.5687 294.21564Z" fill-rule="nonzero"/><path fill="#4285f4" d="M245.0 57.25C245.0 60.56371 242.3137 63.25 239.0 63.25C235.6863 63.25 233.0 60.56371 233.0 57.25C233.0 53.93629 235.6863 51.25 239.0 51.25C242.3137 51.25 245.0 53.93629 245.0 57.25Z" fill-rule="nonzero"/><path fill="#1a1a1a" d="M253.79688 61.25L253.79688 55.03125L254.73438 55.03125L254.73438 55.90625Q255.42188 54.890625 256.71875 54.890625Q257.28125 54.890625 257.75 55.09375Q258.23438 55.296875 258.46875 55.625Q258.70312 55.953125 258.79688 56.390625Q258.84375 56.6875 258.84375 57.421875L258.84375 61.25L257.79688 61.25L257.79688 57.46875Q257.79688 56.8125 257.67188 56.5Q257.54688 56.1875 257.23438 56.0Q256.92188 55.796875 256.5 55.796875Q255.82812 55.796875 255.32812 56.234375Q254.84375 56.65625 254.84375 57.84375L254.84375 61.25L253.79688 61.25ZM260.375 59.390625L261.40625 59.234375Q261.5 59.859375 261.89062 60.1875Q262.29688 60.515625 263.03125 60.515625Q263.75 60.515625 264.09375 60.234375Q264.45312 59.9375 264.45312 59.53125Q264.45312 59.171875 264.14062 58.96875Q263.92188 58.828125 263.0625 58.609375Q261.90625 58.3125 261.45312 58.109375Q261.01562 57.890625 260.78125 57.515625Q260.54688 57.140625 260.54688 56.671875Q260.54688 56.265625 260.73438 55.90625Q260.92188 55.546875 261.25 55.3125Q261.5 55.140625 261.92188 55.015625Q262.34375 54.890625 262.84375 54.890625Q263.5625 54.890625 264.10938 55.109375Q264.67188 55.3125 264.9375 55.671875Q265.20312 56.03125 265.29688 56.625L264.26562 56.765625Q264.20312 56.296875 263.85938 56.03125Q263.53125 55.75 262.90625 55.75Q262.1875 55.75 261.875 56.0Q261.5625 56.234375 261.5625 56.5625Q261.5625 56.765625 261.6875 56.921875Q261.82812 57.09375 262.09375 57.203125Q262.25 57.265625 263.03125 57.46875Q264.15625 57.78125 264.59375 57.96875Q265.03125 58.15625 265.28125 58.515625Q265.53125 58.875 265.53125 59.421875Q265.53125 59.953125 265.21875 60.421875Q264.92188 60.875 264.34375 61.140625Q263.76562 61.390625 263.03125 61.390625Q261.8125 61.390625 261.17188 60.890625Q260.54688 60.375 260.375 59.390625ZM270.0 61.390625L272.48438 52.515625L273.32812 52.515625L270.84375 61.390625L270.0 61.390625ZM276.92188 61.25L276.92188 52.65625L278.07812 52.65625L282.59375 59.40625L282.59375 52.65625L283.6875 52.65625L283.6875 61.25L282.51562 61.25L278.0 54.5L278.0 61.25L276.92188 61.25Z" fill-rule="nonzero"/><path stroke="#4285f4" stroke-width="4.0" stroke-linecap="butt" stroke-opacity="0.4" d="M301.0 57.25L313.0 57.25" fill-rule="nonzero"/><path fill="#1a1a1a" d="M321.375 58.671875L321.375 57.609375L324.625 57.609375L324.625 58.671875L321.375 58.671875ZM327.125 56.59375Q326.46875 56.34375 326.14062 55.90625Q325.82812 55.453125 325.82812 54.84375Q325.82812 53.90625 326.5 53.265625Q327.1875 52.625 328.29688 52.625Q329.42188 52.625 330.10938 53.28125Q330.79688 53.9375 330.79688 54.875Q330.79688 55.46875 330.48438 55.90625Q330.17188 56.34375 329.53125 56.59375Q330.32812 56.84375 330.73438 57.421875Q331.14062 58.0 331.14062 58.796875Q331.14062 59.890625 330.35938 60.640625Q329.59375 61.390625 328.3125 61.390625Q327.04688 61.390625 326.26562 60.640625Q325.48438 59.890625 325.48438 58.765625Q325.48438 57.921875 325.90625 57.359375Q326.34375 56.796875 327.125 56.59375ZM326.90625 54.796875Q326.90625 55.40625 327.29688 55.796875Q327.70312 56.1875 328.32812 56.1875Q328.9375 56.1875 329.32812 55.8125Q329.71875 55.421875 329.71875 54.859375Q329.71875 54.28125 329.3125 53.890625Q328.90625 53.484375 328.3125 53.484375Q327.70312 53.484375 327.29688 53.875Q326.90625 54.265625 326.90625 54.796875ZM326.57812 58.765625Q326.57812 59.21875 326.78125 59.640625Q327.0 60.0625 327.42188 60.296875Q327.84375 60.53125 328.32812 60.53125Q329.07812 60.53125 329.5625 60.046875Q330.0625 59.5625 330.0625 58.8125Q330.0625 58.046875 329.5625 57.546875Q329.0625 57.046875 328.29688 57.046875Q327.54688 57.046875 327.0625 57.546875Q326.57812 58.03125 326.57812 58.765625ZM333.09375 61.25L333.09375 60.046875L334.29688 60.046875L334.29688 61.25L333.09375 61.25ZM335.5625 53.78125L335.5625 52.765625L341.125 52.765625L341.125 53.59375Q340.3125 54.46875 339.5 55.921875Q338.70312 57.359375 338.26562 58.890625Q337.9375 59.96875 337.85938 61.25L336.76562 61.25Q336.78125 60.234375 337.15625 58.796875Q337.54688 57.359375 338.25 56.03125Q338.96875 54.703125 339.78125 53.78125L335.5625 53.78125ZM342.95312 61.25L342.95312 52.65625L349.15625 52.65625L349.15625 53.671875L344.09375 53.671875L344.09375 56.296875L348.84375 56.296875L348.84375 57.3125L344.09375 57.3125L344.09375 60.234375L349.35938 60.234375L349.35938 61.25L342.95312 61.25ZM350.375 58.671875L350.375 57.609375L353.625 57.609375L353.625 58.671875L350.375 58.671875ZM354.5 57.015625Q354.5 55.484375 354.8125 54.5625Q355.125 53.625 355.73438 53.125Q356.35938 52.625 357.29688 52.625Q357.98438 52.625 358.5 52.90625Q359.03125 53.1875 359.375 53.71875Q359.71875 54.234375 359.90625 54.984375Q360.09375 55.734375 360.09375 57.015625Q360.09375 58.53125 359.78125 59.453125Q359.48438 60.375 358.85938 60.890625Q358.25 61.390625 357.29688 61.390625Q356.0625 61.390625 355.34375 60.5Q354.5 59.4375 354.5 57.015625ZM355.57812 57.015625Q355.57812 59.125 356.07812 59.828125Q356.57812 60.53125 357.29688 60.53125Q358.03125 60.53125 358.51562 59.828125Q359.01562 59.125 359.01562 57.015625Q359.01562 54.890625 358.51562 54.203125Q358.03125 53.5 357.28125 53.5Q356.5625 53.5 356.125 54.109375Q355.57812 54.890625 355.57812 57.015625ZM366.96875 54.765625L365.92188 54.84375Q365.78125 54.21875 365.53125 53.9375Q365.09375 53.484375 364.46875 53.484375Q363.96875 53.484375 363.57812 53.765625Q363.09375 54.140625 362.79688 54.84375Q362.51562 55.53125 362.5 56.8125Q362.875 56.234375 363.42188 55.953125Q363.98438 55.671875 364.59375 55.671875Q365.64062 55.671875 366.375 56.453125Q367.125 57.234375 367.125 58.453125Q367.125 59.265625 366.76562 59.96875Q366.42188 60.65625 365.8125 61.03125Q365.20312 61.390625 364.4375 61.390625Q363.10938 61.390625 362.28125 60.421875Q361.45312 59.453125 361.45312 57.234375Q361.45312 54.734375 362.375 53.609375Q363.17188 52.625 364.53125 52.625Q365.54688 52.625 366.1875 53.203125Q366.84375 53.765625 366.96875 54.765625ZM362.67188 58.46875Q362.67188 59.015625 362.89062 59.515625Q363.125 60.0 363.53125 60.265625Q363.95312 60.53125 364.42188 60.53125Q365.07812 60.53125 365.5625 60.0Q366.04688 59.453125 366.04688 58.53125Q366.04688 57.640625 365.5625 57.125Q365.09375 56.609375 364.375 56.609375Q363.65625 56.609375 363.15625 57.125Q362.67188 57.640625 362.67188 58.46875ZM368.375 54.234375L368.64062 53.40625Q369.57812 53.734375 370.0 53.96875Q369.89062 52.90625 369.875 52.515625L370.73438 52.515625Q370.71875 53.09375 370.59375 53.96875Q371.20312 53.65625 371.98438 53.40625L372.25 54.234375Q371.5 54.484375 370.79688 54.5625Q371.14062 54.875 371.79688 55.671875L371.09375 56.171875Q370.75 55.703125 370.29688 54.90625Q369.85938 55.734375 369.53125 56.171875L368.84375 55.671875Q369.51562 54.828125 369.8125 54.5625Q369.0625 54.421875 368.375 54.234375ZM373.09375 61.25L375.35938 58.015625L373.26562 55.03125L374.57812 55.03125L375.53125 56.484375Q375.79688 56.90625 375.96875 57.1875Q376.21875 56.796875 376.4375 56.5L377.48438 55.03125L378.75 55.03125L376.59375 57.953125L378.90625 61.25L377.625 61.25L376.34375 59.3125L376.0 58.796875L374.35938 61.25L373.09375 61.25ZM384.0 59.859375L384.0 57.5L381.67188 57.5L381.67188 56.515625L384.0 56.515625L384.0 54.1875L385.0 54.1875L385.0 56.515625L387.34375 56.515625L387.34375 57.5L385.0 57.5L385.0 59.859375L384.0 59.859375ZM393.125 56.59375Q392.46875 56.34375 392.14062 55.90625Q391.82812 55.453125 391.82812 54.84375Q391.82812 53.90625 392.5 53.265625Q393.1875 52.625 394.29688 52.625Q395.42188 52.625 396.10938 53.28125Q396.79688 53.9375 396.79688 54.875Q396.79688 55.46875 396.48438 55.90625Q396.17188 56.34375 395.53125 56.59375Q396.32812 56.84375 396.73438 57.421875Q397.14062 58.0 397.14062 58.796875Q397.14062 59.890625 396.35938 60.640625Q395.59375 61.390625 394.3125 61.390625Q393.04688 61.390625 392.26562 60.640625Q391.48438 59.890625 391.48438 58.765625Q391.48438 57.921875 391.90625 57.359375Q392.34375 56.796875 393.125 56.59375ZM392.90625 54.796875Q392.90625 55.40625 393.29688 55.796875Q393.70312 56.1875 394.32812 56.1875Q394.9375 56.1875 395.32812 55.8125Q395.71875 55.421875 395.71875 54.859375Q395.71875 54.28125 395.3125 53.890625Q394.90625 53.484375 394.3125 53.484375Q393.70312 53.484375 393.29688 53.875Q392.90625 54.265625 392.90625 54.796875ZM392.57812 58.765625Q392.57812 59.21875 392.78125 59.640625Q393.0 60.0625 393.42188 60.296875Q393.84375 60.53125 394.32812 60.53125Q395.07812 60.53125 395.5625 60.046875Q396.0625 59.5625 396.0625 58.8125Q396.0625 58.046875 395.5625 57.546875Q395.0625 57.046875 394.29688 57.046875Q393.54688 57.046875 393.0625 57.546875Q392.57812 58.03125 392.57812 58.765625ZM398.65625 59.265625L399.67188 59.171875Q399.79688 59.890625 400.15625 60.21875Q400.53125 60.53125 401.09375 60.53125Q401.57812 60.53125 401.9375 60.3125Q402.3125 60.078125 402.54688 59.71875Q402.78125 59.34375 402.9375 58.71875Q403.09375 58.078125 403.09375 57.421875Q403.09375 57.34375 403.09375 57.203125Q402.78125 57.703125 402.23438 58.03125Q401.6875 58.34375 401.04688 58.34375Q399.96875 58.34375 399.23438 57.578125Q398.5 56.796875 398.5 55.53125Q398.5 54.21875 399.26562 53.421875Q400.04688 52.625 401.20312 52.625Q402.03125 52.625 402.71875 53.078125Q403.42188 53.53125 403.78125 54.375Q404.14062 55.203125 404.14062 56.78125Q404.14062 58.421875 403.78125 59.40625Q403.4375 60.375 402.71875 60.890625Q402.01562 61.390625 401.07812 61.390625Q400.0625 61.390625 399.42188 60.84375Q398.78125 60.28125 398.65625 59.265625ZM402.96875 55.46875Q402.96875 54.5625 402.48438 54.03125Q402.01562 53.5 401.32812 53.5Q400.625 53.5 400.09375 54.078125Q399.57812 54.640625 399.57812 55.5625Q399.57812 56.375 400.07812 56.890625Q400.57812 57.40625 401.29688 57.40625Q402.03125 57.40625 402.5 56.890625Q402.96875 56.375 402.96875 55.46875ZM405.5 57.015625Q405.5 55.484375 405.8125 54.5625Q406.125 53.625 406.73438 53.125Q407.35938 52.625 408.29688 52.625Q408.98438 52.625 409.5 52.90625Q410.03125 53.1875 410.375 53.71875Q410.71875 54.234375 410.90625 54.984375Q411.09375 55.734375 411.09375 57.015625Q411.09375 58.53125 410.78125 59.453125Q410.48438 60.375 409.85938 60.890625Q409.25 61.390625 408.29688 61.390625Q407.0625 61.390625 406.34375 60.5Q405.5 59.4375 405.5 57.015625ZM406.57812 57.015625Q406.57812 59.125 407.07812 59.828125Q407.57812 60.53125 408.29688 60.53125Q409.03125 60.53125 409.51562 59.828125Q410.01562 59.125 410.01562 57.015625Q410.01562 54.890625 409.51562 54.203125Q409.03125 53.5 408.28125 53.5Q407.5625 53.5 407.125 54.109375Q406.57812 54.890625 406.57812 57.015625ZM415.9375 61.25L415.9375 52.65625L419.75 52.65625Q420.90625 52.65625 421.5 52.890625Q422.09375 53.125 422.45312 53.71875Q422.8125 54.296875 422.8125 55.0Q422.8125 55.921875 422.21875 56.546875Q421.625 57.171875 420.39062 57.34375Q420.84375 57.5625 421.07812 57.765625Q421.57812 58.21875 422.01562 58.90625L423.51562 61.25L422.07812 61.25L420.95312 59.46875Q420.45312 58.6875 420.125 58.28125Q419.8125 57.875 419.54688 57.71875Q419.29688 57.546875 419.03125 57.46875Q418.84375 57.4375 418.40625 57.4375L417.07812 57.4375L417.07812 61.25L415.9375 61.25ZM417.07812 56.453125L419.53125 56.453125Q420.29688 56.453125 420.73438 56.296875Q421.1875 56.125 421.40625 55.78125Q421.64062 55.421875 421.64062 55.0Q421.64062 54.390625 421.1875 54.0Q420.75 53.609375 419.79688 53.609375L417.07812 53.609375L417.07812 56.453125ZM424.14062 56.953125Q424.1875 56.625 424.42188 56.28125Q424.79688 55.78125 425.64062 55.171875Q426.48438 54.5625 426.64062 54.375Q426.85938 54.140625 426.85938 53.890625Q426.85938 53.609375 426.64062 53.4375Q426.4375 53.25 426.04688 53.25Q425.65625 53.25 425.46875 53.390625Q425.28125 53.515625 425.15625 53.90625L424.26562 53.8125Q424.4375 53.171875 424.85938 52.859375Q425.28125 52.546875 426.0625 52.546875Q426.95312 52.546875 427.35938 52.90625Q427.78125 53.25 427.78125 53.75Q427.78125 54.234375 427.42188 54.671875Q427.17188 55.0 426.23438 55.671875Q425.73438 56.03125 425.53125 56.25L427.79688 56.25L427.79688 56.953125L424.14062 56.953125ZM437.34375 56.203125L431.67188 56.203125L431.67188 55.21875L437.34375 55.21875L437.34375 56.203125ZM437.34375 58.8125L431.67188 58.8125L431.67188 57.828125L437.34375 57.828125L437.34375 58.8125ZM441.5 57.015625Q441.5 55.484375 441.8125 54.5625Q442.125 53.625 442.73438 53.125Q443.35938 52.625 444.29688 52.625Q444.98438 52.625 445.5 52.90625Q446.03125 53.1875 446.375 53.71875Q446.71875 54.234375 446.90625 54.984375Q447.09375 55.734375 447.09375 57.015625Q447.09375 58.53125 446.78125 59.453125Q446.48438 60.375 445.85938 60.890625Q445.25 61.390625 444.29688 61.390625Q443.0625 61.390625 442.34375 60.5Q441.5 59.4375 441.5 57.015625ZM442.57812 57.015625Q442.57812 59.125 443.07812 59.828125Q443.57812 60.53125 444.29688 60.53125Q445.03125 60.53125 445.51562 59.828125Q446.01562 59.125 446.01562 57.015625Q446.01562 54.890625 445.51562 54.203125Q445.03125 53.5 444.28125 53.5Q443.5625 53.5 443.125 54.109375Q442.57812 54.890625 442.57812 57.015625ZM449.09375 61.25L449.09375 60.046875L450.29688 60.046875L450.29688 61.25L449.09375 61.25ZM451.5 57.015625Q451.5 55.484375 451.8125 54.5625Q452.125 53.625 452.73438 53.125Q453.35938 52.625 454.29688 52.625Q454.98438 52.625 455.5 52.90625Q456.03125 53.1875 456.375 53.71875Q456.71875 54.234375 456.90625 54.984375Q457.09375 55.734375 457.09375 57.015625Q457.09375 58.53125 456.78125 59.453125Q456.48438 60.375 455.85938 60.890625Q455.25 61.390625 454.29688 61.390625Q453.0625 61.390625 452.34375 60.5Q451.5 59.4375 451.5 57.015625ZM452.57812 57.015625Q452.57812 59.125 453.07812 59.828125Q453.57812 60.53125 454.29688 60.53125Q455.03125 60.53125 455.51562 59.828125Q456.01562 59.125 456.01562 57.015625Q456.01562 54.890625 455.51562 54.203125Q455.03125 53.5 454.28125 53.5Q453.5625 53.5 453.125 54.109375Q452.57812 54.890625 452.57812 57.015625ZM458.5 57.015625Q458.5 55.484375 458.8125 54.5625Q459.125 53.625 459.73438 53.125Q460.35938 52.625 461.29688 52.625Q461.98438 52.625 462.5 52.90625Q463.03125 53.1875 463.375 53.71875Q463.71875 54.234375 463.90625 54.984375Q464.09375 55.734375 464.09375 57.015625Q464.09375 58.53125 463.78125 59.453125Q463.48438 60.375 462.85938 60.890625Q462.25 61.390625 461.29688 61.390625Q460.0625 61.390625 459.34375 60.5Q458.5 59.4375 458.5 57.015625ZM459.57812 57.015625Q459.57812 59.125 460.07812 59.828125Q460.57812 60.53125 461.29688 60.53125Q462.03125 60.53125 462.51562 59.828125Q463.01562 59.125 463.01562 57.015625Q463.01562 54.890625 462.51562 54.203125Q462.03125 53.5 461.28125 53.5Q460.5625 53.5 460.125 54.109375Q459.57812 54.890625 459.57812 57.015625ZM471.04688 60.234375L471.04688 61.25L465.35938 61.25Q465.35938 60.875 465.48438 60.515625Q465.70312 59.9375 466.17188 59.375Q466.65625 58.8125 467.5625 58.078125Q468.96875 56.921875 469.45312 56.25Q469.95312 55.578125 469.95312 54.984375Q469.95312 54.359375 469.5 53.9375Q469.04688 53.5 468.32812 53.5Q467.5625 53.5 467.10938 53.953125Q466.65625 54.40625 466.64062 55.21875L465.5625 55.109375Q465.67188 53.890625 466.39062 53.265625Q467.125 52.625 468.35938 52.625Q469.59375 52.625 470.3125 53.3125Q471.03125 54.0 471.03125 55.015625Q471.03125 55.53125 470.8125 56.03125Q470.60938 56.515625 470.10938 57.078125Q469.625 57.625 468.5 58.578125Q467.54688 59.375 467.26562 59.671875Q467.0 59.953125 466.82812 60.234375L471.04688 60.234375Z" fill-rule="nonzero"/><path fill="#757575" d="M263.04688 29.815624L265.57812 30.6125Q265.0 32.721874 263.64062 33.753124Q262.29688 34.76875 260.21875 34.76875Q257.65625 34.76875 256.0 33.01875Q254.35938 31.26875 254.35938 28.221874Q254.35938 25.003124 256.01562 23.221874Q257.67188 21.440624 260.375 21.440624Q262.75 21.440624 264.21875 22.846874Q265.10938 23.675 265.54688 25.221874L262.96875 25.83125Q262.73438 24.83125 262.0 24.253124Q261.28125 23.675 260.25 23.675Q258.8125 23.675 257.92188 24.70625Q257.03125 25.721874 257.03125 28.034374Q257.03125 30.471874 257.90625 31.51875Q258.79688 32.55 260.20312 32.55Q261.23438 32.55 261.98438 31.89375Q262.73438 31.221874 263.04688 29.815624ZM267.21875 29.753124Q267.21875 28.51875 267.82812 27.378124Q268.4375 26.221874 269.54688 25.6125Q270.65625 25.003124 272.03125 25.003124Q274.14062 25.003124 275.5 26.378124Q276.85938 27.753124 276.85938 29.8625Q276.85938 31.971874 275.48438 33.378124Q274.125 34.76875 272.04688 34.76875Q270.76562 34.76875 269.59375 34.190624Q268.4375 33.596874 267.82812 32.4875Q267.21875 31.3625 267.21875 29.753124ZM269.75 29.878124Q269.75 31.26875 270.40625 32.01875Q271.07812 32.753124 272.03125 32.753124Q273.0 32.753124 273.65625 32.01875Q274.3125 31.26875 274.3125 29.8625Q274.3125 28.4875 273.65625 27.753124Q273.0 27.01875 272.03125 27.01875Q271.07812 27.01875 270.40625 27.753124Q269.75 28.4875 269.75 29.878124ZM284.9375 34.55L284.9375 33.159374Q284.42188 33.89375 283.59375 34.33125Q282.76562 34.76875 281.84375 34.76875Q280.90625 34.76875 280.15625 34.3625Q279.40625 33.940624 279.0625 33.190624Q278.73438 32.440624 278.73438 31.128124L278.73438 25.221874L281.20312 25.221874L281.20312 29.503124Q281.20312 31.471874 281.34375 31.925Q281.48438 32.3625 281.84375 32.628124Q282.20312 32.878124 282.75 32.878124Q283.39062 32.878124 283.89062 32.534374Q284.39062 32.190624 284.57812 31.675Q284.76562 31.159374 284.76562 29.159374L284.76562 25.221874L287.23438 25.221874L287.23438 34.55L284.9375 34.55ZM298.28125 34.55L295.8125 34.55L295.8125 29.784374Q295.8125 28.26875 295.65625 27.83125Q295.5 27.39375 295.14062 27.14375Q294.78125 26.89375 294.28125 26.89375Q293.64062 26.89375 293.125 27.253124Q292.625 27.596874 292.4375 28.175Q292.25 28.753124 292.25 30.315624L292.25 34.55L289.78125 34.55L289.78125 25.221874L292.0625 25.221874L292.0625 26.58125Q293.29688 25.003124 295.14062 25.003124Q295.96875 25.003124 296.64062 25.3Q297.3125 25.596874 297.65625 26.05Q298.01562 26.503124 298.14062 27.096874Q298.28125 27.675 298.28125 28.753124L298.28125 34.55ZM305.07812 25.221874L305.07812 27.190624L303.39062 27.190624L303.39062 30.940624Q303.39062 32.08125 303.4375 32.284374Q303.48438 32.471874 303.65625 32.596874Q303.82812 32.70625 304.07812 32.70625Q304.40625 32.70625 305.0625 32.471874L305.28125 34.39375Q304.40625 34.76875 303.32812 34.76875Q302.65625 34.76875 302.10938 34.55Q301.57812 34.315624 301.32812 33.95625Q301.07812 33.596874 300.98438 32.9875Q300.90625 32.565624 300.90625 31.253124L300.90625 27.190624L299.76562 27.190624L299.76562 25.221874L300.90625 25.221874L300.90625 23.3625L303.39062 21.925L303.39062 25.221874L305.07812 25.221874ZM306.79688 23.95625L306.79688 21.659374L309.26562 21.659374L309.26562 23.95625L306.79688 23.95625ZM306.79688 34.55L306.79688 25.221874L309.26562 25.221874L309.26562 34.55L306.79688 34.55ZM320.28125 34.55L317.8125 34.55L317.8125 29.784374Q317.8125 28.26875 317.65625 27.83125Q317.5 27.39375 317.14062 27.14375Q316.78125 26.89375 316.28125 26.89375Q315.64062 26.89375 315.125 27.253124Q314.625 27.596874 314.4375 28.175Q314.25 28.753124 314.25 30.315624L314.25 34.55L311.78125 34.55L311.78125 25.221874L314.0625 25.221874L314.0625 26.58125Q315.29688 25.003124 317.14062 25.003124Q317.96875 25.003124 318.64062 25.3Q319.3125 25.596874 319.65625 26.05Q320.01562 26.503124 320.14062 27.096874Q320.28125 27.675 320.28125 28.753124L320.28125 34.55ZM322.5625 35.159374L325.39062 35.503124Q325.45312 36.003124 325.70312 36.190624Q326.0625 36.45625 326.8125 36.45625Q327.78125 36.45625 328.26562 36.159374Q328.59375 35.971874 328.76562 35.534374Q328.875 35.221874 328.875 34.39375L328.875 33.034374Q327.76562 34.55 326.07812 34.55Q324.20312 34.55 323.09375 32.95625Q322.23438 31.70625 322.23438 29.83125Q322.23438 27.4875 323.35938 26.253124Q324.5 25.003124 326.17188 25.003124Q327.90625 25.003124 329.03125 26.51875L329.03125 25.221874L331.34375 25.221874L331.34375 33.596874Q331.34375 35.2375 331.0625 36.05Q330.79688 36.878124 330.29688 37.346874Q329.8125 37.815624 328.98438 38.065624Q328.17188 38.33125 326.92188 38.33125Q324.54688 38.33125 323.54688 37.51875Q322.5625 36.70625 322.5625 35.471874Q322.5625 35.346874 322.5625 35.159374ZM324.76562 29.690624Q324.76562 31.175 325.34375 31.8625Q325.92188 32.55 326.76562 32.55Q327.67188 32.55 328.29688 31.846874Q328.92188 31.14375 328.92188 29.753124Q328.92188 28.3 328.3125 27.596874Q327.71875 26.89375 326.8125 26.89375Q325.92188 26.89375 325.34375 27.58125Q324.76562 28.26875 324.76562 29.690624ZM338.15625 30.3625L340.6875 30.1125Q340.90625 31.378124 341.60938 31.9875Q342.3125 32.58125 343.5 32.58125Q344.75 32.58125 345.39062 32.05Q346.03125 31.51875 346.03125 30.8Q346.03125 30.346874 345.75 30.034374Q345.48438 29.70625 344.82812 29.471874Q344.35938 29.315624 342.73438 28.909374Q340.64062 28.39375 339.79688 27.628124Q338.60938 26.565624 338.60938 25.034374Q338.60938 24.05 339.17188 23.20625Q339.73438 22.346874 340.78125 21.89375Q341.82812 21.440624 343.3125 21.440624Q345.75 21.440624 346.96875 22.503124Q348.20312 23.565624 348.26562 25.346874L345.65625 25.45625Q345.48438 24.471874 344.9375 24.034374Q344.39062 23.596874 343.29688 23.596874Q342.15625 23.596874 341.51562 24.065624Q341.10938 24.3625 341.10938 24.8625Q341.10938 25.315624 341.48438 25.64375Q341.98438 26.065624 343.875 26.51875Q345.78125 26.95625 346.6875 27.440624Q347.59375 27.909374 348.10938 28.753124Q348.625 29.58125 348.625 30.8Q348.625 31.909374 348.0 32.878124Q347.39062 33.83125 346.26562 34.315624Q345.14062 34.784374 343.46875 34.784374Q341.03125 34.784374 339.71875 33.659374Q338.40625 32.51875 338.15625 30.3625ZM350.21875 29.753124Q350.21875 28.51875 350.82812 27.378124Q351.4375 26.221874 352.54688 25.6125Q353.65625 25.003124 355.03125 25.003124Q357.14062 25.003124 358.5 26.378124Q359.85938 27.753124 359.85938 29.8625Q359.85938 31.971874 358.48438 33.378124Q357.125 34.76875 355.04688 34.76875Q353.76562 34.76875 352.59375 34.190624Q351.4375 33.596874 350.82812 32.4875Q350.21875 31.3625 350.21875 29.753124ZM352.75 29.878124Q352.75 31.26875 353.40625 32.01875Q354.07812 32.753124 355.03125 32.753124Q356.0 32.753124 356.65625 32.01875Q357.3125 31.26875 357.3125 29.8625Q357.3125 28.4875 356.65625 27.753124Q356.0 27.01875 355.03125 27.01875Q354.07812 27.01875 353.40625 27.753124Q352.75 28.4875 352.75 29.878124ZM364.15625 34.55L361.6875 34.55L361.6875 25.221874L363.98438 25.221874L363.98438 26.55Q364.5625 25.596874 365.03125 25.3Q365.51562 25.003124 366.10938 25.003124Q366.95312 25.003124 367.73438 25.471874L366.96875 27.628124Q366.34375 27.221874 365.8125 27.221874Q365.29688 27.221874 364.92188 27.503124Q364.5625 27.784374 364.35938 28.534374Q364.15625 29.284374 364.15625 31.659374L364.15625 34.55ZM373.07812 25.221874L373.07812 27.190624L371.39062 27.190624L371.39062 30.940624Q371.39062 32.08125 371.4375 32.284374Q371.48438 32.471874 371.65625 32.596874Q371.82812 32.70625 372.07812 32.70625Q372.40625 32.70625 373.0625 32.471874L373.28125 34.39375Q372.40625 34.76875 371.32812 34.76875Q370.65625 34.76875 370.10938 34.55Q369.57812 34.315624 369.32812 33.95625Q369.07812 33.596874 368.98438 32.9875Q368.90625 32.565624 368.90625 31.253124L368.90625 27.190624L367.76562 27.190624L367.76562 25.221874L368.90625 25.221874L368.90625 23.3625L371.39062 21.925L371.39062 25.221874L373.07812 25.221874ZM379.51562 31.1125L379.51562 28.64375L384.35938 28.64375L384.35938 31.1125L379.51562 31.1125ZM399.04688 29.815624L401.57812 30.6125Q401.0 32.721874 399.64062 33.753124Q398.29688 34.76875 396.21875 34.76875Q393.65625 34.76875 392.0 33.01875Q390.35938 31.26875 390.35938 28.221874Q390.35938 25.003124 392.01562 23.221874Q393.67188 21.440624 396.375 21.440624Q398.75 21.440624 400.21875 22.846874Q401.10938 23.675 401.54688 25.221874L398.96875 25.83125Q398.73438 24.83125 398.0 24.253124Q397.28125 23.675 396.25 23.675Q394.8125 23.675 393.92188 24.70625Q393.03125 25.721874 393.03125 28.034374Q393.03125 30.471874 393.90625 31.51875Q394.79688 32.55 396.20312 32.55Q397.23438 32.55 397.98438 31.89375Q398.73438 31.221874 399.04688 29.815624ZM405.64062 28.065624L403.39062 27.659374Q403.78125 26.3 404.70312 25.659374Q405.625 25.003124 407.4375 25.003124Q409.09375 25.003124 409.89062 25.39375Q410.70312 25.784374 411.03125 26.39375Q411.375 26.9875 411.375 28.596874L411.34375 31.4875Q411.34375 32.70625 411.45312 33.3Q411.57812 33.878124 411.90625 34.55L409.46875 34.55Q409.35938 34.3 409.21875 33.815624Q409.15625 33.596874 409.14062 33.534374Q408.5 34.14375 407.78125 34.45625Q407.0625 34.76875 406.25 34.76875Q404.79688 34.76875 403.96875 33.9875Q403.14062 33.190624 403.14062 32.003124Q403.14062 31.20625 403.51562 30.596874Q403.89062 29.971874 404.57812 29.64375Q405.26562 29.315624 406.54688 29.065624Q408.28125 28.7375 408.9375 28.45625L408.9375 28.20625Q408.9375 27.503124 408.57812 27.20625Q408.23438 26.89375 407.26562 26.89375Q406.60938 26.89375 406.23438 27.159374Q405.85938 27.409374 405.64062 28.065624ZM408.9375 30.065624Q408.46875 30.221874 407.4375 30.440624Q406.40625 30.659374 406.09375 30.878124Q405.60938 31.221874 405.60938 31.753124Q405.60938 32.26875 406.0 32.64375Q406.39062 33.01875 406.98438 33.01875Q407.65625 33.01875 408.25 32.58125Q408.70312 32.253124 408.84375 31.76875Q408.9375 31.440624 408.9375 30.565624L408.9375 30.065624ZM412.92188 31.89375L415.40625 31.503124Q415.5625 32.221874 416.04688 32.596874Q416.53125 32.971874 417.39062 32.971874Q418.35938 32.971874 418.84375 32.628124Q419.15625 32.378124 419.15625 31.971874Q419.15625 31.690624 418.98438 31.503124Q418.79688 31.33125 418.15625 31.175Q415.17188 30.51875 414.375 29.971874Q413.26562 29.221874 413.26562 27.8625Q413.26562 26.659374 414.21875 25.83125Q415.1875 25.003124 417.1875 25.003124Q419.10938 25.003124 420.03125 25.628124Q420.96875 26.253124 421.32812 27.471874L419.0 27.909374Q418.84375 27.3625 418.42188 27.08125Q418.01562 26.784374 417.23438 26.784374Q416.26562 26.784374 415.84375 27.05Q415.5625 27.253124 415.5625 27.55Q415.5625 27.815624 415.8125 28.003124Q416.14062 28.253124 418.10938 28.70625Q420.07812 29.14375 420.875 29.8Q421.64062 30.45625 421.64062 31.628124Q421.64062 32.909374 420.5625 33.846874Q419.5 34.76875 417.39062 34.76875Q415.48438 34.76875 414.375 33.9875Q413.26562 33.20625 412.92188 31.89375ZM429.20312 31.58125L431.65625 31.9875Q431.1875 33.346874 430.15625 34.065624Q429.14062 34.76875 427.59375 34.76875Q425.15625 34.76875 424.0 33.175Q423.07812 31.89375 423.07812 29.95625Q423.07812 27.628124 424.28125 26.315624Q425.5 25.003124 427.35938 25.003124Q429.4375 25.003124 430.64062 26.378124Q431.84375 27.753124 431.79688 30.596874L425.60938 30.596874Q425.625 31.690624 426.1875 32.3Q426.76562 32.909374 427.625 32.909374Q428.20312 32.909374 428.59375 32.596874Q429.0 32.284374 429.20312 31.58125ZM429.34375 29.08125Q429.3125 28.003124 428.78125 27.45625Q428.25 26.89375 427.5 26.89375Q426.6875 26.89375 426.17188 27.4875Q425.64062 28.065624 425.64062 29.08125L429.34375 29.08125ZM439.8125 21.659374L444.96875 21.659374Q446.5 21.659374 447.25 21.8Q448.0 21.925 448.59375 22.33125Q449.1875 22.721874 449.57812 23.39375Q449.98438 24.065624 449.98438 24.909374Q449.98438 25.815624 449.48438 26.58125Q449.0 27.33125 448.17188 27.70625Q449.34375 28.05 449.96875 28.878124Q450.60938 29.690624 450.60938 30.815624Q450.60938 31.690624 450.20312 32.51875Q449.79688 33.346874 449.07812 33.846874Q448.375 34.346874 447.34375 34.45625Q446.6875 34.534374 444.20312 34.55L439.8125 34.55L439.8125 21.659374ZM442.42188 23.815624L442.42188 26.784374L444.125 26.784374Q445.64062 26.784374 446.01562 26.7375Q446.6875 26.659374 447.0625 26.284374Q447.45312 25.89375 447.45312 25.284374Q447.45312 24.675 447.10938 24.3Q446.78125 23.925 446.14062 23.846874Q445.75 23.815624 443.92188 23.815624L442.42188 23.815624ZM442.42188 28.940624L442.42188 32.378124L444.82812 32.378124Q446.23438 32.378124 446.60938 32.3Q447.1875 32.190624 447.54688 31.784374Q447.92188 31.378124 447.92188 30.690624Q447.92188 30.1125 447.64062 29.70625Q447.35938 29.3 446.82812 29.128124Q446.29688 28.940624 444.51562 28.940624L442.42188 28.940624Z" fill-rule="nonzero"/></svg>