<svg version="1.1" viewBox="0.0 0.0 705.0 351.0" fill="none" stroke="none" stroke-linecap="square" stroke-miterlimit="10" width="705" height="351" xmlns:xlink="http://www.w3.org/1999/xlink" xmlns="http://www.w3.org/2000/svg"><path fill="#ffffff" d="M0 0L705.0 0L705.0 351.0L0 351.0L0 0Z" fill-rule="nonzero"/><path stroke="#333333" stroke-width="1.0" stroke-linecap="butt" d="M111.5 82.5L111.5 281.5" fill-rule="nonzero"/><path stroke="#cccccc" stroke-width="1.0" stroke-linecap="butt" d="M254.5 82.5L254.5 281.5" fill-rule="nonzero"/><path stroke="#cccccc" stroke-width="1.0" stroke-linecap="butt" d="M396.5 82.5L396.5 281.5" fill-rule="nonzero"/><path stroke="#cccccc" stroke-width="1.0" stroke-linecap="butt" d="M539.5 82.5L539.5 281.5" fill-rule="nonzero"/><path stroke="#cccccc" stroke-width="1.0" stroke-linecap="butt" d="M681.5 82.5L681.5 281.5" fill-rule="nonzero"/><path stroke="#333333" stroke-width="1.0" stroke-linecap="butt" d="M111.5 281.5L687.5 281.5" fill-rule="nonzero"/><path stroke="#cccccc" stroke-width="1.0" stroke-linecap="butt" d="M111.5 215.5L687.5 215.5" fill-rule="nonzero"/><path stroke="#cccccc" stroke-width="1.0" stroke-linecap="butt" d="M111.5 149.5L687.5 149.5" fill-rule="nonzero"/><path stroke="#cccccc" stroke-width="1.0" stroke-linecap="butt" d="M111.5 82.5L687.5 82.5" fill-rule="nonzero"/><clipPath id="id_0"><path d="M111.55 82.95L687.45 82.95L687.45 281.45L111.55 281.45L111.55 82.95Z" clip-rule="nonzero"/></clipPath><path stroke="#4285f4" stroke-width="2.0" stroke-linecap="butt" stroke-opacity="0.4" clip-path="url(#id_0)" d="M0 316.3083L687.45 89.548904" fill-rule="nonzero"/><path fill="#4285f4" clip-path="url(#id_0)" d="M121.75198 278.49765C121.75198 280.98294 119.73726 282.99765 117.25198 282.99765C114.7667 282.99765 112.75198 280.98294 112.75198 278.49765C112.75198 276.0124 114.7667 273.99765 117.25198 273.99765C119.73726 273.99765 121.75198 276.0124 121.75198 278.49765Z" fill-rule="nonzero"/><path fill="#4285f4" clip-path="url(#id_0)" d="M121.75198 278.39786C121.75198 280.88315 119.73726 282.89786 117.25198 282.89786C114.7667 282.89786 112.75198 280.88315 112.75198 278.39786C112.75198 275.91257 114.7667 273.89786 117.25198 273.89786C119.73726 273.89786 121.75198 275.91257 121.75198 278.39786Z" fill-rule="nonzero"/><path fill="#4285f4" clip-path="url(#id_0)" d="M121.75198 278.25323C121.75198 280.73853 119.73726 282.75323 117.25198 282.75323C114.7667 282.75323 112.75198 280.73853 112.75198 278.25323C112.75198 275.76794 114.7667 273.75323 117.25198 273.75323C119.73726 273.75323 121.75198 275.76794 121.75198 278.25323Z" fill-rule="nonzero"/><path fill="#4285f4" clip-path="url(#id_0)" d="M173.06981 259.9349C173.06981 262.4202 171.05508 264.4349 168.56981 264.4349C166.08452 264.4349 164.06981 262.4202 164.06981 259.9349C164.06981 257.44965 166.08452 255.43492 168.56981 255.43492C171.05508 255.43492 173.06981 257.44965 173.06981 259.9349Z" fill-rule="nonzero"/><path fill="#4285f4" clip-path="url(#id_0)" d="M173.06981 259.92606C173.06981 262.41135 171.05508 264.42606 168.56981 264.42606C166.08452 264.42606 164.06981 262.41135 164.06981 259.92606C164.06981 257.4408 166.08452 255.42607 168.56981 255.42607C171.05508 255.42607 173.06981 257.4408 173.06981 259.92606Z" fill-rule="nonzero"/><path fill="#4285f4" clip-path="url(#id_0)" d="M173.06981 259.77478C173.06981 262.26007 171.05508 264.27478 168.56981 264.27478C166.08452 264.27478 164.06981 262.26007 164.06981 259.77478C164.06981 257.28952 166.08452 255.2748 168.56981 255.2748C171.05508 255.2748 173.06981 257.28952 173.06981 259.77478Z" fill-rule="nonzero"/><path fill="#4285f4" clip-path="url(#id_0)" d="M686.24805 91.7709C686.24805 94.25618 684.2333 96.2709 681.74805 96.2709C679.26276 96.2709 677.24805 94.25618 677.24805 91.7709C677.24805 89.285614 679.26276 87.2709 681.74805 87.2709C684.2333 87.2709 686.24805 89.285614 686.24805 91.7709Z" fill-rule="nonzero"/><path fill="#4285f4" clip-path="url(#id_0)" d="M686.24805 91.44171C686.24805 93.926994 684.2333 95.94171 681.74805 95.94171C679.26276 95.94171 677.24805 93.926994 677.24805 91.44171C677.24805 88.956436 679.26276 86.94171 681.74805 86.94171C684.2333 86.94171 686.24805 88.956436 686.24805 91.44171Z" fill-rule="nonzero"/><path fill="#4285f4" clip-path="url(#id_0)" d="M686.24805 91.30187C686.24805 93.787155 684.2333 95.80187 681.74805 95.80187C679.26276 95.80187 677.24805 93.787155 677.24805 91.30187C677.24805 88.81659 679.26276 86.80187 681.74805 86.80187C684.2333 86.80187 686.24805 88.81659 686.24805 91.30187Z" fill-rule="nonzero"/><path fill="#000000" d="M395.92188 330.45L395.92188 321.85626L397.07812 321.85626L401.59375 328.60626L401.59375 321.85626L402.6875 321.85626L402.6875 330.45L401.51562 330.45L397.0 323.7L397.0 330.45L395.92188 330.45Z" fill-rule="nonzero"/><path fill="#000000" d="M28.550013 203.90312L22.331263 203.90312L22.331263 202.96562L23.206263 202.96562Q22.190638 202.27812 22.190638 200.98125Q22.190638 200.41875 22.393763 199.95Q22.596888 199.46562 22.925013 199.23125Q23.253138 198.99687 23.690638 198.90312Q23.987513 198.85625 24.721888 198.85625L28.550013 198.85625L28.550013 199.90312L24.768763 199.90312Q24.112513 199.90312 23.800013 200.02812Q23.487513 200.15312 23.300013 200.46562Q23.096888 200.77812 23.096888 201.2Q23.096888 201.87187 23.534388 202.37187Q23.956263 202.85625 25.143763 202.85625L28.550013 202.85625L28.550013 203.90312ZM26.690638 197.325L26.534388 196.29375Q27.159388 196.2 27.487513 195.80937Q27.815638 195.40312 27.815638 194.66875Q27.815638 193.95 27.534388 193.60625Q27.237513 193.24687 26.831263 193.24687Q26.471888 193.24687 26.268763 193.55937Q26.128138 193.77812 25.909388 194.6375Q25.612513 195.79375 25.409388 196.24687Q25.190638 196.68437 24.815638 196.91875Q24.440638 197.15312 23.971888 197.15312Q23.565638 197.15312 23.206263 196.96562Q22.846888 196.77812 22.612513 196.45Q22.440638 196.2 22.315638 195.77812Q22.190638 195.35625 22.190638 194.85625Q22.190638 194.1375 22.409388 193.59062Q22.612513 193.02812 22.971888 192.7625Q23.331263 192.49687 23.925013 192.40312L24.065638 193.43437Q23.596888 193.49687 23.331263 193.84062Q23.050013 194.16875 23.050013 194.79375Q23.050013 195.5125 23.300013 195.825Q23.534388 196.1375 23.862513 196.1375Q24.065638 196.1375 24.221888 196.0125Q24.393763 195.87187 24.503138 195.60625Q24.565638 195.45 24.768763 194.66875Q25.081263 193.54375 25.268763 193.10625Q25.456263 192.66875 25.815638 192.41875Q26.175013 192.16875 26.721888 192.16875Q27.253138 192.16875 27.721888 192.48125Q28.175013 192.77812 28.440638 193.35625Q28.690638 193.93437 28.690638 194.66875Q28.690638 195.8875 28.190638 196.52812Q27.675013 197.15312 26.690638 197.325ZM28.690638 187.7L19.815638 185.21562L19.815638 184.37187L28.690638 186.85625L28.690638 187.7ZM28.550013 180.77812L19.956263 180.77812L19.956263 179.62187L26.706263 175.10625L19.956263 175.10625L19.956263 174.0125L28.550013 174.0125L28.550013 175.18437L21.800013 179.7L28.550013 179.7L28.550013 180.77812Z" fill-rule="nonzero"/><path fill="#000000" d="M99.05 281.21564Q99.05 279.6844 99.3625 278.7625Q99.675 277.825 100.28438 277.325Q100.90938 276.825 101.84688 276.825Q102.53438 276.825 103.05 277.10626Q103.58125 277.3875 103.925 277.91876Q104.26875 278.4344 104.45625 279.1844Q104.64375 279.9344 104.64375 281.21564Q104.64375 282.73126 104.33125 283.65314Q104.03438 284.575 103.40938 285.09064Q102.8 285.59064 101.84688 285.59064Q100.6125 285.59064 99.89375 284.7Q99.05 283.6375 99.05 281.21564ZM100.12813 281.21564Q100.12813 283.325 100.62813 284.02814Q101.12813 284.73126 101.84688 284.73126Q102.58125 284.73126 103.06563 284.02814Q103.56563 283.325 103.56563 281.21564Q103.56563 279.09064 103.06563 278.40314Q102.58125 277.7 101.83125 277.7Q101.1125 277.7 100.675 278.3094Q100.12813 279.09064 100.12813 281.21564Z" fill-rule="nonzero"/><path fill="#000000" d="M55.596874 218.26772L55.596874 219.28334L49.909374 219.28334Q49.909374 218.90834 50.034374 218.54897Q50.253124 217.97084 50.721874 217.40834Q51.20625 216.84584 52.1125 216.11147Q53.51875 214.95522 54.003124 214.28334Q54.503124 213.61147 54.503124 213.01772Q54.503124 212.39272 54.05 211.97084Q53.596874 211.53334 52.878124 211.53334Q52.1125 211.53334 51.659374 211.98647Q51.20625 212.43959 51.190624 213.25209L50.1125 213.14272Q50.221874 211.92397 50.940624 211.29897Q51.675 210.65834 52.909374 210.65834Q54.14375 210.65834 54.8625 211.34584Q55.58125 212.03334 55.58125 213.04897Q55.58125 213.56459 55.3625 214.06459Q55.159374 214.54897 54.659374 215.11147Q54.175 215.65834 53.05 216.61147Q52.096874 217.40834 51.815624 217.70522Q51.55 217.98647 51.378124 218.26772L55.596874 218.26772ZM57.05 215.04897Q57.05 213.51772 57.3625 212.59584Q57.675 211.65834 58.284374 211.15834Q58.909374 210.65834 59.846874 210.65834Q60.534374 210.65834 61.05 210.93959Q61.58125 211.22084 61.925 211.75209Q62.26875 212.26772 62.45625 213.01772Q62.64375 213.76772 62.64375 215.04897Q62.64375 216.56459 62.33125 217.48647Q62.034374 218.40834 61.409374 218.92397Q60.8 219.42397 59.846874 219.42397Q58.6125 219.42397 57.89375 218.53334Q57.05 217.47084 57.05 215.04897ZM58.128124 215.04897Q58.128124 217.15834 58.628124 217.86147Q59.128124 218.56459 59.846874 218.56459Q60.58125 218.56459 61.065624 217.86147Q61.565624 217.15834 61.565624 215.04897Q61.565624 212.92397 61.065624 212.23647Q60.58125 211.53334 59.83125 211.53334Q59.1125 211.53334 58.675 212.14272Q58.128124 212.92397 58.128124 215.04897ZM64.05 215.04897Q64.05 213.51772 64.3625 212.59584Q64.675 211.65834 65.28438 211.15834Q65.90938 210.65834 66.84688 210.65834Q67.53438 210.65834 68.05 210.93959Q68.58125 211.22084 68.925 211.75209Q69.26875 212.26772 69.45625 213.01772Q69.64375 213.76772 69.64375 215.04897Q69.64375 216.56459 69.33125 217.48647Q69.03438 218.40834 68.40938 218.92397Q67.8 219.42397 66.84688 219.42397Q65.6125 219.42397 64.89375 218.53334Q64.05 217.47084 64.05 215.04897ZM65.12813 215.04897Q65.12813 217.15834 65.62813 217.86147Q66.12813 218.56459 66.84688 218.56459Q67.58125 218.56459 68.06563 217.86147Q68.56563 217.15834 68.56563 215.04897Q68.56563 212.92397 68.06563 212.23647Q67.58125 211.53334 66.83125 211.53334Q66.1125 211.53334 65.675 212.14272Q65.12813 212.92397 65.12813 215.04897ZM71.05 215.04897Q71.05 213.51772 71.3625 212.59584Q71.675 211.65834 72.28438 211.15834Q72.90938 210.65834 73.84688 210.65834Q74.53438 210.65834 75.05 210.93959Q75.58125 211.22084 75.925 211.75209Q76.26875 212.26772 76.45625 213.01772Q76.64375 213.76772 76.64375 215.04897Q76.64375 216.56459 76.33125 217.48647Q76.03438 218.40834 75.40938 218.92397Q74.8 219.42397 73.84688 219.42397Q72.6125 219.42397 71.89375 218.53334Q71.05 217.47084 71.05 215.04897ZM72.12813 215.04897Q72.12813 217.15834 72.62813 217.86147Q73.12813 218.56459 73.84688 218.56459Q74.58125 218.56459 75.06563 217.86147Q75.56563 217.15834 75.56563 215.04897Q75.56563 212.92397 75.06563 212.23647Q74.58125 211.53334 73.83125 211.53334Q73.1125 211.53334 72.675 212.14272Q72.12813 212.92397 72.12813 215.04897ZM78.05 215.04897Q78.05 213.51772 78.3625 212.59584Q78.675 211.65834 79.28438 211.15834Q79.90938 210.65834 80.84688 210.65834Q81.53438 210.65834 82.05 210.93959Q82.58125 211.22084 82.925 211.75209Q83.26875 212.26772 83.45625 213.01772Q83.64375 213.76772 83.64375 215.04897Q83.64375 216.56459 83.33125 217.48647Q83.03438 218.40834 82.40938 218.92397Q81.8 219.42397 80.84688 219.42397Q79.6125 219.42397 78.89375 218.53334Q78.05 217.47084 78.05 215.04897ZM79.12813 215.04897Q79.12813 217.15834 79.62813 217.86147Q80.12813 218.56459 80.84688 218.56459Q81.58125 218.56459 82.06563 217.86147Q82.56563 217.15834 82.56563 215.04897Q82.56563 212.92397 82.06563 212.23647Q81.58125 211.53334 80.83125 211.53334Q80.1125 211.53334 79.675 212.14272Q79.12813 212.92397 79.12813 215.04897ZM85.05 215.04897Q85.05 213.51772 85.3625 212.59584Q85.675 211.65834 86.28438 211.15834Q86.90938 210.65834 87.84688 210.65834Q88.53438 210.65834 89.05 210.93959Q89.58125 211.22084 89.925 211.75209Q90.26875 212.26772 90.45625 213.01772Q90.64375 213.76772 90.64375 215.04897Q90.64375 216.56459 90.33125 217.48647Q90.03438 218.40834 89.40938 218.92397Q88.8 219.42397 87.84688 219.42397Q86.6125 219.42397 85.89375 218.53334Q85.05 217.47084 85.05 215.04897ZM86.12813 215.04897Q86.12813 217.15834 86.62813 217.86147Q87.12813 218.56459 87.84688 218.56459Q88.58125 218.56459 89.06563 217.86147Q89.56563 217.15834 89.56563 215.04897Q89.56563 212.92397 89.06563 212.23647Q88.58125 211.53334 87.83125 211.53334Q87.1125 211.53334 86.675 212.14272Q86.12813 212.92397 86.12813 215.04897ZM92.05 215.04897Q92.05 213.51772 92.3625 212.59584Q92.675 211.65834 93.28438 211.15834Q93.90938 210.65834 94.84688 210.65834Q95.53438 210.65834 96.05 210.93959Q96.58125 211.22084 96.925 211.75209Q97.26875 212.26772 97.45625 213.01772Q97.64375 213.76772 97.64375 215.04897Q97.64375 216.56459 97.33125 217.48647Q97.03438 218.40834 96.40938 218.92397Q95.8 219.42397 94.84688 219.42397Q93.6125 219.42397 92.89375 218.53334Q92.05 217.47084 92.05 215.04897ZM93.12813 215.04897Q93.12813 217.15834 93.62813 217.86147Q94.12813 218.56459 94.84688 218.56459Q95.58125 218.56459 96.06563 217.86147Q96.56563 217.15834 96.56563 215.04897Q96.56563 212.92397 96.06563 212.23647Q95.58125 211.53334 94.83125 211.53334Q94.1125 211.53334 93.675 212.14272Q93.12813 212.92397 93.12813 215.04897ZM99.05 215.04897Q99.05 213.51772 99.3625 212.59584Q99.675 211.65834 100.28438 211.15834Q100.90938 210.65834 101.84688 210.65834Q102.53438 210.65834 103.05 210.93959Q103.58125 211.22084 103.925 211.75209Q104.26875 212.26772 104.45625 213.01772Q104.64375 213.76772 104.64375 215.04897Q104.64375 216.56459 104.33125 217.48647Q104.03438 218.40834 103.40938 218.92397Q102.8 219.42397 101.84688 219.42397Q100.6125 219.42397 99.89375 218.53334Q99.05 217.47084 99.05 215.04897ZM100.12813 215.04897Q100.12813 217.15834 100.62813 217.86147Q101.12813 218.56459 101.84688 218.56459Q102.58125 218.56459 103.06563 217.86147Q103.56563 217.15834 103.56563 215.04897Q103.56563 212.92397 103.06563 212.23647Q102.58125 211.53334 101.83125 211.53334Q101.1125 211.53334 100.675 212.14272Q100.12813 212.92397 100.12813 215.04897Z" fill-rule="nonzero"/><path fill="#000000" d="M53.425 153.11667L53.425 151.05417L49.70625 151.05417L49.70625 150.08542L53.628124 144.52292L54.4875 144.52292L54.4875 150.08542L55.64375 150.08542L55.64375 151.05417L54.4875 151.05417L54.4875 153.11667L53.425 153.11667ZM53.425 150.08542L53.425 146.22604L50.7375 150.08542L53.425 150.08542ZM57.05 148.8823Q57.05 147.35104 57.3625 146.42917Q57.675 145.49167 58.284374 144.99167Q58.909374 144.49167 59.846874 144.49167Q60.534374 144.49167 61.05 144.77292Q61.58125 145.05417 61.925 145.58542Q62.26875 146.10104 62.45625 146.85104Q62.64375 147.60104 62.64375 148.8823Q62.64375 150.39792 62.33125 151.3198Q62.034374 152.24167 61.409374 152.7573Q60.8 153.2573 59.846874 153.2573Q58.6125 153.2573 57.89375 152.36667Q57.05 151.30417 57.05 148.8823ZM58.128124 148.8823Q58.128124 150.99167 58.628124 151.6948Q59.128124 152.39792 59.846874 152.39792Q60.58125 152.39792 61.065624 151.6948Q61.565624 150.99167 61.565624 148.8823Q61.565624 146.7573 61.065624 146.0698Q60.58125 145.36667 59.83125 145.36667Q59.1125 145.36667 58.675 145.97604Q58.128124 146.7573 58.128124 148.8823ZM64.05 148.8823Q64.05 147.35104 64.3625 146.42917Q64.675 145.49167 65.28438 144.99167Q65.90938 144.49167 66.84688 144.49167Q67.53438 144.49167 68.05 144.77292Q68.58125 145.05417 68.925 145.58542Q69.26875 146.10104 69.45625 146.85104Q69.64375 147.60104 69.64375 148.8823Q69.64375 150.39792 69.33125 151.3198Q69.03438 152.24167 68.40938 152.7573Q67.8 153.2573 66.84688 153.2573Q65.6125 153.2573 64.89375 152.36667Q64.05 151.30417 64.05 148.8823ZM65.12813 148.8823Q65.12813 150.99167 65.62813 151.6948Q66.12813 152.39792 66.84688 152.39792Q67.58125 152.39792 68.06563 151.6948Q68.56563 150.99167 68.56563 148.8823Q68.56563 146.7573 68.06563 146.0698Q67.58125 145.36667 66.83125 145.36667Q66.1125 145.36667 65.675 145.97604Q65.12813 146.7573 65.12813 148.8823ZM71.05 148.8823Q71.05 147.35104 71.3625 146.42917Q71.675 145.49167 72.28438 144.99167Q72.90938 144.49167 73.84688 144.49167Q74.53438 144.49167 75.05 144.77292Q75.58125 145.05417 75.925 145.58542Q76.26875 146.10104 76.45625 146.85104Q76.64375 147.60104 76.64375 148.8823Q76.64375 150.39792 76.33125 151.3198Q76.03438 152.24167 75.40938 152.7573Q74.8 153.2573 73.84688 153.2573Q72.6125 153.2573 71.89375 152.36667Q71.05 151.30417 71.05 148.8823ZM72.12813 148.8823Q72.12813 150.99167 72.62813 151.6948Q73.12813 152.39792 73.84688 152.39792Q74.58125 152.39792 75.06563 151.6948Q75.56563 150.99167 75.56563 148.8823Q75.56563 146.7573 75.06563 146.0698Q74.58125 145.36667 73.83125 145.36667Q73.1125 145.36667 72.675 145.97604Q72.12813 146.7573 72.12813 148.8823ZM78.05 148.8823Q78.05 147.35104 78.3625 146.42917Q78.675 145.49167 79.28438 144.99167Q79.90938 144.49167 80.84688 144.49167Q81.53438 144.49167 82.05 144.77292Q82.58125 145.05417 82.925 145.58542Q83.26875 146.10104 83.45625 146.85104Q83.64375 147.60104 83.64375 148.8823Q83.64375 150.39792 83.33125 151.3198Q83.03438 152.24167 82.40938 152.7573Q81.8 153.2573 80.84688 153.2573Q79.6125 153.2573 78.89375 152.36667Q78.05 151.30417 78.05 148.8823ZM79.12813 148.8823Q79.12813 150.99167 79.62813 151.6948Q80.12813 152.39792 80.84688 152.39792Q81.58125 152.39792 82.06563 151.6948Q82.56563 150.99167 82.56563 148.8823Q82.56563 146.7573 82.06563 146.0698Q81.58125 145.36667 80.83125 145.36667Q80.1125 145.36667 79.675 145.97604Q79.12813 146.7573 79.12813 148.8823ZM85.05 148.8823Q85.05 147.35104 85.3625 146.42917Q85.675 145.49167 86.28438 144.99167Q86.90938 144.49167 87.84688 144.49167Q88.53438 144.49167 89.05 144.77292Q89.58125 145.05417 89.925 145.58542Q90.26875 146.10104 90.45625 146.85104Q90.64375 147.60104 90.64375 148.8823Q90.64375 150.39792 90.33125 151.3198Q90.03438 152.24167 89.40938 152.7573Q88.8 153.2573 87.84688 153.2573Q86.6125 153.2573 85.89375 152.36667Q85.05 151.30417 85.05 148.8823ZM86.12813 148.8823Q86.12813 150.99167 86.62813 151.6948Q87.12813 152.39792 87.84688 152.39792Q88.58125 152.39792 89.06563 151.6948Q89.56563 150.99167 89.56563 148.8823Q89.56563 146.7573 89.06563 146.0698Q88.58125 145.36667 87.83125 145.36667Q87.1125 145.36667 86.675 145.97604Q86.12813 146.7573 86.12813 148.8823ZM92.05 148.8823Q92.05 147.35104 92.3625 146.42917Q92.675 145.49167 93.28438 144.99167Q93.90938 144.49167 94.84688 144.49167Q95.53438 144.49167 96.05 144.77292Q96.58125 145.05417 96.925 145.58542Q97.26875 146.10104 97.45625 146.85104Q97.64375 147.60104 97.64375 148.8823Q97.64375 150.39792 97.33125 151.3198Q97.03438 152.24167 96.40938 152.7573Q95.8 153.2573 94.84688 153.2573Q93.6125 153.2573 92.89375 152.36667Q92.05 151.30417 92.05 148.8823ZM93.12813 148.8823Q93.12813 150.99167 93.62813 151.6948Q94.12813 152.39792 94.84688 152.39792Q95.58125 152.39792 96.06563 151.6948Q96.56563 150.99167 96.56563 148.8823Q96.56563 146.7573 96.06563 146.0698Q95.58125 145.36667 94.83125 145.36667Q94.1125 145.36667 93.675 145.97604Q93.12813 146.7573 93.12813 148.8823ZM99.05 148.8823Q99.05 147.35104 99.3625 146.42917Q99.675 145.49167 100.28438 144.99167Q100.90938 144.49167 101.84688 144.49167Q102.53438 144.49167 103.05 144.77292Q103.58125 145.05417 103.925 145.58542Q104.26875 146.10104 104.45625 146.85104Q104.64375 147.60104 104.64375 148.8823Q104.64375 150.39792 104.33125 151.3198Q104.03438 152.24167 103.40938 152.7573Q102.8 153.2573 101.84688 153.2573Q100.6125 153.2573 99.89375 152.36667Q99.05 151.30417 99.05 148.8823ZM100.12813 148.8823Q100.12813 150.99167 100.62813 151.6948Q101.12813 152.39792 101.84688 152.39792Q102.58125 152.39792 103.06563 151.6948Q103.56563 150.99167 103.56563 148.8823Q103.56563 146.7573 103.06563 146.0698Q102.58125 145.36667 101.83125 145.36667Q101.1125 145.36667 100.675 145.97604Q100.12813 146.7573 100.12813 148.8823Z" fill-rule="nonzero"/><path fill="#000000" d="M55.51875 80.46562L54.471874 80.54375Q54.33125 79.91875 54.08125 79.6375Q53.64375 79.18437 53.01875 79.18437Q52.51875 79.18437 52.128124 79.46562Q51.64375 79.84062 51.346874 80.54375Q51.065624 81.23125 51.05 82.5125Q51.425 81.93437 51.971874 81.65312Q52.534374 81.37187 53.14375 81.37187Q54.190624 81.37187 54.925 82.15312Q55.675 82.93437 55.675 84.15312Q55.675 84.96562 55.315624 85.66875Q54.971874 86.35625 54.3625 86.73125Q53.753124 87.09062 52.9875 87.09062Q51.659374 87.09062 50.83125 86.12187Q50.003124 85.15312 50.003124 82.93437Q50.003124 80.43437 50.925 79.30937Q51.721874 78.325 53.08125 78.325Q54.096874 78.325 54.7375 78.90312Q55.39375 79.46562 55.51875 80.46562ZM51.221874 84.16875Q51.221874 84.71562 51.440624 85.21562Q51.675 85.7 52.08125 85.96562Q52.503124 86.23125 52.971874 86.23125Q53.628124 86.23125 54.1125 85.7Q54.596874 85.15312 54.596874 84.23125Q54.596874 83.34062 54.1125 82.825Q53.64375 82.30937 52.925 82.30937Q52.20625 82.30937 51.70625 82.825Q51.221874 83.34062 51.221874 84.16875ZM57.05 82.71562Q57.05 81.18437 57.3625 80.2625Q57.675 79.325 58.284374 78.825Q58.909374 78.325 59.846874 78.325Q60.534374 78.325 61.05 78.60625Q61.58125 78.8875 61.925 79.41875Q62.26875 79.93437 62.45625 80.68437Q62.64375 81.43437 62.64375 82.71562Q62.64375 84.23125 62.33125 85.15312Q62.034374 86.075 61.409374 86.59062Q60.8 87.09062 59.846874 87.09062Q58.6125 87.09062 57.89375 86.2Q57.05 85.1375 57.05 82.71562ZM58.128124 82.71562Q58.128124 84.825 58.628124 85.52812Q59.128124 86.23125 59.846874 86.23125Q60.58125 86.23125 61.065624 85.52812Q61.565624 84.825 61.565624 82.71562Q61.565624 80.59062 61.065624 79.90312Q60.58125 79.2 59.83125 79.2Q59.1125 79.2 58.675 79.80937Q58.128124 80.59062 58.128124 82.71562ZM64.05 82.71562Q64.05 81.18437 64.3625 80.2625Q64.675 79.325 65.28438 78.825Q65.90938 78.325 66.84688 78.325Q67.53438 78.325 68.05 78.60625Q68.58125 78.8875 68.925 79.41875Q69.26875 79.93437 69.45625 80.68437Q69.64375 81.43437 69.64375 82.71562Q69.64375 84.23125 69.33125 85.15312Q69.03438 86.075 68.40938 86.59062Q67.8 87.09062 66.84688 87.09062Q65.6125 87.09062 64.89375 86.2Q64.05 85.1375 64.05 82.71562ZM65.12813 82.71562Q65.12813 84.825 65.62813 85.52812Q66.12813 86.23125 66.84688 86.23125Q67.58125 86.23125 68.06563 85.52812Q68.56563 84.825 68.56563 82.71562Q68.56563 80.59062 68.06563 79.90312Q67.58125 79.2 66.83125 79.2Q66.1125 79.2 65.675 79.80937Q65.12813 80.59062 65.12813 82.71562ZM71.05 82.71562Q71.05 81.18437 71.3625 80.2625Q71.675 79.325 72.28438 78.825Q72.90938 78.325 73.84688 78.325Q74.53438 78.325 75.05 78.60625Q75.58125 78.8875 75.925 79.41875Q76.26875 79.93437 76.45625 80.68437Q76.64375 81.43437 76.64375 82.71562Q76.64375 84.23125 76.33125 85.15312Q76.03438 86.075 75.40938 86.59062Q74.8 87.09062 73.84688 87.09062Q72.6125 87.09062 71.89375 86.2Q71.05 85.1375 71.05 82.71562ZM72.12813 82.71562Q72.12813 84.825 72.62813 85.52812Q73.12813 86.23125 73.84688 86.23125Q74.58125 86.23125 75.06563 85.52812Q75.56563 84.825 75.56563 82.71562Q75.56563 80.59062 75.06563 79.90312Q74.58125 79.2 73.83125 79.2Q73.1125 79.2 72.675 79.80937Q72.12813 80.59062 72.12813 82.71562ZM78.05 82.71562Q78.05 81.18437 78.3625 80.2625Q78.675 79.325 79.28438 78.825Q79.90938 78.325 80.84688 78.325Q81.53438 78.325 82.05 78.60625Q82.58125 78.8875 82.925 79.41875Q83.26875 79.93437 83.45625 80.68437Q83.64375 81.43437 83.64375 82.71562Q83.64375 84.23125 83.33125 85.15312Q83.03438 86.075 82.40938 86.59062Q81.8 87.09062 80.84688 87.09062Q79.6125 87.09062 78.89375 86.2Q78.05 85.1375 78.05 82.71562ZM79.12813 82.71562Q79.12813 84.825 79.62813 85.52812Q80.12813 86.23125 80.84688 86.23125Q81.58125 86.23125 82.06563 85.52812Q82.56563 84.825 82.56563 82.71562Q82.56563 80.59062 82.06563 79.90312Q81.58125 79.2 80.83125 79.2Q80.1125 79.2 79.675 79.80937Q79.12813 80.59062 79.12813 82.71562ZM85.05 82.71562Q85.05 81.18437 85.3625 80.2625Q85.675 79.325 86.28438 78.825Q86.90938 78.325 87.84688 78.325Q88.53438 78.325 89.05 78.60625Q89.58125 78.8875 89.925 79.41875Q90.26875 79.93437 90.45625 80.68437Q90.64375 81.43437 90.64375 82.71562Q90.64375 84.23125 90.33125 85.15312Q90.03438 86.075 89.40938 86.59062Q88.8 87.09062 87.84688 87.09062Q86.6125 87.09062 85.89375 86.2Q85.05 85.1375 85.05 82.71562ZM86.12813 82.71562Q86.12813 84.825 86.62813 85.52812Q87.12813 86.23125 87.84688 86.23125Q88.58125 86.23125 89.06563 85.52812Q89.56563 84.825 89.56563 82.71562Q89.56563 80.59062 89.06563 79.90312Q88.58125 79.2 87.83125 79.2Q87.1125 79.2 86.675 79.80937Q86.12813 80.59062 86.12813 82.71562ZM92.05 82.71562Q92.05 81.18437 92.3625 80.2625Q92.675 79.325 93.28438 78.825Q93.90938 78.325 94.84688 78.325Q95.53438 78.325 96.05 78.60625Q96.58125 78.8875 96.925 79.41875Q97.26875 79.93437 97.45625 80.68437Q97.64375 81.43437 97.64375 82.71562Q97.64375 84.23125 97.33125 85.15312Q97.03438 86.075 96.40938 86.59062Q95.8 87.09062 94.84688 87.09062Q93.6125 87.09062 92.89375 86.2Q92.05 85.1375 92.05 82.71562ZM93.12813 82.71562Q93.12813 84.825 93.62813 85.52812Q94.12813 86.23125 94.84688 86.23125Q95.58125 86.23125 96.06563 85.52812Q96.56563 84.825 96.56563 82.71562Q96.56563 80.59062 96.06563 79.90312Q95.58125 79.2 94.83125 79.2Q94.1125 79.2 93.675 79.80937Q93.12813 80.59062 93.12813 82.71562ZM99.05 82.71562Q99.05 81.18437 99.3625 80.2625Q99.675 79.325 100.28438 78.825Q100.90938 78.325 101.84688 78.325Q102.53438 78.325 103.05 78.60625Q103.58125 78.8875 103.925 79.41875Q104.26875 79.93437 104.45625 80.68437Q104.64375 81.43437 104.64375 82.71562Q104.64375 84.23125 104.33125 85.15312Q104.03438 86.075 103.40938 86.59062Q102.8 87.09062 101.84688 87.09062Q100.6125 87.09062 99.89375 86.2Q99.05 85.1375 99.05 82.71562ZM100.12813 82.71562Q100.12813 84.825 100.62813 85.52812Q101.12813 86.23125 101.84688 86.23125Q102.58125 86.23125 103.06563 85.52812Q103.56563 84.825 103.56563 82.71562Q103.56563 80.59062 103.06563 79.90312Q102.58125 79.2 101.83125 79.2Q101.1125 79.2 100.675 79.80937Q100.12813 80.59062 100.12813 82.71562Z" fill-rule="nonzero"/><path fill="#000000" d="M108.55 294.21564Q108.55 292.6844 108.8625 291.7625Q109.175 290.825 109.78438 290.325Q110.40938 289.825 111.34688 289.825Q112.03438 289.825 112.55 290.10626Q113.08125 290.3875 113.425 290.91876Q113.76875 291.4344 113.95625 292.1844Q114.14375 292.9344 114.14375 294.21564Q114.14375 295.73126 113.83125 296.65314Q113.53438 297.575 112.90938 298.09064Q112.3 298.59064 111.34688 298.59064Q110.1125 298.59064 109.39375 297.7Q108.55 296.6375 108.55 294.21564ZM109.62813 294.21564Q109.62813 296.325 110.12813 297.02814Q110.62813 297.73126 111.34688 297.73126Q112.08125 297.73126 112.56563 297.02814Q113.06563 296.325 113.06563 294.21564Q113.06563 292.09064 112.56563 291.40314Q112.08125 290.7 111.33125 290.7Q110.6125 290.7 110.175 291.3094Q109.62813 292.09064 109.62813 294.21564Z" fill-rule="nonzero"/><path fill="#000000" d="M239.14638 297.4344L239.14638 298.45L233.45888 298.45Q233.45888 298.075 233.58388 297.71564Q233.80263 297.1375 234.27138 296.575Q234.75575 296.0125 235.662 295.27814Q237.06825 294.1219 237.55263 293.45Q238.05263 292.77814 238.05263 292.1844Q238.05263 291.5594 237.5995 291.1375Q237.14638 290.7 236.42763 290.7Q235.662 290.7 235.20888 291.15314Q234.75575 291.60626 234.74013 292.41876L233.662 292.3094Q233.77138 291.09064 234.49013 290.46564Q235.2245 289.825 236.45888 289.825Q237.69325 289.825 238.412 290.5125Q239.13075 291.2 239.13075 292.21564Q239.13075 292.73126 238.912 293.23126Q238.70888 293.71564 238.20888 294.27814Q237.7245 294.825 236.5995 295.77814Q235.64638 296.575 235.36513 296.8719Q235.0995 297.15314 234.92763 297.4344L239.14638 297.4344ZM240.5995 296.2L241.70888 296.10626Q241.83388 296.91876 242.27138 297.325Q242.7245 297.73126 243.36513 297.73126Q244.11513 297.73126 244.64638 297.15314Q245.17763 296.575 245.17763 295.6375Q245.17763 294.73126 244.662 294.21564Q244.162 293.6844 243.33388 293.6844Q242.83388 293.6844 242.412 293.91876Q242.00575 294.15314 241.77138 294.5125L240.787 294.3875L241.61513 289.98126L245.89638 289.98126L245.89638 290.98126L242.45888 290.98126L242.00575 293.29376Q242.77138 292.7469 243.61513 292.7469Q244.74013 292.7469 245.50575 293.52814Q246.287 294.3094 246.287 295.54376Q246.287 296.7 245.61513 297.5594Q244.787 298.59064 243.36513 298.59064Q242.19325 298.59064 241.44325 297.9344Q240.70888 297.27814 240.5995 296.2ZM247.5995 294.21564Q247.5995 292.6844 247.912 291.7625Q248.2245 290.825 248.83388 290.325Q249.45888 289.825 250.39638 289.825Q251.08388 289.825 251.5995 290.10626Q252.13075 290.3875 252.4745 290.91876Q252.81825 291.4344 253.00575 292.1844Q253.19325 292.9344 253.19325 294.21564Q253.19325 295.73126 252.88075 296.65314Q252.58388 297.575 251.95888 298.09064Q251.3495 298.59064 250.39638 298.59064Q249.162 298.59064 248.44325 297.7Q247.5995 296.6375 247.5995 294.21564ZM248.67763 294.21564Q248.67763 296.325 249.17763 297.02814Q249.67763 297.73126 250.39638 297.73126Q251.13075 297.73126 251.61513 297.02814Q252.11513 296.325 252.11513 294.21564Q252.11513 292.09064 251.61513 291.40314Q251.13075 290.7 250.38075 290.7Q249.662 290.7 249.2245 291.3094Q248.67763 292.09064 248.67763 294.21564ZM254.5995 294.21564Q254.5995 292.6844 254.912 291.7625Q255.2245 290.825 255.83388 290.325Q256.45886 289.825 257.39636 289.825Q258.08386 289.825 258.5995 290.10626Q259.13074 290.3875 259.4745 290.91876Q259.81824 291.4344 260.00574 292.1844Q260.19324 292.9344 260.19324 294.21564Q260.19324 295.73126 259.88074 296.65314Q259.58386 297.575 258.95886 298.09064Q258.3495 298.59064 257.39636 298.59064Q256.162 298.59064 255.44325 297.7Q254.5995 296.6375 254.5995 294.21564ZM255.67763 294.21564Q255.67763 296.325 256.1776 297.02814Q256.6776 297.73126 257.39636 297.73126Q258.13074 297.73126 258.6151 297.02814Q259.1151 296.325 259.1151 294.21564Q259.1151 292.09064 258.6151 291.40314Q258.13074 290.7 257.38074 290.7Q256.662 290.7 256.2245 291.3094Q255.67763 292.09064 255.67763 294.21564ZM261.5995 294.21564Q261.5995 292.6844 261.912 291.7625Q262.2245 290.825 262.83386 290.325Q263.45886 289.825 264.39636 289.825Q265.08386 289.825 265.5995 290.10626Q266.13074 290.3875 266.4745 290.91876Q266.81824 291.4344 267.00574 292.1844Q267.19324 292.9344 267.19324 294.21564Q267.19324 295.73126 266.88074 296.65314Q266.58386 297.575 265.95886 298.09064Q265.3495 298.59064 264.39636 298.59064Q263.162 298.59064 262.44324 297.7Q261.5995 296.6375 261.5995 294.21564ZM262.6776 294.21564Q262.6776 296.325 263.1776 297.02814Q263.6776 297.73126 264.39636 297.73126Q265.13074 297.73126 265.6151 297.02814Q266.1151 296.325 266.1151 294.21564Q266.1151 292.09064 265.6151 291.40314Q265.13074 290.7 264.38074 290.7Q263.662 290.7 263.2245 291.3094Q262.6776 292.09064 262.6776 294.21564ZM268.5995 294.21564Q268.5995 292.6844 268.912 291.7625Q269.2245 290.825 269.83386 290.325Q270.45886 289.825 271.39636 289.825Q272.08386 289.825 272.5995 290.10626Q273.13074 290.3875 273.4745 290.91876Q273.81824 291.4344 274.00574 292.1844Q274.19324 292.9344 274.19324 294.21564Q274.19324 295.73126 273.88074 296.65314Q273.58386 297.575 272.95886 298.09064Q272.3495 298.59064 271.39636 298.59064Q270.162 298.59064 269.44324 297.7Q268.5995 296.6375 268.5995 294.21564ZM269.6776 294.21564Q269.6776 296.325 270.1776 297.02814Q270.6776 297.73126 271.39636 297.73126Q272.13074 297.73126 272.6151 297.02814Q273.1151 296.325 273.1151 294.21564Q273.1151 292.09064 272.6151 291.40314Q272.13074 290.7 271.38074 290.7Q270.662 290.7 270.2245 291.3094Q269.6776 292.09064 269.6776 294.21564Z" fill-rule="nonzero"/><path fill="#000000" d="M376.14902 296.2L377.2584 296.10626Q377.3834 296.91876 377.8209 297.325Q378.27402 297.73126 378.91464 297.73126Q379.66464 297.73126 380.1959 297.15314Q380.72714 296.575 380.72714 295.6375Q380.72714 294.73126 380.21152 294.21564Q379.71152 293.6844 378.8834 293.6844Q378.3834 293.6844 377.96152 293.91876Q377.55527 294.15314 377.3209 294.5125L376.33652 294.3875L377.16464 289.98126L381.4459 289.98126L381.4459 290.98126L378.0084 290.98126L377.55527 293.29376Q378.3209 292.7469 379.16464 292.7469Q380.28964 292.7469 381.05527 293.52814Q381.83652 294.3094 381.83652 295.54376Q381.83652 296.7 381.16464 297.5594Q380.33652 298.59064 378.91464 298.59064Q377.74277 298.59064 376.99277 297.9344Q376.2584 297.27814 376.14902 296.2ZM383.14902 294.21564Q383.14902 292.6844 383.46152 291.7625Q383.77402 290.825 384.3834 290.325Q385.0084 289.825 385.9459 289.825Q386.6334 289.825 387.14902 290.10626Q387.68027 290.3875 388.02402 290.91876Q388.36777 291.4344 388.55527 292.1844Q388.74277 292.9344 388.74277 294.21564Q388.74277 295.73126 388.43027 296.65314Q388.1334 297.575 387.5084 298.09064Q386.89902 298.59064 385.9459 298.59064Q384.71152 298.59064 383.99277 297.7Q383.14902 296.6375 383.14902 294.21564ZM384.22714 294.21564Q384.22714 296.325 384.72714 297.02814Q385.22714 297.73126 385.9459 297.73126Q386.68027 297.73126 387.16464 297.02814Q387.66464 296.325 387.66464 294.21564Q387.66464 292.09064 387.16464 291.40314Q386.68027 290.7 385.93027 290.7Q385.21152 290.7 384.77402 291.3094Q384.22714 292.09064 384.22714 294.21564ZM390.14902 294.21564Q390.14902 292.6844 390.46152 291.7625Q390.77402 290.825 391.3834 290.325Q392.0084 289.825 392.9459 289.825Q393.6334 289.825 394.14902 290.10626Q394.68027 290.3875 395.02402 290.91876Q395.36777 291.4344 395.55527 292.1844Q395.74277 292.9344 395.74277 294.21564Q395.74277 295.73126 395.43027 296.65314Q395.1334 297.575 394.5084 298.09064Q393.89902 298.59064 392.9459 298.59064Q391.71152 298.59064 390.99277 297.7Q390.14902 296.6375 390.14902 294.21564ZM391.22714 294.21564Q391.22714 296.325 391.72714 297.02814Q392.22714 297.73126 392.9459 297.73126Q393.68027 297.73126 394.16464 297.02814Q394.66464 296.325 394.66464 294.21564Q394.66464 292.09064 394.16464 291.40314Q393.68027 290.7 392.93027 290.7Q392.21152 290.7 391.77402 291.3094Q391.22714 292.09064 391.22714 294.21564ZM397.14902 294.21564Q397.14902 292.6844 397.46152 291.7625Q397.77402 290.825 398.3834 290.325Q399.0084 289.825 399.9459 289.825Q400.6334 289.825 401.14902 290.10626Q401.68027 290.3875 402.02402 290.91876Q402.36777 291.4344 402.55527 292.1844Q402.74277 292.9344 402.74277 294.21564Q402.74277 295.73126 402.43027 296.65314Q402.1334 297.575 401.5084 298.09064Q400.89902 298.59064 399.9459 298.59064Q398.71152 298.59064 397.99277 297.7Q397.14902 296.6375 397.14902 294.21564ZM398.22714 294.21564Q398.22714 296.325 398.72714 297.02814Q399.22714 297.73126 399.9459 297.73126Q400.68027 297.73126 401.16464 297.02814Q401.66464 296.325 401.66464 294.21564Q401.66464 292.09064 401.16464 291.40314Q400.68027 290.7 399.93027 290.7Q399.21152 290.7 398.77402 291.3094Q398.22714 292.09064 398.22714 294.21564ZM404.14902 294.21564Q404.14902 292.6844 404.46152 291.7625Q404.77402 290.825 405.3834 290.325Q406.0084 289.825 406.9459 289.825Q407.6334 289.825 408.14902 290.10626Q408.68027 290.3875 409.02402 290.91876Q409.36777 291.4344 409.55527 292.1844Q409.74277 292.9344 409.74277 294.21564Q409.74277 295.73126 409.43027 296.65314Q409.1334 297.575 408.5084 298.09064Q407.89902 298.59064 406.9459 298.59064Q405.71152 298.59064 404.99277 297.7Q404.14902 296.6375 404.14902 294.21564ZM405.22714 294.21564Q405.22714 296.325 405.72714 297.02814Q406.22714 297.73126 406.9459 297.73126Q407.68027 297.73126 408.16464 297.02814Q408.66464 296.325 408.66464 294.21564Q408.66464 292.09064 408.16464 291.40314Q407.68027 290.7 406.93027 290.7Q406.21152 290.7 405.77402 291.3094Q405.22714 292.09064 405.22714 294.21564ZM411.14902 294.21564Q411.14902 292.6844 411.46152 291.7625Q411.77402 290.825 412.3834 290.325Q413.0084 289.825 413.9459 289.825Q414.6334 289.825 415.14902 290.10626Q415.68027 290.3875 416.02402 290.91876Q416.36777 291.4344 416.55527 292.1844Q416.74277 292.9344 416.74277 294.21564Q416.74277 295.73126 416.43027 296.65314Q416.1334 297.575 415.5084 298.09064Q414.89902 298.59064 413.9459 298.59064Q412.71152 298.59064 411.99277 297.7Q411.14902 296.6375 411.14902 294.21564ZM412.22714 294.21564Q412.22714 296.325 412.72714 297.02814Q413.22714 297.73126 413.9459 297.73126Q414.68027 297.73126 415.16464 297.02814Q415.66464 296.325 415.66464 294.21564Q415.66464 292.09064 415.16464 291.40314Q414.68027 290.7 413.93027 290.7Q413.21152 290.7 412.77402 291.3094Q412.22714 292.09064 412.22714 294.21564Z" fill-rule="nonzero"/><path fill="#000000" d="M518.761 290.98126L518.761 289.96564L524.3235 289.96564L524.3235 290.79376Q523.511 291.66876 522.6985 293.1219Q521.9016 294.5594 521.4641 296.09064Q521.136 297.16876 521.05786 298.45L519.9641 298.45Q519.97974 297.4344 520.35474 295.9969Q520.74536 294.5594 521.4485 293.23126Q522.16724 291.90314 522.97974 290.98126L518.761 290.98126ZM525.6985 296.2L526.80786 296.10626Q526.93286 296.91876 527.37036 297.325Q527.8235 297.73126 528.4641 297.73126Q529.2141 297.73126 529.74536 297.15314Q530.2766 296.575 530.2766 295.6375Q530.2766 294.73126 529.761 294.21564Q529.261 293.6844 528.43286 293.6844Q527.93286 293.6844 527.511 293.91876Q527.10474 294.15314 526.87036 294.5125L525.886 294.3875L526.7141 289.98126L530.99536 289.98126L530.99536 290.98126L527.55786 290.98126L527.10474 293.29376Q527.87036 292.7469 528.7141 292.7469Q529.8391 292.7469 530.60474 293.52814Q531.386 294.3094 531.386 295.54376Q531.386 296.7 530.7141 297.5594Q529.886 298.59064 528.4641 298.59064Q527.29224 298.59064 526.54224 297.9344Q525.80786 297.27814 525.6985 296.2ZM532.6985 294.21564Q532.6985 292.6844 533.011 291.7625Q533.3235 290.825 533.93286 290.325Q534.55786 289.825 535.49536 289.825Q536.18286 289.825 536.6985 290.10626Q537.22974 290.3875 537.5735 290.91876Q537.91724 291.4344 538.10474 292.1844Q538.29224 292.9344 538.29224 294.21564Q538.29224 295.73126 537.97974 296.65314Q537.68286 297.575 537.05786 298.09064Q536.4485 298.59064 535.49536 298.59064Q534.261 298.59064 533.54224 297.7Q532.6985 296.6375 532.6985 294.21564ZM533.7766 294.21564Q533.7766 296.325 534.2766 297.02814Q534.7766 297.73126 535.49536 297.73126Q536.22974 297.73126 536.7141 297.02814Q537.2141 296.325 537.2141 294.21564Q537.2141 292.09064 536.7141 291.40314Q536.22974 290.7 535.47974 290.7Q534.761 290.7 534.3235 291.3094Q533.7766 292.09064 533.7766 294.21564ZM539.6985 294.21564Q539.6985 292.6844 540.011 291.7625Q540.3235 290.825 540.93286 290.325Q541.55786 289.825 542.49536 289.825Q543.18286 289.825 543.6985 290.10626Q544.22974 290.3875 544.5735 290.91876Q544.91724 291.4344 545.10474 292.1844Q545.29224 292.9344 545.29224 294.21564Q545.29224 295.73126 544.97974 296.65314Q544.68286 297.575 544.05786 298.09064Q543.4485 298.59064 542.49536 298.59064Q541.261 298.59064 540.54224 297.7Q539.6985 296.6375 539.6985 294.21564ZM540.7766 294.21564Q540.7766 296.325 541.2766 297.02814Q541.7766 297.73126 542.49536 297.73126Q543.22974 297.73126 543.7141 297.02814Q544.2141 296.325 544.2141 294.21564Q544.2141 292.09064 543.7141 291.40314Q543.22974 290.7 542.47974 290.7Q541.761 290.7 541.3235 291.3094Q540.7766 292.09064 540.7766 294.21564ZM546.6985 294.21564Q546.6985 292.6844 547.011 291.7625Q547.3235 290.825 547.93286 290.325Q548.55786 289.825 549.49536 289.825Q550.18286 289.825 550.6985 290.10626Q551.22974 290.3875 551.5735 290.91876Q551.91724 291.4344 552.10474 292.1844Q552.29224 292.9344 552.29224 294.21564Q552.29224 295.73126 551.97974 296.65314Q551.68286 297.575 551.05786 298.09064Q550.4485 298.59064 549.49536 298.59064Q548.261 298.59064 547.54224 297.7Q546.6985 296.6375 546.6985 294.21564ZM547.7766 294.21564Q547.7766 296.325 548.2766 297.02814Q548.7766 297.73126 549.49536 297.73126Q550.22974 297.73126 550.7141 297.02814Q551.2141 296.325 551.2141 294.21564Q551.2141 292.09064 550.7141 291.40314Q550.22974 290.7 549.47974 290.7Q548.761 290.7 548.3235 291.3094Q547.7766 292.09064 547.7766 294.21564ZM553.6985 294.21564Q553.6985 292.6844 554.011 291.7625Q554.3235 290.825 554.93286 290.325Q555.55786 289.825 556.49536 289.825Q557.18286 289.825 557.6985 290.10626Q558.22974 290.3875 558.5735 290.91876Q558.91724 291.4344 559.10474 292.1844Q559.29224 292.9344 559.29224 294.21564Q559.29224 295.73126 558.97974 296.65314Q558.68286 297.575 558.05786 298.09064Q557.4485 298.59064 556.49536 298.59064Q555.261 298.59064 554.54224 297.7Q553.6985 296.6375 553.6985 294.21564ZM554.7766 294.21564Q554.7766 296.325 555.2766 297.02814Q555.7766 297.73126 556.49536 297.73126Q557.22974 297.73126 557.7141 297.02814Q558.2141 296.325 558.2141 294.21564Q558.2141 292.09064 557.7141 291.40314Q557.22974 290.7 556.47974 290.7Q555.761 290.7 555.3235 291.3094Q554.7766 292.09064 554.7766 294.21564Z" fill-rule="nonzero"/><path fill="#4285f4" d="M258.0 57.25C258.0 60.56371 255.3137 63.25 252.0 63.25C248.6863 63.25 246.0 60.56371 246.0 57.25C246.0 53.93629 248.6863 51.25 252.0 51.25C255.3137 51.25 258.0 53.93629 258.0 57.25Z" fill-rule="nonzero"/><path fill="#1a1a1a" d="M266.79688 61.25L266.79688 55.03125L267.73438 55.03125L267.73438 55.90625Q268.42188 54.890625 269.71875 54.890625Q270.28125 54.890625 270.75 55.09375Q271.23438 55.296875 271.46875 55.625Q271.70312 55.953125 271.79688 56.390625Q271.84375 56.6875 271.84375 57.421875L271.84375 61.25L270.79688 61.25L270.79688 57.46875Q270.79688 56.8125 270.67188 56.5Q270.54688 56.1875 270.23438 56.0Q269.92188 55.796875 269.5 55.796875Q268.82812 55.796875 268.32812 56.234375Q267.84375 56.65625 267.84375 57.84375L267.84375 61.25L266.79688 61.25ZM273.375 59.390625L274.40625 59.234375Q274.5 59.859375 274.89062 60.1875Q275.29688 60.515625 276.03125 60.515625Q276.75 60.515625 277.09375 60.234375Q277.45312 59.9375 277.45312 59.53125Q277.45312 59.171875 277.14062 58.96875Q276.92188 58.828125 276.0625 58.609375Q274.90625 58.3125 274.45312 58.109375Q274.01562 57.890625 273.78125 57.515625Q273.54688 57.140625 273.54688 56.671875Q273.54688 56.265625 273.73438 55.90625Q273.92188 55.546875 274.25 55.3125Q274.5 55.140625 274.92188 55.015625Q275.34375 54.890625 275.84375 54.890625Q276.5625 54.890625 277.10938 55.109375Q277.67188 55.3125 277.9375 55.671875Q278.20312 56.03125 278.29688 56.625L277.26562 56.765625Q277.20312 56.296875 276.85938 56.03125Q276.53125 55.75 275.90625 55.75Q275.1875 55.75 274.875 56.0Q274.5625 56.234375 274.5625 56.5625Q274.5625 56.765625 274.6875 56.921875Q274.82812 57.09375 275.09375 57.203125Q275.25 57.265625 276.03125 57.46875Q277.15625 57.78125 277.59375 57.96875Q278.03125 58.15625 278.28125 58.515625Q278.53125 58.875 278.53125 59.421875Q278.53125 59.953125 278.21875 60.421875Q277.92188 60.875 277.34375 61.140625Q276.76562 61.390625 276.03125 61.390625Q274.8125 61.390625 274.17188 60.890625Q273.54688 60.375 273.375 59.390625ZM283.0 61.390625L285.48438 52.515625L286.32812 52.515625L283.84375 61.390625L283.0 61.390625ZM289.92188 61.25L289.92188 52.65625L291.07812 52.65625L295.59375 59.40625L295.59375 52.65625L296.6875 52.65625L296.6875 61.25L295.51562 61.25L291.0 54.5L291.0 61.25L289.92188 61.25Z" fill-rule="nonzero"/><path stroke="#4285f4" stroke-width="4.0" stroke-linecap="butt" stroke-opacity="0.4" d="M314.0 57.25L326.0 57.25" fill-rule="nonzero"/><path fill="#1a1a1a" d="M334.5 59.0L335.60938 58.90625Q335.73438 59.71875 336.17188 60.125Q336.625 60.53125 337.26562 60.53125Q338.01562 60.53125 338.54688 59.953125Q339.07812 59.375 339.07812 58.4375Q339.07812 57.53125 338.5625 57.015625Q338.0625 56.484375 337.23438 56.484375Q336.73438 56.484375 336.3125 56.71875Q335.90625 56.953125 335.67188 57.3125L334.6875 57.1875L335.51562 52.78125L339.79688 52.78125L339.79688 53.78125L336.35938 53.78125L335.90625 56.09375Q336.67188 55.546875 337.51562 55.546875Q338.64062 55.546875 339.40625 56.328125Q340.1875 57.109375 340.1875 58.34375Q340.1875 59.5 339.51562 60.359375Q338.6875 61.390625 337.26562 61.390625Q336.09375 61.390625 335.34375 60.734375Q334.60938 60.078125 334.5 59.0ZM346.96875 54.765625L345.92188 54.84375Q345.78125 54.21875 345.53125 53.9375Q345.09375 53.484375 344.46875 53.484375Q343.96875 53.484375 343.57812 53.765625Q343.09375 54.140625 342.79688 54.84375Q342.51562 55.53125 342.5 56.8125Q342.875 56.234375 343.42188 55.953125Q343.98438 55.671875 344.59375 55.671875Q345.64062 55.671875 346.375 56.453125Q347.125 57.234375 347.125 58.453125Q347.125 59.265625 346.76562 59.96875Q346.42188 60.65625 345.8125 61.03125Q345.20312 61.390625 344.4375 61.390625Q343.10938 61.390625 342.28125 60.421875Q341.45312 59.453125 341.45312 57.234375Q341.45312 54.734375 342.375 53.609375Q343.17188 52.625 344.53125 52.625Q345.54688 52.625 346.1875 53.203125Q346.84375 53.765625 346.96875 54.765625ZM342.67188 58.46875Q342.67188 59.015625 342.89062 59.515625Q343.125 60.0 343.53125 60.265625Q343.95312 60.53125 344.42188 60.53125Q345.07812 60.53125 345.5625 60.0Q346.04688 59.453125 346.04688 58.53125Q346.04688 57.640625 345.5625 57.125Q345.09375 56.609375 344.375 56.609375Q343.65625 56.609375 343.15625 57.125Q342.67188 57.640625 342.67188 58.46875ZM349.09375 61.25L349.09375 60.046875L350.29688 60.046875L350.29688 61.25L349.09375 61.25ZM351.65625 59.265625L352.67188 59.171875Q352.79688 59.890625 353.15625 60.21875Q353.53125 60.53125 354.09375 60.53125Q354.57812 60.53125 354.9375 60.3125Q355.3125 60.078125 355.54688 59.71875Q355.78125 59.34375 355.9375 58.71875Q356.09375 58.078125 356.09375 57.421875Q356.09375 57.34375 356.09375 57.203125Q355.78125 57.703125 355.23438 58.03125Q354.6875 58.34375 354.04688 58.34375Q352.96875 58.34375 352.23438 57.578125Q351.5 56.796875 351.5 55.53125Q351.5 54.21875 352.26562 53.421875Q353.04688 52.625 354.20312 52.625Q355.03125 52.625 355.71875 53.078125Q356.42188 53.53125 356.78125 54.375Q357.14062 55.203125 357.14062 56.78125Q357.14062 58.421875 356.78125 59.40625Q356.4375 60.375 355.71875 60.890625Q355.01562 61.390625 354.07812 61.390625Q353.0625 61.390625 352.42188 60.84375Q351.78125 60.28125 351.65625 59.265625ZM355.96875 55.46875Q355.96875 54.5625 355.48438 54.03125Q355.01562 53.5 354.32812 53.5Q353.625 53.5 353.09375 54.078125Q352.57812 54.640625 352.57812 55.5625Q352.57812 56.375 353.07812 56.890625Q353.57812 57.40625 354.29688 57.40625Q355.03125 57.40625 355.5 56.890625Q355.96875 56.375 355.96875 55.46875ZM358.375 54.234375L358.64062 53.40625Q359.57812 53.734375 360.0 53.96875Q359.89062 52.90625 359.875 52.515625L360.73438 52.515625Q360.71875 53.09375 360.59375 53.96875Q361.20312 53.65625 361.98438 53.40625L362.25 54.234375Q361.5 54.484375 360.79688 54.5625Q361.14062 54.875 361.79688 55.671875L361.09375 56.171875Q360.75 55.703125 360.29688 54.90625Q359.85938 55.734375 359.53125 56.171875L358.84375 55.671875Q359.51562 54.828125 359.8125 54.5625Q359.0625 54.421875 358.375 54.234375ZM363.09375 61.25L365.35938 58.015625L363.26562 55.03125L364.57812 55.03125L365.53125 56.484375Q365.79688 56.90625 365.96875 57.1875Q366.21875 56.796875 366.4375 56.5L367.48438 55.03125L368.75 55.03125L366.59375 57.953125L368.90625 61.25L367.625 61.25L366.34375 59.3125L366.0 58.796875L364.35938 61.25L363.09375 61.25ZM374.0 59.859375L374.0 57.5L371.67188 57.5L371.67188 56.515625L374.0 56.515625L374.0 54.1875L375.0 54.1875L375.0 56.515625L377.34375 56.515625L377.34375 57.5L375.0 57.5L375.0 59.859375L374.0 59.859375ZM381.5 59.0L382.60938 58.90625Q382.73438 59.71875 383.17188 60.125Q383.625 60.53125 384.26562 60.53125Q385.01562 60.53125 385.54688 59.953125Q386.07812 59.375 386.07812 58.4375Q386.07812 57.53125 385.5625 57.015625Q385.0625 56.484375 384.23438 56.484375Q383.73438 56.484375 383.3125 56.71875Q382.90625 56.953125 382.67188 57.3125L381.6875 57.1875L382.51562 52.78125L386.79688 52.78125L386.79688 53.78125L383.35938 53.78125L382.90625 56.09375Q383.67188 55.546875 384.51562 55.546875Q385.64062 55.546875 386.40625 56.328125Q387.1875 57.109375 387.1875 58.34375Q387.1875 59.5 386.51562 60.359375Q385.6875 61.390625 384.26562 61.390625Q383.09375 61.390625 382.34375 60.734375Q381.60938 60.078125 381.5 59.0ZM390.125 56.59375Q389.46875 56.34375 389.14062 55.90625Q388.82812 55.453125 388.82812 54.84375Q388.82812 53.90625 389.5 53.265625Q390.1875 52.625 391.29688 52.625Q392.42188 52.625 393.10938 53.28125Q393.79688 53.9375 393.79688 54.875Q393.79688 55.46875 393.48438 55.90625Q393.17188 56.34375 392.53125 56.59375Q393.32812 56.84375 393.73438 57.421875Q394.14062 58.0 394.14062 58.796875Q394.14062 59.890625 393.35938 60.640625Q392.59375 61.390625 391.3125 61.390625Q390.04688 61.390625 389.26562 60.640625Q388.48438 59.890625 388.48438 58.765625Q388.48438 57.921875 388.90625 57.359375Q389.34375 56.796875 390.125 56.59375ZM389.90625 54.796875Q389.90625 55.40625 390.29688 55.796875Q390.70312 56.1875 391.32812 56.1875Q391.9375 56.1875 392.32812 55.8125Q392.71875 55.421875 392.71875 54.859375Q392.71875 54.28125 392.3125 53.890625Q391.90625 53.484375 391.3125 53.484375Q390.70312 53.484375 390.29688 53.875Q389.90625 54.265625 389.90625 54.796875ZM389.57812 58.765625Q389.57812 59.21875 389.78125 59.640625Q390.0 60.0625 390.42188 60.296875Q390.84375 60.53125 391.32812 60.53125Q392.07812 60.53125 392.5625 60.046875Q393.0625 59.5625 393.0625 58.8125Q393.0625 58.046875 392.5625 57.546875Q392.0625 57.046875 391.29688 57.046875Q390.54688 57.046875 390.0625 57.546875Q389.57812 58.03125 389.57812 58.765625ZM395.5 59.0L396.60938 58.90625Q396.73438 59.71875 397.17188 60.125Q397.625 60.53125 398.26562 60.53125Q399.01562 60.53125 399.54688 59.953125Q400.07812 59.375 400.07812 58.4375Q400.07812 57.53125 399.5625 57.015625Q399.0625 56.484375 398.23438 56.484375Q397.73438 56.484375 397.3125 56.71875Q396.90625 56.953125 396.67188 57.3125L395.6875 57.1875L396.51562 52.78125L400.79688 52.78125L400.79688 53.78125L397.35938 53.78125L396.90625 56.09375Q397.67188 55.546875 398.51562 55.546875Q399.64062 55.546875 400.40625 56.328125Q401.1875 57.109375 401.1875 58.34375Q401.1875 59.5 400.51562 60.359375Q399.6875 61.390625 398.26562 61.390625Q397.09375 61.390625 396.34375 60.734375Q395.60938 60.078125 395.5 59.0ZM402.5 59.0L403.60938 58.90625Q403.73438 59.71875 404.17188 60.125Q404.625 60.53125 405.26562 60.53125Q406.01562 60.53125 406.54688 59.953125Q407.07812 59.375 407.07812 58.4375Q407.07812 57.53125 406.5625 57.015625Q406.0625 56.484375 405.23438 56.484375Q404.73438 56.484375 404.3125 56.71875Q403.90625 56.953125 403.67188 57.3125L402.6875 57.1875L403.51562 52.78125L407.79688 52.78125L407.79688 53.78125L404.35938 53.78125L403.90625 56.09375Q404.67188 55.546875 405.51562 55.546875Q406.64062 55.546875 407.40625 56.328125Q408.1875 57.109375 408.1875 58.34375Q408.1875 59.5 407.51562 60.359375Q406.6875 61.390625 405.26562 61.390625Q404.09375 61.390625 403.34375 60.734375Q402.60938 60.078125 402.5 59.0ZM409.5 58.984375L410.5625 58.84375Q410.73438 59.734375 411.17188 60.140625Q411.60938 60.53125 412.23438 60.53125Q412.98438 60.53125 413.5 60.015625Q414.01562 59.5 414.01562 58.734375Q414.01562 58.015625 413.53125 57.546875Q413.0625 57.0625 412.32812 57.0625Q412.03125 57.0625 411.57812 57.1875L411.70312 56.25Q411.8125 56.265625 411.875 56.265625Q412.54688 56.265625 413.07812 55.921875Q413.625 55.5625 413.625 54.828125Q413.625 54.25 413.23438 53.875Q412.84375 53.484375 412.21875 53.484375Q411.60938 53.484375 411.1875 53.875Q410.78125 54.265625 410.67188 55.03125L409.60938 54.84375Q409.79688 53.796875 410.48438 53.21875Q411.17188 52.625 412.1875 52.625Q412.89062 52.625 413.48438 52.9375Q414.07812 53.234375 414.39062 53.75Q414.70312 54.265625 414.70312 54.859375Q414.70312 55.40625 414.40625 55.875Q414.10938 56.328125 413.53125 56.59375Q414.28125 56.765625 414.70312 57.328125Q415.125 57.875 415.125 58.71875Q415.125 59.84375 414.29688 60.625Q413.48438 61.40625 412.23438 61.40625Q411.10938 61.40625 410.35938 60.734375Q409.60938 60.046875 409.5 58.984375ZM416.5 57.015625Q416.5 55.484375 416.8125 54.5625Q417.125 53.625 417.73438 53.125Q418.35938 52.625 419.29688 52.625Q419.98438 52.625 420.5 52.90625Q421.03125 53.1875 421.375 53.71875Q421.71875 54.234375 421.90625 54.984375Q422.09375 55.734375 422.09375 57.015625Q422.09375 58.53125 421.78125 59.453125Q421.48438 60.375 420.85938 60.890625Q420.25 61.390625 419.29688 61.390625Q418.0625 61.390625 417.34375 60.5Q416.5 59.4375 416.5 57.015625ZM417.57812 57.015625Q417.57812 59.125 418.07812 59.828125Q418.57812 60.53125 419.29688 60.53125Q420.03125 60.53125 420.51562 59.828125Q421.01562 59.125 421.01562 57.015625Q421.01562 54.890625 420.51562 54.203125Q420.03125 53.5 419.28125 53.5Q418.5625 53.5 418.125 54.109375Q417.57812 54.890625 417.57812 57.015625ZM426.9375 61.25L426.9375 52.65625L430.75 52.65625Q431.90625 52.65625 432.5 52.890625Q433.09375 53.125 433.45312 53.71875Q433.8125 54.296875 433.8125 55.0Q433.8125 55.921875 433.21875 56.546875Q432.625 57.171875 431.39062 57.34375Q431.84375 57.5625 432.07812 57.765625Q432.57812 58.21875 433.01562 58.90625L434.51562 61.25L433.07812 61.25L431.95312 59.46875Q431.45312 58.6875 431.125 58.28125Q430.8125 57.875 430.54688 57.71875Q430.29688 57.546875 430.03125 57.46875Q429.84375 57.4375 429.40625 57.4375L428.07812 57.4375L428.07812 61.25L426.9375 61.25ZM428.07812 56.453125L430.53125 56.453125Q431.29688 56.453125 431.73438 56.296875Q432.1875 56.125 432.40625 55.78125Q432.64062 55.421875 432.64062 55.0Q432.64062 54.390625 432.1875 54.0Q431.75 53.609375 430.79688 53.609375L428.07812 53.609375L428.07812 56.453125ZM435.14062 56.953125Q435.1875 56.625 435.42188 56.28125Q435.79688 55.78125 436.64062 55.171875Q437.48438 54.5625 437.64062 54.375Q437.85938 54.140625 437.85938 53.890625Q437.85938 53.609375 437.64062 53.4375Q437.4375 53.25 437.04688 53.25Q436.65625 53.25 436.46875 53.390625Q436.28125 53.515625 436.15625 53.90625L435.26562 53.8125Q435.4375 53.171875 435.85938 52.859375Q436.28125 52.546875 437.0625 52.546875Q437.95312 52.546875 438.35938 52.90625Q438.78125 53.25 438.78125 53.75Q438.78125 54.234375 438.42188 54.671875Q438.17188 55.0 437.23438 55.671875Q436.73438 56.03125 436.53125 56.25L438.79688 56.25L438.79688 56.953125L435.14062 56.953125ZM448.34375 56.203125L442.67188 56.203125L442.67188 55.21875L448.34375 55.21875L448.34375 56.203125ZM448.34375 58.8125L442.67188 58.8125L442.67188 57.828125L448.34375 57.828125L448.34375 58.8125ZM456.46875 61.25L455.42188 61.25L455.42188 54.53125Q455.03125 54.890625 454.40625 55.265625Q453.79688 55.625 453.3125 55.796875L453.3125 54.78125Q454.1875 54.359375 454.84375 53.78125Q455.51562 53.1875 455.79688 52.625L456.46875 52.625L456.46875 61.25Z" fill-rule="nonzero"/><path fill="#757575" d="M255.73438 34.55L255.73438 21.659374L258.32812 21.659374L258.32812 34.55L255.73438 34.55ZM269.28125 34.55L266.8125 34.55L266.8125 29.784374Q266.8125 28.26875 266.65625 27.83125Q266.5 27.39375 266.14062 27.14375Q265.78125 26.89375 265.28125 26.89375Q264.64062 26.89375 264.125 27.253124Q263.625 27.596874 263.4375 28.175Q263.25 28.753124 263.25 30.315624L263.25 34.55L260.78125 34.55L260.78125 25.221874L263.0625 25.221874L263.0625 26.58125Q264.29688 25.003124 266.14062 25.003124Q266.96875 25.003124 267.64062 25.3Q268.3125 25.596874 268.65625 26.05Q269.01562 26.503124 269.14062 27.096874Q269.28125 27.675 269.28125 28.753124L269.28125 34.55ZM270.92188 31.89375L273.40625 31.503124Q273.5625 32.221874 274.04688 32.596874Q274.53125 32.971874 275.39062 32.971874Q276.35938 32.971874 276.84375 32.628124Q277.15625 32.378124 277.15625 31.971874Q277.15625 31.690624 276.98438 31.503124Q276.79688 31.33125 276.15625 31.175Q273.17188 30.51875 272.375 29.971874Q271.26562 29.221874 271.26562 27.8625Q271.26562 26.659374 272.21875 25.83125Q273.1875 25.003124 275.1875 25.003124Q277.10938 25.003124 278.03125 25.628124Q278.96875 26.253124 279.32812 27.471874L277.0 27.909374Q276.84375 27.3625 276.42188 27.08125Q276.01562 26.784374 275.23438 26.784374Q274.26562 26.784374 273.84375 27.05Q273.5625 27.253124 273.5625 27.55Q273.5625 27.815624 273.8125 28.003124Q274.14062 28.253124 276.10938 28.70625Q278.07812 29.14375 278.875 29.8Q279.64062 30.45625 279.64062 31.628124Q279.64062 32.909374 278.5625 33.846874Q277.5 34.76875 275.39062 34.76875Q273.48438 34.76875 272.375 33.9875Q271.26562 33.20625 270.92188 31.89375ZM287.20312 31.58125L289.65625 31.9875Q289.1875 33.346874 288.15625 34.065624Q287.14062 34.76875 285.59375 34.76875Q283.15625 34.76875 282.0 33.175Q281.07812 31.89375 281.07812 29.95625Q281.07812 27.628124 282.28125 26.315624Q283.5 25.003124 285.35938 25.003124Q287.4375 25.003124 288.64062 26.378124Q289.84375 27.753124 289.79688 30.596874L283.60938 30.596874Q283.625 31.690624 284.1875 32.3Q284.76562 32.909374 285.625 32.909374Q286.20312 32.909374 286.59375 32.596874Q287.0 32.284374 287.20312 31.58125ZM287.34375 29.08125Q287.3125 28.003124 286.78125 27.45625Q286.25 26.89375 285.5 26.89375Q284.6875 26.89375 284.17188 27.4875Q283.64062 28.065624 283.64062 29.08125L287.34375 29.08125ZM295.15625 34.55L292.6875 34.55L292.6875 25.221874L294.98438 25.221874L294.98438 26.55Q295.5625 25.596874 296.03125 25.3Q296.51562 25.003124 297.10938 25.003124Q297.95312 25.003124 298.73438 25.471874L297.96875 27.628124Q297.34375 27.221874 296.8125 27.221874Q296.29688 27.221874 295.92188 27.503124Q295.5625 27.784374 295.35938 28.534374Q295.15625 29.284374 295.15625 31.659374L295.15625 34.55ZM304.07812 25.221874L304.07812 27.190624L302.39062 27.190624L302.39062 30.940624Q302.39062 32.08125 302.4375 32.284374Q302.48438 32.471874 302.65625 32.596874Q302.82812 32.70625 303.07812 32.70625Q303.40625 32.70625 304.0625 32.471874L304.28125 34.39375Q303.40625 34.76875 302.32812 34.76875Q301.65625 34.76875 301.10938 34.55Q300.57812 34.315624 300.32812 33.95625Q300.07812 33.596874 299.98438 32.9875Q299.90625 32.565624 299.90625 31.253124L299.90625 27.190624L298.76562 27.190624L298.76562 25.221874L299.90625 25.221874L299.90625 23.3625L302.39062 21.925L302.39062 25.221874L304.07812 25.221874ZM305.79688 23.95625L305.79688 21.659374L308.26562 21.659374L308.26562 23.95625L305.79688 23.95625ZM305.79688 34.55L305.79688 25.221874L308.26562 25.221874L308.26562 34.55L305.79688 34.55ZM310.21875 29.753124Q310.21875 28.51875 310.82812 27.378124Q311.4375 26.221874 312.54688 25.6125Q313.65625 25.003124 315.03125 25.003124Q317.14062 25.003124 318.5 26.378124Q319.85938 27.753124 319.85938 29.8625Q319.85938 31.971874 318.48438 33.378124Q317.125 34.76875 315.04688 34.76875Q313.76562 34.76875 312.59375 34.190624Q311.4375 33.596874 310.82812 32.4875Q310.21875 31.3625 310.21875 29.753124ZM312.75 29.878124Q312.75 31.26875 313.40625 32.01875Q314.07812 32.753124 315.03125 32.753124Q316.0 32.753124 316.65625 32.01875Q317.3125 31.26875 317.3125 29.8625Q317.3125 28.4875 316.65625 27.753124Q316.0 27.01875 315.03125 27.01875Q314.07812 27.01875 313.40625 27.753124Q312.75 28.4875 312.75 29.878124ZM330.28125 34.55L327.8125 34.55L327.8125 29.784374Q327.8125 28.26875 327.65625 27.83125Q327.5 27.39375 327.14062 27.14375Q326.78125 26.89375 326.28125 26.89375Q325.64062 26.89375 325.125 27.253124Q324.625 27.596874 324.4375 28.175Q324.25 28.753124 324.25 30.315624L324.25 34.55L321.78125 34.55L321.78125 25.221874L324.0625 25.221874L324.0625 26.58125Q325.29688 25.003124 327.14062 25.003124Q327.96875 25.003124 328.64062 25.3Q329.3125 25.596874 329.65625 26.05Q330.01562 26.503124 330.14062 27.096874Q330.28125 27.675 330.28125 28.753124L330.28125 34.55ZM337.15625 30.3625L339.6875 30.1125Q339.90625 31.378124 340.60938 31.9875Q341.3125 32.58125 342.5 32.58125Q343.75 32.58125 344.39062 32.05Q345.03125 31.51875 345.03125 30.8Q345.03125 30.346874 344.75 30.034374Q344.48438 29.70625 343.82812 29.471874Q343.35938 29.315624 341.73438 28.909374Q339.64062 28.39375 338.79688 27.628124Q337.60938 26.565624 337.60938 25.034374Q337.60938 24.05 338.17188 23.20625Q338.73438 22.346874 339.78125 21.89375Q340.82812 21.440624 342.3125 21.440624Q344.75 21.440624 345.96875 22.503124Q347.20312 23.565624 347.26562 25.346874L344.65625 25.45625Q344.48438 24.471874 343.9375 24.034374Q343.39062 23.596874 342.29688 23.596874Q341.15625 23.596874 340.51562 24.065624Q340.10938 24.3625 340.10938 24.8625Q340.10938 25.315624 340.48438 25.64375Q340.98438 26.065624 342.875 26.51875Q344.78125 26.95625 345.6875 27.440624Q346.59375 27.909374 347.10938 28.753124Q347.625 29.58125 347.625 30.8Q347.625 31.909374 347.0 32.878124Q346.39062 33.83125 345.26562 34.315624Q344.14062 34.784374 342.46875 34.784374Q340.03125 34.784374 338.71875 33.659374Q337.40625 32.51875 337.15625 30.3625ZM349.21875 29.753124Q349.21875 28.51875 349.82812 27.378124Q350.4375 26.221874 351.54688 25.6125Q352.65625 25.003124 354.03125 25.003124Q356.14062 25.003124 357.5 26.378124Q358.85938 27.753124 358.85938 29.8625Q358.85938 31.971874 357.48438 33.378124Q356.125 34.76875 354.04688 34.76875Q352.76562 34.76875 351.59375 34.190624Q350.4375 33.596874 349.82812 32.4875Q349.21875 31.3625 349.21875 29.753124ZM351.75 29.878124Q351.75 31.26875 352.40625 32.01875Q353.07812 32.753124 354.03125 32.753124Q355.0 32.753124 355.65625 32.01875Q356.3125 31.26875 356.3125 29.8625Q356.3125 28.4875 355.65625 27.753124Q355.0 27.01875 354.03125 27.01875Q353.07812 27.01875 352.40625 27.753124Q351.75 28.4875 351.75 29.878124ZM363.15625 34.55L360.6875 34.55L360.6875 25.221874L362.98438 25.221874L362.98438 26.55Q363.5625 25.596874 364.03125 25.3Q364.51562 25.003124 365.10938 25.003124Q365.95312 25.003124 366.73438 25.471874L365.96875 27.628124Q365.34375 27.221874 364.8125 27.221874Q364.29688 27.221874 363.92188 27.503124Q363.5625 27.784374 363.35938 28.534374Q363.15625 29.284374 363.15625 31.659374L363.15625 34.55ZM372.07812 25.221874L372.07812 27.190624L370.39062 27.190624L370.39062 30.940624Q370.39062 32.08125 370.4375 32.284374Q370.48438 32.471874 370.65625 32.596874Q370.82812 32.70625 371.07812 32.70625Q371.40625 32.70625 372.0625 32.471874L372.28125 34.39375Q371.40625 34.76875 370.32812 34.76875Q369.65625 34.76875 369.10938 34.55Q368.57812 34.315624 368.32812 33.95625Q368.07812 33.596874 367.98438 32.9875Q367.90625 32.565624 367.90625 31.253124L367.90625 27.190624L366.76562 27.190624L366.76562 25.221874L367.90625 25.221874L367.90625 23.3625L370.39062 21.925L370.39062 25.221874L372.07812 25.221874ZM378.51562 31.1125L378.51562 28.64375L383.35938 28.64375L383.35938 31.1125L378.51562 31.1125ZM398.04688 29.815624L400.57812 30.6125Q400.0 32.721874 398.64062 33.753124Q397.29688 34.76875 395.21875 34.76875Q392.65625 34.76875 391.0 33.01875Q389.35938 31.26875 389.35938 28.221874Q389.35938 25.003124 391.01562 23.221874Q392.67188 21.440624 395.375 21.440624Q397.75 21.440624 399.21875 22.846874Q400.10938 23.675 400.54688 25.221874L397.96875 25.83125Q397.73438 24.83125 397.0 24.253124Q396.28125 23.675 395.25 23.675Q393.8125 23.675 392.92188 24.70625Q392.03125 25.721874 392.03125 28.034374Q392.03125 30.471874 392.90625 31.51875Q393.79688 32.55 395.20312 32.55Q396.23438 32.55 396.98438 31.89375Q397.73438 31.221874 398.04688 29.815624ZM404.64062 28.065624L402.39062 27.659374Q402.78125 26.3 403.70312 25.659374Q404.625 25.003124 406.4375 25.003124Q408.09375 25.003124 408.89062 25.39375Q409.70312 25.784374 410.03125 26.39375Q410.375 26.9875 410.375 28.596874L410.34375 31.4875Q410.34375 32.70625 410.45312 33.3Q410.57812 33.878124 410.90625 34.55L408.46875 34.55Q408.35938 34.3 408.21875 33.815624Q408.15625 33.596874 408.14062 33.534374Q407.5 34.14375 406.78125 34.45625Q406.0625 34.76875 405.25 34.76875Q403.79688 34.76875 402.96875 33.9875Q402.14062 33.190624 402.14062 32.003124Q402.14062 31.20625 402.51562 30.596874Q402.89062 29.971874 403.57812 29.64375Q404.26562 29.315624 405.54688 29.065624Q407.28125 28.7375 407.9375 28.45625L407.9375 28.20625Q407.9375 27.503124 407.57812 27.20625Q407.23438 26.89375 406.26562 26.89375Q405.60938 26.89375 405.23438 27.159374Q404.85938 27.409374 404.64062 28.065624ZM407.9375 30.065624Q407.46875 30.221874 406.4375 30.440624Q405.40625 30.659374 405.09375 30.878124Q404.60938 31.221874 404.60938 31.753124Q404.60938 32.26875 405.0 32.64375Q405.39062 33.01875 405.98438 33.01875Q406.65625 33.01875 407.25 32.58125Q407.70312 32.253124 407.84375 31.76875Q407.9375 31.440624 407.9375 30.565624L407.9375 30.065624ZM411.92188 31.89375L414.40625 31.503124Q414.5625 32.221874 415.04688 32.596874Q415.53125 32.971874 416.39062 32.971874Q417.35938 32.971874 417.84375 32.628124Q418.15625 32.378124 418.15625 31.971874Q418.15625 31.690624 417.98438 31.503124Q417.79688 31.33125 417.15625 31.175Q414.17188 30.51875 413.375 29.971874Q412.26562 29.221874 412.26562 27.8625Q412.26562 26.659374 413.21875 25.83125Q414.1875 25.003124 416.1875 25.003124Q418.10938 25.003124 419.03125 25.628124Q419.96875 26.253124 420.32812 27.471874L418.0 27.909374Q417.84375 27.3625 417.42188 27.08125Q417.01562 26.784374 416.23438 26.784374Q415.26562 26.784374 414.84375 27.05Q414.5625 27.253124 414.5625 27.55Q414.5625 27.815624 414.8125 28.003124Q415.14062 28.253124 417.10938 28.70625Q419.07812 29.14375 419.875 29.8Q420.64062 30.45625 420.64062 31.628124Q420.64062 32.909374 419.5625 33.846874Q418.5 34.76875 416.39062 34.76875Q414.48438 34.76875 413.375 33.9875Q412.26562 33.20625 411.92188 31.89375ZM428.20312 31.58125L430.65625 31.9875Q430.1875 33.346874 429.15625 34.065624Q428.14062 34.76875 426.59375 34.76875Q424.15625 34.76875 423.0 33.175Q422.07812 31.89375 422.07812 29.95625Q422.07812 27.628124 423.28125 26.315624Q424.5 25.003124 426.35938 25.003124Q428.4375 25.003124 429.64062 26.378124Q430.84375 27.753124 430.79688 30.596874L424.60938 30.596874Q424.625 31.690624 425.1875 32.3Q425.76562 32.909374 426.625 32.909374Q427.20312 32.909374 427.59375 32.596874Q428.0 32.284374 428.20312 31.58125ZM428.34375 29.08125Q428.3125 28.003124 427.78125 27.45625Q427.25 26.89375 426.5 26.89375Q425.6875 26.89375 425.17188 27.4875Q424.64062 28.065624 424.64062 29.08125L428.34375 29.08125ZM438.8125 21.659374L443.96875 21.659374Q445.5 21.659374 446.25 21.8Q447.0 21.925 447.59375 22.33125Q448.1875 22.721874 448.57812 23.39375Q448.98438 24.065624 448.98438 24.909374Q448.98438 25.815624 448.48438 26.58125Q448.0 27.33125 447.17188 27.70625Q448.34375 28.05 448.96875 28.878124Q449.60938 29.690624 449.60938 30.815624Q449.60938 31.690624 449.20312 32.51875Q448.79688 33.346874 448.07812 33.846874Q447.375 34.346874 446.34375 34.45625Q445.6875 34.534374 443.20312 34.55L438.8125 34.55L438.8125 21.659374ZM441.42188 23.815624L441.42188 26.784374L443.125 26.784374Q444.64062 26.784374 445.01562 26.7375Q445.6875 26.659374 446.0625 26.284374Q446.45312 25.89375 446.45312 25.284374Q446.45312 24.675 446.10938 24.3Q445.78125 23.925 445.14062 23.846874Q444.75 23.815624 442.92188 23.815624L441.42188 23.815624ZM441.42188 28.940624L441.42188 32.378124L443.82812 32.378124Q445.23438 32.378124 445.60938 32.3Q446.1875 32.190624 446.54688 31.784374Q446.92188 31.378124 446.92188 30.690624Q446.92188 30.1125 446.64062 29.70625Q446.35938 29.3 445.82812 29.128124Q445.29688 28.940624 443.51562 28.940624L441.42188 28.940624Z" fill-rule="nonzero"/></svg>