<svg version="1.1" viewBox="0.0 0.0 705.0 351.0" fill="none" stroke="none" stroke-linecap="square" stroke-miterlimit="10" width="705" height="351" xmlns:xlink="http://www.w3.org/1999/xlink" xmlns="http://www.w3.org/2000/svg"><path fill="#ffffff" d="M0 0L705.0 0L705.0 351.0L0 351.0L0 0Z" fill-rule="nonzero"/><path stroke="#333333" stroke-width="1.0" stroke-linecap="butt" d="M83.5 82.5L83.5 281.5" fill-rule="nonzero"/><path stroke="#cccccc" stroke-width="1.0" stroke-linecap="butt" d="M233.5 82.5L233.5 281.5" fill-rule="nonzero"/><path stroke="#cccccc" stroke-width="1.0" stroke-linecap="butt" d="M382.5 82.5L382.5 281.5" fill-rule="nonzero"/><path stroke="#cccccc" stroke-width="1.0" stroke-linecap="butt" d="M531.5 82.5L531.5 281.5" fill-rule="nonzero"/><path stroke="#cccccc" stroke-width="1.0" stroke-linecap="butt" d="M681.5 82.5L681.5 281.5" fill-rule="nonzero"/><path stroke="#333333" stroke-width="1.0" stroke-linecap="butt" d="M83.5 281.5L687.5 281.5" fill-rule="nonzero"/><path stroke="#cccccc" stroke-width="1.0" stroke-linecap="butt" d="M83.5 215.5L687.5 215.5" fill-rule="nonzero"/><path stroke="#cccccc" stroke-width="1.0" stroke-linecap="butt" d="M83.5 149.5L687.5 149.5" fill-rule="nonzero"/><path stroke="#cccccc" stroke-width="1.0" stroke-linecap="butt" d="M83.5 82.5L687.5 82.5" fill-rule="nonzero"/><clipPath id="id_0"><path d="M83.55 82.95L687.45 82.95L687.45 281.45L83.55 281.45L83.55 82.95Z" clip-rule="nonzero"/></clipPath><path stroke="#4285f4" stroke-width="2.0" stroke-linecap="butt" stroke-opacity="0.4" clip-path="url(#id_0)" d="M0 108.293785L687.45 117.29237" fill-rule="nonzero"/><path fill="#4285f4" clip-path="url(#id_0)" d="M94.029205 115.28995C94.029205 117.77523 92.01449 119.78995 89.529205 119.78995C87.04393 119.78995 85.029205 117.77523 85.029205 115.28995C85.029205 112.80467 87.04393 110.78995 89.529205 110.78995C92.01449 110.78995 94.029205 112.80467 94.029205 115.28995Z" fill-rule="nonzero"/><path fill="#4285f4" clip-path="url(#id_0)" d="M94.029205 90.18963C94.029205 92.674904 92.01449 94.68963 89.529205 94.68963C87.04393 94.68963 85.029205 92.674904 85.029205 90.18963C85.029205 87.704346 87.04393 85.68963 89.529205 85.68963C92.01449 85.68963 94.029205 87.704346 94.029205 90.18963Z" fill-rule="nonzero"/><path fill="#4285f4" clip-path="url(#id_0)" d="M147.84209 124.967125C147.84209 127.45241 145.82736 129.46712 143.34209 129.46712C140.8568 129.46712 138.84209 127.45241 138.84209 124.967125C138.84209 122.48184 140.8568 120.467125 143.34209 120.467125C145.82736 120.467125 147.84209 122.48184 147.84209 124.967125Z" fill-rule="nonzero"/><path fill="#4285f4" clip-path="url(#id_0)" d="M685.97076 115.436874C685.97076 117.92216 683.95605 119.936874 681.47076 119.936874C678.98553 119.936874 676.97076 117.92216 676.97076 115.436874C676.97076 112.9516 678.98553 110.936874 681.47076 110.936874C683.95605 110.936874 685.97076 112.9516 685.97076 115.436874Z" fill-rule="nonzero"/><path fill="#4285f4" clip-path="url(#id_0)" d="M685.97076 116.73248C685.97076 119.21776 683.95605 121.23248 681.47076 121.23248C678.98553 121.23248 676.97076 119.21776 676.97076 116.73248C676.97076 114.2472 678.98553 112.23248 681.47076 112.23248C683.95605 112.23248 685.97076 114.2472 685.97076 116.73248Z" fill-rule="nonzero"/><path fill="#4285f4" clip-path="url(#id_0)" d="M685.97076 118.127785C685.97076 120.61307 683.95605 122.627785 681.47076 122.627785C678.98553 122.627785 676.97076 120.61307 676.97076 118.127785C676.97076 115.6425 678.98553 113.627785 681.47076 113.627785C683.95605 113.627785 685.97076 115.6425 685.97076 118.127785Z" fill-rule="nonzero"/><path fill="#000000" d="M381.92188 330.45L381.92188 321.85626L383.07812 321.85626L387.59375 328.60626L387.59375 321.85626L388.6875 321.85626L388.6875 330.45L387.51562 330.45L383.0 323.7L383.0 330.45L381.92188 330.45Z" fill-rule="nonzero"/><path fill="#000000" d="M28.550013 203.90312L22.331263 203.90312L22.331263 202.96562L23.206263 202.96562Q22.190638 202.27812 22.190638 200.98125Q22.190638 200.41875 22.393763 199.95Q22.596888 199.46562 22.925013 199.23125Q23.253138 198.99687 23.690638 198.90312Q23.987513 198.85625 24.721888 198.85625L28.550013 198.85625L28.550013 199.90312L24.768763 199.90312Q24.112513 199.90312 23.800013 200.02812Q23.487513 200.15312 23.300013 200.46562Q23.096888 200.77812 23.096888 201.2Q23.096888 201.87187 23.534388 202.37187Q23.956263 202.85625 25.143763 202.85625L28.550013 202.85625L28.550013 203.90312ZM26.690638 197.325L26.534388 196.29375Q27.159388 196.2 27.487513 195.80937Q27.815638 195.40312 27.815638 194.66875Q27.815638 193.95 27.534388 193.60625Q27.237513 193.24687 26.831263 193.24687Q26.471888 193.24687 26.268763 193.55937Q26.128138 193.77812 25.909388 194.6375Q25.612513 195.79375 25.409388 196.24687Q25.190638 196.68437 24.815638 196.91875Q24.440638 197.15312 23.971888 197.15312Q23.565638 197.15312 23.206263 196.96562Q22.846888 196.77812 22.612513 196.45Q22.440638 196.2 22.315638 195.77812Q22.190638 195.35625 22.190638 194.85625Q22.190638 194.1375 22.409388 193.59062Q22.612513 193.02812 22.971888 192.7625Q23.331263 192.49687 23.925013 192.40312L24.065638 193.43437Q23.596888 193.49687 23.331263 193.84062Q23.050013 194.16875 23.050013 194.79375Q23.050013 195.5125 23.300013 195.825Q23.534388 196.1375 23.862513 196.1375Q24.065638 196.1375 24.221888 196.0125Q24.393763 195.87187 24.503138 195.60625Q24.565638 195.45 24.768763 194.66875Q25.081263 193.54375 25.268763 193.10625Q25.456263 192.66875 25.815638 192.41875Q26.175013 192.16875 26.721888 192.16875Q27.253138 192.16875 27.721888 192.48125Q28.175013 192.77812 28.440638 193.35625Q28.690638 193.93437 28.690638 194.66875Q28.690638 195.8875 28.190638 196.52812Q27.675013 197.15312 26.690638 197.325ZM28.690638 187.7L19.815638 185.21562L19.815638 184.37187L28.690638 186.85625L28.690638 187.7ZM28.550013 180.77812L19.956263 180.77812L19.956263 179.62187L26.706263 175.10625L19.956263 175.10625L19.956263 174.0125L28.550013 174.0125L28.550013 175.18437L21.800013 179.7L28.550013 179.7L28.550013 180.77812Z" fill-rule="nonzero"/><path fill="#000000" d="M71.05 281.21564Q71.05 279.6844 71.3625 278.7625Q71.675 277.825 72.28438 277.325Q72.90938 276.825 73.84688 276.825Q74.53438 276.825 75.05 277.10626Q75.58125 277.3875 75.925 277.91876Q76.26875 278.4344 76.45625 279.1844Q76.64375 279.9344 76.64375 281.21564Q76.64375 282.73126 76.33125 283.65314Q76.03438 284.575 75.40938 285.09064Q74.8 285.59064 73.84688 285.59064Q72.6125 285.59064 71.89375 284.7Q71.05 283.6375 71.05 281.21564ZM72.12813 281.21564Q72.12813 283.325 72.62813 284.02814Q73.12813 284.73126 73.84688 284.73126Q74.58125 284.73126 75.06563 284.02814Q75.56563 283.325 75.56563 281.21564Q75.56563 279.09064 75.06563 278.40314Q74.58125 277.7 73.83125 277.7Q73.1125 277.7 72.675 278.3094Q72.12813 279.09064 72.12813 281.21564Z" fill-rule="nonzero"/><path fill="#000000" d="M55.596874 218.26772L55.596874 219.28334L49.909374 219.28334Q49.909374 218.90834 50.034374 218.54897Q50.253124 217.97084 50.721874 217.40834Q51.20625 216.84584 52.1125 216.11147Q53.51875 214.95522 54.003124 214.28334Q54.503124 213.61147 54.503124 213.01772Q54.503124 212.39272 54.05 211.97084Q53.596874 211.53334 52.878124 211.53334Q52.1125 211.53334 51.659374 211.98647Q51.20625 212.43959 51.190624 213.25209L50.1125 213.14272Q50.221874 211.92397 50.940624 211.29897Q51.675 210.65834 52.909374 210.65834Q54.14375 210.65834 54.8625 211.34584Q55.58125 212.03334 55.58125 213.04897Q55.58125 213.56459 55.3625 214.06459Q55.159374 214.54897 54.659374 215.11147Q54.175 215.65834 53.05 216.61147Q52.096874 217.40834 51.815624 217.70522Q51.55 217.98647 51.378124 218.26772L55.596874 218.26772ZM57.05 215.04897Q57.05 213.51772 57.3625 212.59584Q57.675 211.65834 58.284374 211.15834Q58.909374 210.65834 59.846874 210.65834Q60.534374 210.65834 61.05 210.93959Q61.58125 211.22084 61.925 211.75209Q62.26875 212.26772 62.45625 213.01772Q62.64375 213.76772 62.64375 215.04897Q62.64375 216.56459 62.33125 217.48647Q62.034374 218.40834 61.409374 218.92397Q60.8 219.42397 59.846874 219.42397Q58.6125 219.42397 57.89375 218.53334Q57.05 217.47084 57.05 215.04897ZM58.128124 215.04897Q58.128124 217.15834 58.628124 217.86147Q59.128124 218.56459 59.846874 218.56459Q60.58125 218.56459 61.065624 217.86147Q61.565624 217.15834 61.565624 215.04897Q61.565624 212.92397 61.065624 212.23647Q60.58125 211.53334 59.83125 211.53334Q59.1125 211.53334 58.675 212.14272Q58.128124 212.92397 58.128124 215.04897ZM64.05 215.04897Q64.05 213.51772 64.3625 212.59584Q64.675 211.65834 65.28438 211.15834Q65.90938 210.65834 66.84688 210.65834Q67.53438 210.65834 68.05 210.93959Q68.58125 211.22084 68.925 211.75209Q69.26875 212.26772 69.45625 213.01772Q69.64375 213.76772 69.64375 215.04897Q69.64375 216.56459 69.33125 217.48647Q69.03438 218.40834 68.40938 218.92397Q67.8 219.42397 66.84688 219.42397Q65.6125 219.42397 64.89375 218.53334Q64.05 217.47084 64.05 215.04897ZM65.12813 215.04897Q65.12813 217.15834 65.62813 217.86147Q66.12813 218.56459 66.84688 218.56459Q67.58125 218.56459 68.06563 217.86147Q68.56563 217.15834 68.56563 215.04897Q68.56563 212.92397 68.06563 212.23647Q67.58125 211.53334 66.83125 211.53334Q66.1125 211.53334 65.675 212.14272Q65.12813 212.92397 65.12813 215.04897ZM71.05 215.04897Q71.05 213.51772 71.3625 212.59584Q71.675 211.65834 72.28438 211.15834Q72.90938 210.65834 73.84688 210.65834Q74.53438 210.65834 75.05 210.93959Q75.58125 211.22084 75.925 211.75209Q76.26875 212.26772 76.45625 213.01772Q76.64375 213.76772 76.64375 215.04897Q76.64375 216.56459 76.33125 217.48647Q76.03438 218.40834 75.40938 218.92397Q74.8 219.42397 73.84688 219.42397Q72.6125 219.42397 71.89375 218.53334Q71.05 217.47084 71.05 215.04897ZM72.12813 215.04897Q72.12813 217.15834 72.62813 217.86147Q73.12813 218.56459 73.84688 218.56459Q74.58125 218.56459 75.06563 217.86147Q75.56563 217.15834 75.56563 215.04897Q75.56563 212.92397 75.06563 212.23647Q74.58125 211.53334 73.83125 211.53334Q73.1125 211.53334 72.675 212.14272Q72.12813 212.92397 72.12813 215.04897Z" fill-rule="nonzero"/><path fill="#000000" d="M53.425 153.11667L53.425 151.05417L49.70625 151.05417L49.70625 150.08542L53.628124 144.52292L54.4875 144.52292L54.4875 150.08542L55.64375 150.08542L55.64375 151.05417L54.4875 151.05417L54.4875 153.11667L53.425 153.11667ZM53.425 150.08542L53.425 146.22604L50.7375 150.08542L53.425 150.08542ZM57.05 148.8823Q57.05 147.35104 57.3625 146.42917Q57.675 145.49167 58.284374 144.99167Q58.909374 144.49167 59.846874 144.49167Q60.534374 144.49167 61.05 144.77292Q61.58125 145.05417 61.925 145.58542Q62.26875 146.10104 62.45625 146.85104Q62.64375 147.60104 62.64375 148.8823Q62.64375 150.39792 62.33125 151.3198Q62.034374 152.24167 61.409374 152.7573Q60.8 153.2573 59.846874 153.2573Q58.6125 153.2573 57.89375 152.36667Q57.05 151.30417 57.05 148.8823ZM58.128124 148.8823Q58.128124 150.99167 58.628124 151.6948Q59.128124 152.39792 59.846874 152.39792Q60.58125 152.39792 61.065624 151.6948Q61.565624 150.99167 61.565624 148.8823Q61.565624 146.7573 61.065624 146.0698Q60.58125 145.36667 59.83125 145.36667Q59.1125 145.36667 58.675 145.97604Q58.128124 146.7573 58.128124 148.8823ZM64.05 148.8823Q64.05 147.35104 64.3625 146.42917Q64.675 145.49167 65.28438 144.99167Q65.90938 144.49167 66.84688 144.49167Q67.53438 144.49167 68.05 144.77292Q68.58125 145.05417 68.925 145.58542Q69.26875 146.10104 69.45625 146.85104Q69.64375 147.60104 69.64375 148.8823Q69.64375 150.39792 69.33125 151.3198Q69.03438 152.24167 68.40938 152.7573Q67.8 153.2573 66.84688 153.2573Q65.6125 153.2573 64.89375 152.36667Q64.05 151.30417 64.05 148.8823ZM65.12813 148.8823Q65.12813 150.99167 65.62813 151.6948Q66.12813 152.39792 66.84688 152.39792Q67.58125 152.39792 68.06563 151.6948Q68.56563 150.99167 68.56563 148.8823Q68.56563 146.7573 68.06563 146.0698Q67.58125 145.36667 66.83125 145.36667Q66.1125 145.36667 65.675 145.97604Q65.12813 146.7573 65.12813 148.8823ZM71.05 148.8823Q71.05 147.35104 71.3625 146.42917Q71.675 145.49167 72.28438 144.99167Q72.90938 144.49167 73.84688 144.49167Q74.53438 144.49167 75.05 144.77292Q75.58125 145.05417 75.925 145.58542Q76.26875 146.10104 76.45625 146.85104Q76.64375 147.60104 76.64375 148.8823Q76.64375 150.39792 76.33125 151.3198Q76.03438 152.24167 75.40938 152.7573Q74.8 153.2573 73.84688 153.2573Q72.6125 153.2573 71.89375 152.36667Q71.05 151.30417 71.05 148.8823ZM72.12813 148.8823Q72.12813 150.99167 72.62813 151.6948Q73.12813 152.39792 73.84688 152.39792Q74.58125 152.39792 75.06563 151.6948Q75.56563 150.99167 75.56563 148.8823Q75.56563 146.7573 75.06563 146.0698Q74.58125 145.36667 73.83125 145.36667Q73.1125 145.36667 72.675 145.97604Q72.12813 146.7573 72.12813 148.8823Z" fill-rule="nonzero"/><path fill="#000000" d="M55.51875 80.46562L54.471874 80.54375Q54.33125 79.91875 54.08125 79.6375Q53.64375 79.18437 53.01875 79.18437Q52.51875 79.18437 52.128124 79.46562Q51.64375 79.84062 51.346874 80.54375Q51.065624 81.23125 51.05 82.5125Q51.425 81.93437 51.971874 81.65312Q52.534374 81.37187 53.14375 81.37187Q54.190624 81.37187 54.925 82.15312Q55.675 82.93437 55.675 84.15312Q55.675 84.96562 55.315624 85.66875Q54.971874 86.35625 54.3625 86.73125Q53.753124 87.09062 52.9875 87.09062Q51.659374 87.09062 50.83125 86.12187Q50.003124 85.15312 50.003124 82.93437Q50.003124 80.43437 50.925 79.30937Q51.721874 78.325 53.08125 78.325Q54.096874 78.325 54.7375 78.90312Q55.39375 79.46562 55.51875 80.46562ZM51.221874 84.16875Q51.221874 84.71562 51.440624 85.21562Q51.675 85.7 52.08125 85.96562Q52.503124 86.23125 52.971874 86.23125Q53.628124 86.23125 54.1125 85.7Q54.596874 85.15312 54.596874 84.23125Q54.596874 83.34062 54.1125 82.825Q53.64375 82.30937 52.925 82.30937Q52.20625 82.30937 51.70625 82.825Q51.221874 83.34062 51.221874 84.16875ZM57.05 82.71562Q57.05 81.18437 57.3625 80.2625Q57.675 79.325 58.284374 78.825Q58.909374 78.325 59.846874 78.325Q60.534374 78.325 61.05 78.60625Q61.58125 78.8875 61.925 79.41875Q62.26875 79.93437 62.45625 80.68437Q62.64375 81.43437 62.64375 82.71562Q62.64375 84.23125 62.33125 85.15312Q62.034374 86.075 61.409374 86.59062Q60.8 87.09062 59.846874 87.09062Q58.6125 87.09062 57.89375 86.2Q57.05 85.1375 57.05 82.71562ZM58.128124 82.71562Q58.128124 84.825 58.628124 85.52812Q59.128124 86.23125 59.846874 86.23125Q60.58125 86.23125 61.065624 85.52812Q61.565624 84.825 61.565624 82.71562Q61.565624 80.59062 61.065624 79.90312Q60.58125 79.2 59.83125 79.2Q59.1125 79.2 58.675 79.80937Q58.128124 80.59062 58.128124 82.71562ZM64.05 82.71562Q64.05 81.18437 64.3625 80.2625Q64.675 79.325 65.28438 78.825Q65.90938 78.325 66.84688 78.325Q67.53438 78.325 68.05 78.60625Q68.58125 78.8875 68.925 79.41875Q69.26875 79.93437 69.45625 80.68437Q69.64375 81.43437 69.64375 82.71562Q69.64375 84.23125 69.33125 85.15312Q69.03438 86.075 68.40938 86.59062Q67.8 87.09062 66.84688 87.09062Q65.6125 87.09062 64.89375 86.2Q64.05 85.1375 64.05 82.71562ZM65.12813 82.71562Q65.12813 84.825 65.62813 85.52812Q66.12813 86.23125 66.84688 86.23125Q67.58125 86.23125 68.06563 85.52812Q68.56563 84.825 68.56563 82.71562Q68.56563 80.59062 68.06563 79.90312Q67.58125 79.2 66.83125 79.2Q66.1125 79.2 65.675 79.80937Q65.12813 80.59062 65.12813 82.71562ZM71.05 82.71562Q71.05 81.18437 71.3625 80.2625Q71.675 79.325 72.28438 78.825Q72.90938 78.325 73.84688 78.325Q74.53438 78.325 75.05 78.60625Q75.58125 78.8875 75.925 79.41875Q76.26875 79.93437 76.45625 80.68437Q76.64375 81.43437 76.64375 82.71562Q76.64375 84.23125 76.33125 85.15312Q76.03438 86.075 75.40938 86.59062Q74.8 87.09062 73.84688 87.09062Q72.6125 87.09062 71.89375 86.2Q71.05 85.1375 71.05 82.71562ZM72.12813 82.71562Q72.12813 84.825 72.62813 85.52812Q73.12813 86.23125 73.84688 86.23125Q74.58125 86.23125 75.06563 85.52812Q75.56563 84.825 75.56563 82.71562Q75.56563 80.59062 75.06563 79.90312Q74.58125 79.2 73.83125 79.2Q73.1125 79.2 72.675 79.80937Q72.12813 80.59062 72.12813 82.71562Z" fill-rule="nonzero"/><path fill="#000000" d="M80.55 294.21564Q80.55 292.6844 80.8625 291.7625Q81.175 290.825 81.78438 290.325Q82.40938 289.825 83.34688 289.825Q84.03438 289.825 84.55 290.10626Q85.08125 290.3875 85.425 290.91876Q85.76875 291.4344 85.95625 292.1844Q86.14375 292.9344 86.14375 294.21564Q86.14375 295.73126 85.83125 296.65314Q85.53438 297.575 84.90938 298.09064Q84.3 298.59064 83.34688 298.59064Q82.1125 298.59064 81.39375 297.7Q80.55 296.6375 80.55 294.21564ZM81.62813 294.21564Q81.62813 296.325 82.12813 297.02814Q82.62813 297.73126 83.34688 297.73126Q84.08125 297.73126 84.56563 297.02814Q85.06563 296.325 85.06563 294.21564Q85.06563 292.09064 84.56563 291.40314Q84.08125 290.7 83.33125 290.7Q82.6125 290.7 82.175 291.3094Q81.62813 292.09064 81.62813 294.21564Z" fill-rule="nonzero"/><path fill="#000000" d="M218.07707 297.4344L218.07707 298.45L212.38957 298.45Q212.38957 298.075 212.51457 297.71564Q212.73332 297.1375 213.20207 296.575Q213.68645 296.0125 214.5927 295.27814Q215.99895 294.1219 216.48332 293.45Q216.98332 292.77814 216.98332 292.1844Q216.98332 291.5594 216.5302 291.1375Q216.07707 290.7 215.35832 290.7Q214.5927 290.7 214.13957 291.15314Q213.68645 291.60626 213.67082 292.41876L212.5927 292.3094Q212.70207 291.09064 213.42082 290.46564Q214.1552 289.825 215.38957 289.825Q216.62395 289.825 217.3427 290.5125Q218.06145 291.2 218.06145 292.21564Q218.06145 292.73126 217.8427 293.23126Q217.63957 293.71564 217.13957 294.27814Q216.6552 294.825 215.5302 295.77814Q214.57707 296.575 214.29582 296.8719Q214.0302 297.15314 213.85832 297.4344L218.07707 297.4344ZM219.5302 296.2L220.63957 296.10626Q220.76457 296.91876 221.20207 297.325Q221.6552 297.73126 222.29582 297.73126Q223.04582 297.73126 223.57707 297.15314Q224.10832 296.575 224.10832 295.6375Q224.10832 294.73126 223.5927 294.21564Q223.0927 293.6844 222.26457 293.6844Q221.76457 293.6844 221.3427 293.91876Q220.93645 294.15314 220.70207 294.5125L219.7177 294.3875L220.54582 289.98126L224.82707 289.98126L224.82707 290.98126L221.38957 290.98126L220.93645 293.29376Q221.70207 292.7469 222.54582 292.7469Q223.67082 292.7469 224.43645 293.52814Q225.2177 294.3094 225.2177 295.54376Q225.2177 296.7 224.54582 297.5594Q223.7177 298.59064 222.29582 298.59064Q221.12395 298.59064 220.37395 297.9344Q219.63957 297.27814 219.5302 296.2ZM226.5302 294.21564Q226.5302 292.6844 226.8427 291.7625Q227.1552 290.825 227.76457 290.325Q228.38957 289.825 229.32707 289.825Q230.01457 289.825 230.5302 290.10626Q231.06145 290.3875 231.4052 290.91876Q231.74895 291.4344 231.93645 292.1844Q232.12395 292.9344 232.12395 294.21564Q232.12395 295.73126 231.81145 296.65314Q231.51457 297.575 230.88957 298.09064Q230.2802 298.59064 229.32707 298.59064Q228.0927 298.59064 227.37395 297.7Q226.5302 296.6375 226.5302 294.21564ZM227.60832 294.21564Q227.60832 296.325 228.10832 297.02814Q228.60832 297.73126 229.32707 297.73126Q230.06145 297.73126 230.54582 297.02814Q231.04582 296.325 231.04582 294.21564Q231.04582 292.09064 230.54582 291.40314Q230.06145 290.7 229.31145 290.7Q228.5927 290.7 228.1552 291.3094Q227.60832 292.09064 227.60832 294.21564ZM233.5302 294.21564Q233.5302 292.6844 233.8427 291.7625Q234.1552 290.825 234.76457 290.325Q235.38957 289.825 236.32707 289.825Q237.01457 289.825 237.5302 290.10626Q238.06145 290.3875 238.4052 290.91876Q238.74895 291.4344 238.93645 292.1844Q239.12395 292.9344 239.12395 294.21564Q239.12395 295.73126 238.81145 296.65314Q238.51457 297.575 237.88957 298.09064Q237.2802 298.59064 236.32707 298.59064Q235.0927 298.59064 234.37395 297.7Q233.5302 296.6375 233.5302 294.21564ZM234.60832 294.21564Q234.60832 296.325 235.10832 297.02814Q235.60832 297.73126 236.32707 297.73126Q237.06145 297.73126 237.54582 297.02814Q238.04582 296.325 238.04582 294.21564Q238.04582 292.09064 237.54582 291.40314Q237.06145 290.7 236.31145 290.7Q235.5927 290.7 235.1552 291.3094Q234.60832 292.09064 234.60832 294.21564ZM240.5302 294.21564Q240.5302 292.6844 240.8427 291.7625Q241.1552 290.825 241.76457 290.325Q242.38957 289.825 243.32707 289.825Q244.01457 289.825 244.5302 290.10626Q245.06145 290.3875 245.4052 290.91876Q245.74895 291.4344 245.93645 292.1844Q246.12395 292.9344 246.12395 294.21564Q246.12395 295.73126 245.81145 296.65314Q245.51457 297.575 244.88957 298.09064Q244.2802 298.59064 243.32707 298.59064Q242.0927 298.59064 241.37395 297.7Q240.5302 296.6375 240.5302 294.21564ZM241.60832 294.21564Q241.60832 296.325 242.10832 297.02814Q242.60832 297.73126 243.32707 297.73126Q244.06145 297.73126 244.54582 297.02814Q245.04582 296.325 245.04582 294.21564Q245.04582 292.09064 244.54582 291.40314Q244.06145 290.7 243.31145 290.7Q242.5927 290.7 242.1552 291.3094Q241.60832 292.09064 241.60832 294.21564ZM247.5302 294.21564Q247.5302 292.6844 247.8427 291.7625Q248.1552 290.825 248.76457 290.325Q249.38957 289.825 250.32707 289.825Q251.01457 289.825 251.5302 290.10626Q252.06145 290.3875 252.4052 290.91876Q252.74895 291.4344 252.93645 292.1844Q253.12395 292.9344 253.12395 294.21564Q253.12395 295.73126 252.81145 296.65314Q252.51457 297.575 251.88957 298.09064Q251.2802 298.59064 250.32707 298.59064Q249.0927 298.59064 248.37395 297.7Q247.5302 296.6375 247.5302 294.21564ZM248.60832 294.21564Q248.60832 296.325 249.10832 297.02814Q249.60832 297.73126 250.32707 297.73126Q251.06145 297.73126 251.54582 297.02814Q252.04582 296.325 252.04582 294.21564Q252.04582 292.09064 251.54582 291.40314Q251.06145 290.7 250.31145 290.7Q249.5927 290.7 249.1552 291.3094Q248.60832 292.09064 248.60832 294.21564Z" fill-rule="nonzero"/><path fill="#000000" d="M362.0104 296.2L363.11978 296.10626Q363.24478 296.91876 363.68228 297.325Q364.1354 297.73126 364.77603 297.73126Q365.52603 297.73126 366.05728 297.15314Q366.58853 296.575 366.58853 295.6375Q366.58853 294.73126 366.0729 294.21564Q365.5729 293.6844 364.74478 293.6844Q364.24478 293.6844 363.8229 293.91876Q363.41666 294.15314 363.18228 294.5125L362.1979 294.3875L363.02603 289.98126L367.30728 289.98126L367.30728 290.98126L363.86978 290.98126L363.41666 293.29376Q364.18228 292.7469 365.02603 292.7469Q366.15103 292.7469 366.91666 293.52814Q367.6979 294.3094 367.6979 295.54376Q367.6979 296.7 367.02603 297.5594Q366.1979 298.59064 364.77603 298.59064Q363.60416 298.59064 362.85416 297.9344Q362.11978 297.27814 362.0104 296.2ZM369.0104 294.21564Q369.0104 292.6844 369.3229 291.7625Q369.6354 290.825 370.24478 290.325Q370.86978 289.825 371.80728 289.825Q372.49478 289.825 373.0104 290.10626Q373.54166 290.3875 373.8854 290.91876Q374.22916 291.4344 374.41666 292.1844Q374.60416 292.9344 374.60416 294.21564Q374.60416 295.73126 374.29166 296.65314Q373.99478 297.575 373.36978 298.09064Q372.7604 298.59064 371.80728 298.59064Q370.5729 298.59064 369.85416 297.7Q369.0104 296.6375 369.0104 294.21564ZM370.08853 294.21564Q370.08853 296.325 370.58853 297.02814Q371.08853 297.73126 371.80728 297.73126Q372.54166 297.73126 373.02603 297.02814Q373.52603 296.325 373.52603 294.21564Q373.52603 292.09064 373.02603 291.40314Q372.54166 290.7 371.79166 290.7Q371.0729 290.7 370.6354 291.3094Q370.08853 292.09064 370.08853 294.21564ZM376.0104 294.21564Q376.0104 292.6844 376.3229 291.7625Q376.6354 290.825 377.24478 290.325Q377.86978 289.825 378.80728 289.825Q379.49478 289.825 380.0104 290.10626Q380.54166 290.3875 380.8854 290.91876Q381.22916 291.4344 381.41666 292.1844Q381.60416 292.9344 381.60416 294.21564Q381.60416 295.73126 381.29166 296.65314Q380.99478 297.575 380.36978 298.09064Q379.7604 298.59064 378.80728 298.59064Q377.5729 298.59064 376.85416 297.7Q376.0104 296.6375 376.0104 294.21564ZM377.08853 294.21564Q377.08853 296.325 377.58853 297.02814Q378.08853 297.73126 378.80728 297.73126Q379.54166 297.73126 380.02603 297.02814Q380.52603 296.325 380.52603 294.21564Q380.52603 292.09064 380.02603 291.40314Q379.54166 290.7 378.79166 290.7Q378.0729 290.7 377.6354 291.3094Q377.08853 292.09064 377.08853 294.21564ZM383.0104 294.21564Q383.0104 292.6844 383.3229 291.7625Q383.6354 290.825 384.24478 290.325Q384.86978 289.825 385.80728 289.825Q386.49478 289.825 387.0104 290.10626Q387.54166 290.3875 387.8854 290.91876Q388.22916 291.4344 388.41666 292.1844Q388.60416 292.9344 388.60416 294.21564Q388.60416 295.73126 388.29166 296.65314Q387.99478 297.575 387.36978 298.09064Q386.7604 298.59064 385.80728 298.59064Q384.5729 298.59064 383.85416 297.7Q383.0104 296.6375 383.0104 294.21564ZM384.08853 294.21564Q384.08853 296.325 384.58853 297.02814Q385.08853 297.73126 385.80728 297.73126Q386.54166 297.73126 387.02603 297.02814Q387.52603 296.325 387.52603 294.21564Q387.52603 292.09064 387.02603 291.40314Q386.54166 290.7 385.79166 290.7Q385.0729 290.7 384.6354 291.3094Q384.08853 292.09064 384.08853 294.21564ZM390.0104 294.21564Q390.0104 292.6844 390.3229 291.7625Q390.6354 290.825 391.24478 290.325Q391.86978 289.825 392.80728 289.825Q393.49478 289.825 394.0104 290.10626Q394.54166 290.3875 394.8854 290.91876Q395.22916 291.4344 395.41666 292.1844Q395.60416 292.9344 395.60416 294.21564Q395.60416 295.73126 395.29166 296.65314Q394.99478 297.575 394.36978 298.09064Q393.7604 298.59064 392.80728 298.59064Q391.5729 298.59064 390.85416 297.7Q390.0104 296.6375 390.0104 294.21564ZM391.08853 294.21564Q391.08853 296.325 391.58853 297.02814Q392.08853 297.73126 392.80728 297.73126Q393.54166 297.73126 394.02603 297.02814Q394.52603 296.325 394.52603 294.21564Q394.52603 292.09064 394.02603 291.40314Q393.54166 290.7 392.79166 290.7Q392.0729 290.7 391.6354 291.3094Q391.08853 292.09064 391.08853 294.21564ZM397.0104 294.21564Q397.0104 292.6844 397.3229 291.7625Q397.6354 290.825 398.24478 290.325Q398.86978 289.825 399.80728 289.825Q400.49478 289.825 401.0104 290.10626Q401.54166 290.3875 401.8854 290.91876Q402.22916 291.4344 402.41666 292.1844Q402.60416 292.9344 402.60416 294.21564Q402.60416 295.73126 402.29166 296.65314Q401.99478 297.575 401.36978 298.09064Q400.7604 298.59064 399.80728 298.59064Q398.5729 298.59064 397.85416 297.7Q397.0104 296.6375 397.0104 294.21564ZM398.08853 294.21564Q398.08853 296.325 398.58853 297.02814Q399.08853 297.73126 399.80728 297.73126Q400.54166 297.73126 401.02603 297.02814Q401.52603 296.325 401.52603 294.21564Q401.52603 292.09064 401.02603 291.40314Q400.54166 290.7 399.79166 290.7Q399.0729 290.7 398.6354 291.3094Q398.08853 292.09064 398.08853 294.21564Z" fill-rule="nonzero"/><path fill="#000000" d="M511.5531 290.98126L511.5531 289.96564L517.1156 289.96564L517.1156 290.79376Q516.3031 291.66876 515.4906 293.1219Q514.6937 294.5594 514.2562 296.09064Q513.9281 297.16876 513.85 298.45L512.7562 298.45Q512.77185 297.4344 513.14685 295.9969Q513.5375 294.5594 514.2406 293.23126Q514.95935 291.90314 515.77185 290.98126L511.5531 290.98126ZM518.4906 296.2L519.6 296.10626Q519.725 296.91876 520.1625 297.325Q520.6156 297.73126 521.2562 297.73126Q522.0062 297.73126 522.5375 297.15314Q523.0687 296.575 523.0687 295.6375Q523.0687 294.73126 522.5531 294.21564Q522.0531 293.6844 521.225 293.6844Q520.725 293.6844 520.3031 293.91876Q519.89685 294.15314 519.6625 294.5125L518.6781 294.3875L519.5062 289.98126L523.7875 289.98126L523.7875 290.98126L520.35 290.98126L519.89685 293.29376Q520.6625 292.7469 521.5062 292.7469Q522.6312 292.7469 523.39685 293.52814Q524.1781 294.3094 524.1781 295.54376Q524.1781 296.7 523.5062 297.5594Q522.6781 298.59064 521.2562 298.59064Q520.08435 298.59064 519.33435 297.9344Q518.6 297.27814 518.4906 296.2ZM525.4906 294.21564Q525.4906 292.6844 525.8031 291.7625Q526.1156 290.825 526.725 290.325Q527.35 289.825 528.2875 289.825Q528.975 289.825 529.4906 290.10626Q530.02185 290.3875 530.3656 290.91876Q530.70935 291.4344 530.89685 292.1844Q531.08435 292.9344 531.08435 294.21564Q531.08435 295.73126 530.77185 296.65314Q530.475 297.575 529.85 298.09064Q529.2406 298.59064 528.2875 298.59064Q527.0531 298.59064 526.33435 297.7Q525.4906 296.6375 525.4906 294.21564ZM526.5687 294.21564Q526.5687 296.325 527.0687 297.02814Q527.5687 297.73126 528.2875 297.73126Q529.02185 297.73126 529.5062 297.02814Q530.0062 296.325 530.0062 294.21564Q530.0062 292.09064 529.5062 291.40314Q529.02185 290.7 528.27185 290.7Q527.5531 290.7 527.1156 291.3094Q526.5687 292.09064 526.5687 294.21564ZM532.4906 294.21564Q532.4906 292.6844 532.8031 291.7625Q533.1156 290.825 533.725 290.325Q534.35 289.825 535.2875 289.825Q535.975 289.825 536.4906 290.10626Q537.02185 290.3875 537.3656 290.91876Q537.70935 291.4344 537.89685 292.1844Q538.08435 292.9344 538.08435 294.21564Q538.08435 295.73126 537.77185 296.65314Q537.475 297.575 536.85 298.09064Q536.2406 298.59064 535.2875 298.59064Q534.0531 298.59064 533.33435 297.7Q532.4906 296.6375 532.4906 294.21564ZM533.5687 294.21564Q533.5687 296.325 534.0687 297.02814Q534.5687 297.73126 535.2875 297.73126Q536.02185 297.73126 536.5062 297.02814Q537.0062 296.325 537.0062 294.21564Q537.0062 292.09064 536.5062 291.40314Q536.02185 290.7 535.27185 290.7Q534.5531 290.7 534.1156 291.3094Q533.5687 292.09064 533.5687 294.21564ZM539.4906 294.21564Q539.4906 292.6844 539.8031 291.7625Q540.1156 290.825 540.725 290.325Q541.35 289.825 542.2875 289.825Q542.975 289.825 543.4906 290.10626Q544.02185 290.3875 544.3656 290.91876Q544.70935 291.4344 544.89685 292.1844Q545.08435 292.9344 545.08435 294.21564Q545.08435 295.73126 544.77185 296.65314Q544.475 297.575 543.85 298.09064Q543.2406 298.59064 542.2875 298.59064Q541.0531 298.59064 540.33435 297.7Q539.4906 296.6375 539.4906 294.21564ZM540.5687 294.21564Q540.5687 296.325 541.0687 297.02814Q541.5687 297.73126 542.2875 297.73126Q543.02185 297.73126 543.5062 297.02814Q544.0062 296.325 544.0062 294.21564Q544.0062 292.09064 543.5062 291.40314Q543.02185 290.7 542.27185 290.7Q541.5531 290.7 541.1156 291.3094Q540.5687 292.09064 540.5687 294.21564ZM546.4906 294.21564Q546.4906 292.6844 546.8031 291.7625Q547.1156 290.825 547.725 290.325Q548.35 289.825 549.2875 289.825Q549.975 289.825 550.4906 290.10626Q551.02185 290.3875 551.3656 290.91876Q551.70935 291.4344 551.89685 292.1844Q552.08435 292.9344 552.08435 294.21564Q552.08435 295.73126 551.77185 296.65314Q551.475 297.575 550.85 298.09064Q550.2406 298.59064 549.2875 298.59064Q548.0531 298.59064 547.33435 297.7Q546.4906 296.6375 546.4906 294.21564ZM547.5687 294.21564Q547.5687 296.325 548.0687 297.02814Q548.5687 297.73126 549.2875 297.73126Q550.02185 297.73126 550.5062 297.02814Q551.0062 296.325 551.0062 294.21564Q551.0062 292.09064 550.5062 291.40314Q550.02185 290.7 549.27185 290.7Q548.5531 290.7 548.1156 291.3094Q547.5687 292.09064 547.5687 294.21564Z" fill-rule="nonzero"/><path fill="#4285f4" d="M238.0 57.25C238.0 60.56371 235.3137 63.25 232.0 63.25C228.6863 63.25 226.0 60.56371 226.0 57.25C226.0 53.93629 228.6863 51.25 232.0 51.25C235.3137 51.25 238.0 53.93629 238.0 57.25Z" fill-rule="nonzero"/><path fill="#1a1a1a" d="M246.79688 61.25L246.79688 55.03125L247.73438 55.03125L247.73438 55.90625Q248.42188 54.890625 249.71875 54.890625Q250.28125 54.890625 250.75 55.09375Q251.23438 55.296875 251.46875 55.625Q251.70312 55.953125 251.79688 56.390625Q251.84375 56.6875 251.84375 57.421875L251.84375 61.25L250.79688 61.25L250.79688 57.46875Q250.79688 56.8125 250.67188 56.5Q250.54688 56.1875 250.23438 56.0Q249.92188 55.796875 249.5 55.796875Q248.82812 55.796875 248.32812 56.234375Q247.84375 56.65625 247.84375 57.84375L247.84375 61.25L246.79688 61.25ZM253.375 59.390625L254.40625 59.234375Q254.5 59.859375 254.89062 60.1875Q255.29688 60.515625 256.03125 60.515625Q256.75 60.515625 257.09375 60.234375Q257.45312 59.9375 257.45312 59.53125Q257.45312 59.171875 257.14062 58.96875Q256.92188 58.828125 256.0625 58.609375Q254.90625 58.3125 254.45312 58.109375Q254.01562 57.890625 253.78125 57.515625Q253.54688 57.140625 253.54688 56.671875Q253.54688 56.265625 253.73438 55.90625Q253.92188 55.546875 254.25 55.3125Q254.5 55.140625 254.92188 55.015625Q255.34375 54.890625 255.84375 54.890625Q256.5625 54.890625 257.10938 55.109375Q257.67188 55.3125 257.9375 55.671875Q258.20312 56.03125 258.29688 56.625L257.26562 56.765625Q257.20312 56.296875 256.85938 56.03125Q256.53125 55.75 255.90625 55.75Q255.1875 55.75 254.875 56.0Q254.5625 56.234375 254.5625 56.5625Q254.5625 56.765625 254.6875 56.921875Q254.82812 57.09375 255.09375 57.203125Q255.25 57.265625 256.03125 57.46875Q257.15625 57.78125 257.59375 57.96875Q258.03125 58.15625 258.28125 58.515625Q258.53125 58.875 258.53125 59.421875Q258.53125 59.953125 258.21875 60.421875Q257.92188 60.875 257.34375 61.140625Q256.76562 61.390625 256.03125 61.390625Q254.8125 61.390625 254.17188 60.890625Q253.54688 60.375 253.375 59.390625ZM263.0 61.390625L265.48438 52.515625L266.32812 52.515625L263.84375 61.390625L263.0 61.390625ZM269.92188 61.25L269.92188 52.65625L271.07812 52.65625L275.59375 59.40625L275.59375 52.65625L276.6875 52.65625L276.6875 61.25L275.51562 61.25L271.0 54.5L271.0 61.25L269.92188 61.25Z" fill-rule="nonzero"/><path stroke="#4285f4" stroke-width="4.0" stroke-linecap="butt" stroke-opacity="0.4" d="M294.0 57.25L306.0 57.25" fill-rule="nonzero"/><path fill="#1a1a1a" d="M314.375 58.671875L314.375 57.609375L317.625 57.609375L317.625 58.671875L314.375 58.671875ZM324.04688 60.234375L324.04688 61.25L318.35938 61.25Q318.35938 60.875 318.48438 60.515625Q318.70312 59.9375 319.17188 59.375Q319.65625 58.8125 320.5625 58.078125Q321.96875 56.921875 322.45312 56.25Q322.95312 55.578125 322.95312 54.984375Q322.95312 54.359375 322.5 53.9375Q322.04688 53.5 321.32812 53.5Q320.5625 53.5 320.10938 53.953125Q319.65625 54.40625 319.64062 55.21875L318.5625 55.109375Q318.67188 53.890625 319.39062 53.265625Q320.125 52.625 321.35938 52.625Q322.59375 52.625 323.3125 53.3125Q324.03125 54.0 324.03125 55.015625Q324.03125 55.53125 323.8125 56.03125Q323.60938 56.515625 323.10938 57.078125Q322.625 57.625 321.5 58.578125Q320.54688 59.375 320.26562 59.671875Q320.0 59.953125 319.82812 60.234375L324.04688 60.234375ZM326.09375 61.25L326.09375 60.046875L327.29688 60.046875L327.29688 61.25L326.09375 61.25ZM328.5 58.984375L329.5625 58.84375Q329.73438 59.734375 330.17188 60.140625Q330.60938 60.53125 331.23438 60.53125Q331.98438 60.53125 332.5 60.015625Q333.01562 59.5 333.01562 58.734375Q333.01562 58.015625 332.53125 57.546875Q332.0625 57.0625 331.32812 57.0625Q331.03125 57.0625 330.57812 57.1875L330.70312 56.25Q330.8125 56.265625 330.875 56.265625Q331.54688 56.265625 332.07812 55.921875Q332.625 55.5625 332.625 54.828125Q332.625 54.25 332.23438 53.875Q331.84375 53.484375 331.21875 53.484375Q330.60938 53.484375 330.1875 53.875Q329.78125 54.265625 329.67188 55.03125L328.60938 54.84375Q328.79688 53.796875 329.48438 53.21875Q330.17188 52.625 331.1875 52.625Q331.89062 52.625 332.48438 52.9375Q333.07812 53.234375 333.39062 53.75Q333.70312 54.265625 333.70312 54.859375Q333.70312 55.40625 333.40625 55.875Q333.10938 56.328125 332.53125 56.59375Q333.28125 56.765625 333.70312 57.328125Q334.125 57.875 334.125 58.71875Q334.125 59.84375 333.29688 60.625Q332.48438 61.40625 331.23438 61.40625Q330.10938 61.40625 329.35938 60.734375Q328.60938 60.046875 328.5 58.984375ZM335.5625 53.78125L335.5625 52.765625L341.125 52.765625L341.125 53.59375Q340.3125 54.46875 339.5 55.921875Q338.70312 57.359375 338.26562 58.890625Q337.9375 59.96875 337.85938 61.25L336.76562 61.25Q336.78125 60.234375 337.15625 58.796875Q337.54688 57.359375 338.25 56.03125Q338.96875 54.703125 339.78125 53.78125L335.5625 53.78125ZM342.95312 61.25L342.95312 52.65625L349.15625 52.65625L349.15625 53.671875L344.09375 53.671875L344.09375 56.296875L348.84375 56.296875L348.84375 57.3125L344.09375 57.3125L344.09375 60.234375L349.35938 60.234375L349.35938 61.25L342.95312 61.25ZM350.375 58.671875L350.375 57.609375L353.625 57.609375L353.625 58.671875L350.375 58.671875ZM354.5 57.015625Q354.5 55.484375 354.8125 54.5625Q355.125 53.625 355.73438 53.125Q356.35938 52.625 357.29688 52.625Q357.98438 52.625 358.5 52.90625Q359.03125 53.1875 359.375 53.71875Q359.71875 54.234375 359.90625 54.984375Q360.09375 55.734375 360.09375 57.015625Q360.09375 58.53125 359.78125 59.453125Q359.48438 60.375 358.85938 60.890625Q358.25 61.390625 357.29688 61.390625Q356.0625 61.390625 355.34375 60.5Q354.5 59.4375 354.5 57.015625ZM355.57812 57.015625Q355.57812 59.125 356.07812 59.828125Q356.57812 60.53125 357.29688 60.53125Q358.03125 60.53125 358.51562 59.828125Q359.01562 59.125 359.01562 57.015625Q359.01562 54.890625 358.51562 54.203125Q358.03125 53.5 357.28125 53.5Q356.5625 53.5 356.125 54.109375Q355.57812 54.890625 355.57812 57.015625ZM364.875 61.25L364.875 59.1875L361.15625 59.1875L361.15625 58.21875L365.07812 52.65625L365.9375 52.65625L365.9375 58.21875L367.09375 58.21875L367.09375 59.1875L365.9375 59.1875L365.9375 61.25L364.875 61.25ZM364.875 58.21875L364.875 54.359375L362.1875 58.21875L364.875 58.21875ZM368.375 54.234375L368.64062 53.40625Q369.57812 53.734375 370.0 53.96875Q369.89062 52.90625 369.875 52.515625L370.73438 52.515625Q370.71875 53.09375 370.59375 53.96875Q371.20312 53.65625 371.98438 53.40625L372.25 54.234375Q371.5 54.484375 370.79688 54.5625Q371.14062 54.875 371.79688 55.671875L371.09375 56.171875Q370.75 55.703125 370.29688 54.90625Q369.85938 55.734375 369.53125 56.171875L368.84375 55.671875Q369.51562 54.828125 369.8125 54.5625Q369.0625 54.421875 368.375 54.234375ZM373.09375 61.25L375.35938 58.015625L373.26562 55.03125L374.57812 55.03125L375.53125 56.484375Q375.79688 56.90625 375.96875 57.1875Q376.21875 56.796875 376.4375 56.5L377.48438 55.03125L378.75 55.03125L376.59375 57.953125L378.90625 61.25L377.625 61.25L376.34375 59.3125L376.0 58.796875L374.35938 61.25L373.09375 61.25ZM384.0 59.859375L384.0 57.5L381.67188 57.5L381.67188 56.515625L384.0 56.515625L384.0 54.1875L385.0 54.1875L385.0 56.515625L387.34375 56.515625L387.34375 57.5L385.0 57.5L385.0 59.859375L384.0 59.859375ZM391.5 59.0L392.60938 58.90625Q392.73438 59.71875 393.17188 60.125Q393.625 60.53125 394.26562 60.53125Q395.01562 60.53125 395.54688 59.953125Q396.07812 59.375 396.07812 58.4375Q396.07812 57.53125 395.5625 57.015625Q395.0625 56.484375 394.23438 56.484375Q393.73438 56.484375 393.3125 56.71875Q392.90625 56.953125 392.67188 57.3125L391.6875 57.1875L392.51562 52.78125L396.79688 52.78125L396.79688 53.78125L393.35938 53.78125L392.90625 56.09375Q393.67188 55.546875 394.51562 55.546875Q395.64062 55.546875 396.40625 56.328125Q397.1875 57.109375 397.1875 58.34375Q397.1875 59.5 396.51562 60.359375Q395.6875 61.390625 394.26562 61.390625Q393.09375 61.390625 392.34375 60.734375Q391.60938 60.078125 391.5 59.0ZM404.04688 60.234375L404.04688 61.25L398.35938 61.25Q398.35938 60.875 398.48438 60.515625Q398.70312 59.9375 399.17188 59.375Q399.65625 58.8125 400.5625 58.078125Q401.96875 56.921875 402.45312 56.25Q402.95312 55.578125 402.95312 54.984375Q402.95312 54.359375 402.5 53.9375Q402.04688 53.5 401.32812 53.5Q400.5625 53.5 400.10938 53.953125Q399.65625 54.40625 399.64062 55.21875L398.5625 55.109375Q398.67188 53.890625 399.39062 53.265625Q400.125 52.625 401.35938 52.625Q402.59375 52.625 403.3125 53.3125Q404.03125 54.0 404.03125 55.015625Q404.03125 55.53125 403.8125 56.03125Q403.60938 56.515625 403.10938 57.078125Q402.625 57.625 401.5 58.578125Q400.54688 59.375 400.26562 59.671875Q400.0 59.953125 399.82812 60.234375L404.04688 60.234375ZM405.5 57.015625Q405.5 55.484375 405.8125 54.5625Q406.125 53.625 406.73438 53.125Q407.35938 52.625 408.29688 52.625Q408.98438 52.625 409.5 52.90625Q410.03125 53.1875 410.375 53.71875Q410.71875 54.234375 410.90625 54.984375Q411.09375 55.734375 411.09375 57.015625Q411.09375 58.53125 410.78125 59.453125Q410.48438 60.375 409.85938 60.890625Q409.25 61.390625 408.29688 61.390625Q407.0625 61.390625 406.34375 60.5Q405.5 59.4375 405.5 57.015625ZM406.57812 57.015625Q406.57812 59.125 407.07812 59.828125Q407.57812 60.53125 408.29688 60.53125Q409.03125 60.53125 409.51562 59.828125Q410.01562 59.125 410.01562 57.015625Q410.01562 54.890625 409.51562 54.203125Q409.03125 53.5 408.28125 53.5Q407.5625 53.5 407.125 54.109375Q406.57812 54.890625 406.57812 57.015625ZM416.46875 61.25L415.42188 61.25L415.42188 54.53125Q415.03125 54.890625 414.40625 55.265625Q413.79688 55.625 413.3125 55.796875L413.3125 54.78125Q414.1875 54.359375 414.84375 53.78125Q415.51562 53.1875 415.79688 52.625L416.46875 52.625L416.46875 61.25ZM422.9375 61.25L422.9375 52.65625L426.75 52.65625Q427.90625 52.65625 428.5 52.890625Q429.09375 53.125 429.45312 53.71875Q429.8125 54.296875 429.8125 55.0Q429.8125 55.921875 429.21875 56.546875Q428.625 57.171875 427.39062 57.34375Q427.84375 57.5625 428.07812 57.765625Q428.57812 58.21875 429.01562 58.90625L430.51562 61.25L429.07812 61.25L427.95312 59.46875Q427.45312 58.6875 427.125 58.28125Q426.8125 57.875 426.54688 57.71875Q426.29688 57.546875 426.03125 57.46875Q425.84375 57.4375 425.40625 57.4375L424.07812 57.4375L424.07812 61.25L422.9375 61.25ZM424.07812 56.453125L426.53125 56.453125Q427.29688 56.453125 427.73438 56.296875Q428.1875 56.125 428.40625 55.78125Q428.64062 55.421875 428.64062 55.0Q428.64062 54.390625 428.1875 54.0Q427.75 53.609375 426.79688 53.609375L424.07812 53.609375L424.07812 56.453125ZM431.14062 56.953125Q431.1875 56.625 431.42188 56.28125Q431.79688 55.78125 432.64062 55.171875Q433.48438 54.5625 433.64062 54.375Q433.85938 54.140625 433.85938 53.890625Q433.85938 53.609375 433.64062 53.4375Q433.4375 53.25 433.04688 53.25Q432.65625 53.25 432.46875 53.390625Q432.28125 53.515625 432.15625 53.90625L431.26562 53.8125Q431.4375 53.171875 431.85938 52.859375Q432.28125 52.546875 433.0625 52.546875Q433.95312 52.546875 434.35938 52.90625Q434.78125 53.25 434.78125 53.75Q434.78125 54.234375 434.42188 54.671875Q434.17188 55.0 433.23438 55.671875Q432.73438 56.03125 432.53125 56.25L434.79688 56.25L434.79688 56.953125L431.14062 56.953125ZM444.34375 56.203125L438.67188 56.203125L438.67188 55.21875L444.34375 55.21875L444.34375 56.203125ZM444.34375 58.8125L438.67188 58.8125L438.67188 57.828125L444.34375 57.828125L444.34375 58.8125ZM448.5 57.015625Q448.5 55.484375 448.8125 54.5625Q449.125 53.625 449.73438 53.125Q450.35938 52.625 451.29688 52.625Q451.98438 52.625 452.5 52.90625Q453.03125 53.1875 453.375 53.71875Q453.71875 54.234375 453.90625 54.984375Q454.09375 55.734375 454.09375 57.015625Q454.09375 58.53125 453.78125 59.453125Q453.48438 60.375 452.85938 60.890625Q452.25 61.390625 451.29688 61.390625Q450.0625 61.390625 449.34375 60.5Q448.5 59.4375 448.5 57.015625ZM449.57812 57.015625Q449.57812 59.125 450.07812 59.828125Q450.57812 60.53125 451.29688 60.53125Q452.03125 60.53125 452.51562 59.828125Q453.01562 59.125 453.01562 57.015625Q453.01562 54.890625 452.51562 54.203125Q452.03125 53.5 451.28125 53.5Q450.5625 53.5 450.125 54.109375Q449.57812 54.890625 449.57812 57.015625ZM456.09375 61.25L456.09375 60.046875L457.29688 60.046875L457.29688 61.25L456.09375 61.25ZM462.46875 61.25L461.42188 61.25L461.42188 54.53125Q461.03125 54.890625 460.40625 55.265625Q459.79688 55.625 459.3125 55.796875L459.3125 54.78125Q460.1875 54.359375 460.84375 53.78125Q461.51562 53.1875 461.79688 52.625L462.46875 52.625L462.46875 61.25ZM469.46875 61.25L468.42188 61.25L468.42188 54.53125Q468.03125 54.890625 467.40625 55.265625Q466.79688 55.625 466.3125 55.796875L466.3125 54.78125Q467.1875 54.359375 467.84375 53.78125Q468.51562 53.1875 468.79688 52.625L469.46875 52.625L469.46875 61.25ZM472.65625 59.265625L473.67188 59.171875Q473.79688 59.890625 474.15625 60.21875Q474.53125 60.53125 475.09375 60.53125Q475.57812 60.53125 475.9375 60.3125Q476.3125 60.078125 476.54688 59.71875Q476.78125 59.34375 476.9375 58.71875Q477.09375 58.078125 477.09375 57.421875Q477.09375 57.34375 477.09375 57.203125Q476.78125 57.703125 476.23438 58.03125Q475.6875 58.34375 475.04688 58.34375Q473.96875 58.34375 473.23438 57.578125Q472.5 56.796875 472.5 55.53125Q472.5 54.21875 473.26562 53.421875Q474.04688 52.625 475.20312 52.625Q476.03125 52.625 476.71875 53.078125Q477.42188 53.53125 477.78125 54.375Q478.14062 55.203125 478.14062 56.78125Q478.14062 58.421875 477.78125 59.40625Q477.4375 60.375 476.71875 60.890625Q476.01562 61.390625 475.07812 61.390625Q474.0625 61.390625 473.42188 60.84375Q472.78125 60.28125 472.65625 59.265625ZM476.96875 55.46875Q476.96875 54.5625 476.48438 54.03125Q476.01562 53.5 475.32812 53.5Q474.625 53.5 474.09375 54.078125Q473.57812 54.640625 473.57812 55.5625Q473.57812 56.375 474.07812 56.890625Q474.57812 57.40625 475.29688 57.40625Q476.03125 57.40625 476.5 56.890625Q476.96875 56.375 476.96875 55.46875Z" fill-rule="nonzero"/><path fill="#757575" d="M266.78125 34.55L266.78125 21.659374L270.67188 21.659374L273.0 30.45625L275.3125 21.659374L279.21875 21.659374L279.21875 34.55L276.79688 34.55L276.79688 24.409374L274.25 34.55L271.73438 34.55L269.1875 24.409374L269.1875 34.55L266.78125 34.55ZM287.20312 31.58125L289.65625 31.9875Q289.1875 33.346874 288.15625 34.065624Q287.14062 34.76875 285.59375 34.76875Q283.15625 34.76875 282.0 33.175Q281.07812 31.89375 281.07812 29.95625Q281.07812 27.628124 282.28125 26.315624Q283.5 25.003124 285.35938 25.003124Q287.4375 25.003124 288.64062 26.378124Q289.84375 27.753124 289.79688 30.596874L283.60938 30.596874Q283.625 31.690624 284.1875 32.3Q284.76562 32.909374 285.625 32.909374Q286.20312 32.909374 286.59375 32.596874Q287.0 32.284374 287.20312 31.58125ZM287.34375 29.08125Q287.3125 28.003124 286.78125 27.45625Q286.25 26.89375 285.5 26.89375Q284.6875 26.89375 284.17188 27.4875Q283.64062 28.065624 283.64062 29.08125L287.34375 29.08125ZM295.15625 34.55L292.6875 34.55L292.6875 25.221874L294.98438 25.221874L294.98438 26.55Q295.5625 25.596874 296.03125 25.3Q296.51562 25.003124 297.10938 25.003124Q297.95312 25.003124 298.73438 25.471874L297.96875 27.628124Q297.34375 27.221874 296.8125 27.221874Q296.29688 27.221874 295.92188 27.503124Q295.5625 27.784374 295.35938 28.534374Q295.15625 29.284374 295.15625 31.659374L295.15625 34.55ZM299.5625 35.159374L302.39062 35.503124Q302.45312 36.003124 302.70312 36.190624Q303.0625 36.45625 303.8125 36.45625Q304.78125 36.45625 305.26562 36.159374Q305.59375 35.971874 305.76562 35.534374Q305.875 35.221874 305.875 34.39375L305.875 33.034374Q304.76562 34.55 303.07812 34.55Q301.20312 34.55 300.09375 32.95625Q299.23438 31.70625 299.23438 29.83125Q299.23438 27.4875 300.35938 26.253124Q301.5 25.003124 303.17188 25.003124Q304.90625 25.003124 306.03125 26.51875L306.03125 25.221874L308.34375 25.221874L308.34375 33.596874Q308.34375 35.2375 308.0625 36.05Q307.79688 36.878124 307.29688 37.346874Q306.8125 37.815624 305.98438 38.065624Q305.17188 38.33125 303.92188 38.33125Q301.54688 38.33125 300.54688 37.51875Q299.5625 36.70625 299.5625 35.471874Q299.5625 35.346874 299.5625 35.159374ZM301.76562 29.690624Q301.76562 31.175 302.34375 31.8625Q302.92188 32.55 303.76562 32.55Q304.67188 32.55 305.29688 31.846874Q305.92188 31.14375 305.92188 29.753124Q305.92188 28.3 305.3125 27.596874Q304.71875 26.89375 303.8125 26.89375Q302.92188 26.89375 302.34375 27.58125Q301.76562 28.26875 301.76562 29.690624ZM316.20312 31.58125L318.65625 31.9875Q318.1875 33.346874 317.15625 34.065624Q316.14062 34.76875 314.59375 34.76875Q312.15625 34.76875 311.0 33.175Q310.07812 31.89375 310.07812 29.95625Q310.07812 27.628124 311.28125 26.315624Q312.5 25.003124 314.35938 25.003124Q316.4375 25.003124 317.64062 26.378124Q318.84375 27.753124 318.79688 30.596874L312.60938 30.596874Q312.625 31.690624 313.1875 32.3Q313.76562 32.909374 314.625 32.909374Q315.20312 32.909374 315.59375 32.596874Q316.0 32.284374 316.20312 31.58125ZM316.34375 29.08125Q316.3125 28.003124 315.78125 27.45625Q315.25 26.89375 314.5 26.89375Q313.6875 26.89375 313.17188 27.4875Q312.64062 28.065624 312.64062 29.08125L316.34375 29.08125ZM326.15625 30.3625L328.6875 30.1125Q328.90625 31.378124 329.60938 31.9875Q330.3125 32.58125 331.5 32.58125Q332.75 32.58125 333.39062 32.05Q334.03125 31.51875 334.03125 30.8Q334.03125 30.346874 333.75 30.034374Q333.48438 29.70625 332.82812 29.471874Q332.35938 29.315624 330.73438 28.909374Q328.64062 28.39375 327.79688 27.628124Q326.60938 26.565624 326.60938 25.034374Q326.60938 24.05 327.17188 23.20625Q327.73438 22.346874 328.78125 21.89375Q329.82812 21.440624 331.3125 21.440624Q333.75 21.440624 334.96875 22.503124Q336.20312 23.565624 336.26562 25.346874L333.65625 25.45625Q333.48438 24.471874 332.9375 24.034374Q332.39062 23.596874 331.29688 23.596874Q330.15625 23.596874 329.51562 24.065624Q329.10938 24.3625 329.10938 24.8625Q329.10938 25.315624 329.48438 25.64375Q329.98438 26.065624 331.875 26.51875Q333.78125 26.95625 334.6875 27.440624Q335.59375 27.909374 336.10938 28.753124Q336.625 29.58125 336.625 30.8Q336.625 31.909374 336.0 32.878124Q335.39062 33.83125 334.26562 34.315624Q333.14062 34.784374 331.46875 34.784374Q329.03125 34.784374 327.71875 33.659374Q326.40625 32.51875 326.15625 30.3625ZM338.21875 29.753124Q338.21875 28.51875 338.82812 27.378124Q339.4375 26.221874 340.54688 25.6125Q341.65625 25.003124 343.03125 25.003124Q345.14062 25.003124 346.5 26.378124Q347.85938 27.753124 347.85938 29.8625Q347.85938 31.971874 346.48438 33.378124Q345.125 34.76875 343.04688 34.76875Q341.76562 34.76875 340.59375 34.190624Q339.4375 33.596874 338.82812 32.4875Q338.21875 31.3625 338.21875 29.753124ZM340.75 29.878124Q340.75 31.26875 341.40625 32.01875Q342.07812 32.753124 343.03125 32.753124Q344.0 32.753124 344.65625 32.01875Q345.3125 31.26875 345.3125 29.8625Q345.3125 28.4875 344.65625 27.753124Q344.0 27.01875 343.03125 27.01875Q342.07812 27.01875 341.40625 27.753124Q340.75 28.4875 340.75 29.878124ZM352.15625 34.55L349.6875 34.55L349.6875 25.221874L351.98438 25.221874L351.98438 26.55Q352.5625 25.596874 353.03125 25.3Q353.51562 25.003124 354.10938 25.003124Q354.95312 25.003124 355.73438 25.471874L354.96875 27.628124Q354.34375 27.221874 353.8125 27.221874Q353.29688 27.221874 352.92188 27.503124Q352.5625 27.784374 352.35938 28.534374Q352.15625 29.284374 352.15625 31.659374L352.15625 34.55ZM361.07812 25.221874L361.07812 27.190624L359.39062 27.190624L359.39062 30.940624Q359.39062 32.08125 359.4375 32.284374Q359.48438 32.471874 359.65625 32.596874Q359.82812 32.70625 360.07812 32.70625Q360.40625 32.70625 361.0625 32.471874L361.28125 34.39375Q360.40625 34.76875 359.32812 34.76875Q358.65625 34.76875 358.10938 34.55Q357.57812 34.315624 357.32812 33.95625Q357.07812 33.596874 356.98438 32.9875Q356.90625 32.565624 356.90625 31.253124L356.90625 27.190624L355.76562 27.190624L355.76562 25.221874L356.90625 25.221874L356.90625 23.3625L359.39062 21.925L359.39062 25.221874L361.07812 25.221874ZM367.51562 31.1125L367.51562 28.64375L372.35938 28.64375L372.35938 31.1125L367.51562 31.1125ZM387.04688 29.815624L389.57812 30.6125Q389.0 32.721874 387.64062 33.753124Q386.29688 34.76875 384.21875 34.76875Q381.65625 34.76875 380.0 33.01875Q378.35938 31.26875 378.35938 28.221874Q378.35938 25.003124 380.01562 23.221874Q381.67188 21.440624 384.375 21.440624Q386.75 21.440624 388.21875 22.846874Q389.10938 23.675 389.54688 25.221874L386.96875 25.83125Q386.73438 24.83125 386.0 24.253124Q385.28125 23.675 384.25 23.675Q382.8125 23.675 381.92188 24.70625Q381.03125 25.721874 381.03125 28.034374Q381.03125 30.471874 381.90625 31.51875Q382.79688 32.55 384.20312 32.55Q385.23438 32.55 385.98438 31.89375Q386.73438 31.221874 387.04688 29.815624ZM393.64062 28.065624L391.39062 27.659374Q391.78125 26.3 392.70312 25.659374Q393.625 25.003124 395.4375 25.003124Q397.09375 25.003124 397.89062 25.39375Q398.70312 25.784374 399.03125 26.39375Q399.375 26.9875 399.375 28.596874L399.34375 31.4875Q399.34375 32.70625 399.45312 33.3Q399.57812 33.878124 399.90625 34.55L397.46875 34.55Q397.35938 34.3 397.21875 33.815624Q397.15625 33.596874 397.14062 33.534374Q396.5 34.14375 395.78125 34.45625Q395.0625 34.76875 394.25 34.76875Q392.79688 34.76875 391.96875 33.9875Q391.14062 33.190624 391.14062 32.003124Q391.14062 31.20625 391.51562 30.596874Q391.89062 29.971874 392.57812 29.64375Q393.26562 29.315624 394.54688 29.065624Q396.28125 28.7375 396.9375 28.45625L396.9375 28.20625Q396.9375 27.503124 396.57812 27.20625Q396.23438 26.89375 395.26562 26.89375Q394.60938 26.89375 394.23438 27.159374Q393.85938 27.409374 393.64062 28.065624ZM396.9375 30.065624Q396.46875 30.221874 395.4375 30.440624Q394.40625 30.659374 394.09375 30.878124Q393.60938 31.221874 393.60938 31.753124Q393.60938 32.26875 394.0 32.64375Q394.39062 33.01875 394.98438 33.01875Q395.65625 33.01875 396.25 32.58125Q396.70312 32.253124 396.84375 31.76875Q396.9375 31.440624 396.9375 30.565624L396.9375 30.065624ZM400.92188 31.89375L403.40625 31.503124Q403.5625 32.221874 404.04688 32.596874Q404.53125 32.971874 405.39062 32.971874Q406.35938 32.971874 406.84375 32.628124Q407.15625 32.378124 407.15625 31.971874Q407.15625 31.690624 406.98438 31.503124Q406.79688 31.33125 406.15625 31.175Q403.17188 30.51875 402.375 29.971874Q401.26562 29.221874 401.26562 27.8625Q401.26562 26.659374 402.21875 25.83125Q403.1875 25.003124 405.1875 25.003124Q407.10938 25.003124 408.03125 25.628124Q408.96875 26.253124 409.32812 27.471874L407.0 27.909374Q406.84375 27.3625 406.42188 27.08125Q406.01562 26.784374 405.23438 26.784374Q404.26562 26.784374 403.84375 27.05Q403.5625 27.253124 403.5625 27.55Q403.5625 27.815624 403.8125 28.003124Q404.14062 28.253124 406.10938 28.70625Q408.07812 29.14375 408.875 29.8Q409.64062 30.45625 409.64062 31.628124Q409.64062 32.909374 408.5625 33.846874Q407.5 34.76875 405.39062 34.76875Q403.48438 34.76875 402.375 33.9875Q401.26562 33.20625 400.92188 31.89375ZM417.20312 31.58125L419.65625 31.9875Q419.1875 33.346874 418.15625 34.065624Q417.14062 34.76875 415.59375 34.76875Q413.15625 34.76875 412.0 33.175Q411.07812 31.89375 411.07812 29.95625Q411.07812 27.628124 412.28125 26.315624Q413.5 25.003124 415.35938 25.003124Q417.4375 25.003124 418.64062 26.378124Q419.84375 27.753124 419.79688 30.596874L413.60938 30.596874Q413.625 31.690624 414.1875 32.3Q414.76562 32.909374 415.625 32.909374Q416.20312 32.909374 416.59375 32.596874Q417.0 32.284374 417.20312 31.58125ZM417.34375 29.08125Q417.3125 28.003124 416.78125 27.45625Q416.25 26.89375 415.5 26.89375Q414.6875 26.89375 414.17188 27.4875Q413.64062 28.065624 413.64062 29.08125L417.34375 29.08125ZM427.8125 21.659374L432.96875 21.659374Q434.5 21.659374 435.25 21.8Q436.0 21.925 436.59375 22.33125Q437.1875 22.721874 437.57812 23.39375Q437.98438 24.065624 437.98438 24.909374Q437.98438 25.815624 437.48438 26.58125Q437.0 27.33125 436.17188 27.70625Q437.34375 28.05 437.96875 28.878124Q438.60938 29.690624 438.60938 30.815624Q438.60938 31.690624 438.20312 32.51875Q437.79688 33.346874 437.07812 33.846874Q436.375 34.346874 435.34375 34.45625Q434.6875 34.534374 432.20312 34.55L427.8125 34.55L427.8125 21.659374ZM430.42188 23.815624L430.42188 26.784374L432.125 26.784374Q433.64062 26.784374 434.01562 26.7375Q434.6875 26.659374 435.0625 26.284374Q435.45312 25.89375 435.45312 25.284374Q435.45312 24.675 435.10938 24.3Q434.78125 23.925 434.14062 23.846874Q433.75 23.815624 431.92188 23.815624L430.42188 23.815624ZM430.42188 28.940624L430.42188 32.378124L432.82812 32.378124Q434.23438 32.378124 434.60938 32.3Q435.1875 32.190624 435.54688 31.784374Q435.92188 31.378124 435.92188 30.690624Q435.92188 30.1125 435.64062 29.70625Q435.35938 29.3 434.82812 29.128124Q434.29688 28.940624 432.51562 28.940624L430.42188 28.940624Z" fill-rule="nonzero"/></svg>