<svg version="1.1" viewBox="0.0 0.0 705.0 351.0" fill="none" stroke="none" stroke-linecap="square" stroke-miterlimit="10" width="705" height="351" xmlns:xlink="http://www.w3.org/1999/xlink" xmlns="http://www.w3.org/2000/svg"><path fill="#ffffff" d="M0 0L705.0 0L705.0 351.0L0 351.0L0 0Z" fill-rule="nonzero"/><path stroke="#333333" stroke-width="1.0" stroke-linecap="butt" d="M83.5 82.5L83.5 281.5" fill-rule="nonzero"/><path stroke="#cccccc" stroke-width="1.0" stroke-linecap="butt" d="M233.5 82.5L233.5 281.5" fill-rule="nonzero"/><path stroke="#cccccc" stroke-width="1.0" stroke-linecap="butt" d="M382.5 82.5L382.5 281.5" fill-rule="nonzero"/><path stroke="#cccccc" stroke-width="1.0" stroke-linecap="butt" d="M531.5 82.5L531.5 281.5" fill-rule="nonzero"/><path stroke="#cccccc" stroke-width="1.0" stroke-linecap="butt" d="M681.5 82.5L681.5 281.5" fill-rule="nonzero"/><path stroke="#333333" stroke-width="1.0" stroke-linecap="butt" d="M83.5 281.5L687.5 281.5" fill-rule="nonzero"/><path stroke="#cccccc" stroke-width="1.0" stroke-linecap="butt" d="M83.5 231.5L687.5 231.5" fill-rule="nonzero"/><path stroke="#cccccc" stroke-width="1.0" stroke-linecap="butt" d="M83.5 182.5L687.5 182.5" fill-rule="nonzero"/><path stroke="#cccccc" stroke-width="1.0" stroke-linecap="butt" d="M83.5 132.5L687.5 132.5" fill-rule="nonzero"/><path stroke="#cccccc" stroke-width="1.0" stroke-linecap="butt" d="M83.5 82.5L687.5 82.5" fill-rule="nonzero"/><clipPath id="id_0"><path d="M83.55 82.95L687.45 82.95L687.45 281.45L83.55 281.45L83.55 82.95Z" clip-rule="nonzero"/></clipPath><path stroke="#4285f4" stroke-width="2.0" stroke-linecap="butt" stroke-opacity="0.4" clip-path="url(#id_0)" d="M0 175.43951L687.45 145.08168" fill-rule="nonzero"/><path fill="#4285f4" clip-path="url(#id_0)" d="M94.029205 199.337C94.029205 201.82228 92.01449 203.837 89.529205 203.837C87.04393 203.837 85.029205 201.82228 85.029205 199.337C85.029205 196.85172 87.04393 194.837 89.529205 194.837C92.01449 194.837 94.029205 196.85172 94.029205 199.337Z" fill-rule="nonzero"/><path fill="#4285f4" clip-path="url(#id_0)" d="M94.029205 204.65532C94.029205 207.1406 92.01449 209.15532 89.529205 209.15532C87.04393 209.15532 85.029205 207.1406 85.029205 204.65532C85.029205 202.17003 87.04393 200.15532 89.529205 200.15532C92.01449 200.15532 94.029205 202.17003 94.029205 204.65532Z" fill-rule="nonzero"/><path fill="#4285f4" clip-path="url(#id_0)" d="M94.029205 204.72156C94.029205 207.20685 92.01449 209.22156 89.529205 209.22156C87.04393 209.22156 85.029205 207.20685 85.029205 204.72156C85.029205 202.23628 87.04393 200.22156 89.529205 200.22156C92.01449 200.22156 94.029205 202.23628 94.029205 204.72156Z" fill-rule="nonzero"/><path fill="#4285f4" clip-path="url(#id_0)" d="M147.84209 167.7372C147.84209 170.22247 145.82736 172.2372 143.34209 172.2372C140.8568 172.2372 138.84209 170.22247 138.84209 167.7372C138.84209 165.2519 140.8568 163.2372 143.34209 163.2372C145.82736 163.2372 147.84209 165.2519 147.84209 167.7372Z" fill-rule="nonzero"/><path fill="#4285f4" clip-path="url(#id_0)" d="M147.84209 136.91644C147.84209 139.40172 145.82736 141.41644 143.34209 141.41644C140.8568 141.41644 138.84209 139.40172 138.84209 136.91644C138.84209 134.43117 140.8568 132.41644 143.34209 132.41644C145.82736 132.41644 147.84209 134.43117 147.84209 136.91644Z" fill-rule="nonzero"/><path fill="#4285f4" clip-path="url(#id_0)" d="M147.84209 98.99314C147.84209 101.478424 145.82736 103.49314 143.34209 103.49314C140.8568 103.49314 138.84209 101.478424 138.84209 98.99314C138.84209 96.50786 140.8568 94.49314 143.34209 94.49314C145.82736 94.49314 147.84209 96.50786 147.84209 98.99314Z" fill-rule="nonzero"/><path fill="#4285f4" clip-path="url(#id_0)" d="M685.97076 155.87767C685.97076 158.36295 683.95605 160.37767 681.47076 160.37767C678.98553 160.37767 676.97076 158.36295 676.97076 155.87767C676.97076 153.3924 678.98553 151.37767 681.47076 151.37767C683.95605 151.37767 685.97076 153.3924 685.97076 155.87767Z" fill-rule="nonzero"/><path fill="#4285f4" clip-path="url(#id_0)" d="M685.97076 149.52394C685.97076 152.00922 683.95605 154.02394 681.47076 154.02394C678.98553 154.02394 676.97076 152.00922 676.97076 149.52394C676.97076 147.03865 678.98553 145.02394 681.47076 145.02394C683.95605 145.02394 685.97076 147.03865 685.97076 149.52394Z" fill-rule="nonzero"/><path fill="#4285f4" clip-path="url(#id_0)" d="M685.97076 140.06116C685.97076 142.54645 683.95605 144.56116 681.47076 144.56116C678.98553 144.56116 676.97076 142.54645 676.97076 140.06116C676.97076 137.57588 678.98553 135.56116 681.47076 135.56116C683.95605 135.56116 685.97076 137.57588 685.97076 140.06116Z" fill-rule="nonzero"/><path fill="#000000" d="M381.92188 330.45L381.92188 321.85626L383.07812 321.85626L387.59375 328.60626L387.59375 321.85626L388.6875 321.85626L388.6875 330.45L387.51562 330.45L383.0 323.7L383.0 330.45L381.92188 330.45Z" fill-rule="nonzero"/><path fill="#000000" d="M28.550013 203.90312L22.331263 203.90312L22.331263 202.96562L23.206263 202.96562Q22.190638 202.27812 22.190638 200.98125Q22.190638 200.41875 22.393763 199.95Q22.596888 199.46562 22.925013 199.23125Q23.253138 198.99687 23.690638 198.90312Q23.987513 198.85625 24.721888 198.85625L28.550013 198.85625L28.550013 199.90312L24.768763 199.90312Q24.112513 199.90312 23.800013 200.02812Q23.487513 200.15312 23.300013 200.46562Q23.096888 200.77812 23.096888 201.2Q23.096888 201.87187 23.534388 202.37187Q23.956263 202.85625 25.143763 202.85625L28.550013 202.85625L28.550013 203.90312ZM26.690638 197.325L26.534388 196.29375Q27.159388 196.2 27.487513 195.80937Q27.815638 195.40312 27.815638 194.66875Q27.815638 193.95 27.534388 193.60625Q27.237513 193.24687 26.831263 193.24687Q26.471888 193.24687 26.268763 193.55937Q26.128138 193.77812 25.909388 194.6375Q25.612513 195.79375 25.409388 196.24687Q25.190638 196.68437 24.815638 196.91875Q24.440638 197.15312 23.971888 197.15312Q23.565638 197.15312 23.206263 196.96562Q22.846888 196.77812 22.612513 196.45Q22.440638 196.2 22.315638 195.77812Q22.190638 195.35625 22.190638 194.85625Q22.190638 194.1375 22.409388 193.59062Q22.612513 193.02812 22.971888 192.7625Q23.331263 192.49687 23.925013 192.40312L24.065638 193.43437Q23.596888 193.49687 23.331263 193.84062Q23.050013 194.16875 23.050013 194.79375Q23.050013 195.5125 23.300013 195.825Q23.534388 196.1375 23.862513 196.1375Q24.065638 196.1375 24.221888 196.0125Q24.393763 195.87187 24.503138 195.60625Q24.565638 195.45 24.768763 194.66875Q25.081263 193.54375 25.268763 193.10625Q25.456263 192.66875 25.815638 192.41875Q26.175013 192.16875 26.721888 192.16875Q27.253138 192.16875 27.721888 192.48125Q28.175013 192.77812 28.440638 193.35625Q28.690638 193.93437 28.690638 194.66875Q28.690638 195.8875 28.190638 196.52812Q27.675013 197.15312 26.690638 197.325ZM28.690638 187.7L19.815638 185.21562L19.815638 184.37187L28.690638 186.85625L28.690638 187.7ZM28.550013 180.77812L19.956263 180.77812L19.956263 179.62187L26.706263 175.10625L19.956263 175.10625L19.956263 174.0125L28.550013 174.0125L28.550013 175.18437L21.800013 179.7L28.550013 179.7L28.550013 180.77812Z" fill-rule="nonzero"/><path fill="#000000" d="M71.05 281.21564Q71.05 279.6844 71.3625 278.7625Q71.675 277.825 72.28438 277.325Q72.90938 276.825 73.84688 276.825Q74.53438 276.825 75.05 277.10626Q75.58125 277.3875 75.925 277.91876Q76.26875 278.4344 76.45625 279.1844Q76.64375 279.9344 76.64375 281.21564Q76.64375 282.73126 76.33125 283.65314Q76.03438 284.575 75.40938 285.09064Q74.8 285.59064 73.84688 285.59064Q72.6125 285.59064 71.89375 284.7Q71.05 283.6375 71.05 281.21564ZM72.12813 281.21564Q72.12813 283.325 72.62813 284.02814Q73.12813 284.73126 73.84688 284.73126Q74.58125 284.73126 75.06563 284.02814Q75.56563 283.325 75.56563 281.21564Q75.56563 279.09064 75.06563 278.40314Q74.58125 277.7 73.83125 277.7Q73.1125 277.7 72.675 278.3094Q72.12813 279.09064 72.12813 281.21564Z" fill-rule="nonzero"/><path fill="#000000" d="M55.596874 234.80937L55.596874 235.825L49.909374 235.825Q49.909374 235.45 50.034374 235.09062Q50.253124 234.5125 50.721874 233.95Q51.20625 233.3875 52.1125 232.65312Q53.51875 231.49687 54.003124 230.825Q54.503124 230.15312 54.503124 229.55937Q54.503124 228.93437 54.05 228.5125Q53.596874 228.075 52.878124 228.075Q52.1125 228.075 51.659374 228.52812Q51.20625 228.98125 51.190624 229.79375L50.1125 229.68437Q50.221874 228.46562 50.940624 227.84062Q51.675 227.2 52.909374 227.2Q54.14375 227.2 54.8625 227.8875Q55.58125 228.575 55.58125 229.59062Q55.58125 230.10625 55.3625 230.60625Q55.159374 231.09062 54.659374 231.65312Q54.175 232.2 53.05 233.15312Q52.096874 233.95 51.815624 234.24687Q51.55 234.52812 51.378124 234.80937L55.596874 234.80937ZM57.05 231.59062Q57.05 230.05937 57.3625 229.1375Q57.675 228.2 58.284374 227.7Q58.909374 227.2 59.846874 227.2Q60.534374 227.2 61.05 227.48125Q61.58125 227.7625 61.925 228.29375Q62.26875 228.80937 62.45625 229.55937Q62.64375 230.30937 62.64375 231.59062Q62.64375 233.10625 62.33125 234.02812Q62.034374 234.95 61.409374 235.46562Q60.8 235.96562 59.846874 235.96562Q58.6125 235.96562 57.89375 235.075Q57.05 234.0125 57.05 231.59062ZM58.128124 231.59062Q58.128124 233.7 58.628124 234.40312Q59.128124 235.10625 59.846874 235.10625Q60.58125 235.10625 61.065624 234.40312Q61.565624 233.7 61.565624 231.59062Q61.565624 229.46562 61.065624 228.77812Q60.58125 228.075 59.83125 228.075Q59.1125 228.075 58.675 228.68437Q58.128124 229.46562 58.128124 231.59062ZM64.05 231.59062Q64.05 230.05937 64.3625 229.1375Q64.675 228.2 65.28438 227.7Q65.90938 227.2 66.84688 227.2Q67.53438 227.2 68.05 227.48125Q68.58125 227.7625 68.925 228.29375Q69.26875 228.80937 69.45625 229.55937Q69.64375 230.30937 69.64375 231.59062Q69.64375 233.10625 69.33125 234.02812Q69.03438 234.95 68.40938 235.46562Q67.8 235.96562 66.84688 235.96562Q65.6125 235.96562 64.89375 235.075Q64.05 234.0125 64.05 231.59062ZM65.12813 231.59062Q65.12813 233.7 65.62813 234.40312Q66.12813 235.10625 66.84688 235.10625Q67.58125 235.10625 68.06563 234.40312Q68.56563 233.7 68.56563 231.59062Q68.56563 229.46562 68.06563 228.77812Q67.58125 228.075 66.83125 228.075Q66.1125 228.075 65.675 228.68437Q65.12813 229.46562 65.12813 231.59062ZM71.05 231.59062Q71.05 230.05937 71.3625 229.1375Q71.675 228.2 72.28438 227.7Q72.90938 227.2 73.84688 227.2Q74.53438 227.2 75.05 227.48125Q75.58125 227.7625 75.925 228.29375Q76.26875 228.80937 76.45625 229.55937Q76.64375 230.30937 76.64375 231.59062Q76.64375 233.10625 76.33125 234.02812Q76.03438 234.95 75.40938 235.46562Q74.8 235.96562 73.84688 235.96562Q72.6125 235.96562 71.89375 235.075Q71.05 234.0125 71.05 231.59062ZM72.12813 231.59062Q72.12813 233.7 72.62813 234.40312Q73.12813 235.10625 73.84688 235.10625Q74.58125 235.10625 75.06563 234.40312Q75.56563 233.7 75.56563 231.59062Q75.56563 229.46562 75.06563 228.77812Q74.58125 228.075 73.83125 228.075Q73.1125 228.075 72.675 228.68437Q72.12813 229.46562 72.12813 231.59062Z" fill-rule="nonzero"/><path fill="#000000" d="M53.425 186.2L53.425 184.1375L49.70625 184.1375L49.70625 183.16875L53.628124 177.60625L54.4875 177.60625L54.4875 183.16875L55.64375 183.16875L55.64375 184.1375L54.4875 184.1375L54.4875 186.2L53.425 186.2ZM53.425 183.16875L53.425 179.30937L50.7375 183.16875L53.425 183.16875ZM57.05 181.96562Q57.05 180.43437 57.3625 179.5125Q57.675 178.575 58.284374 178.075Q58.909374 177.575 59.846874 177.575Q60.534374 177.575 61.05 177.85625Q61.58125 178.1375 61.925 178.66875Q62.26875 179.18437 62.45625 179.93437Q62.64375 180.68437 62.64375 181.96562Q62.64375 183.48125 62.33125 184.40312Q62.034374 185.325 61.409374 185.84062Q60.8 186.34062 59.846874 186.34062Q58.6125 186.34062 57.89375 185.45Q57.05 184.3875 57.05 181.96562ZM58.128124 181.96562Q58.128124 184.075 58.628124 184.77812Q59.128124 185.48125 59.846874 185.48125Q60.58125 185.48125 61.065624 184.77812Q61.565624 184.075 61.565624 181.96562Q61.565624 179.84062 61.065624 179.15312Q60.58125 178.45 59.83125 178.45Q59.1125 178.45 58.675 179.05937Q58.128124 179.84062 58.128124 181.96562ZM64.05 181.96562Q64.05 180.43437 64.3625 179.5125Q64.675 178.575 65.28438 178.075Q65.90938 177.575 66.84688 177.575Q67.53438 177.575 68.05 177.85625Q68.58125 178.1375 68.925 178.66875Q69.26875 179.18437 69.45625 179.93437Q69.64375 180.68437 69.64375 181.96562Q69.64375 183.48125 69.33125 184.40312Q69.03438 185.325 68.40938 185.84062Q67.8 186.34062 66.84688 186.34062Q65.6125 186.34062 64.89375 185.45Q64.05 184.3875 64.05 181.96562ZM65.12813 181.96562Q65.12813 184.075 65.62813 184.77812Q66.12813 185.48125 66.84688 185.48125Q67.58125 185.48125 68.06563 184.77812Q68.56563 184.075 68.56563 181.96562Q68.56563 179.84062 68.06563 179.15312Q67.58125 178.45 66.83125 178.45Q66.1125 178.45 65.675 179.05937Q65.12813 179.84062 65.12813 181.96562ZM71.05 181.96562Q71.05 180.43437 71.3625 179.5125Q71.675 178.575 72.28438 178.075Q72.90938 177.575 73.84688 177.575Q74.53438 177.575 75.05 177.85625Q75.58125 178.1375 75.925 178.66875Q76.26875 179.18437 76.45625 179.93437Q76.64375 180.68437 76.64375 181.96562Q76.64375 183.48125 76.33125 184.40312Q76.03438 185.325 75.40938 185.84062Q74.8 186.34062 73.84688 186.34062Q72.6125 186.34062 71.89375 185.45Q71.05 184.3875 71.05 181.96562ZM72.12813 181.96562Q72.12813 184.075 72.62813 184.77812Q73.12813 185.48125 73.84688 185.48125Q74.58125 185.48125 75.06563 184.77812Q75.56563 184.075 75.56563 181.96562Q75.56563 179.84062 75.06563 179.15312Q74.58125 178.45 73.83125 178.45Q73.1125 178.45 72.675 179.05937Q72.12813 179.84062 72.12813 181.96562Z" fill-rule="nonzero"/><path fill="#000000" d="M55.51875 130.09062L54.471874 130.16875Q54.33125 129.54375 54.08125 129.2625Q53.64375 128.80937 53.01875 128.80937Q52.51875 128.80937 52.128124 129.09062Q51.64375 129.46562 51.346874 130.16875Q51.065624 130.85625 51.05 132.1375Q51.425 131.55937 51.971874 131.27812Q52.534374 130.99687 53.14375 130.99687Q54.190624 130.99687 54.925 131.77812Q55.675 132.55937 55.675 133.77812Q55.675 134.59062 55.315624 135.29375Q54.971874 135.98125 54.3625 136.35625Q53.753124 136.71562 52.9875 136.71562Q51.659374 136.71562 50.83125 135.74687Q50.003124 134.77812 50.003124 132.55937Q50.003124 130.05937 50.925 128.93437Q51.721874 127.95 53.08125 127.95Q54.096874 127.95 54.7375 128.52812Q55.39375 129.09062 55.51875 130.09062ZM51.221874 133.79375Q51.221874 134.34062 51.440624 134.84062Q51.675 135.325 52.08125 135.59062Q52.503124 135.85625 52.971874 135.85625Q53.628124 135.85625 54.1125 135.325Q54.596874 134.77812 54.596874 133.85625Q54.596874 132.96562 54.1125 132.45Q53.64375 131.93437 52.925 131.93437Q52.20625 131.93437 51.70625 132.45Q51.221874 132.96562 51.221874 133.79375ZM57.05 132.34062Q57.05 130.80937 57.3625 129.8875Q57.675 128.95 58.284374 128.45Q58.909374 127.95 59.846874 127.95Q60.534374 127.95 61.05 128.23125Q61.58125 128.5125 61.925 129.04375Q62.26875 129.55937 62.45625 130.30937Q62.64375 131.05937 62.64375 132.34062Q62.64375 133.85625 62.33125 134.77812Q62.034374 135.7 61.409374 136.21562Q60.8 136.71562 59.846874 136.71562Q58.6125 136.71562 57.89375 135.825Q57.05 134.7625 57.05 132.34062ZM58.128124 132.34062Q58.128124 134.45 58.628124 135.15312Q59.128124 135.85625 59.846874 135.85625Q60.58125 135.85625 61.065624 135.15312Q61.565624 134.45 61.565624 132.34062Q61.565624 130.21562 61.065624 129.52812Q60.58125 128.825 59.83125 128.825Q59.1125 128.825 58.675 129.43437Q58.128124 130.21562 58.128124 132.34062ZM64.05 132.34062Q64.05 130.80937 64.3625 129.8875Q64.675 128.95 65.28438 128.45Q65.90938 127.95 66.84688 127.95Q67.53438 127.95 68.05 128.23125Q68.58125 128.5125 68.925 129.04375Q69.26875 129.55937 69.45625 130.30937Q69.64375 131.05937 69.64375 132.34062Q69.64375 133.85625 69.33125 134.77812Q69.03438 135.7 68.40938 136.21562Q67.8 136.71562 66.84688 136.71562Q65.6125 136.71562 64.89375 135.825Q64.05 134.7625 64.05 132.34062ZM65.12813 132.34062Q65.12813 134.45 65.62813 135.15312Q66.12813 135.85625 66.84688 135.85625Q67.58125 135.85625 68.06563 135.15312Q68.56563 134.45 68.56563 132.34062Q68.56563 130.21562 68.06563 129.52812Q67.58125 128.825 66.83125 128.825Q66.1125 128.825 65.675 129.43437Q65.12813 130.21562 65.12813 132.34062ZM71.05 132.34062Q71.05 130.80937 71.3625 129.8875Q71.675 128.95 72.28438 128.45Q72.90938 127.95 73.84688 127.95Q74.53438 127.95 75.05 128.23125Q75.58125 128.5125 75.925 129.04375Q76.26875 129.55937 76.45625 130.30937Q76.64375 131.05937 76.64375 132.34062Q76.64375 133.85625 76.33125 134.77812Q76.03438 135.7 75.40938 136.21562Q74.8 136.71562 73.84688 136.71562Q72.6125 136.71562 71.89375 135.825Q71.05 134.7625 71.05 132.34062ZM72.12813 132.34062Q72.12813 134.45 72.62813 135.15312Q73.12813 135.85625 73.84688 135.85625Q74.58125 135.85625 75.06563 135.15312Q75.56563 134.45 75.56563 132.34062Q75.56563 130.21562 75.06563 129.52812Q74.58125 128.825 73.83125 128.825Q73.1125 128.825 72.675 129.43437Q72.12813 130.21562 72.12813 132.34062Z" fill-rule="nonzero"/><path fill="#000000" d="M51.675 82.29375Q51.01875 82.04375 50.690624 81.60625Q50.378124 81.15312 50.378124 80.54375Q50.378124 79.60625 51.05 78.96562Q51.7375 78.325 52.846874 78.325Q53.971874 78.325 54.659374 78.98125Q55.346874 79.6375 55.346874 80.575Q55.346874 81.16875 55.034374 81.60625Q54.721874 82.04375 54.08125 82.29375Q54.878124 82.54375 55.284374 83.12187Q55.690624 83.7 55.690624 84.49687Q55.690624 85.59062 54.909374 86.34062Q54.14375 87.09062 52.8625 87.09062Q51.596874 87.09062 50.815624 86.34062Q50.034374 85.59062 50.034374 84.46562Q50.034374 83.62187 50.45625 83.05937Q50.89375 82.49687 51.675 82.29375ZM51.45625 80.49687Q51.45625 81.10625 51.846874 81.49687Q52.253124 81.8875 52.878124 81.8875Q53.4875 81.8875 53.878124 81.5125Q54.26875 81.12187 54.26875 80.55937Q54.26875 79.98125 53.8625 79.59062Q53.45625 79.18437 52.8625 79.18437Q52.253124 79.18437 51.846874 79.575Q51.45625 79.96562 51.45625 80.49687ZM51.128124 84.46562Q51.128124 84.91875 51.33125 85.34062Q51.55 85.7625 51.971874 85.99687Q52.39375 86.23125 52.878124 86.23125Q53.628124 86.23125 54.1125 85.74687Q54.6125 85.2625 54.6125 84.5125Q54.6125 83.74687 54.1125 83.24687Q53.6125 82.74687 52.846874 82.74687Q52.096874 82.74687 51.6125 83.24687Q51.128124 83.73125 51.128124 84.46562ZM57.05 82.71562Q57.05 81.18437 57.3625 80.2625Q57.675 79.325 58.284374 78.825Q58.909374 78.325 59.846874 78.325Q60.534374 78.325 61.05 78.60625Q61.58125 78.8875 61.925 79.41875Q62.26875 79.93437 62.45625 80.68437Q62.64375 81.43437 62.64375 82.71562Q62.64375 84.23125 62.33125 85.15312Q62.034374 86.075 61.409374 86.59062Q60.8 87.09062 59.846874 87.09062Q58.6125 87.09062 57.89375 86.2Q57.05 85.1375 57.05 82.71562ZM58.128124 82.71562Q58.128124 84.825 58.628124 85.52812Q59.128124 86.23125 59.846874 86.23125Q60.58125 86.23125 61.065624 85.52812Q61.565624 84.825 61.565624 82.71562Q61.565624 80.59062 61.065624 79.90312Q60.58125 79.2 59.83125 79.2Q59.1125 79.2 58.675 79.80937Q58.128124 80.59062 58.128124 82.71562ZM64.05 82.71562Q64.05 81.18437 64.3625 80.2625Q64.675 79.325 65.28438 78.825Q65.90938 78.325 66.84688 78.325Q67.53438 78.325 68.05 78.60625Q68.58125 78.8875 68.925 79.41875Q69.26875 79.93437 69.45625 80.68437Q69.64375 81.43437 69.64375 82.71562Q69.64375 84.23125 69.33125 85.15312Q69.03438 86.075 68.40938 86.59062Q67.8 87.09062 66.84688 87.09062Q65.6125 87.09062 64.89375 86.2Q64.05 85.1375 64.05 82.71562ZM65.12813 82.71562Q65.12813 84.825 65.62813 85.52812Q66.12813 86.23125 66.84688 86.23125Q67.58125 86.23125 68.06563 85.52812Q68.56563 84.825 68.56563 82.71562Q68.56563 80.59062 68.06563 79.90312Q67.58125 79.2 66.83125 79.2Q66.1125 79.2 65.675 79.80937Q65.12813 80.59062 65.12813 82.71562ZM71.05 82.71562Q71.05 81.18437 71.3625 80.2625Q71.675 79.325 72.28438 78.825Q72.90938 78.325 73.84688 78.325Q74.53438 78.325 75.05 78.60625Q75.58125 78.8875 75.925 79.41875Q76.26875 79.93437 76.45625 80.68437Q76.64375 81.43437 76.64375 82.71562Q76.64375 84.23125 76.33125 85.15312Q76.03438 86.075 75.40938 86.59062Q74.8 87.09062 73.84688 87.09062Q72.6125 87.09062 71.89375 86.2Q71.05 85.1375 71.05 82.71562ZM72.12813 82.71562Q72.12813 84.825 72.62813 85.52812Q73.12813 86.23125 73.84688 86.23125Q74.58125 86.23125 75.06563 85.52812Q75.56563 84.825 75.56563 82.71562Q75.56563 80.59062 75.06563 79.90312Q74.58125 79.2 73.83125 79.2Q73.1125 79.2 72.675 79.80937Q72.12813 80.59062 72.12813 82.71562Z" fill-rule="nonzero"/><path fill="#000000" d="M80.55 294.21564Q80.55 292.6844 80.8625 291.7625Q81.175 290.825 81.78438 290.325Q82.40938 289.825 83.34688 289.825Q84.03438 289.825 84.55 290.10626Q85.08125 290.3875 85.425 290.91876Q85.76875 291.4344 85.95625 292.1844Q86.14375 292.9344 86.14375 294.21564Q86.14375 295.73126 85.83125 296.65314Q85.53438 297.575 84.90938 298.09064Q84.3 298.59064 83.34688 298.59064Q82.1125 298.59064 81.39375 297.7Q80.55 296.6375 80.55 294.21564ZM81.62813 294.21564Q81.62813 296.325 82.12813 297.02814Q82.62813 297.73126 83.34688 297.73126Q84.08125 297.73126 84.56563 297.02814Q85.06563 296.325 85.06563 294.21564Q85.06563 292.09064 84.56563 291.40314Q84.08125 290.7 83.33125 290.7Q82.6125 290.7 82.175 291.3094Q81.62813 292.09064 81.62813 294.21564Z" fill-rule="nonzero"/><path fill="#000000" d="M218.07707 297.4344L218.07707 298.45L212.38957 298.45Q212.38957 298.075 212.51457 297.71564Q212.73332 297.1375 213.20207 296.575Q213.68645 296.0125 214.5927 295.27814Q215.99895 294.1219 216.48332 293.45Q216.98332 292.77814 216.98332 292.1844Q216.98332 291.5594 216.5302 291.1375Q216.07707 290.7 215.35832 290.7Q214.5927 290.7 214.13957 291.15314Q213.68645 291.60626 213.67082 292.41876L212.5927 292.3094Q212.70207 291.09064 213.42082 290.46564Q214.1552 289.825 215.38957 289.825Q216.62395 289.825 217.3427 290.5125Q218.06145 291.2 218.06145 292.21564Q218.06145 292.73126 217.8427 293.23126Q217.63957 293.71564 217.13957 294.27814Q216.6552 294.825 215.5302 295.77814Q214.57707 296.575 214.29582 296.8719Q214.0302 297.15314 213.85832 297.4344L218.07707 297.4344ZM219.5302 296.2L220.63957 296.10626Q220.76457 296.91876 221.20207 297.325Q221.6552 297.73126 222.29582 297.73126Q223.04582 297.73126 223.57707 297.15314Q224.10832 296.575 224.10832 295.6375Q224.10832 294.73126 223.5927 294.21564Q223.0927 293.6844 222.26457 293.6844Q221.76457 293.6844 221.3427 293.91876Q220.93645 294.15314 220.70207 294.5125L219.7177 294.3875L220.54582 289.98126L224.82707 289.98126L224.82707 290.98126L221.38957 290.98126L220.93645 293.29376Q221.70207 292.7469 222.54582 292.7469Q223.67082 292.7469 224.43645 293.52814Q225.2177 294.3094 225.2177 295.54376Q225.2177 296.7 224.54582 297.5594Q223.7177 298.59064 222.29582 298.59064Q221.12395 298.59064 220.37395 297.9344Q219.63957 297.27814 219.5302 296.2ZM226.5302 294.21564Q226.5302 292.6844 226.8427 291.7625Q227.1552 290.825 227.76457 290.325Q228.38957 289.825 229.32707 289.825Q230.01457 289.825 230.5302 290.10626Q231.06145 290.3875 231.4052 290.91876Q231.74895 291.4344 231.93645 292.1844Q232.12395 292.9344 232.12395 294.21564Q232.12395 295.73126 231.81145 296.65314Q231.51457 297.575 230.88957 298.09064Q230.2802 298.59064 229.32707 298.59064Q228.0927 298.59064 227.37395 297.7Q226.5302 296.6375 226.5302 294.21564ZM227.60832 294.21564Q227.60832 296.325 228.10832 297.02814Q228.60832 297.73126 229.32707 297.73126Q230.06145 297.73126 230.54582 297.02814Q231.04582 296.325 231.04582 294.21564Q231.04582 292.09064 230.54582 291.40314Q230.06145 290.7 229.31145 290.7Q228.5927 290.7 228.1552 291.3094Q227.60832 292.09064 227.60832 294.21564ZM233.5302 294.21564Q233.5302 292.6844 233.8427 291.7625Q234.1552 290.825 234.76457 290.325Q235.38957 289.825 236.32707 289.825Q237.01457 289.825 237.5302 290.10626Q238.06145 290.3875 238.4052 290.91876Q238.74895 291.4344 238.93645 292.1844Q239.12395 292.9344 239.12395 294.21564Q239.12395 295.73126 238.81145 296.65314Q238.51457 297.575 237.88957 298.09064Q237.2802 298.59064 236.32707 298.59064Q235.0927 298.59064 234.37395 297.7Q233.5302 296.6375 233.5302 294.21564ZM234.60832 294.21564Q234.60832 296.325 235.10832 297.02814Q235.60832 297.73126 236.32707 297.73126Q237.06145 297.73126 237.54582 297.02814Q238.04582 296.325 238.04582 294.21564Q238.04582 292.09064 237.54582 291.40314Q237.06145 290.7 236.31145 290.7Q235.5927 290.7 235.1552 291.3094Q234.60832 292.09064 234.60832 294.21564ZM240.5302 294.21564Q240.5302 292.6844 240.8427 291.7625Q241.1552 290.825 241.76457 290.325Q242.38957 289.825 243.32707 289.825Q244.01457 289.825 244.5302 290.10626Q245.06145 290.3875 245.4052 290.91876Q245.74895 291.4344 245.93645 292.1844Q246.12395 292.9344 246.12395 294.21564Q246.12395 295.73126 245.81145 296.65314Q245.51457 297.575 244.88957 298.09064Q244.2802 298.59064 243.32707 298.59064Q242.0927 298.59064 241.37395 297.7Q240.5302 296.6375 240.5302 294.21564ZM241.60832 294.21564Q241.60832 296.325 242.10832 297.02814Q242.60832 297.73126 243.32707 297.73126Q244.06145 297.73126 244.54582 297.02814Q245.04582 296.325 245.04582 294.21564Q245.04582 292.09064 244.54582 291.40314Q244.06145 290.7 243.31145 290.7Q242.5927 290.7 242.1552 291.3094Q241.60832 292.09064 241.60832 294.21564ZM247.5302 294.21564Q247.5302 292.6844 247.8427 291.7625Q248.1552 290.825 248.76457 290.325Q249.38957 289.825 250.32707 289.825Q251.01457 289.825 251.5302 290.10626Q252.06145 290.3875 252.4052 290.91876Q252.74895 291.4344 252.93645 292.1844Q253.12395 292.9344 253.12395 294.21564Q253.12395 295.73126 252.81145 296.65314Q252.51457 297.575 251.88957 298.09064Q251.2802 298.59064 250.32707 298.59064Q249.0927 298.59064 248.37395 297.7Q247.5302 296.6375 247.5302 294.21564ZM248.60832 294.21564Q248.60832 296.325 249.10832 297.02814Q249.60832 297.73126 250.32707 297.73126Q251.06145 297.73126 251.54582 297.02814Q252.04582 296.325 252.04582 294.21564Q252.04582 292.09064 251.54582 291.40314Q251.06145 290.7 250.31145 290.7Q249.5927 290.7 249.1552 291.3094Q248.60832 292.09064 248.60832 294.21564Z" fill-rule="nonzero"/><path fill="#000000" d="M362.0104 296.2L363.11978 296.10626Q363.24478 296.91876 363.68228 297.325Q364.1354 297.73126 364.77603 297.73126Q365.52603 297.73126 366.05728 297.15314Q366.58853 296.575 366.58853 295.6375Q366.58853 294.73126 366.0729 294.21564Q365.5729 293.6844 364.74478 293.6844Q364.24478 293.6844 363.8229 293.91876Q363.41666 294.15314 363.18228 294.5125L362.1979 294.3875L363.02603 289.98126L367.30728 289.98126L367.30728 290.98126L363.86978 290.98126L363.41666 293.29376Q364.18228 292.7469 365.02603 292.7469Q366.15103 292.7469 366.91666 293.52814Q367.6979 294.3094 367.6979 295.54376Q367.6979 296.7 367.02603 297.5594Q366.1979 298.59064 364.77603 298.59064Q363.60416 298.59064 362.85416 297.9344Q362.11978 297.27814 362.0104 296.2ZM369.0104 294.21564Q369.0104 292.6844 369.3229 291.7625Q369.6354 290.825 370.24478 290.325Q370.86978 289.825 371.80728 289.825Q372.49478 289.825 373.0104 290.10626Q373.54166 290.3875 373.8854 290.91876Q374.22916 291.4344 374.41666 292.1844Q374.60416 292.9344 374.60416 294.21564Q374.60416 295.73126 374.29166 296.65314Q373.99478 297.575 373.36978 298.09064Q372.7604 298.59064 371.80728 298.59064Q370.5729 298.59064 369.85416 297.7Q369.0104 296.6375 369.0104 294.21564ZM370.08853 294.21564Q370.08853 296.325 370.58853 297.02814Q371.08853 297.73126 371.80728 297.73126Q372.54166 297.73126 373.02603 297.02814Q373.52603 296.325 373.52603 294.21564Q373.52603 292.09064 373.02603 291.40314Q372.54166 290.7 371.79166 290.7Q371.0729 290.7 370.6354 291.3094Q370.08853 292.09064 370.08853 294.21564ZM376.0104 294.21564Q376.0104 292.6844 376.3229 291.7625Q376.6354 290.825 377.24478 290.325Q377.86978 289.825 378.80728 289.825Q379.49478 289.825 380.0104 290.10626Q380.54166 290.3875 380.8854 290.91876Q381.22916 291.4344 381.41666 292.1844Q381.60416 292.9344 381.60416 294.21564Q381.60416 295.73126 381.29166 296.65314Q380.99478 297.575 380.36978 298.09064Q379.7604 298.59064 378.80728 298.59064Q377.5729 298.59064 376.85416 297.7Q376.0104 296.6375 376.0104 294.21564ZM377.08853 294.21564Q377.08853 296.325 377.58853 297.02814Q378.08853 297.73126 378.80728 297.73126Q379.54166 297.73126 380.02603 297.02814Q380.52603 296.325 380.52603 294.21564Q380.52603 292.09064 380.02603 291.40314Q379.54166 290.7 378.79166 290.7Q378.0729 290.7 377.6354 291.3094Q377.08853 292.09064 377.08853 294.21564ZM383.0104 294.21564Q383.0104 292.6844 383.3229 291.7625Q383.6354 290.825 384.24478 290.325Q384.86978 289.825 385.80728 289.825Q386.49478 289.825 387.0104 290.10626Q387.54166 290.3875 387.8854 290.91876Q388.22916 291.4344 388.41666 292.1844Q388.60416 292.9344 388.60416 294.21564Q388.60416 295.73126 388.29166 296.65314Q387.99478 297.575 387.36978 298.09064Q386.7604 298.59064 385.80728 298.59064Q384.5729 298.59064 383.85416 297.7Q383.0104 296.6375 383.0104 294.21564ZM384.08853 294.21564Q384.08853 296.325 384.58853 297.02814Q385.08853 297.73126 385.80728 297.73126Q386.54166 297.73126 387.02603 297.02814Q387.52603 296.325 387.52603 294.21564Q387.52603 292.09064 387.02603 291.40314Q386.54166 290.7 385.79166 290.7Q385.0729 290.7 384.6354 291.3094Q384.08853 292.09064 384.08853 294.21564ZM390.0104 294.21564Q390.0104 292.6844 390.3229 291.7625Q390.6354 290.825 391.24478 290.325Q391.86978 289.825 392.80728 289.825Q393.49478 289.825 394.0104 290.10626Q394.54166 290.3875 394.8854 290.91876Q395.22916 291.4344 395.41666 292.1844Q395.60416 292.9344 395.60416 294.21564Q395.60416 295.73126 395.29166 296.65314Q394.99478 297.575 394.36978 298.09064Q393.7604 298.59064 392.80728 298.59064Q391.5729 298.59064 390.85416 297.7Q390.0104 296.6375 390.0104 294.21564ZM391.08853 294.21564Q391.08853 296.325 391.58853 297.02814Q392.08853 297.73126 392.80728 297.73126Q393.54166 297.73126 394.02603 297.02814Q394.52603 296.325 394.52603 294.21564Q394.52603 292.09064 394.02603 291.40314Q393.54166 290.7 392.79166 290.7Q392.0729 290.7 391.6354 291.3094Q391.08853 292.09064 391.08853 294.21564ZM397.0104 294.21564Q397.0104 292.6844 397.3229 291.7625Q397.6354 290.825 398.24478 290.325Q398.86978 289.825 399.80728 289.825Q400.49478 289.825 401.0104 290.10626Q401.54166 290.3875 401.8854 290.91876Q402.22916 291.4344 402.41666 292.1844Q402.60416 292.9344 402.60416 294.21564Q402.60416 295.73126 402.29166 296.65314Q401.99478 297.575 401.36978 298.09064Q400.7604 298.59064 399.80728 298.59064Q398.5729 298.59064 397.85416 297.7Q397.0104 296.6375 397.0104 294.21564ZM398.08853 294.21564Q398.08853 296.325 398.58853 297.02814Q399.08853 297.73126 399.80728 297.73126Q400.54166 297.73126 401.02603 297.02814Q401.52603 296.325 401.52603 294.21564Q401.52603 292.09064 401.02603 291.40314Q400.54166 290.7 399.79166 290.7Q399.0729 290.7 398.6354 291.3094Q398.08853 292.09064 398.08853 294.21564Z" fill-rule="nonzero"/><path fill="#000000" d="M511.5531 290.98126L511.5531 289.96564L517.1156 289.96564L517.1156 290.79376Q516.3031 291.66876 515.4906 293.1219Q514.6937 294.5594 514.2562 296.09064Q513.9281 297.16876 513.85 298.45L512.7562 298.45Q512.77185 297.4344 513.14685 295.9969Q513.5375 294.5594 514.2406 293.23126Q514.95935 291.90314 515.77185 290.98126L511.5531 290.98126ZM518.4906 296.2L519.6 296.10626Q519.725 296.91876 520.1625 297.325Q520.6156 297.73126 521.2562 297.73126Q522.0062 297.73126 522.5375 297.15314Q523.0687 296.575 523.0687 295.6375Q523.0687 294.73126 522.5531 294.21564Q522.0531 293.6844 521.225 293.6844Q520.725 293.6844 520.3031 293.91876Q519.89685 294.15314 519.6625 294.5125L518.6781 294.3875L519.5062 289.98126L523.7875 289.98126L523.7875 290.98126L520.35 290.98126L519.89685 293.29376Q520.6625 292.7469 521.5062 292.7469Q522.6312 292.7469 523.39685 293.52814Q524.1781 294.3094 524.1781 295.54376Q524.1781 296.7 523.5062 297.5594Q522.6781 298.59064 521.2562 298.59064Q520.08435 298.59064 519.33435 297.9344Q518.6 297.27814 518.4906 296.2ZM525.4906 294.21564Q525.4906 292.6844 525.8031 291.7625Q526.1156 290.825 526.725 290.325Q527.35 289.825 528.2875 289.825Q528.975 289.825 529.4906 290.10626Q530.02185 290.3875 530.3656 290.91876Q530.70935 291.4344 530.89685 292.1844Q531.08435 292.9344 531.08435 294.21564Q531.08435 295.73126 530.77185 296.65314Q530.475 297.575 529.85 298.09064Q529.2406 298.59064 528.2875 298.59064Q527.0531 298.59064 526.33435 297.7Q525.4906 296.6375 525.4906 294.21564ZM526.5687 294.21564Q526.5687 296.325 527.0687 297.02814Q527.5687 297.73126 528.2875 297.73126Q529.02185 297.73126 529.5062 297.02814Q530.0062 296.325 530.0062 294.21564Q530.0062 292.09064 529.5062 291.40314Q529.02185 290.7 528.27185 290.7Q527.5531 290.7 527.1156 291.3094Q526.5687 292.09064 526.5687 294.21564ZM532.4906 294.21564Q532.4906 292.6844 532.8031 291.7625Q533.1156 290.825 533.725 290.325Q534.35 289.825 535.2875 289.825Q535.975 289.825 536.4906 290.10626Q537.02185 290.3875 537.3656 290.91876Q537.70935 291.4344 537.89685 292.1844Q538.08435 292.9344 538.08435 294.21564Q538.08435 295.73126 537.77185 296.65314Q537.475 297.575 536.85 298.09064Q536.2406 298.59064 535.2875 298.59064Q534.0531 298.59064 533.33435 297.7Q532.4906 296.6375 532.4906 294.21564ZM533.5687 294.21564Q533.5687 296.325 534.0687 297.02814Q534.5687 297.73126 535.2875 297.73126Q536.02185 297.73126 536.5062 297.02814Q537.0062 296.325 537.0062 294.21564Q537.0062 292.09064 536.5062 291.40314Q536.02185 290.7 535.27185 290.7Q534.5531 290.7 534.1156 291.3094Q533.5687 292.09064 533.5687 294.21564ZM539.4906 294.21564Q539.4906 292.6844 539.8031 291.7625Q540.1156 290.825 540.725 290.325Q541.35 289.825 542.2875 289.825Q542.975 289.825 543.4906 290.10626Q544.02185 290.3875 544.3656 290.91876Q544.70935 291.4344 544.89685 292.1844Q545.08435 292.9344 545.08435 294.21564Q545.08435 295.73126 544.77185 296.65314Q544.475 297.575 543.85 298.09064Q543.2406 298.59064 542.2875 298.59064Q541.0531 298.59064 540.33435 297.7Q539.4906 296.6375 539.4906 294.21564ZM540.5687 294.21564Q540.5687 296.325 541.0687 297.02814Q541.5687 297.73126 542.2875 297.73126Q543.02185 297.73126 543.5062 297.02814Q544.0062 296.325 544.0062 294.21564Q544.0062 292.09064 543.5062 291.40314Q543.02185 290.7 542.27185 290.7Q541.5531 290.7 541.1156 291.3094Q540.5687 292.09064 540.5687 294.21564ZM546.4906 294.21564Q546.4906 292.6844 546.8031 291.7625Q547.1156 290.825 547.725 290.325Q548.35 289.825 549.2875 289.825Q549.975 289.825 550.4906 290.10626Q551.02185 290.3875 551.3656 290.91876Q551.70935 291.4344 551.89685 292.1844Q552.08435 292.9344 552.08435 294.21564Q552.08435 295.73126 551.77185 296.65314Q551.475 297.575 550.85 298.09064Q550.2406 298.59064 549.2875 298.59064Q548.0531 298.59064 547.33435 297.7Q546.4906 296.6375 546.4906 294.21564ZM547.5687 294.21564Q547.5687 296.325 548.0687 297.02814Q548.5687 297.73126 549.2875 297.73126Q550.02185 297.73126 550.5062 297.02814Q551.0062 296.325 551.0062 294.21564Q551.0062 292.09064 550.5062 291.40314Q550.02185 290.7 549.27185 290.7Q548.5531 290.7 548.1156 291.3094Q547.5687 292.09064 547.5687 294.21564Z" fill-rule="nonzero"/><path fill="#4285f4" d="M240.0 57.25C240.0 60.56371 237.3137 63.25 234.0 63.25C230.6863 63.25 228.0 60.56371 228.0 57.25C228.0 53.93629 230.6863 51.25 234.0 51.25C237.3137 51.25 240.0 53.93629 240.0 57.25Z" fill-rule="nonzero"/><path fill="#1a1a1a" d="M248.79688 61.25L248.79688 55.03125L249.73438 55.03125L249.73438 55.90625Q250.42188 54.890625 251.71875 54.890625Q252.28125 54.890625 252.75 55.09375Q253.23438 55.296875 253.46875 55.625Q253.70312 55.953125 253.79688 56.390625Q253.84375 56.6875 253.84375 57.421875L253.84375 61.25L252.79688 61.25L252.79688 57.46875Q252.79688 56.8125 252.67188 56.5Q252.54688 56.1875 252.23438 56.0Q251.92188 55.796875 251.5 55.796875Q250.82812 55.796875 250.32812 56.234375Q249.84375 56.65625 249.84375 57.84375L249.84375 61.25L248.79688 61.25ZM255.375 59.390625L256.40625 59.234375Q256.5 59.859375 256.89062 60.1875Q257.29688 60.515625 258.03125 60.515625Q258.75 60.515625 259.09375 60.234375Q259.45312 59.9375 259.45312 59.53125Q259.45312 59.171875 259.14062 58.96875Q258.92188 58.828125 258.0625 58.609375Q256.90625 58.3125 256.45312 58.109375Q256.01562 57.890625 255.78125 57.515625Q255.54688 57.140625 255.54688 56.671875Q255.54688 56.265625 255.73438 55.90625Q255.92188 55.546875 256.25 55.3125Q256.5 55.140625 256.92188 55.015625Q257.34375 54.890625 257.84375 54.890625Q258.5625 54.890625 259.10938 55.109375Q259.67188 55.3125 259.9375 55.671875Q260.20312 56.03125 260.29688 56.625L259.26562 56.765625Q259.20312 56.296875 258.85938 56.03125Q258.53125 55.75 257.90625 55.75Q257.1875 55.75 256.875 56.0Q256.5625 56.234375 256.5625 56.5625Q256.5625 56.765625 256.6875 56.921875Q256.82812 57.09375 257.09375 57.203125Q257.25 57.265625 258.03125 57.46875Q259.15625 57.78125 259.59375 57.96875Q260.03125 58.15625 260.28125 58.515625Q260.53125 58.875 260.53125 59.421875Q260.53125 59.953125 260.21875 60.421875Q259.92188 60.875 259.34375 61.140625Q258.76562 61.390625 258.03125 61.390625Q256.8125 61.390625 256.17188 60.890625Q255.54688 60.375 255.375 59.390625ZM265.0 61.390625L267.48438 52.515625L268.32812 52.515625L265.84375 61.390625L265.0 61.390625ZM271.92188 61.25L271.92188 52.65625L273.07812 52.65625L277.59375 59.40625L277.59375 52.65625L278.6875 52.65625L278.6875 61.25L277.51562 61.25L273.0 54.5L273.0 61.25L271.92188 61.25Z" fill-rule="nonzero"/><path stroke="#4285f4" stroke-width="4.0" stroke-linecap="butt" stroke-opacity="0.4" d="M296.0 57.25L308.0 57.25" fill-rule="nonzero"/><path fill="#1a1a1a" d="M320.46875 61.25L319.42188 61.25L319.42188 54.53125Q319.03125 54.890625 318.40625 55.265625Q317.79688 55.625 317.3125 55.796875L317.3125 54.78125Q318.1875 54.359375 318.84375 53.78125Q319.51562 53.1875 319.79688 52.625L320.46875 52.625L320.46875 61.25ZM324.09375 61.25L324.09375 60.046875L325.29688 60.046875L325.29688 61.25L324.09375 61.25ZM326.5 57.015625Q326.5 55.484375 326.8125 54.5625Q327.125 53.625 327.73438 53.125Q328.35938 52.625 329.29688 52.625Q329.98438 52.625 330.5 52.90625Q331.03125 53.1875 331.375 53.71875Q331.71875 54.234375 331.90625 54.984375Q332.09375 55.734375 332.09375 57.015625Q332.09375 58.53125 331.78125 59.453125Q331.48438 60.375 330.85938 60.890625Q330.25 61.390625 329.29688 61.390625Q328.0625 61.390625 327.34375 60.5Q326.5 59.4375 326.5 57.015625ZM327.57812 57.015625Q327.57812 59.125 328.07812 59.828125Q328.57812 60.53125 329.29688 60.53125Q330.03125 60.53125 330.51562 59.828125Q331.01562 59.125 331.01562 57.015625Q331.01562 54.890625 330.51562 54.203125Q330.03125 53.5 329.28125 53.5Q328.5625 53.5 328.125 54.109375Q327.57812 54.890625 327.57812 57.015625ZM338.96875 54.765625L337.92188 54.84375Q337.78125 54.21875 337.53125 53.9375Q337.09375 53.484375 336.46875 53.484375Q335.96875 53.484375 335.57812 53.765625Q335.09375 54.140625 334.79688 54.84375Q334.51562 55.53125 334.5 56.8125Q334.875 56.234375 335.42188 55.953125Q335.98438 55.671875 336.59375 55.671875Q337.64062 55.671875 338.375 56.453125Q339.125 57.234375 339.125 58.453125Q339.125 59.265625 338.76562 59.96875Q338.42188 60.65625 337.8125 61.03125Q337.20312 61.390625 336.4375 61.390625Q335.10938 61.390625 334.28125 60.421875Q333.45312 59.453125 333.45312 57.234375Q333.45312 54.734375 334.375 53.609375Q335.17188 52.625 336.53125 52.625Q337.54688 52.625 338.1875 53.203125Q338.84375 53.765625 338.96875 54.765625ZM334.67188 58.46875Q334.67188 59.015625 334.89062 59.515625Q335.125 60.0 335.53125 60.265625Q335.95312 60.53125 336.42188 60.53125Q337.07812 60.53125 337.5625 60.0Q338.04688 59.453125 338.04688 58.53125Q338.04688 57.640625 337.5625 57.125Q337.09375 56.609375 336.375 56.609375Q335.65625 56.609375 335.15625 57.125Q334.67188 57.640625 334.67188 58.46875ZM340.95312 61.25L340.95312 52.65625L347.15625 52.65625L347.15625 53.671875L342.09375 53.671875L342.09375 56.296875L346.84375 56.296875L346.84375 57.3125L342.09375 57.3125L342.09375 60.234375L347.35938 60.234375L347.35938 61.25L340.95312 61.25ZM348.375 58.671875L348.375 57.609375L351.625 57.609375L351.625 58.671875L348.375 58.671875ZM352.5 57.015625Q352.5 55.484375 352.8125 54.5625Q353.125 53.625 353.73438 53.125Q354.35938 52.625 355.29688 52.625Q355.98438 52.625 356.5 52.90625Q357.03125 53.1875 357.375 53.71875Q357.71875 54.234375 357.90625 54.984375Q358.09375 55.734375 358.09375 57.015625Q358.09375 58.53125 357.78125 59.453125Q357.48438 60.375 356.85938 60.890625Q356.25 61.390625 355.29688 61.390625Q354.0625 61.390625 353.34375 60.5Q352.5 59.4375 352.5 57.015625ZM353.57812 57.015625Q353.57812 59.125 354.07812 59.828125Q354.57812 60.53125 355.29688 60.53125Q356.03125 60.53125 356.51562 59.828125Q357.01562 59.125 357.01562 57.015625Q357.01562 54.890625 356.51562 54.203125Q356.03125 53.5 355.28125 53.5Q354.5625 53.5 354.125 54.109375Q353.57812 54.890625 353.57812 57.015625ZM359.5 58.984375L360.5625 58.84375Q360.73438 59.734375 361.17188 60.140625Q361.60938 60.53125 362.23438 60.53125Q362.98438 60.53125 363.5 60.015625Q364.01562 59.5 364.01562 58.734375Q364.01562 58.015625 363.53125 57.546875Q363.0625 57.0625 362.32812 57.0625Q362.03125 57.0625 361.57812 57.1875L361.70312 56.25Q361.8125 56.265625 361.875 56.265625Q362.54688 56.265625 363.07812 55.921875Q363.625 55.5625 363.625 54.828125Q363.625 54.25 363.23438 53.875Q362.84375 53.484375 362.21875 53.484375Q361.60938 53.484375 361.1875 53.875Q360.78125 54.265625 360.67188 55.03125L359.60938 54.84375Q359.79688 53.796875 360.48438 53.21875Q361.17188 52.625 362.1875 52.625Q362.89062 52.625 363.48438 52.9375Q364.07812 53.234375 364.39062 53.75Q364.70312 54.265625 364.70312 54.859375Q364.70312 55.40625 364.40625 55.875Q364.10938 56.328125 363.53125 56.59375Q364.28125 56.765625 364.70312 57.328125Q365.125 57.875 365.125 58.71875Q365.125 59.84375 364.29688 60.625Q363.48438 61.40625 362.23438 61.40625Q361.10938 61.40625 360.35938 60.734375Q359.60938 60.046875 359.5 58.984375ZM366.375 54.234375L366.64062 53.40625Q367.57812 53.734375 368.0 53.96875Q367.89062 52.90625 367.875 52.515625L368.73438 52.515625Q368.71875 53.09375 368.59375 53.96875Q369.20312 53.65625 369.98438 53.40625L370.25 54.234375Q369.5 54.484375 368.79688 54.5625Q369.14062 54.875 369.79688 55.671875L369.09375 56.171875Q368.75 55.703125 368.29688 54.90625Q367.85938 55.734375 367.53125 56.171875L366.84375 55.671875Q367.51562 54.828125 367.8125 54.5625Q367.0625 54.421875 366.375 54.234375ZM371.09375 61.25L373.35938 58.015625L371.26562 55.03125L372.57812 55.03125L373.53125 56.484375Q373.79688 56.90625 373.96875 57.1875Q374.21875 56.796875 374.4375 56.5L375.48438 55.03125L376.75 55.03125L374.59375 57.953125L376.90625 61.25L375.625 61.25L374.34375 59.3125L374.0 58.796875L372.35938 61.25L371.09375 61.25ZM382.0 59.859375L382.0 57.5L379.67188 57.5L379.67188 56.515625L382.0 56.515625L382.0 54.1875L383.0 54.1875L383.0 56.515625L385.34375 56.515625L385.34375 57.5L383.0 57.5L383.0 59.859375L382.0 59.859375ZM392.875 61.25L392.875 59.1875L389.15625 59.1875L389.15625 58.21875L393.07812 52.65625L393.9375 52.65625L393.9375 58.21875L395.09375 58.21875L395.09375 59.1875L393.9375 59.1875L393.9375 61.25L392.875 61.25ZM392.875 58.21875L392.875 54.359375L390.1875 58.21875L392.875 58.21875ZM399.875 61.25L399.875 59.1875L396.15625 59.1875L396.15625 58.21875L400.07812 52.65625L400.9375 52.65625L400.9375 58.21875L402.09375 58.21875L402.09375 59.1875L400.9375 59.1875L400.9375 61.25L399.875 61.25ZM399.875 58.21875L399.875 54.359375L397.1875 58.21875L399.875 58.21875ZM409.04688 60.234375L409.04688 61.25L403.35938 61.25Q403.35938 60.875 403.48438 60.515625Q403.70312 59.9375 404.17188 59.375Q404.65625 58.8125 405.5625 58.078125Q406.96875 56.921875 407.45312 56.25Q407.95312 55.578125 407.95312 54.984375Q407.95312 54.359375 407.5 53.9375Q407.04688 53.5 406.32812 53.5Q405.5625 53.5 405.10938 53.953125Q404.65625 54.40625 404.64062 55.21875L403.5625 55.109375Q403.67188 53.890625 404.39062 53.265625Q405.125 52.625 406.35938 52.625Q407.59375 52.625 408.3125 53.3125Q409.03125 54.0 409.03125 55.015625Q409.03125 55.53125 408.8125 56.03125Q408.60938 56.515625 408.10938 57.078125Q407.625 57.625 406.5 58.578125Q405.54688 59.375 405.26562 59.671875Q405.0 59.953125 404.82812 60.234375L409.04688 60.234375ZM414.46875 61.25L413.42188 61.25L413.42188 54.53125Q413.03125 54.890625 412.40625 55.265625Q411.79688 55.625 411.3125 55.796875L411.3125 54.78125Q412.1875 54.359375 412.84375 53.78125Q413.51562 53.1875 413.79688 52.625L414.46875 52.625L414.46875 61.25ZM420.9375 61.25L420.9375 52.65625L424.75 52.65625Q425.90625 52.65625 426.5 52.890625Q427.09375 53.125 427.45312 53.71875Q427.8125 54.296875 427.8125 55.0Q427.8125 55.921875 427.21875 56.546875Q426.625 57.171875 425.39062 57.34375Q425.84375 57.5625 426.07812 57.765625Q426.57812 58.21875 427.01562 58.90625L428.51562 61.25L427.07812 61.25L425.95312 59.46875Q425.45312 58.6875 425.125 58.28125Q424.8125 57.875 424.54688 57.71875Q424.29688 57.546875 424.03125 57.46875Q423.84375 57.4375 423.40625 57.4375L422.07812 57.4375L422.07812 61.25L420.9375 61.25ZM422.07812 56.453125L424.53125 56.453125Q425.29688 56.453125 425.73438 56.296875Q426.1875 56.125 426.40625 55.78125Q426.64062 55.421875 426.64062 55.0Q426.64062 54.390625 426.1875 54.0Q425.75 53.609375 424.79688 53.609375L422.07812 53.609375L422.07812 56.453125ZM429.14062 56.953125Q429.1875 56.625 429.42188 56.28125Q429.79688 55.78125 430.64062 55.171875Q431.48438 54.5625 431.64062 54.375Q431.85938 54.140625 431.85938 53.890625Q431.85938 53.609375 431.64062 53.4375Q431.4375 53.25 431.04688 53.25Q430.65625 53.25 430.46875 53.390625Q430.28125 53.515625 430.15625 53.90625L429.26562 53.8125Q429.4375 53.171875 429.85938 52.859375Q430.28125 52.546875 431.0625 52.546875Q431.95312 52.546875 432.35938 52.90625Q432.78125 53.25 432.78125 53.75Q432.78125 54.234375 432.42188 54.671875Q432.17188 55.0 431.23438 55.671875Q430.73438 56.03125 430.53125 56.25L432.79688 56.25L432.79688 56.953125L429.14062 56.953125ZM442.34375 56.203125L436.67188 56.203125L436.67188 55.21875L442.34375 55.21875L442.34375 56.203125ZM442.34375 58.8125L436.67188 58.8125L436.67188 57.828125L442.34375 57.828125L442.34375 58.8125ZM446.5 57.015625Q446.5 55.484375 446.8125 54.5625Q447.125 53.625 447.73438 53.125Q448.35938 52.625 449.29688 52.625Q449.98438 52.625 450.5 52.90625Q451.03125 53.1875 451.375 53.71875Q451.71875 54.234375 451.90625 54.984375Q452.09375 55.734375 452.09375 57.015625Q452.09375 58.53125 451.78125 59.453125Q451.48438 60.375 450.85938 60.890625Q450.25 61.390625 449.29688 61.390625Q448.0625 61.390625 447.34375 60.5Q446.5 59.4375 446.5 57.015625ZM447.57812 57.015625Q447.57812 59.125 448.07812 59.828125Q448.57812 60.53125 449.29688 60.53125Q450.03125 60.53125 450.51562 59.828125Q451.01562 59.125 451.01562 57.015625Q451.01562 54.890625 450.51562 54.203125Q450.03125 53.5 449.28125 53.5Q448.5625 53.5 448.125 54.109375Q447.57812 54.890625 447.57812 57.015625ZM454.09375 61.25L454.09375 60.046875L455.29688 60.046875L455.29688 61.25L454.09375 61.25ZM460.46875 61.25L459.42188 61.25L459.42188 54.53125Q459.03125 54.890625 458.40625 55.265625Q457.79688 55.625 457.3125 55.796875L457.3125 54.78125Q458.1875 54.359375 458.84375 53.78125Q459.51562 53.1875 459.79688 52.625L460.46875 52.625L460.46875 61.25ZM469.04688 60.234375L469.04688 61.25L463.35938 61.25Q463.35938 60.875 463.48438 60.515625Q463.70312 59.9375 464.17188 59.375Q464.65625 58.8125 465.5625 58.078125Q466.96875 56.921875 467.45312 56.25Q467.95312 55.578125 467.95312 54.984375Q467.95312 54.359375 467.5 53.9375Q467.04688 53.5 466.32812 53.5Q465.5625 53.5 465.10938 53.953125Q464.65625 54.40625 464.64062 55.21875L463.5625 55.109375Q463.67188 53.890625 464.39062 53.265625Q465.125 52.625 466.35938 52.625Q467.59375 52.625 468.3125 53.3125Q469.03125 54.0 469.03125 55.015625Q469.03125 55.53125 468.8125 56.03125Q468.60938 56.515625 468.10938 57.078125Q467.625 57.625 466.5 58.578125Q465.54688 59.375 465.26562 59.671875Q465.0 59.953125 464.82812 60.234375L469.04688 60.234375ZM474.46875 61.25L473.42188 61.25L473.42188 54.53125Q473.03125 54.890625 472.40625 55.265625Q471.79688 55.625 471.3125 55.796875L471.3125 54.78125Q472.1875 54.359375 472.84375 53.78125Q473.51562 53.1875 473.79688 52.625L474.46875 52.625L474.46875 61.25Z" fill-rule="nonzero"/><path fill="#757575" d="M266.78125 34.55L266.78125 21.659374L270.67188 21.659374L273.0 30.45625L275.3125 21.659374L279.21875 21.659374L279.21875 34.55L276.79688 34.55L276.79688 24.409374L274.25 34.55L271.73438 34.55L269.1875 24.409374L269.1875 34.55L266.78125 34.55ZM287.20312 31.58125L289.65625 31.9875Q289.1875 33.346874 288.15625 34.065624Q287.14062 34.76875 285.59375 34.76875Q283.15625 34.76875 282.0 33.175Q281.07812 31.89375 281.07812 29.95625Q281.07812 27.628124 282.28125 26.315624Q283.5 25.003124 285.35938 25.003124Q287.4375 25.003124 288.64062 26.378124Q289.84375 27.753124 289.79688 30.596874L283.60938 30.596874Q283.625 31.690624 284.1875 32.3Q284.76562 32.909374 285.625 32.909374Q286.20312 32.909374 286.59375 32.596874Q287.0 32.284374 287.20312 31.58125ZM287.34375 29.08125Q287.3125 28.003124 286.78125 27.45625Q286.25 26.89375 285.5 26.89375Q284.6875 26.89375 284.17188 27.4875Q283.64062 28.065624 283.64062 29.08125L287.34375 29.08125ZM295.15625 34.55L292.6875 34.55L292.6875 25.221874L294.98438 25.221874L294.98438 26.55Q295.5625 25.596874 296.03125 25.3Q296.51562 25.003124 297.10938 25.003124Q297.95312 25.003124 298.73438 25.471874L297.96875 27.628124Q297.34375 27.221874 296.8125 27.221874Q296.29688 27.221874 295.92188 27.503124Q295.5625 27.784374 295.35938 28.534374Q295.15625 29.284374 295.15625 31.659374L295.15625 34.55ZM299.5625 35.159374L302.39062 35.503124Q302.45312 36.003124 302.70312 36.190624Q303.0625 36.45625 303.8125 36.45625Q304.78125 36.45625 305.26562 36.159374Q305.59375 35.971874 305.76562 35.534374Q305.875 35.221874 305.875 34.39375L305.875 33.034374Q304.76562 34.55 303.07812 34.55Q301.20312 34.55 300.09375 32.95625Q299.23438 31.70625 299.23438 29.83125Q299.23438 27.4875 300.35938 26.253124Q301.5 25.003124 303.17188 25.003124Q304.90625 25.003124 306.03125 26.51875L306.03125 25.221874L308.34375 25.221874L308.34375 33.596874Q308.34375 35.2375 308.0625 36.05Q307.79688 36.878124 307.29688 37.346874Q306.8125 37.815624 305.98438 38.065624Q305.17188 38.33125 303.92188 38.33125Q301.54688 38.33125 300.54688 37.51875Q299.5625 36.70625 299.5625 35.471874Q299.5625 35.346874 299.5625 35.159374ZM301.76562 29.690624Q301.76562 31.175 302.34375 31.8625Q302.92188 32.55 303.76562 32.55Q304.67188 32.55 305.29688 31.846874Q305.92188 31.14375 305.92188 29.753124Q305.92188 28.3 305.3125 27.596874Q304.71875 26.89375 303.8125 26.89375Q302.92188 26.89375 302.34375 27.58125Q301.76562 28.26875 301.76562 29.690624ZM316.20312 31.58125L318.65625 31.9875Q318.1875 33.346874 317.15625 34.065624Q316.14062 34.76875 314.59375 34.76875Q312.15625 34.76875 311.0 33.175Q310.07812 31.89375 310.07812 29.95625Q310.07812 27.628124 311.28125 26.315624Q312.5 25.003124 314.35938 25.003124Q316.4375 25.003124 317.64062 26.378124Q318.84375 27.753124 318.79688 30.596874L312.60938 30.596874Q312.625 31.690624 313.1875 32.3Q313.76562 32.909374 314.625 32.909374Q315.20312 32.909374 315.59375 32.596874Q316.0 32.284374 316.20312 31.58125ZM316.34375 29.08125Q316.3125 28.003124 315.78125 27.45625Q315.25 26.89375 314.5 26.89375Q313.6875 26.89375 313.17188 27.4875Q312.64062 28.065624 312.64062 29.08125L316.34375 29.08125ZM326.15625 30.3625L328.6875 30.1125Q328.90625 31.378124 329.60938 31.9875Q330.3125 32.58125 331.5 32.58125Q332.75 32.58125 333.39062 32.05Q334.03125 31.51875 334.03125 30.8Q334.03125 30.346874 333.75 30.034374Q333.48438 29.70625 332.82812 29.471874Q332.35938 29.315624 330.73438 28.909374Q328.64062 28.39375 327.79688 27.628124Q326.60938 26.565624 326.60938 25.034374Q326.60938 24.05 327.17188 23.20625Q327.73438 22.346874 328.78125 21.89375Q329.82812 21.440624 331.3125 21.440624Q333.75 21.440624 334.96875 22.503124Q336.20312 23.565624 336.26562 25.346874L333.65625 25.45625Q333.48438 24.471874 332.9375 24.034374Q332.39062 23.596874 331.29688 23.596874Q330.15625 23.596874 329.51562 24.065624Q329.10938 24.3625 329.10938 24.8625Q329.10938 25.315624 329.48438 25.64375Q329.98438 26.065624 331.875 26.51875Q333.78125 26.95625 334.6875 27.440624Q335.59375 27.909374 336.10938 28.753124Q336.625 29.58125 336.625 30.8Q336.625 31.909374 336.0 32.878124Q335.39062 33.83125 334.26562 34.315624Q333.14062 34.784374 331.46875 34.784374Q329.03125 34.784374 327.71875 33.659374Q326.40625 32.51875 326.15625 30.3625ZM338.21875 29.753124Q338.21875 28.51875 338.82812 27.378124Q339.4375 26.221874 340.54688 25.6125Q341.65625 25.003124 343.03125 25.003124Q345.14062 25.003124 346.5 26.378124Q347.85938 27.753124 347.85938 29.8625Q347.85938 31.971874 346.48438 33.378124Q345.125 34.76875 343.04688 34.76875Q341.76562 34.76875 340.59375 34.190624Q339.4375 33.596874 338.82812 32.4875Q338.21875 31.3625 338.21875 29.753124ZM340.75 29.878124Q340.75 31.26875 341.40625 32.01875Q342.07812 32.753124 343.03125 32.753124Q344.0 32.753124 344.65625 32.01875Q345.3125 31.26875 345.3125 29.8625Q345.3125 28.4875 344.65625 27.753124Q344.0 27.01875 343.03125 27.01875Q342.07812 27.01875 341.40625 27.753124Q340.75 28.4875 340.75 29.878124ZM352.15625 34.55L349.6875 34.55L349.6875 25.221874L351.98438 25.221874L351.98438 26.55Q352.5625 25.596874 353.03125 25.3Q353.51562 25.003124 354.10938 25.003124Q354.95312 25.003124 355.73438 25.471874L354.96875 27.628124Q354.34375 27.221874 353.8125 27.221874Q353.29688 27.221874 352.92188 27.503124Q352.5625 27.784374 352.35938 28.534374Q352.15625 29.284374 352.15625 31.659374L352.15625 34.55ZM361.07812 25.221874L361.07812 27.190624L359.39062 27.190624L359.39062 30.940624Q359.39062 32.08125 359.4375 32.284374Q359.48438 32.471874 359.65625 32.596874Q359.82812 32.70625 360.07812 32.70625Q360.40625 32.70625 361.0625 32.471874L361.28125 34.39375Q360.40625 34.76875 359.32812 34.76875Q358.65625 34.76875 358.10938 34.55Q357.57812 34.315624 357.32812 33.95625Q357.07812 33.596874 356.98438 32.9875Q356.90625 32.565624 356.90625 31.253124L356.90625 27.190624L355.76562 27.190624L355.76562 25.221874L356.90625 25.221874L356.90625 23.3625L359.39062 21.925L359.39062 25.221874L361.07812 25.221874ZM367.51562 31.1125L367.51562 28.64375L372.35938 28.64375L372.35938 31.1125L367.51562 31.1125ZM387.04688 29.815624L389.57812 30.6125Q389.0 32.721874 387.64062 33.753124Q386.29688 34.76875 384.21875 34.76875Q381.65625 34.76875 380.0 33.01875Q378.35938 31.26875 378.35938 28.221874Q378.35938 25.003124 380.01562 23.221874Q381.67188 21.440624 384.375 21.440624Q386.75 21.440624 388.21875 22.846874Q389.10938 23.675 389.54688 25.221874L386.96875 25.83125Q386.73438 24.83125 386.0 24.253124Q385.28125 23.675 384.25 23.675Q382.8125 23.675 381.92188 24.70625Q381.03125 25.721874 381.03125 28.034374Q381.03125 30.471874 381.90625 31.51875Q382.79688 32.55 384.20312 32.55Q385.23438 32.55 385.98438 31.89375Q386.73438 31.221874 387.04688 29.815624ZM393.64062 28.065624L391.39062 27.659374Q391.78125 26.3 392.70312 25.659374Q393.625 25.003124 395.4375 25.003124Q397.09375 25.003124 397.89062 25.39375Q398.70312 25.784374 399.03125 26.39375Q399.375 26.9875 399.375 28.596874L399.34375 31.4875Q399.34375 32.70625 399.45312 33.3Q399.57812 33.878124 399.90625 34.55L397.46875 34.55Q397.35938 34.3 397.21875 33.815624Q397.15625 33.596874 397.14062 33.534374Q396.5 34.14375 395.78125 34.45625Q395.0625 34.76875 394.25 34.76875Q392.79688 34.76875 391.96875 33.9875Q391.14062 33.190624 391.14062 32.003124Q391.14062 31.20625 391.51562 30.596874Q391.89062 29.971874 392.57812 29.64375Q393.26562 29.315624 394.54688 29.065624Q396.28125 28.7375 396.9375 28.45625L396.9375 28.20625Q396.9375 27.503124 396.57812 27.20625Q396.23438 26.89375 395.26562 26.89375Q394.60938 26.89375 394.23438 27.159374Q393.85938 27.409374 393.64062 28.065624ZM396.9375 30.065624Q396.46875 30.221874 395.4375 30.440624Q394.40625 30.659374 394.09375 30.878124Q393.60938 31.221874 393.60938 31.753124Q393.60938 32.26875 394.0 32.64375Q394.39062 33.01875 394.98438 33.01875Q395.65625 33.01875 396.25 32.58125Q396.70312 32.253124 396.84375 31.76875Q396.9375 31.440624 396.9375 30.565624L396.9375 30.065624ZM400.92188 31.89375L403.40625 31.503124Q403.5625 32.221874 404.04688 32.596874Q404.53125 32.971874 405.39062 32.971874Q406.35938 32.971874 406.84375 32.628124Q407.15625 32.378124 407.15625 31.971874Q407.15625 31.690624 406.98438 31.503124Q406.79688 31.33125 406.15625 31.175Q403.17188 30.51875 402.375 29.971874Q401.26562 29.221874 401.26562 27.8625Q401.26562 26.659374 402.21875 25.83125Q403.1875 25.003124 405.1875 25.003124Q407.10938 25.003124 408.03125 25.628124Q408.96875 26.253124 409.32812 27.471874L407.0 27.909374Q406.84375 27.3625 406.42188 27.08125Q406.01562 26.784374 405.23438 26.784374Q404.26562 26.784374 403.84375 27.05Q403.5625 27.253124 403.5625 27.55Q403.5625 27.815624 403.8125 28.003124Q404.14062 28.253124 406.10938 28.70625Q408.07812 29.14375 408.875 29.8Q409.64062 30.45625 409.64062 31.628124Q409.64062 32.909374 408.5625 33.846874Q407.5 34.76875 405.39062 34.76875Q403.48438 34.76875 402.375 33.9875Q401.26562 33.20625 400.92188 31.89375ZM417.20312 31.58125L419.65625 31.9875Q419.1875 33.346874 418.15625 34.065624Q417.14062 34.76875 415.59375 34.76875Q413.15625 34.76875 412.0 33.175Q411.07812 31.89375 411.07812 29.95625Q411.07812 27.628124 412.28125 26.315624Q413.5 25.003124 415.35938 25.003124Q417.4375 25.003124 418.64062 26.378124Q419.84375 27.753124 419.79688 30.596874L413.60938 30.596874Q413.625 31.690624 414.1875 32.3Q414.76562 32.909374 415.625 32.909374Q416.20312 32.909374 416.59375 32.596874Q417.0 32.284374 417.20312 31.58125ZM417.34375 29.08125Q417.3125 28.003124 416.78125 27.45625Q416.25 26.89375 415.5 26.89375Q414.6875 26.89375 414.17188 27.4875Q413.64062 28.065624 413.64062 29.08125L417.34375 29.08125ZM439.42188 34.55L436.59375 34.55L435.46875 31.628124L430.32812 31.628124L429.26562 34.55L426.5 34.55L431.51562 21.659374L434.26562 21.659374L439.42188 34.55ZM434.64062 29.45625L432.85938 24.675L431.125 29.45625L434.64062 29.45625Z" fill-rule="nonzero"/></svg>