<svg version="1.1" viewBox="0.0 0.0 600.0 371.0" fill="none" stroke="none" stroke-linecap="square" stroke-miterlimit="10" width="600" height="371" xmlns:xlink="http://www.w3.org/1999/xlink" xmlns="http://www.w3.org/2000/svg"><path fill="#ffffff" d="M0 0L600.0 0L600.0 371.0L0 371.0L0 0Z" fill-rule="nonzero"/><path stroke="#333333" stroke-width="1.0" stroke-linecap="butt" d="M45.5 103.5L45.5 332.5" fill-rule="nonzero"/><path stroke="#cccccc" stroke-width="1.0" stroke-linecap="butt" d="M177.5 103.5L177.5 332.5" fill-rule="nonzero"/><path stroke="#cccccc" stroke-width="1.0" stroke-linecap="butt" d="M310.5 103.5L310.5 332.5" fill-rule="nonzero"/><path stroke="#cccccc" stroke-width="1.0" stroke-linecap="butt" d="M442.5 103.5L442.5 332.5" fill-rule="nonzero"/><path stroke="#cccccc" stroke-width="1.0" stroke-linecap="butt" d="M574.5 103.5L574.5 332.5" fill-rule="nonzero"/><path stroke="#333333" stroke-width="1.0" stroke-linecap="butt" d="M45.5 332.5L581.5 332.5" fill-rule="nonzero"/><path stroke="#cccccc" stroke-width="1.0" stroke-linecap="butt" d="M45.5 256.5L581.5 256.5" fill-rule="nonzero"/><path stroke="#cccccc" stroke-width="1.0" stroke-linecap="butt" d="M45.5 179.5L581.5 179.5" fill-rule="nonzero"/><path stroke="#cccccc" stroke-width="1.0" stroke-linecap="butt" d="M45.5 103.5L581.5 103.5" fill-rule="nonzero"/><clipPath id="id_0"><path d="M45.55 103.28333L581.45 103.28333L581.45 332.45L45.55 332.45L45.55 103.28333Z" clip-rule="nonzero"/></clipPath><path stroke="#4285f4" stroke-width="2.0" stroke-linecap="butt" stroke-opacity="0.4" clip-path="url(#id_0)" d="M0 352.70547L581.45 120.343414" fill-rule="nonzero"/><path stroke="#ea4335" stroke-width="2.0" stroke-linecap="butt" stroke-opacity="0.4" clip-path="url(#id_0)" d="M0 348.28427L581.45 140.3335" fill-rule="nonzero"/><path fill="#4285f4" clip-path="url(#id_0)" d="M55.3399 330.7573C55.3399 333.24258 53.325184 335.2573 50.8399 335.2573C48.35462 335.2573 46.3399 333.24258 46.3399 330.7573C46.3399 328.272 48.35462 326.2573 50.8399 326.2573C53.325184 326.2573 55.3399 328.272 55.3399 330.7573Z" fill-rule="nonzero"/><path fill="#4285f4" clip-path="url(#id_0)" d="M55.3399 330.7573C55.3399 333.24258 53.325184 335.2573 50.8399 335.2573C48.35462 335.2573 46.3399 333.24258 46.3399 330.7573C46.3399 328.272 48.35462 326.2573 50.8399 326.2573C53.325184 326.2573 55.3399 328.272 55.3399 330.7573Z" fill-rule="nonzero"/><path fill="#4285f4" clip-path="url(#id_0)" d="M55.3399 330.7573C55.3399 333.24258 53.325184 335.2573 50.8399 335.2573C48.35462 335.2573 46.3399 333.24258 46.3399 330.7573C46.3399 328.272 48.35462 326.2573 50.8399 326.2573C53.325184 326.2573 55.3399 328.272 55.3399 330.7573Z" fill-rule="nonzero"/><path fill="#4285f4" clip-path="url(#id_0)" d="M102.94903 315.15717C102.94903 317.64246 100.9343 319.65717 98.44903 319.65717C95.963745 319.65717 93.94903 317.64246 93.94903 315.15717C93.94903 312.6719 95.963745 310.65717 98.44903 310.65717C100.9343 310.65717 102.94903 312.6719 102.94903 315.15717Z" fill-rule="nonzero"/><path fill="#4285f4" clip-path="url(#id_0)" d="M102.94903 315.15717C102.94903 317.64246 100.9343 319.65717 98.44903 319.65717C95.963745 319.65717 93.94903 317.64246 93.94903 315.15717C93.94903 312.6719 95.963745 310.65717 98.44903 310.65717C100.9343 310.65717 102.94903 312.6719 102.94903 315.15717Z" fill-rule="nonzero"/><path fill="#4285f4" clip-path="url(#id_0)" d="M102.94903 315.15717C102.94903 317.64246 100.9343 319.65717 98.44903 319.65717C95.963745 319.65717 93.94903 317.64246 93.94903 315.15717C93.94903 312.6719 95.963745 310.65717 98.44903 310.65717C100.9343 310.65717 102.94903 312.6719 102.94903 315.15717Z" fill-rule="nonzero"/><path fill="#4285f4" clip-path="url(#id_0)" d="M579.0403 122.94159C579.0403 125.42687 577.0255 127.44159 574.5403 127.44159C572.055 127.44159 570.0403 125.42687 570.0403 122.94159C570.0403 120.45631 572.055 118.44159 574.5403 118.44159C577.0255 118.44159 579.0403 120.45631 579.0403 122.94159Z" fill-rule="nonzero"/><path fill="#4285f4" clip-path="url(#id_0)" d="M579.0403 122.94159C579.0403 125.42687 577.0255 127.44159 574.5403 127.44159C572.055 127.44159 570.0403 125.42687 570.0403 122.94159C570.0403 120.45631 572.055 118.44159 574.5403 118.44159C577.0255 118.44159 579.0403 120.45631 579.0403 122.94159Z" fill-rule="nonzero"/><path fill="#4285f4" clip-path="url(#id_0)" d="M579.0403 122.94159C579.0403 125.42687 577.0255 127.44159 574.5403 127.44159C572.055 127.44159 570.0403 125.42687 570.0403 122.94159C570.0403 120.45631 572.055 118.44159 574.5403 118.44159C577.0255 118.44159 579.0403 120.45631 579.0403 122.94159Z" fill-rule="nonzero"/><path fill="#ea4335" clip-path="url(#id_0)" d="M55.3399 330.46445C55.3399 332.94974 53.325184 334.96445 50.8399 334.96445C48.35462 334.96445 46.3399 332.94974 46.3399 330.46445C46.3399 327.9792 48.35462 325.96445 50.8399 325.96445C53.325184 325.96445 55.3399 327.9792 55.3399 330.46445Z" fill-rule="nonzero"/><path fill="#ea4335" clip-path="url(#id_0)" d="M55.3399 330.46445C55.3399 332.94974 53.325184 334.96445 50.8399 334.96445C48.35462 334.96445 46.3399 332.94974 46.3399 330.46445C46.3399 327.9792 48.35462 325.96445 50.8399 325.96445C53.325184 325.96445 55.3399 327.9792 55.3399 330.46445Z" fill-rule="nonzero"/><path fill="#ea4335" clip-path="url(#id_0)" d="M55.3399 330.46445C55.3399 332.94974 53.325184 334.96445 50.8399 334.96445C48.35462 334.96445 46.3399 332.94974 46.3399 330.46445C46.3399 327.9792 48.35462 325.96445 50.8399 325.96445C53.325184 325.96445 55.3399 327.9792 55.3399 330.46445Z" fill-rule="nonzero"/><path fill="#ea4335" clip-path="url(#id_0)" d="M102.94903 312.67587C102.94903 315.16116 100.9343 317.17587 98.44903 317.17587C95.963745 317.17587 93.94903 315.16116 93.94903 312.67587C93.94903 310.19058 95.963745 308.17587 98.44903 308.17587C100.9343 308.17587 102.94903 310.19058 102.94903 312.67587Z" fill-rule="nonzero"/><path fill="#ea4335" clip-path="url(#id_0)" d="M102.94903 312.67587C102.94903 315.16116 100.9343 317.17587 98.44903 317.17587C95.963745 317.17587 93.94903 315.16116 93.94903 312.67587C93.94903 310.19058 95.963745 308.17587 98.44903 308.17587C100.9343 308.17587 102.94903 310.19058 102.94903 312.67587Z" fill-rule="nonzero"/><path fill="#ea4335" clip-path="url(#id_0)" d="M102.94903 312.67587C102.94903 315.16116 100.9343 317.17587 98.44903 317.17587C95.963745 317.17587 93.94903 315.16116 93.94903 312.67587C93.94903 310.19058 95.963745 308.17587 98.44903 308.17587C100.9343 308.17587 102.94903 310.19058 102.94903 312.67587Z" fill-rule="nonzero"/><path fill="#ea4335" clip-path="url(#id_0)" d="M579.0403 142.84097C579.0403 145.32625 577.0255 147.34097 574.5403 147.34097C572.055 147.34097 570.0403 145.32625 570.0403 142.84097C570.0403 140.3557 572.055 138.34097 574.5403 138.34097C577.0255 138.34097 579.0403 140.3557 579.0403 142.84097Z" fill-rule="nonzero"/><path fill="#ea4335" clip-path="url(#id_0)" d="M579.0403 142.84097C579.0403 145.32625 577.0255 147.34097 574.5403 147.34097C572.055 147.34097 570.0403 145.32625 570.0403 142.84097C570.0403 140.3557 572.055 138.34097 574.5403 138.34097C577.0255 138.34097 579.0403 140.3557 579.0403 142.84097Z" fill-rule="nonzero"/><path fill="#ea4335" clip-path="url(#id_0)" d="M579.0403 142.84097C579.0403 145.32625 577.0255 147.34097 574.5403 147.34097C572.055 147.34097 570.0403 145.32625 570.0403 142.84097C570.0403 140.3557 572.055 138.34097 574.5403 138.34097C577.0255 138.34097 579.0403 140.3557 579.0403 142.84097Z" fill-rule="nonzero"/><path fill="#000000" d="M33.05 332.21564Q33.05 330.6844 33.3625 329.7625Q33.675 328.825 34.284374 328.325Q34.909374 327.825 35.846874 327.825Q36.534374 327.825 37.05 328.10626Q37.58125 328.3875 37.925 328.91876Q38.26875 329.4344 38.45625 330.1844Q38.64375 330.9344 38.64375 332.21564Q38.64375 333.73126 38.33125 334.65314Q38.034374 335.575 37.409374 336.09064Q36.8 336.59064 35.846874 336.59064Q34.6125 336.59064 33.89375 335.7Q33.05 334.6375 33.05 332.21564ZM34.128124 332.21564Q34.128124 334.325 34.628124 335.02814Q35.128124 335.73126 35.846874 335.73126Q36.58125 335.73126 37.065624 335.02814Q37.565624 334.325 37.565624 332.21564Q37.565624 330.09064 37.065624 329.40314Q36.58125 328.7 35.83125 328.7Q35.1125 328.7 34.675 329.3094Q34.128124 330.09064 34.128124 332.21564Z" fill-rule="nonzero"/><path fill="#000000" d="M38.596874 259.04547L38.596874 260.0611L32.909374 260.0611Q32.909374 259.6861 33.034374 259.32672Q33.253124 258.7486 33.721874 258.1861Q34.20625 257.6236 35.1125 256.88922Q36.51875 255.73297 37.003124 255.0611Q37.503124 254.38922 37.503124 253.79547Q37.503124 253.17047 37.05 252.7486Q36.596874 252.3111 35.878124 252.3111Q35.1125 252.3111 34.659374 252.76422Q34.20625 253.21735 34.190624 254.02985L33.1125 253.92047Q33.221874 252.70172 33.940624 252.07672Q34.675 251.4361 35.909374 251.4361Q37.14375 251.4361 37.8625 252.1236Q38.58125 252.8111 38.58125 253.82672Q38.58125 254.34235 38.3625 254.84235Q38.159374 255.32672 37.659374 255.88922Q37.175 256.4361 36.05 257.38922Q35.096874 258.1861 34.815624 258.48297Q34.55 258.76422 34.378124 259.04547L38.596874 259.04547Z" fill-rule="nonzero"/><path fill="#000000" d="M36.425 183.67223L36.425 181.60973L32.70625 181.60973L32.70625 180.64098L36.628124 175.07848L37.4875 175.07848L37.4875 180.64098L38.64375 180.64098L38.64375 181.60973L37.4875 181.60973L37.4875 183.67223L36.425 183.67223ZM36.425 180.64098L36.425 176.7816L33.7375 180.64098L36.425 180.64098Z" fill-rule="nonzero"/><path fill="#000000" d="M38.51875 100.79896L37.471874 100.87708Q37.33125 100.25208 37.08125 99.97083Q36.64375 99.51771 36.01875 99.51771Q35.51875 99.51771 35.128124 99.79896Q34.64375 100.17396 34.346874 100.87708Q34.065624 101.56458 34.05 102.84583Q34.425 102.26771 34.971874 101.98646Q35.534374 101.70521 36.14375 101.70521Q37.190624 101.70521 37.925 102.48646Q38.675 103.26771 38.675 104.48646Q38.675 105.29896 38.315624 106.00208Q37.971874 106.68958 37.3625 107.06458Q36.753124 107.42396 35.9875 107.42396Q34.659374 107.42396 33.83125 106.45521Q33.003124 105.48646 33.003124 103.26771Q33.003124 100.76771 33.925 99.64271Q34.721874 98.65833 36.08125 98.65833Q37.096874 98.65833 37.7375 99.23646Q38.39375 99.79896 38.51875 100.79896ZM34.221874 104.50208Q34.221874 105.04896 34.440624 105.54896Q34.675 106.03333 35.08125 106.29896Q35.503124 106.56458 35.971874 106.56458Q36.628124 106.56458 37.1125 106.03333Q37.596874 105.48646 37.596874 104.56458Q37.596874 103.67396 37.1125 103.15833Q36.64375 102.64271 35.925 102.64271Q35.20625 102.64271 34.70625 103.15833Q34.221874 103.67396 34.221874 104.50208Z" fill-rule="nonzero"/><path fill="#000000" d="M42.55 345.21564Q42.55 343.6844 42.8625 342.7625Q43.175 341.825 43.784374 341.325Q44.409374 340.825 45.346874 340.825Q46.034374 340.825 46.55 341.10626Q47.08125 341.3875 47.425 341.91876Q47.76875 342.4344 47.95625 343.1844Q48.14375 343.9344 48.14375 345.21564Q48.14375 346.73126 47.83125 347.65314Q47.534374 348.575 46.909374 349.09064Q46.3 349.59064 45.346874 349.59064Q44.1125 349.59064 43.39375 348.7Q42.55 347.6375 42.55 345.21564ZM43.628124 345.21564Q43.628124 347.325 44.128124 348.02814Q44.628124 348.73126 45.346874 348.73126Q46.08125 348.73126 46.565624 348.02814Q47.065624 347.325 47.065624 345.21564Q47.065624 343.09064 46.565624 342.40314Q46.08125 341.7 45.33125 341.7Q44.6125 341.7 44.175 342.3094Q43.628124 343.09064 43.628124 345.21564Z" fill-rule="nonzero"/><path fill="#000000" d="M162.84444 348.4344L162.84444 349.45L157.15694 349.45Q157.15694 349.075 157.28194 348.71564Q157.50069 348.1375 157.96944 347.575Q158.45381 347.0125 159.36006 346.27814Q160.76631 345.1219 161.25069 344.45Q161.75069 343.77814 161.75069 343.1844Q161.75069 342.5594 161.29756 342.1375Q160.84444 341.7 160.12569 341.7Q159.36006 341.7 158.90694 342.15314Q158.45381 342.60626 158.43819 343.41876L157.36006 343.3094Q157.46944 342.09064 158.18819 341.46564Q158.92256 340.825 160.15694 340.825Q161.39131 340.825 162.11006 341.5125Q162.82881 342.2 162.82881 343.21564Q162.82881 343.73126 162.61006 344.23126Q162.40694 344.71564 161.90694 345.27814Q161.42256 345.825 160.29756 346.77814Q159.34444 347.575 159.06319 347.8719Q158.79756 348.15314 158.62569 348.4344L162.84444 348.4344ZM164.29756 347.2L165.40694 347.10626Q165.53194 347.91876 165.96944 348.325Q166.42256 348.73126 167.06319 348.73126Q167.81319 348.73126 168.34444 348.15314Q168.87569 347.575 168.87569 346.6375Q168.87569 345.73126 168.36006 345.21564Q167.86006 344.6844 167.03194 344.6844Q166.53194 344.6844 166.11006 344.91876Q165.70381 345.15314 165.46944 345.5125L164.48506 345.3875L165.31319 340.98126L169.59444 340.98126L169.59444 341.98126L166.15694 341.98126L165.70381 344.29376Q166.46944 343.7469 167.31319 343.7469Q168.43819 343.7469 169.20381 344.52814Q169.98506 345.3094 169.98506 346.54376Q169.98506 347.7 169.31319 348.5594Q168.48506 349.59064 167.06319 349.59064Q165.89131 349.59064 165.14131 348.9344Q164.40694 348.27814 164.29756 347.2ZM171.29756 345.21564Q171.29756 343.6844 171.61006 342.7625Q171.92256 341.825 172.53194 341.325Q173.15694 340.825 174.09444 340.825Q174.78194 340.825 175.29756 341.10626Q175.82881 341.3875 176.17256 341.91876Q176.51631 342.4344 176.70381 343.1844Q176.89131 343.9344 176.89131 345.21564Q176.89131 346.73126 176.57881 347.65314Q176.28194 348.575 175.65694 349.09064Q175.04756 349.59064 174.09444 349.59064Q172.86006 349.59064 172.14131 348.7Q171.29756 347.6375 171.29756 345.21564ZM172.37569 345.21564Q172.37569 347.325 172.87569 348.02814Q173.37569 348.73126 174.09444 348.73126Q174.82881 348.73126 175.31319 348.02814Q175.81319 347.325 175.81319 345.21564Q175.81319 343.09064 175.31319 342.40314Q174.82881 341.7 174.07881 341.7Q173.36006 341.7 172.92256 342.3094Q172.37569 343.09064 172.37569 345.21564ZM178.29756 345.21564Q178.29756 343.6844 178.61006 342.7625Q178.92256 341.825 179.53194 341.325Q180.15694 340.825 181.09444 340.825Q181.78194 340.825 182.29756 341.10626Q182.82881 341.3875 183.17256 341.91876Q183.51631 342.4344 183.70381 343.1844Q183.89131 343.9344 183.89131 345.21564Q183.89131 346.73126 183.57881 347.65314Q183.28194 348.575 182.65694 349.09064Q182.04756 349.59064 181.09444 349.59064Q179.86006 349.59064 179.14131 348.7Q178.29756 347.6375 178.29756 345.21564ZM179.37569 345.21564Q179.37569 347.325 179.87569 348.02814Q180.37569 348.73126 181.09444 348.73126Q181.82881 348.73126 182.31319 348.02814Q182.81319 347.325 182.81319 345.21564Q182.81319 343.09064 182.31319 342.40314Q181.82881 341.7 181.07881 341.7Q180.36006 341.7 179.92256 342.3094Q179.37569 343.09064 179.37569 345.21564ZM185.29756 345.21564Q185.29756 343.6844 185.61006 342.7625Q185.92256 341.825 186.53194 341.325Q187.15694 340.825 188.09444 340.825Q188.78194 340.825 189.29756 341.10626Q189.82881 341.3875 190.17256 341.91876Q190.51631 342.4344 190.70381 343.1844Q190.89131 343.9344 190.89131 345.21564Q190.89131 346.73126 190.57881 347.65314Q190.28194 348.575 189.65694 349.09064Q189.04756 349.59064 188.09444 349.59064Q186.86006 349.59064 186.14131 348.7Q185.29756 347.6375 185.29756 345.21564ZM186.37569 345.21564Q186.37569 347.325 186.87569 348.02814Q187.37569 348.73126 188.09444 348.73126Q188.82881 348.73126 189.31319 348.02814Q189.81319 347.325 189.81319 345.21564Q189.81319 343.09064 189.31319 342.40314Q188.82881 341.7 188.07881 341.7Q187.36006 341.7 186.92256 342.3094Q186.37569 343.09064 186.37569 345.21564ZM192.29756 345.21564Q192.29756 343.6844 192.61006 342.7625Q192.92256 341.825 193.53194 341.325Q194.15694 340.825 195.09444 340.825Q195.78194 340.825 196.29756 341.10626Q196.82881 341.3875 197.17256 341.91876Q197.51631 342.4344 197.70381 343.1844Q197.89131 343.9344 197.89131 345.21564Q197.89131 346.73126 197.57881 347.65314Q197.28194 348.575 196.65694 349.09064Q196.04756 349.59064 195.09444 349.59064Q193.86006 349.59064 193.14131 348.7Q192.29756 347.6375 192.29756 345.21564ZM193.37569 345.21564Q193.37569 347.325 193.87569 348.02814Q194.37569 348.73126 195.09444 348.73126Q195.82881 348.73126 196.31319 348.02814Q196.81319 347.325 196.81319 345.21564Q196.81319 343.09064 196.31319 342.40314Q195.82881 341.7 195.07881 341.7Q194.36006 341.7 193.92256 342.3094Q193.37569 343.09064 193.37569 345.21564Z" fill-rule="nonzero"/><path fill="#000000" d="M289.54514 347.2L290.6545 347.10626Q290.7795 347.91876 291.217 348.325Q291.67014 348.73126 292.31076 348.73126Q293.06076 348.73126 293.592 348.15314Q294.12326 347.575 294.12326 346.6375Q294.12326 345.73126 293.60764 345.21564Q293.10764 344.6844 292.2795 344.6844Q291.7795 344.6844 291.35764 344.91876Q290.9514 345.15314 290.717 345.5125L289.73264 345.3875L290.56076 340.98126L294.842 340.98126L294.842 341.98126L291.4045 341.98126L290.9514 344.29376Q291.717 343.7469 292.56076 343.7469Q293.68576 343.7469 294.4514 344.52814Q295.23264 345.3094 295.23264 346.54376Q295.23264 347.7 294.56076 348.5594Q293.73264 349.59064 292.31076 349.59064Q291.1389 349.59064 290.3889 348.9344Q289.6545 348.27814 289.54514 347.2ZM296.54514 345.21564Q296.54514 343.6844 296.85764 342.7625Q297.17014 341.825 297.7795 341.325Q298.4045 340.825 299.342 340.825Q300.0295 340.825 300.54514 341.10626Q301.0764 341.3875 301.42014 341.91876Q301.7639 342.4344 301.9514 343.1844Q302.1389 343.9344 302.1389 345.21564Q302.1389 346.73126 301.8264 347.65314Q301.5295 348.575 300.9045 349.09064Q300.29514 349.59064 299.342 349.59064Q298.10764 349.59064 297.3889 348.7Q296.54514 347.6375 296.54514 345.21564ZM297.62326 345.21564Q297.62326 347.325 298.12326 348.02814Q298.62326 348.73126 299.342 348.73126Q300.0764 348.73126 300.56076 348.02814Q301.06076 347.325 301.06076 345.21564Q301.06076 343.09064 300.56076 342.40314Q300.0764 341.7 299.3264 341.7Q298.60764 341.7 298.17014 342.3094Q297.62326 343.09064 297.62326 345.21564ZM303.54514 345.21564Q303.54514 343.6844 303.85764 342.7625Q304.17014 341.825 304.7795 341.325Q305.4045 340.825 306.342 340.825Q307.0295 340.825 307.54514 341.10626Q308.0764 341.3875 308.42014 341.91876Q308.7639 342.4344 308.9514 343.1844Q309.1389 343.9344 309.1389 345.21564Q309.1389 346.73126 308.8264 347.65314Q308.5295 348.575 307.9045 349.09064Q307.29514 349.59064 306.342 349.59064Q305.10764 349.59064 304.3889 348.7Q303.54514 347.6375 303.54514 345.21564ZM304.62326 345.21564Q304.62326 347.325 305.12326 348.02814Q305.62326 348.73126 306.342 348.73126Q307.0764 348.73126 307.56076 348.02814Q308.06076 347.325 308.06076 345.21564Q308.06076 343.09064 307.56076 342.40314Q307.0764 341.7 306.3264 341.7Q305.60764 341.7 305.17014 342.3094Q304.62326 343.09064 304.62326 345.21564ZM310.54514 345.21564Q310.54514 343.6844 310.85764 342.7625Q311.17014 341.825 311.7795 341.325Q312.4045 340.825 313.342 340.825Q314.0295 340.825 314.54514 341.10626Q315.0764 341.3875 315.42014 341.91876Q315.7639 342.4344 315.9514 343.1844Q316.1389 343.9344 316.1389 345.21564Q316.1389 346.73126 315.8264 347.65314Q315.5295 348.575 314.9045 349.09064Q314.29514 349.59064 313.342 349.59064Q312.10764 349.59064 311.3889 348.7Q310.54514 347.6375 310.54514 345.21564ZM311.62326 345.21564Q311.62326 347.325 312.12326 348.02814Q312.62326 348.73126 313.342 348.73126Q314.0764 348.73126 314.56076 348.02814Q315.06076 347.325 315.06076 345.21564Q315.06076 343.09064 314.56076 342.40314Q314.0764 341.7 313.3264 341.7Q312.60764 341.7 312.17014 342.3094Q311.62326 343.09064 311.62326 345.21564ZM317.54514 345.21564Q317.54514 343.6844 317.85764 342.7625Q318.17014 341.825 318.7795 341.325Q319.4045 340.825 320.342 340.825Q321.0295 340.825 321.54514 341.10626Q322.0764 341.3875 322.42014 341.91876Q322.7639 342.4344 322.9514 343.1844Q323.1389 343.9344 323.1389 345.21564Q323.1389 346.73126 322.8264 347.65314Q322.5295 348.575 321.9045 349.09064Q321.29514 349.59064 320.342 349.59064Q319.10764 349.59064 318.3889 348.7Q317.54514 347.6375 317.54514 345.21564ZM318.62326 345.21564Q318.62326 347.325 319.12326 348.02814Q319.62326 348.73126 320.342 348.73126Q321.0764 348.73126 321.56076 348.02814Q322.06076 347.325 322.06076 345.21564Q322.06076 343.09064 321.56076 342.40314Q321.0764 341.7 320.3264 341.7Q319.60764 341.7 319.17014 342.3094Q318.62326 343.09064 318.62326 345.21564ZM324.54514 345.21564Q324.54514 343.6844 324.85764 342.7625Q325.17014 341.825 325.7795 341.325Q326.4045 340.825 327.342 340.825Q328.0295 340.825 328.54514 341.10626Q329.0764 341.3875 329.42014 341.91876Q329.7639 342.4344 329.9514 343.1844Q330.1389 343.9344 330.1389 345.21564Q330.1389 346.73126 329.8264 347.65314Q329.5295 348.575 328.9045 349.09064Q328.29514 349.59064 327.342 349.59064Q326.10764 349.59064 325.3889 348.7Q324.54514 347.6375 324.54514 345.21564ZM325.62326 345.21564Q325.62326 347.325 326.12326 348.02814Q326.62326 348.73126 327.342 348.73126Q328.0764 348.73126 328.56076 348.02814Q329.06076 347.325 329.06076 345.21564Q329.06076 343.09064 328.56076 342.40314Q328.0764 341.7 327.3264 341.7Q326.60764 341.7 326.17014 342.3094Q325.62326 343.09064 325.62326 345.21564Z" fill-rule="nonzero"/><path fill="#000000" d="M421.8552 341.98126L421.8552 340.96564L427.4177 340.96564L427.4177 341.79376Q426.6052 342.66876 425.7927 344.1219Q424.99582 345.5594 424.55832 347.09064Q424.2302 348.16876 424.15207 349.45L423.05832 349.45Q423.07394 348.4344 423.44894 346.9969Q423.83957 345.5594 424.5427 344.23126Q425.26144 342.90314 426.07394 341.98126L421.8552 341.98126ZM428.7927 347.2L429.90207 347.10626Q430.02707 347.91876 430.46457 348.325Q430.9177 348.73126 431.55832 348.73126Q432.30832 348.73126 432.83957 348.15314Q433.37082 347.575 433.37082 346.6375Q433.37082 345.73126 432.8552 345.21564Q432.3552 344.6844 431.52707 344.6844Q431.02707 344.6844 430.6052 344.91876Q430.19894 345.15314 429.96457 345.5125L428.9802 345.3875L429.80832 340.98126L434.08957 340.98126L434.08957 341.98126L430.65207 341.98126L430.19894 344.29376Q430.96457 343.7469 431.80832 343.7469Q432.93332 343.7469 433.69894 344.52814Q434.4802 345.3094 434.4802 346.54376Q434.4802 347.7 433.80832 348.5594Q432.9802 349.59064 431.55832 349.59064Q430.38644 349.59064 429.63644 348.9344Q428.90207 348.27814 428.7927 347.2ZM435.7927 345.21564Q435.7927 343.6844 436.1052 342.7625Q436.4177 341.825 437.02707 341.325Q437.65207 340.825 438.58957 340.825Q439.27707 340.825 439.7927 341.10626Q440.32394 341.3875 440.6677 341.91876Q441.01144 342.4344 441.19894 343.1844Q441.38644 343.9344 441.38644 345.21564Q441.38644 346.73126 441.07394 347.65314Q440.77707 348.575 440.15207 349.09064Q439.5427 349.59064 438.58957 349.59064Q437.3552 349.59064 436.63644 348.7Q435.7927 347.6375 435.7927 345.21564ZM436.87082 345.21564Q436.87082 347.325 437.37082 348.02814Q437.87082 348.73126 438.58957 348.73126Q439.32394 348.73126 439.80832 348.02814Q440.30832 347.325 440.30832 345.21564Q440.30832 343.09064 439.80832 342.40314Q439.32394 341.7 438.57394 341.7Q437.8552 341.7 437.4177 342.3094Q436.87082 343.09064 436.87082 345.21564ZM442.7927 345.21564Q442.7927 343.6844 443.1052 342.7625Q443.4177 341.825 444.02707 341.325Q444.65207 340.825 445.58957 340.825Q446.27707 340.825 446.7927 341.10626Q447.32394 341.3875 447.6677 341.91876Q448.01144 342.4344 448.19894 343.1844Q448.38644 343.9344 448.38644 345.21564Q448.38644 346.73126 448.07394 347.65314Q447.77707 348.575 447.15207 349.09064Q446.5427 349.59064 445.58957 349.59064Q444.3552 349.59064 443.63644 348.7Q442.7927 347.6375 442.7927 345.21564ZM443.87082 345.21564Q443.87082 347.325 444.37082 348.02814Q444.87082 348.73126 445.58957 348.73126Q446.32394 348.73126 446.80832 348.02814Q447.30832 347.325 447.30832 345.21564Q447.30832 343.09064 446.80832 342.40314Q446.32394 341.7 445.57394 341.7Q444.8552 341.7 444.4177 342.3094Q443.87082 343.09064 443.87082 345.21564ZM449.7927 345.21564Q449.7927 343.6844 450.1052 342.7625Q450.4177 341.825 451.02707 341.325Q451.65207 340.825 452.58957 340.825Q453.27707 340.825 453.7927 341.10626Q454.32394 341.3875 454.6677 341.91876Q455.01144 342.4344 455.19894 343.1844Q455.38644 343.9344 455.38644 345.21564Q455.38644 346.73126 455.07394 347.65314Q454.77707 348.575 454.15207 349.09064Q453.5427 349.59064 452.58957 349.59064Q451.3552 349.59064 450.63644 348.7Q449.7927 347.6375 449.7927 345.21564ZM450.87082 345.21564Q450.87082 347.325 451.37082 348.02814Q451.87082 348.73126 452.58957 348.73126Q453.32394 348.73126 453.80832 348.02814Q454.30832 347.325 454.30832 345.21564Q454.30832 343.09064 453.80832 342.40314Q453.32394 341.7 452.57394 341.7Q451.8552 341.7 451.4177 342.3094Q450.87082 343.09064 450.87082 345.21564ZM456.7927 345.21564Q456.7927 343.6844 457.1052 342.7625Q457.4177 341.825 458.02707 341.325Q458.65207 340.825 459.58957 340.825Q460.27707 340.825 460.7927 341.10626Q461.32394 341.3875 461.6677 341.91876Q462.01144 342.4344 462.19894 343.1844Q462.38644 343.9344 462.38644 345.21564Q462.38644 346.73126 462.07394 347.65314Q461.77707 348.575 461.15207 349.09064Q460.5427 349.59064 459.58957 349.59064Q458.3552 349.59064 457.63644 348.7Q456.7927 347.6375 456.7927 345.21564ZM457.87082 345.21564Q457.87082 347.325 458.37082 348.02814Q458.87082 348.73126 459.58957 348.73126Q460.32394 348.73126 460.80832 348.02814Q461.30832 347.325 461.30832 345.21564Q461.30832 343.09064 460.80832 342.40314Q460.32394 341.7 459.57394 341.7Q458.8552 341.7 458.4177 342.3094Q457.87082 343.09064 457.87082 345.21564Z" fill-rule="nonzero"/><path fill="#000000" d="M554.50903 349.45L553.46216 349.45L553.46216 342.73126Q553.07153 343.09064 552.44653 343.46564Q551.83716 343.825 551.3528 343.9969L551.3528 342.98126Q552.2278 342.5594 552.88403 341.98126Q553.5559 341.3875 553.83716 340.825L554.50903 340.825L554.50903 349.45ZM557.5403 345.21564Q557.5403 343.6844 557.8528 342.7625Q558.1653 341.825 558.77466 341.325Q559.39966 340.825 560.33716 340.825Q561.02466 340.825 561.5403 341.10626Q562.07153 341.3875 562.4153 341.91876Q562.75903 342.4344 562.94653 343.1844Q563.13403 343.9344 563.13403 345.21564Q563.13403 346.73126 562.82153 347.65314Q562.52466 348.575 561.89966 349.09064Q561.2903 349.59064 560.33716 349.59064Q559.1028 349.59064 558.38403 348.7Q557.5403 347.6375 557.5403 345.21564ZM558.6184 345.21564Q558.6184 347.325 559.1184 348.02814Q559.6184 348.73126 560.33716 348.73126Q561.07153 348.73126 561.5559 348.02814Q562.0559 347.325 562.0559 345.21564Q562.0559 343.09064 561.5559 342.40314Q561.07153 341.7 560.32153 341.7Q559.6028 341.7 559.1653 342.3094Q558.6184 343.09064 558.6184 345.21564ZM564.5403 345.21564Q564.5403 343.6844 564.8528 342.7625Q565.1653 341.825 565.77466 341.325Q566.39966 340.825 567.33716 340.825Q568.02466 340.825 568.5403 341.10626Q569.07153 341.3875 569.4153 341.91876Q569.75903 342.4344 569.94653 343.1844Q570.13403 343.9344 570.13403 345.21564Q570.13403 346.73126 569.82153 347.65314Q569.52466 348.575 568.89966 349.09064Q568.2903 349.59064 567.33716 349.59064Q566.1028 349.59064 565.38403 348.7Q564.5403 347.6375 564.5403 345.21564ZM565.6184 345.21564Q565.6184 347.325 566.1184 348.02814Q566.6184 348.73126 567.33716 348.73126Q568.07153 348.73126 568.5559 348.02814Q569.0559 347.325 569.0559 345.21564Q569.0559 343.09064 568.5559 342.40314Q568.07153 341.7 567.32153 341.7Q566.6028 341.7 566.1653 342.3094Q565.6184 343.09064 565.6184 345.21564ZM571.5403 345.21564Q571.5403 343.6844 571.8528 342.7625Q572.1653 341.825 572.77466 341.325Q573.39966 340.825 574.33716 340.825Q575.02466 340.825 575.5403 341.10626Q576.07153 341.3875 576.4153 341.91876Q576.75903 342.4344 576.94653 343.1844Q577.13403 343.9344 577.13403 345.21564Q577.13403 346.73126 576.82153 347.65314Q576.52466 348.575 575.89966 349.09064Q575.2903 349.59064 574.33716 349.59064Q573.1028 349.59064 572.38403 348.7Q571.5403 347.6375 571.5403 345.21564ZM572.6184 345.21564Q572.6184 347.325 573.1184 348.02814Q573.6184 348.73126 574.33716 348.73126Q575.07153 348.73126 575.5559 348.02814Q576.0559 347.325 576.0559 345.21564Q576.0559 343.09064 575.5559 342.40314Q575.07153 341.7 574.32153 341.7Q573.6028 341.7 573.1653 342.3094Q572.6184 343.09064 572.6184 345.21564ZM578.5403 345.21564Q578.5403 343.6844 578.8528 342.7625Q579.1653 341.825 579.77466 341.325Q580.39966 340.825 581.33716 340.825Q582.02466 340.825 582.5403 341.10626Q583.07153 341.3875 583.4153 341.91876Q583.75903 342.4344 583.94653 343.1844Q584.13403 343.9344 584.13403 345.21564Q584.13403 346.73126 583.82153 347.65314Q583.52466 348.575 582.89966 349.09064Q582.2903 349.59064 581.33716 349.59064Q580.1028 349.59064 579.38403 348.7Q578.5403 347.6375 578.5403 345.21564ZM579.6184 345.21564Q579.6184 347.325 580.1184 348.02814Q580.6184 348.73126 581.33716 348.73126Q582.07153 348.73126 582.5559 348.02814Q583.0559 347.325 583.0559 345.21564Q583.0559 343.09064 582.5559 342.40314Q582.07153 341.7 581.32153 341.7Q580.6028 341.7 580.1653 342.3094Q579.6184 343.09064 579.6184 345.21564ZM585.5403 345.21564Q585.5403 343.6844 585.8528 342.7625Q586.1653 341.825 586.77466 341.325Q587.39966 340.825 588.33716 340.825Q589.02466 340.825 589.5403 341.10626Q590.07153 341.3875 590.4153 341.91876Q590.75903 342.4344 590.94653 343.1844Q591.13403 343.9344 591.13403 345.21564Q591.13403 346.73126 590.82153 347.65314Q590.52466 348.575 589.89966 349.09064Q589.2903 349.59064 588.33716 349.59064Q587.1028 349.59064 586.38403 348.7Q585.5403 347.6375 585.5403 345.21564ZM586.6184 345.21564Q586.6184 347.325 587.1184 348.02814Q587.6184 348.73126 588.33716 348.73126Q589.07153 348.73126 589.5559 348.02814Q590.0559 347.325 590.0559 345.21564Q590.0559 343.09064 589.5559 342.40314Q589.07153 341.7 588.32153 341.7Q587.6028 341.7 587.1653 342.3094Q586.6184 343.09064 586.6184 345.21564ZM592.5403 345.21564Q592.5403 343.6844 592.8528 342.7625Q593.1653 341.825 593.77466 341.325Q594.39966 340.825 595.33716 340.825Q596.02466 340.825 596.5403 341.10626Q597.07153 341.3875 597.4153 341.91876Q597.75903 342.4344 597.94653 343.1844Q598.13403 343.9344 598.13403 345.21564Q598.13403 346.73126 597.82153 347.65314Q597.52466 348.575 596.89966 349.09064Q596.2903 349.59064 595.33716 349.59064Q594.1028 349.59064 593.38403 348.7Q592.5403 347.6375 592.5403 345.21564ZM593.6184 345.21564Q593.6184 347.325 594.1184 348.02814Q594.6184 348.73126 595.33716 348.73126Q596.07153 348.73126 596.5559 348.02814Q597.0559 347.325 597.0559 345.21564Q597.0559 343.09064 596.5559 342.40314Q596.07153 341.7 595.32153 341.7Q594.6028 341.7 594.1653 342.3094Q593.6184 343.09064 593.6184 345.21564Z" fill-rule="nonzero"/><path fill="#4285f4" d="M77.0 58.916668C77.0 62.230373 74.313705 64.916664 71.0 64.916664C67.686295 64.916664 65.0 62.230373 65.0 58.916668C65.0 55.60296 67.686295 52.916668 71.0 52.916668C74.313705 52.916668 77.0 55.60296 77.0 58.916668Z" fill-rule="nonzero"/><path fill="#1a1a1a" d="M85.984375 62.916668L85.984375 54.322918L91.78125 54.322918L91.78125 55.338543L87.125 55.338543L87.125 57.994793L91.15625 57.994793L91.15625 59.010418L87.125 59.010418L87.125 62.916668L85.984375 62.916668ZM92.796875 55.541668L92.796875 54.322918L93.859375 54.322918L93.859375 55.541668L92.796875 55.541668ZM92.796875 62.916668L92.796875 56.697918L93.859375 56.697918L93.859375 62.916668L92.796875 62.916668ZM98.09375 61.979168L98.25 62.901043Q97.796875 62.994793 97.453125 62.994793Q96.875 62.994793 96.5625 62.822918Q96.25 62.635418 96.109375 62.338543Q95.984375 62.041668 95.984375 61.088543L95.984375 57.510418L95.21875 57.510418L95.21875 56.697918L95.984375 56.697918L95.984375 55.151043L97.03125 54.526043L97.03125 56.697918L98.09375 56.697918L98.09375 57.510418L97.03125 57.510418L97.03125 61.151043Q97.03125 61.604168 97.078125 61.729168Q97.140625 61.854168 97.265625 61.932293Q97.390625 62.010418 97.625 62.010418Q97.8125 62.010418 98.09375 61.979168ZM101.375 60.338543L101.375 59.276043L104.625 59.276043L104.625 60.338543L101.375 60.338543ZM108.84375 57.369793L108.546875 55.729168L108.546875 54.322918L109.75 54.322918L109.75 55.729168L109.484375 57.369793L108.84375 57.369793ZM110.78125 57.369793L110.5 55.729168L110.5 54.322918L111.703125 54.322918L111.703125 55.729168L111.421875 57.369793L110.78125 57.369793ZM111.984375 62.916668L115.28125 54.322918L116.5 54.322918L120.015625 62.916668L118.734375 62.916668L117.71875 60.307293L114.140625 60.307293L113.1875 62.916668L111.984375 62.916668ZM114.46875 59.385418L117.375 59.385418L116.484375 57.010418Q116.0625 55.932293 115.875 55.229168Q115.703125 56.057293 115.40625 56.869793L114.46875 59.385418ZM119.84375 57.369793L119.546875 55.729168L119.546875 54.322918L120.75 54.322918L120.75 55.729168L120.484375 57.369793L119.84375 57.369793ZM121.78125 57.369793L121.5 55.729168L121.5 54.322918L122.703125 54.322918L122.703125 55.729168L122.421875 57.369793L121.78125 57.369793ZM126.375 60.338543L126.375 59.276043L129.625 59.276043L129.625 60.338543L126.375 60.338543ZM133.92188 62.916668L133.92188 54.322918L136.89062 54.322918Q137.89062 54.322918 138.42188 54.447918Q139.15625 54.619793 139.67188 55.057293Q140.35938 55.635418 140.6875 56.541668Q141.03125 57.432293 141.03125 58.572918Q141.03125 59.557293 140.79688 60.307293Q140.57812 61.057293 140.21875 61.557293Q139.85938 62.057293 139.42188 62.338543Q139.0 62.619793 138.40625 62.776043Q137.8125 62.916668 137.03125 62.916668L133.92188 62.916668ZM135.0625 61.901043L136.89062 61.901043Q137.75 61.901043 138.23438 61.744793Q138.71875 61.588543 139.0 61.291668Q139.40625 60.901043 139.625 60.213543Q139.85938 59.526043 139.85938 58.557293Q139.85938 57.213543 139.40625 56.494793Q138.96875 55.760418 138.34375 55.510418Q137.875 55.338543 136.875 55.338543L135.0625 55.338543L135.0625 61.901043ZM146.875 62.916668L146.875 61.994793Q146.14062 63.057293 144.89062 63.057293Q144.34375 63.057293 143.85938 62.854168Q143.39062 62.635418 143.15625 62.322918Q142.92188 61.994793 142.82812 61.526043Q142.76562 61.229168 142.76562 60.541668L142.76562 56.697918L143.82812 56.697918L143.82812 60.151043Q143.82812 60.963543 143.89062 61.260418Q143.98438 61.666668 144.29688 61.916668Q144.625 62.151043 145.10938 62.151043Q145.57812 62.151043 145.98438 61.916668Q146.40625 61.666668 146.57812 61.244793Q146.76562 60.822918 146.76562 60.026043L146.76562 56.697918L147.8125 56.697918L147.8125 62.916668L146.875 62.916668ZM149.78125 62.916668L149.78125 56.697918L150.73438 56.697918L150.73438 57.635418Q151.09375 56.979168 151.39062 56.776043Q151.70312 56.557293 152.07812 56.557293Q152.60938 56.557293 153.15625 56.885418L152.79688 57.869793Q152.40625 57.635418 152.03125 57.635418Q151.67188 57.635418 151.39062 57.854168Q151.125 58.057293 151.01562 58.432293Q150.82812 58.994793 150.82812 59.651043L150.82812 62.916668L149.78125 62.916668ZM157.85938 62.151043Q157.26562 62.651043 156.71875 62.854168Q156.1875 63.057293 155.5625 63.057293Q154.53125 63.057293 153.98438 62.557293Q153.4375 62.057293 153.4375 61.276043Q153.4375 60.822918 153.64062 60.447918Q153.84375 60.057293 154.1875 59.838543Q154.53125 59.604168 154.95312 59.494793Q155.25 59.401043 155.89062 59.322918Q157.15625 59.182293 157.76562 58.963543Q157.76562 58.744793 157.76562 58.697918Q157.76562 58.041668 157.46875 57.776043Q157.0625 57.432293 156.26562 57.432293Q155.53125 57.432293 155.17188 57.697918Q154.8125 57.947918 154.64062 58.604168L153.60938 58.463543Q153.75 57.807293 154.07812 57.401043Q154.40625 56.994793 155.01562 56.776043Q155.625 56.557293 156.42188 56.557293Q157.21875 56.557293 157.71875 56.744793Q158.21875 56.932293 158.45312 57.213543Q158.6875 57.494793 158.78125 57.932293Q158.82812 58.197918 158.82812 58.901043L158.82812 60.307293Q158.82812 61.776043 158.89062 62.166668Q158.96875 62.557293 159.17188 62.916668L158.0625 62.916668Q157.90625 62.588543 157.85938 62.151043ZM157.76562 59.791668Q157.1875 60.026043 156.04688 60.197918Q155.39062 60.291668 155.125 60.416668Q154.85938 60.526043 154.70312 60.744793Q154.5625 60.963543 154.5625 61.244793Q154.5625 61.666668 154.875 61.947918Q155.20312 62.229168 155.8125 62.229168Q156.42188 62.229168 156.89062 61.963543Q157.375 61.697918 157.59375 61.229168Q157.76562 60.869793 157.76562 60.182293L157.76562 59.791668ZM163.09375 61.979168L163.25 62.901043Q162.79688 62.994793 162.45312 62.994793Q161.875 62.994793 161.5625 62.822918Q161.25 62.635418 161.10938 62.338543Q160.98438 62.041668 160.98438 61.088543L160.98438 57.510418L160.21875 57.510418L160.21875 56.697918L160.98438 56.697918L160.98438 55.151043L162.03125 54.526043L162.03125 56.697918L163.09375 56.697918L163.09375 57.510418L162.03125 57.510418L162.03125 61.151043Q162.03125 61.604168 162.07812 61.729168Q162.14062 61.854168 162.26562 61.932293Q162.39062 62.010418 162.625 62.010418Q162.8125 62.010418 163.09375 61.979168ZM163.79688 55.541668L163.79688 54.322918L164.85938 54.322918L164.85938 55.541668L163.79688 55.541668ZM163.79688 62.916668L163.79688 56.697918L164.85938 56.697918L164.85938 62.916668L163.79688 62.916668ZM166.40625 59.807293Q166.40625 58.072918 167.35938 57.244793Q168.15625 56.557293 169.3125 56.557293Q170.59375 56.557293 171.40625 57.401043Q172.23438 58.229168 172.23438 59.713543Q172.23438 60.916668 171.875 61.604168Q171.51562 62.291668 170.8125 62.682293Q170.125 63.057293 169.3125 63.057293Q168.01562 63.057293 167.20312 62.229168Q166.40625 61.385418 166.40625 59.807293ZM167.48438 59.807293Q167.48438 60.994793 168.0 61.588543Q168.53125 62.182293 169.3125 62.182293Q170.10938 62.182293 170.625 61.588543Q171.14062 60.994793 171.14062 59.776043Q171.14062 58.619793 170.60938 58.026043Q170.09375 57.432293 169.3125 57.432293Q168.53125 57.432293 168.0 58.026043Q167.48438 58.604168 167.48438 59.807293ZM173.79688 62.916668L173.79688 56.697918L174.73438 56.697918L174.73438 57.572918Q175.42188 56.557293 176.71875 56.557293Q177.28125 56.557293 177.75 56.760418Q178.23438 56.963543 178.46875 57.291668Q178.70312 57.619793 178.79688 58.057293Q178.84375 58.354168 178.84375 59.088543L178.84375 62.916668L177.79688 62.916668L177.79688 59.135418Q177.79688 58.479168 177.67188 58.166668Q177.54688 57.854168 177.23438 57.666668Q176.92188 57.463543 176.5 57.463543Q175.82812 57.463543 175.32812 57.901043Q174.84375 58.322918 174.84375 59.510418L174.84375 62.916668L173.79688 62.916668ZM185.8125 65.44792Q184.9375 64.33855 184.32812 62.869793Q183.73438 61.385418 183.73438 59.807293Q183.73438 58.416668 184.17188 57.135418Q184.70312 55.651043 185.8125 54.182293L186.5625 54.182293Q185.85938 55.401043 185.625 55.916668Q185.26562 56.729168 185.0625 57.604168Q184.8125 58.697918 184.8125 59.807293Q184.8125 62.635418 186.5625 65.44792L185.8125 65.44792ZM187.375 61.057293L188.40625 60.901043Q188.5 61.526043 188.89062 61.854168Q189.29688 62.182293 190.03125 62.182293Q190.75 62.182293 191.09375 61.901043Q191.45312 61.604168 191.45312 61.197918Q191.45312 60.838543 191.14062 60.635418Q190.92188 60.494793 190.0625 60.276043Q188.90625 59.979168 188.45312 59.776043Q188.01562 59.557293 187.78125 59.182293Q187.54688 58.807293 187.54688 58.338543Q187.54688 57.932293 187.73438 57.572918Q187.92188 57.213543 188.25 56.979168Q188.5 56.807293 188.92188 56.682293Q189.34375 56.557293 189.84375 56.557293Q190.5625 56.557293 191.10938 56.776043Q191.67188 56.979168 191.9375 57.338543Q192.20312 57.697918 192.29688 58.291668L191.26562 58.432293Q191.20312 57.963543 190.85938 57.697918Q190.53125 57.416668 189.90625 57.416668Q189.1875 57.416668 188.875 57.666668Q188.5625 57.901043 188.5625 58.229168Q188.5625 58.432293 188.6875 58.588543Q188.82812 58.760418 189.09375 58.869793Q189.25 58.932293 190.03125 59.135418Q191.15625 59.447918 191.59375 59.635418Q192.03125 59.822918 192.28125 60.182293Q192.53125 60.541668 192.53125 61.088543Q192.53125 61.619793 192.21875 62.088543Q191.92188 62.541668 191.34375 62.807293Q190.76562 63.057293 190.03125 63.057293Q188.8125 63.057293 188.17188 62.557293Q187.54688 62.041668 187.375 61.057293ZM195.48438 65.44792L194.73438 65.44792Q196.48438 62.635418 196.48438 59.807293Q196.48438 58.713543 196.23438 57.619793Q196.03125 56.744793 195.67188 55.932293Q195.4375 55.416668 194.73438 54.182293L195.48438 54.182293Q196.57812 55.651043 197.10938 57.135418Q197.5625 58.416668 197.5625 59.807293Q197.5625 61.385418 196.95312 62.869793Q196.34375 64.33855 195.48438 65.44792Z" fill-rule="nonzero"/><path stroke="#4285f4" stroke-width="4.0" stroke-linecap="butt" stroke-opacity="0.4" d="M214.0 58.916668L226.0 58.916668" fill-rule="nonzero"/><path fill="#1a1a1a" d="M234.5 60.666668L235.60938 60.572918Q235.73438 61.385418 236.17188 61.791668Q236.625 62.197918 237.26562 62.197918Q238.01562 62.197918 238.54688 61.619793Q239.07812 61.041668 239.07812 60.104168Q239.07812 59.197918 238.5625 58.682293Q238.0625 58.151043 237.23438 58.151043Q236.73438 58.151043 236.3125 58.385418Q235.90625 58.619793 235.67188 58.979168L234.6875 58.854168L235.51562 54.447918L239.79688 54.447918L239.79688 55.447918L236.35938 55.447918L235.90625 57.760418Q236.67188 57.213543 237.51562 57.213543Q238.64062 57.213543 239.40625 57.994793Q240.1875 58.776043 240.1875 60.010418Q240.1875 61.166668 239.51562 62.026043Q238.6875 63.057293 237.26562 63.057293Q236.09375 63.057293 235.34375 62.401043Q234.60938 61.744793 234.5 60.666668ZM242.09375 62.916668L242.09375 61.713543L243.29688 61.713543L243.29688 62.916668L242.09375 62.916668ZM244.5 60.666668L245.60938 60.572918Q245.73438 61.385418 246.17188 61.791668Q246.625 62.197918 247.26562 62.197918Q248.01562 62.197918 248.54688 61.619793Q249.07812 61.041668 249.07812 60.104168Q249.07812 59.197918 248.5625 58.682293Q248.0625 58.151043 247.23438 58.151043Q246.73438 58.151043 246.3125 58.385418Q245.90625 58.619793 245.67188 58.979168L244.6875 58.854168L245.51562 54.447918L249.79688 54.447918L249.79688 55.447918L246.35938 55.447918L245.90625 57.760418Q246.67188 57.213543 247.51562 57.213543Q248.64062 57.213543 249.40625 57.994793Q250.1875 58.776043 250.1875 60.010418Q250.1875 61.166668 249.51562 62.026043Q248.6875 63.057293 247.26562 63.057293Q246.09375 63.057293 245.34375 62.401043Q244.60938 61.744793 244.5 60.666668ZM251.5 60.651043L252.5625 60.510418Q252.73438 61.401043 253.17188 61.807293Q253.60938 62.197918 254.23438 62.197918Q254.98438 62.197918 255.5 61.682293Q256.01562 61.166668 256.01562 60.401043Q256.01562 59.682293 255.53125 59.213543Q255.0625 58.729168 254.32812 58.729168Q254.03125 58.729168 253.57812 58.854168L253.70312 57.916668Q253.8125 57.932293 253.875 57.932293Q254.54688 57.932293 255.07812 57.588543Q255.625 57.229168 255.625 56.494793Q255.625 55.916668 255.23438 55.541668Q254.84375 55.151043 254.21875 55.151043Q253.60938 55.151043 253.1875 55.541668Q252.78125 55.932293 252.67188 56.697918L251.60938 56.510418Q251.79688 55.463543 252.48438 54.885418Q253.17188 54.291668 254.1875 54.291668Q254.89062 54.291668 255.48438 54.604168Q256.07812 54.901043 256.39062 55.416668Q256.70312 55.932293 256.70312 56.526043Q256.70312 57.072918 256.40625 57.541668Q256.10938 57.994793 255.53125 58.260418Q256.28125 58.432293 256.70312 58.994793Q257.125 59.541668 257.125 60.385418Q257.125 61.510418 256.29688 62.291668Q255.48438 63.072918 254.23438 63.072918Q253.10938 63.072918 252.35938 62.401043Q251.60938 61.713543 251.5 60.651043ZM258.95312 62.916668L258.95312 54.322918L265.15625 54.322918L265.15625 55.338543L260.09375 55.338543L260.09375 57.963543L264.84375 57.963543L264.84375 58.979168L260.09375 58.979168L260.09375 61.901043L265.35938 61.901043L265.35938 62.916668L258.95312 62.916668ZM266.375 60.338543L266.375 59.276043L269.625 59.276043L269.625 60.338543L266.375 60.338543ZM270.5 58.682293Q270.5 57.151043 270.8125 56.229168Q271.125 55.291668 271.73438 54.791668Q272.35938 54.291668 273.29688 54.291668Q273.98438 54.291668 274.5 54.572918Q275.03125 54.854168 275.375 55.385418Q275.71875 55.901043 275.90625 56.651043Q276.09375 57.401043 276.09375 58.682293Q276.09375 60.197918 275.78125 61.119793Q275.48438 62.041668 274.85938 62.557293Q274.25 63.057293 273.29688 63.057293Q272.0625 63.057293 271.34375 62.166668Q270.5 61.104168 270.5 58.682293ZM271.57812 58.682293Q271.57812 60.791668 272.07812 61.494793Q272.57812 62.197918 273.29688 62.197918Q274.03125 62.197918 274.51562 61.494793Q275.01562 60.791668 275.01562 58.682293Q275.01562 56.557293 274.51562 55.869793Q274.03125 55.166668 273.28125 55.166668Q272.5625 55.166668 272.125 55.776043Q271.57812 56.557293 271.57812 58.682293ZM282.96875 56.432293L281.92188 56.510418Q281.78125 55.885418 281.53125 55.604168Q281.09375 55.151043 280.46875 55.151043Q279.96875 55.151043 279.57812 55.432293Q279.09375 55.807293 278.79688 56.510418Q278.51562 57.197918 278.5 58.479168Q278.875 57.901043 279.42188 57.619793Q279.98438 57.338543 280.59375 57.338543Q281.64062 57.338543 282.375 58.119793Q283.125 58.901043 283.125 60.119793Q283.125 60.932293 282.76562 61.635418Q282.42188 62.322918 281.8125 62.697918Q281.20312 63.057293 280.4375 63.057293Q279.10938 63.057293 278.28125 62.088543Q277.45312 61.119793 277.45312 58.901043Q277.45312 56.401043 278.375 55.276043Q279.17188 54.291668 280.53125 54.291668Q281.54688 54.291668 282.1875 54.869793Q282.84375 55.432293 282.96875 56.432293ZM278.67188 60.135418Q278.67188 60.682293 278.89062 61.182293Q279.125 61.666668 279.53125 61.932293Q279.95312 62.197918 280.42188 62.197918Q281.07812 62.197918 281.5625 61.666668Q282.04688 61.119793 282.04688 60.197918Q282.04688 59.307293 281.5625 58.791668Q281.09375 58.276043 280.375 58.276043Q279.65625 58.276043 279.15625 58.791668Q278.67188 59.307293 278.67188 60.135418ZM284.375 55.901043L284.64062 55.072918Q285.57812 55.401043 286.0 55.635418Q285.89062 54.572918 285.875 54.182293L286.73438 54.182293Q286.71875 54.760418 286.59375 55.635418Q287.20312 55.322918 287.98438 55.072918L288.25 55.901043Q287.5 56.151043 286.79688 56.229168Q287.14062 56.541668 287.79688 57.338543L287.09375 57.838543Q286.75 57.369793 286.29688 56.572918Q285.85938 57.401043 285.53125 57.838543L284.84375 57.338543Q285.51562 56.494793 285.8125 56.229168Q285.0625 56.088543 284.375 55.901043ZM289.09375 62.916668L291.35938 59.682293L289.26562 56.697918L290.57812 56.697918L291.53125 58.151043Q291.79688 58.572918 291.96875 58.854168Q292.21875 58.463543 292.4375 58.166668L293.48438 56.697918L294.75 56.697918L292.59375 59.619793L294.90625 62.916668L293.625 62.916668L292.34375 60.979168L292.0 60.463543L290.35938 62.916668L289.09375 62.916668ZM300.0 61.526043L300.0 59.166668L297.67188 59.166668L297.67188 58.182293L300.0 58.182293L300.0 55.854168L301.0 55.854168L301.0 58.182293L303.34375 58.182293L303.34375 59.166668L301.0 59.166668L301.0 61.526043L300.0 61.526043ZM307.375 60.338543L307.375 59.276043L310.625 59.276043L310.625 60.338543L307.375 60.338543ZM311.5 58.682293Q311.5 57.151043 311.8125 56.229168Q312.125 55.291668 312.73438 54.791668Q313.35938 54.291668 314.29688 54.291668Q314.98438 54.291668 315.5 54.572918Q316.03125 54.854168 316.375 55.385418Q316.71875 55.901043 316.90625 56.651043Q317.09375 57.401043 317.09375 58.682293Q317.09375 60.197918 316.78125 61.119793Q316.48438 62.041668 315.85938 62.557293Q315.25 63.057293 314.29688 63.057293Q313.0625 63.057293 312.34375 62.166668Q311.5 61.104168 311.5 58.682293ZM312.57812 58.682293Q312.57812 60.791668 313.07812 61.494793Q313.57812 62.197918 314.29688 62.197918Q315.03125 62.197918 315.51562 61.494793Q316.01562 60.791668 316.01562 58.682293Q316.01562 56.557293 315.51562 55.869793Q315.03125 55.166668 314.28125 55.166668Q313.5625 55.166668 313.125 55.776043Q312.57812 56.557293 312.57812 58.682293ZM319.09375 62.916668L319.09375 61.713543L320.29688 61.713543L320.29688 62.916668L319.09375 62.916668ZM321.5 58.682293Q321.5 57.151043 321.8125 56.229168Q322.125 55.291668 322.73438 54.791668Q323.35938 54.291668 324.29688 54.291668Q324.98438 54.291668 325.5 54.572918Q326.03125 54.854168 326.375 55.385418Q326.71875 55.901043 326.90625 56.651043Q327.09375 57.401043 327.09375 58.682293Q327.09375 60.197918 326.78125 61.119793Q326.48438 62.041668 325.85938 62.557293Q325.25 63.057293 324.29688 63.057293Q323.0625 63.057293 322.34375 62.166668Q321.5 61.104168 321.5 58.682293ZM322.57812 58.682293Q322.57812 60.791668 323.07812 61.494793Q323.57812 62.197918 324.29688 62.197918Q325.03125 62.197918 325.51562 61.494793Q326.01562 60.791668 326.01562 58.682293Q326.01562 56.557293 325.51562 55.869793Q325.03125 55.166668 324.28125 55.166668Q323.5625 55.166668 323.125 55.776043Q322.57812 56.557293 322.57812 58.682293ZM328.5 60.666668L329.60938 60.572918Q329.73438 61.385418 330.17188 61.791668Q330.625 62.197918 331.26562 62.197918Q332.01562 62.197918 332.54688 61.619793Q333.07812 61.041668 333.07812 60.104168Q333.07812 59.197918 332.5625 58.682293Q332.0625 58.151043 331.23438 58.151043Q330.73438 58.151043 330.3125 58.385418Q329.90625 58.619793 329.67188 58.979168L328.6875 58.854168L329.51562 54.447918L333.79688 54.447918L333.79688 55.447918L330.35938 55.447918L329.90625 57.760418Q330.67188 57.213543 331.51562 57.213543Q332.64062 57.213543 333.40625 57.994793Q334.1875 58.776043 334.1875 60.010418Q334.1875 61.166668 333.51562 62.026043Q332.6875 63.057293 331.26562 63.057293Q330.09375 63.057293 329.34375 62.401043Q328.60938 61.744793 328.5 60.666668ZM335.5 60.651043L336.5625 60.510418Q336.73438 61.401043 337.17188 61.807293Q337.60938 62.197918 338.23438 62.197918Q338.98438 62.197918 339.5 61.682293Q340.01562 61.166668 340.01562 60.401043Q340.01562 59.682293 339.53125 59.213543Q339.0625 58.729168 338.32812 58.729168Q338.03125 58.729168 337.57812 58.854168L337.70312 57.916668Q337.8125 57.932293 337.875 57.932293Q338.54688 57.932293 339.07812 57.588543Q339.625 57.229168 339.625 56.494793Q339.625 55.916668 339.23438 55.541668Q338.84375 55.151043 338.21875 55.151043Q337.60938 55.151043 337.1875 55.541668Q336.78125 55.932293 336.67188 56.697918L335.60938 56.510418Q335.79688 55.463543 336.48438 54.885418Q337.17188 54.291668 338.1875 54.291668Q338.89062 54.291668 339.48438 54.604168Q340.07812 54.901043 340.39062 55.416668Q340.70312 55.932293 340.70312 56.526043Q340.70312 57.072918 340.40625 57.541668Q340.10938 57.994793 339.53125 58.260418Q340.28125 58.432293 340.70312 58.994793Q341.125 59.541668 341.125 60.385418Q341.125 61.510418 340.29688 62.291668Q339.48438 63.072918 338.23438 63.072918Q337.10938 63.072918 336.35938 62.401043Q335.60938 61.713543 335.5 60.651043ZM342.5625 55.447918L342.5625 54.432293L348.125 54.432293L348.125 55.260418Q347.3125 56.135418 346.5 57.588543Q345.70312 59.026043 345.26562 60.557293Q344.9375 61.635418 344.85938 62.916668L343.76562 62.916668Q343.78125 61.901043 344.15625 60.463543Q344.54688 59.026043 345.25 57.697918Q345.96875 56.369793 346.78125 55.447918L342.5625 55.447918ZM352.9375 62.916668L352.9375 54.322918L356.75 54.322918Q357.90625 54.322918 358.5 54.557293Q359.09375 54.791668 359.45312 55.385418Q359.8125 55.963543 359.8125 56.666668Q359.8125 57.588543 359.21875 58.213543Q358.625 58.838543 357.39062 59.010418Q357.84375 59.229168 358.07812 59.432293Q358.57812 59.885418 359.01562 60.572918L360.51562 62.916668L359.07812 62.916668L357.95312 61.135418Q357.45312 60.354168 357.125 59.947918Q356.8125 59.541668 356.54688 59.385418Q356.29688 59.213543 356.03125 59.135418Q355.84375 59.104168 355.40625 59.104168L354.07812 59.104168L354.07812 62.916668L352.9375 62.916668ZM354.07812 58.119793L356.53125 58.119793Q357.29688 58.119793 357.73438 57.963543Q358.1875 57.791668 358.40625 57.447918Q358.64062 57.088543 358.64062 56.666668Q358.64062 56.057293 358.1875 55.666668Q357.75 55.276043 356.79688 55.276043L354.07812 55.276043L354.07812 58.119793ZM361.14062 58.619793Q361.1875 58.291668 361.42188 57.947918Q361.79688 57.447918 362.64062 56.838543Q363.48438 56.229168 363.64062 56.041668Q363.85938 55.807293 363.85938 55.557293Q363.85938 55.276043 363.64062 55.104168Q363.4375 54.916668 363.04688 54.916668Q362.65625 54.916668 362.46875 55.057293Q362.28125 55.182293 362.15625 55.572918L361.26562 55.479168Q361.4375 54.838543 361.85938 54.526043Q362.28125 54.213543 363.0625 54.213543Q363.95312 54.213543 364.35938 54.572918Q364.78125 54.916668 364.78125 55.416668Q364.78125 55.901043 364.42188 56.338543Q364.17188 56.666668 363.23438 57.338543Q362.73438 57.697918 362.53125 57.916668L364.79688 57.916668L364.79688 58.619793L361.14062 58.619793ZM374.34375 57.869793L368.67188 57.869793L368.67188 56.885418L374.34375 56.885418L374.34375 57.869793ZM374.34375 60.479168L368.67188 60.479168L368.67188 59.494793L374.34375 59.494793L374.34375 60.479168ZM382.46875 62.916668L381.42188 62.916668L381.42188 56.197918Q381.03125 56.557293 380.40625 56.932293Q379.79688 57.291668 379.3125 57.463543L379.3125 56.447918Q380.1875 56.026043 380.84375 55.447918Q381.51562 54.854168 381.79688 54.291668L382.46875 54.291668L382.46875 62.916668Z" fill-rule="nonzero"/><path fill="#ea4335" d="M413.0 58.916668C413.0 62.230373 410.31372 64.916664 407.0 64.916664C403.68628 64.916664 401.0 62.230373 401.0 58.916668C401.0 55.60296 403.68628 52.916668 407.0 52.916668C410.31372 52.916668 413.0 55.60296 413.0 58.916668Z" fill-rule="nonzero"/><path fill="#1a1a1a" d="M421.98438 62.916668L421.98438 54.322918L427.78125 54.322918L427.78125 55.338543L423.125 55.338543L423.125 57.994793L427.15625 57.994793L427.15625 59.010418L423.125 59.010418L423.125 62.916668L421.98438 62.916668ZM428.79688 55.541668L428.79688 54.322918L429.85938 54.322918L429.85938 55.541668L428.79688 55.541668ZM428.79688 62.916668L428.79688 56.697918L429.85938 56.697918L429.85938 62.916668L428.79688 62.916668ZM434.09375 61.979168L434.25 62.901043Q433.79688 62.994793 433.45312 62.994793Q432.875 62.994793 432.5625 62.822918Q432.25 62.635418 432.10938 62.338543Q431.98438 62.041668 431.98438 61.088543L431.98438 57.510418L431.21875 57.510418L431.21875 56.697918L431.98438 56.697918L431.98438 55.151043L433.03125 54.526043L433.03125 56.697918L434.09375 56.697918L434.09375 57.510418L433.03125 57.510418L433.03125 61.151043Q433.03125 61.604168 433.07812 61.729168Q433.14062 61.854168 433.26562 61.932293Q433.39062 62.010418 433.625 62.010418Q433.8125 62.010418 434.09375 61.979168ZM437.375 60.338543L437.375 59.276043L440.625 59.276043L440.625 60.338543L437.375 60.338543ZM444.84375 57.369793L444.54688 55.729168L444.54688 54.322918L445.75 54.322918L445.75 55.729168L445.48438 57.369793L444.84375 57.369793ZM446.78125 57.369793L446.5 55.729168L446.5 54.322918L447.70312 54.322918L447.70312 55.729168L447.42188 57.369793L446.78125 57.369793ZM448.875 62.916668L448.875 54.322918L452.10938 54.322918Q453.09375 54.322918 453.6875 54.588543Q454.28125 54.854168 454.60938 55.401043Q454.95312 55.932293 454.95312 56.526043Q454.95312 57.072918 454.65625 57.557293Q454.35938 58.041668 453.75 58.338543Q454.53125 58.572918 454.9375 59.135418Q455.35938 59.682293 455.35938 60.432293Q455.35938 61.026043 455.10938 61.557293Q454.85938 62.072918 454.48438 62.354168Q454.10938 62.635418 453.53125 62.776043Q452.96875 62.916668 452.15625 62.916668L448.875 62.916668ZM450.01562 57.932293L451.875 57.932293Q452.625 57.932293 452.95312 57.838543Q453.39062 57.713543 453.60938 57.416668Q453.82812 57.104168 453.82812 56.651043Q453.82812 56.229168 453.625 55.901043Q453.42188 55.572918 453.03125 55.463543Q452.65625 55.338543 451.73438 55.338543L450.01562 55.338543L450.01562 57.932293ZM450.01562 61.901043L452.15625 61.901043Q452.70312 61.901043 452.92188 61.854168Q453.32812 61.791668 453.57812 61.635418Q453.84375 61.463543 454.01562 61.151043Q454.1875 60.838543 454.1875 60.432293Q454.1875 59.947918 453.9375 59.588543Q453.70312 59.229168 453.26562 59.088543Q452.82812 58.947918 452.0 58.947918L450.01562 58.947918L450.01562 61.901043ZM456.84375 57.369793L456.54688 55.729168L456.54688 54.322918L457.75 54.322918L457.75 55.729168L457.48438 57.369793L456.84375 57.369793ZM458.78125 57.369793L458.5 55.729168L458.5 54.322918L459.70312 54.322918L459.70312 55.729168L459.42188 57.369793L458.78125 57.369793ZM463.375 60.338543L463.375 59.276043L466.625 59.276043L466.625 60.338543L463.375 60.338543ZM470.92188 62.916668L470.92188 54.322918L473.89062 54.322918Q474.89062 54.322918 475.42188 54.447918Q476.15625 54.619793 476.67188 55.057293Q477.35938 55.635418 477.6875 56.541668Q478.03125 57.432293 478.03125 58.572918Q478.03125 59.557293 477.79688 60.307293Q477.57812 61.057293 477.21875 61.557293Q476.85938 62.057293 476.42188 62.338543Q476.0 62.619793 475.40625 62.776043Q474.8125 62.916668 474.03125 62.916668L470.92188 62.916668ZM472.0625 61.901043L473.89062 61.901043Q474.75 61.901043 475.23438 61.744793Q475.71875 61.588543 476.0 61.291668Q476.40625 60.901043 476.625 60.213543Q476.85938 59.526043 476.85938 58.557293Q476.85938 57.213543 476.40625 56.494793Q475.96875 55.760418 475.34375 55.510418Q474.875 55.338543 473.875 55.338543L472.0625 55.338543L472.0625 61.901043ZM483.875 62.916668L483.875 61.994793Q483.14062 63.057293 481.89062 63.057293Q481.34375 63.057293 480.85938 62.854168Q480.39062 62.635418 480.15625 62.322918Q479.92188 61.994793 479.82812 61.526043Q479.76562 61.229168 479.76562 60.541668L479.76562 56.697918L480.82812 56.697918L480.82812 60.151043Q480.82812 60.963543 480.89062 61.260418Q480.98438 61.666668 481.29688 61.916668Q481.625 62.151043 482.10938 62.151043Q482.57812 62.151043 482.98438 61.916668Q483.40625 61.666668 483.57812 61.244793Q483.76562 60.822918 483.76562 60.026043L483.76562 56.697918L484.8125 56.697918L484.8125 62.916668L483.875 62.916668ZM486.78125 62.916668L486.78125 56.697918L487.73438 56.697918L487.73438 57.635418Q488.09375 56.979168 488.39062 56.776043Q488.70312 56.557293 489.07812 56.557293Q489.60938 56.557293 490.15625 56.885418L489.79688 57.869793Q489.40625 57.635418 489.03125 57.635418Q488.67188 57.635418 488.39062 57.854168Q488.125 58.057293 488.01562 58.432293Q487.82812 58.994793 487.82812 59.651043L487.82812 62.916668L486.78125 62.916668ZM494.85938 62.151043Q494.26562 62.651043 493.71875 62.854168Q493.1875 63.057293 492.5625 63.057293Q491.53125 63.057293 490.98438 62.557293Q490.4375 62.057293 490.4375 61.276043Q490.4375 60.822918 490.64062 60.447918Q490.84375 60.057293 491.1875 59.838543Q491.53125 59.604168 491.95312 59.494793Q492.25 59.401043 492.89062 59.322918Q494.15625 59.182293 494.76562 58.963543Q494.76562 58.744793 494.76562 58.697918Q494.76562 58.041668 494.46875 57.776043Q494.0625 57.432293 493.26562 57.432293Q492.53125 57.432293 492.17188 57.697918Q491.8125 57.947918 491.64062 58.604168L490.60938 58.463543Q490.75 57.807293 491.07812 57.401043Q491.40625 56.994793 492.01562 56.776043Q492.625 56.557293 493.42188 56.557293Q494.21875 56.557293 494.71875 56.744793Q495.21875 56.932293 495.45312 57.213543Q495.6875 57.494793 495.78125 57.932293Q495.82812 58.197918 495.82812 58.901043L495.82812 60.307293Q495.82812 61.776043 495.89062 62.166668Q495.96875 62.557293 496.17188 62.916668L495.0625 62.916668Q494.90625 62.588543 494.85938 62.151043ZM494.76562 59.791668Q494.1875 60.026043 493.04688 60.197918Q492.39062 60.291668 492.125 60.416668Q491.85938 60.526043 491.70312 60.744793Q491.5625 60.963543 491.5625 61.244793Q491.5625 61.666668 491.875 61.947918Q492.20312 62.229168 492.8125 62.229168Q493.42188 62.229168 493.89062 61.963543Q494.375 61.697918 494.59375 61.229168Q494.76562 60.869793 494.76562 60.182293L494.76562 59.791668ZM500.09375 61.979168L500.25 62.901043Q499.79688 62.994793 499.45312 62.994793Q498.875 62.994793 498.5625 62.822918Q498.25 62.635418 498.10938 62.338543Q497.98438 62.041668 497.98438 61.088543L497.98438 57.510418L497.21875 57.510418L497.21875 56.697918L497.98438 56.697918L497.98438 55.151043L499.03125 54.526043L499.03125 56.697918L500.09375 56.697918L500.09375 57.510418L499.03125 57.510418L499.03125 61.151043Q499.03125 61.604168 499.07812 61.729168Q499.14062 61.854168 499.26562 61.932293Q499.39062 62.010418 499.625 62.010418Q499.8125 62.010418 500.09375 61.979168ZM500.79688 55.541668L500.79688 54.322918L501.85938 54.322918L501.85938 55.541668L500.79688 55.541668ZM500.79688 62.916668L500.79688 56.697918L501.85938 56.697918L501.85938 62.916668L500.79688 62.916668ZM503.40625 59.807293Q503.40625 58.072918 504.35938 57.244793Q505.15625 56.557293 506.3125 56.557293Q507.59375 56.557293 508.40625 57.401043Q509.23438 58.229168 509.23438 59.713543Q509.23438 60.916668 508.875 61.604168Q508.51562 62.291668 507.8125 62.682293Q507.125 63.057293 506.3125 63.057293Q505.01562 63.057293 504.20312 62.229168Q503.40625 61.385418 503.40625 59.807293ZM504.48438 59.807293Q504.48438 60.994793 505.0 61.588543Q505.53125 62.182293 506.3125 62.182293Q507.10938 62.182293 507.625 61.588543Q508.14062 60.994793 508.14062 59.776043Q508.14062 58.619793 507.60938 58.026043Q507.09375 57.432293 506.3125 57.432293Q505.53125 57.432293 505.0 58.026043Q504.48438 58.604168 504.48438 59.807293ZM510.79688 62.916668L510.79688 56.697918L511.73438 56.697918L511.73438 57.572918Q512.4219 56.557293 513.71875 56.557293Q514.28125 56.557293 514.75 56.760418Q515.2344 56.963543 515.46875 57.291668Q515.7031 57.619793 515.7969 58.057293Q515.84375 58.354168 515.84375 59.088543L515.84375 62.916668L514.7969 62.916668L514.7969 59.135418Q514.7969 58.479168 514.6719 58.166668Q514.5469 57.854168 514.2344 57.666668Q513.9219 57.463543 513.5 57.463543Q512.8281 57.463543 512.3281 57.901043Q511.84375 58.322918 511.84375 59.510418L511.84375 62.916668L510.79688 62.916668ZM522.8125 65.44792Q521.9375 64.33855 521.3281 62.869793Q520.7344 61.385418 520.7344 59.807293Q520.7344 58.416668 521.1719 57.135418Q521.7031 55.651043 522.8125 54.182293L523.5625 54.182293Q522.8594 55.401043 522.625 55.916668Q522.2656 56.729168 522.0625 57.604168Q521.8125 58.697918 521.8125 59.807293Q521.8125 62.635418 523.5625 65.44792L522.8125 65.44792ZM524.375 61.057293L525.40625 60.901043Q525.5 61.526043 525.8906 61.854168Q526.2969 62.182293 527.03125 62.182293Q527.75 62.182293 528.09375 61.901043Q528.4531 61.604168 528.4531 61.197918Q528.4531 60.838543 528.1406 60.635418Q527.9219 60.494793 527.0625 60.276043Q525.90625 59.979168 525.4531 59.776043Q525.0156 59.557293 524.78125 59.182293Q524.5469 58.807293 524.5469 58.338543Q524.5469 57.932293 524.7344 57.572918Q524.9219 57.213543 525.25 56.979168Q525.5 56.807293 525.9219 56.682293Q526.34375 56.557293 526.84375 56.557293Q527.5625 56.557293 528.1094 56.776043Q528.6719 56.979168 528.9375 57.338543Q529.2031 57.697918 529.2969 58.291668L528.2656 58.432293Q528.2031 57.963543 527.8594 57.697918Q527.53125 57.416668 526.90625 57.416668Q526.1875 57.416668 525.875 57.666668Q525.5625 57.901043 525.5625 58.229168Q525.5625 58.432293 525.6875 58.588543Q525.8281 58.760418 526.09375 58.869793Q526.25 58.932293 527.03125 59.135418Q528.15625 59.447918 528.59375 59.635418Q529.03125 59.822918 529.28125 60.182293Q529.53125 60.541668 529.53125 61.088543Q529.53125 61.619793 529.21875 62.088543Q528.9219 62.541668 528.34375 62.807293Q527.7656 63.057293 527.03125 63.057293Q525.8125 63.057293 525.1719 62.557293Q524.5469 62.041668 524.375 61.057293ZM532.4844 65.44792L531.7344 65.44792Q533.4844 62.635418 533.4844 59.807293Q533.4844 58.713543 533.2344 57.619793Q533.03125 56.744793 532.6719 55.932293Q532.4375 55.416668 531.7344 54.182293L532.4844 54.182293Q533.5781 55.651043 534.1094 57.135418Q534.5625 58.416668 534.5625 59.807293Q534.5625 61.385418 533.9531 62.869793Q533.34375 64.33855 532.4844 65.44792Z" fill-rule="nonzero"/><path stroke="#ea4335" stroke-width="4.0" stroke-linecap="butt" stroke-opacity="0.4" d="M216.5 76.916664L228.5 76.916664" fill-rule="nonzero"/><path fill="#1a1a1a" d="M240.375 80.916664L240.375 78.854164L236.65625 78.854164L236.65625 77.885414L240.57812 72.322914L241.4375 72.322914L241.4375 77.885414L242.59375 77.885414L242.59375 78.854164L241.4375 78.854164L241.4375 80.916664L240.375 80.916664ZM240.375 77.885414L240.375 74.02604L237.6875 77.885414L240.375 77.885414ZM244.59375 80.916664L244.59375 79.71354L245.79688 79.71354L245.79688 80.916664L244.59375 80.916664ZM247.15625 78.93229L248.17188 78.83854Q248.29688 79.55729 248.65625 79.885414Q249.03125 80.197914 249.59375 80.197914Q250.07812 80.197914 250.4375 79.979164Q250.8125 79.74479 251.04688 79.385414Q251.28125 79.010414 251.4375 78.385414Q251.59375 77.74479 251.59375 77.08854Q251.59375 77.010414 251.59375 76.86979Q251.28125 77.36979 250.73438 77.697914Q250.1875 78.010414 249.54688 78.010414Q248.46875 78.010414 247.73438 77.24479Q247.0 76.46354 247.0 75.197914Q247.0 73.885414 247.76562 73.08854Q248.54688 72.291664 249.70312 72.291664Q250.53125 72.291664 251.21875 72.74479Q251.92188 73.197914 252.28125 74.041664Q252.64062 74.86979 252.64062 76.447914Q252.64062 78.08854 252.28125 79.072914Q251.9375 80.041664 251.21875 80.55729Q250.51562 81.05729 249.57812 81.05729Q248.5625 81.05729 247.92188 80.510414Q247.28125 79.947914 247.15625 78.93229ZM251.46875 75.135414Q251.46875 74.229164 250.98438 73.697914Q250.51562 73.166664 249.82812 73.166664Q249.125 73.166664 248.59375 73.74479Q248.07812 74.30729 248.07812 75.229164Q248.07812 76.041664 248.57812 76.55729Q249.07812 77.072914 249.79688 77.072914Q250.53125 77.072914 251.0 76.55729Q251.46875 76.041664 251.46875 75.135414ZM254.0 78.666664L255.10938 78.572914Q255.23438 79.385414 255.67188 79.791664Q256.125 80.197914 256.76562 80.197914Q257.51562 80.197914 258.04688 79.61979Q258.57812 79.041664 258.57812 78.104164Q258.57812 77.197914 258.0625 76.68229Q257.5625 76.15104 256.73438 76.15104Q256.23438 76.15104 255.8125 76.385414Q255.40625 76.61979 255.17188 76.979164L254.1875 76.854164L255.01562 72.447914L259.29688 72.447914L259.29688 73.447914L255.85938 73.447914L255.40625 75.760414Q256.17188 75.21354 257.01562 75.21354Q258.14062 75.21354 258.90625 75.99479Q259.6875 76.77604 259.6875 78.010414Q259.6875 79.166664 259.01562 80.02604Q258.1875 81.05729 256.76562 81.05729Q255.59375 81.05729 254.84375 80.40104Q254.10938 79.74479 254.0 78.666664ZM261.45312 80.916664L261.45312 72.322914L267.65625 72.322914L267.65625 73.33854L262.59375 73.33854L262.59375 75.96354L267.34375 75.96354L267.34375 76.979164L262.59375 76.979164L262.59375 79.90104L267.85938 79.90104L267.85938 80.916664L261.45312 80.916664ZM268.875 78.33854L268.875 77.27604L272.125 77.27604L272.125 78.33854L268.875 78.33854ZM273.0 76.68229Q273.0 75.15104 273.3125 74.229164Q273.625 73.291664 274.23438 72.791664Q274.85938 72.291664 275.79688 72.291664Q276.48438 72.291664 277.0 72.572914Q277.53125 72.854164 277.875 73.385414Q278.21875 73.90104 278.40625 74.65104Q278.59375 75.40104 278.59375 76.68229Q278.59375 78.197914 278.28125 79.11979Q277.98438 80.041664 277.35938 80.55729Q276.75 81.05729 275.79688 81.05729Q274.5625 81.05729 273.84375 80.166664Q273.0 79.104164 273.0 76.68229ZM274.07812 76.68229Q274.07812 78.791664 274.57812 79.49479Q275.07812 80.197914 275.79688 80.197914Q276.53125 80.197914 277.01562 79.49479Q277.51562 78.791664 277.51562 76.68229Q277.51562 74.55729 277.01562 73.86979Q276.53125 73.166664 275.78125 73.166664Q275.0625 73.166664 274.625 73.77604Q274.07812 74.55729 274.07812 76.68229ZM285.46875 74.43229L284.42188 74.510414Q284.28125 73.885414 284.03125 73.604164Q283.59375 73.15104 282.96875 73.15104Q282.46875 73.15104 282.07812 73.43229Q281.59375 73.80729 281.29688 74.510414Q281.01562 75.197914 281.0 76.479164Q281.375 75.90104 281.92188 75.61979Q282.48438 75.33854 283.09375 75.33854Q284.14062 75.33854 284.875 76.11979Q285.625 76.90104 285.625 78.11979Q285.625 78.93229 285.26562 79.635414Q284.92188 80.322914 284.3125 80.697914Q283.70312 81.05729 282.9375 81.05729Q281.60938 81.05729 280.78125 80.08854Q279.95312 79.11979 279.95312 76.90104Q279.95312 74.40104 280.875 73.27604Q281.67188 72.291664 283.03125 72.291664Q284.04688 72.291664 284.6875 72.86979Q285.34375 73.43229 285.46875 74.43229ZM281.17188 78.135414Q281.17188 78.68229 281.39062 79.18229Q281.625 79.666664 282.03125 79.93229Q282.45312 80.197914 282.92188 80.197914Q283.57812 80.197914 284.0625 79.666664Q284.54688 79.11979 284.54688 78.197914Q284.54688 77.30729 284.0625 76.791664Q283.59375 76.27604 282.875 76.27604Q282.15625 76.27604 281.65625 76.791664Q281.17188 77.30729 281.17188 78.135414ZM286.875 73.90104L287.14062 73.072914Q288.07812 73.40104 288.5 73.635414Q288.39062 72.572914 288.375 72.18229L289.23438 72.18229Q289.21875 72.760414 289.09375 73.635414Q289.70312 73.322914 290.48438 73.072914L290.75 73.90104Q290.0 74.15104 289.29688 74.229164Q289.64062 74.541664 290.29688 75.33854L289.59375 75.83854Q289.25 75.36979 288.79688 74.572914Q288.35938 75.40104 288.03125 75.83854L287.34375 75.33854Q288.01562 74.49479 288.3125 74.229164Q287.5625 74.08854 286.875 73.90104ZM291.59375 80.916664L293.85938 77.68229L291.76562 74.697914L293.07812 74.697914L294.03125 76.15104Q294.29688 76.572914 294.46875 76.854164Q294.71875 76.46354 294.9375 76.166664L295.98438 74.697914L297.25 74.697914L295.09375 77.61979L297.40625 80.916664L296.125 80.916664L294.84375 78.979164L294.5 78.46354L292.85938 80.916664L291.59375 80.916664ZM302.5 79.52604L302.5 77.166664L300.17188 77.166664L300.17188 76.18229L302.5 76.18229L302.5 73.854164L303.5 73.854164L303.5 76.18229L305.84375 76.18229L305.84375 77.166664L303.5 77.166664L303.5 79.52604L302.5 79.52604ZM310.0 76.68229Q310.0 75.15104 310.3125 74.229164Q310.625 73.291664 311.23438 72.791664Q311.85938 72.291664 312.79688 72.291664Q313.48438 72.291664 314.0 72.572914Q314.53125 72.854164 314.875 73.385414Q315.21875 73.90104 315.40625 74.65104Q315.59375 75.40104 315.59375 76.68229Q315.59375 78.197914 315.28125 79.11979Q314.98438 80.041664 314.35938 80.55729Q313.75 81.05729 312.79688 81.05729Q311.5625 81.05729 310.84375 80.166664Q310.0 79.104164 310.0 76.68229ZM311.07812 76.68229Q311.07812 78.791664 311.57812 79.49479Q312.07812 80.197914 312.79688 80.197914Q313.53125 80.197914 314.01562 79.49479Q314.51562 78.791664 314.51562 76.68229Q314.51562 74.55729 314.01562 73.86979Q313.53125 73.166664 312.78125 73.166664Q312.0625 73.166664 311.625 73.77604Q311.07812 74.55729 311.07812 76.68229ZM317.59375 80.916664L317.59375 79.71354L318.79688 79.71354L318.79688 80.916664L317.59375 80.916664ZM320.0 76.68229Q320.0 75.15104 320.3125 74.229164Q320.625 73.291664 321.23438 72.791664Q321.85938 72.291664 322.79688 72.291664Q323.48438 72.291664 324.0 72.572914Q324.53125 72.854164 324.875 73.385414Q325.21875 73.90104 325.40625 74.65104Q325.59375 75.40104 325.59375 76.68229Q325.59375 78.197914 325.28125 79.11979Q324.98438 80.041664 324.35938 80.55729Q323.75 81.05729 322.79688 81.05729Q321.5625 81.05729 320.84375 80.166664Q320.0 79.104164 320.0 76.68229ZM321.07812 76.68229Q321.07812 78.791664 321.57812 79.49479Q322.07812 80.197914 322.79688 80.197914Q323.53125 80.197914 324.01562 79.49479Q324.51562 78.791664 324.51562 76.68229Q324.51562 74.55729 324.01562 73.86979Q323.53125 73.166664 322.78125 73.166664Q322.0625 73.166664 321.625 73.77604Q321.07812 74.55729 321.07812 76.68229ZM330.96875 80.916664L329.92188 80.916664L329.92188 74.197914Q329.53125 74.55729 328.90625 74.93229Q328.29688 75.291664 327.8125 75.46354L327.8125 74.447914Q328.6875 74.02604 329.34375 73.447914Q330.01562 72.854164 330.29688 72.291664L330.96875 72.291664L330.96875 80.916664ZM337.96875 80.916664L336.92188 80.916664L336.92188 74.197914Q336.53125 74.55729 335.90625 74.93229Q335.29688 75.291664 334.8125 75.46354L334.8125 74.447914Q335.6875 74.02604 336.34375 73.447914Q337.01562 72.854164 337.29688 72.291664L337.96875 72.291664L337.96875 80.916664ZM341.15625 78.93229L342.17188 78.83854Q342.29688 79.55729 342.65625 79.885414Q343.03125 80.197914 343.59375 80.197914Q344.07812 80.197914 344.4375 79.979164Q344.8125 79.74479 345.04688 79.385414Q345.28125 79.010414 345.4375 78.385414Q345.59375 77.74479 345.59375 77.08854Q345.59375 77.010414 345.59375 76.86979Q345.28125 77.36979 344.73438 77.697914Q344.1875 78.010414 343.54688 78.010414Q342.46875 78.010414 341.73438 77.24479Q341.0 76.46354 341.0 75.197914Q341.0 73.885414 341.76562 73.08854Q342.54688 72.291664 343.70312 72.291664Q344.53125 72.291664 345.21875 72.74479Q345.92188 73.197914 346.28125 74.041664Q346.64062 74.86979 346.64062 76.447914Q346.64062 78.08854 346.28125 79.072914Q345.9375 80.041664 345.21875 80.55729Q344.51562 81.05729 343.57812 81.05729Q342.5625 81.05729 341.92188 80.510414Q341.28125 79.947914 341.15625 78.93229ZM345.46875 75.135414Q345.46875 74.229164 344.98438 73.697914Q344.51562 73.166664 343.82812 73.166664Q343.125 73.166664 342.59375 73.74479Q342.07812 74.30729 342.07812 75.229164Q342.07812 76.041664 342.57812 76.55729Q343.07812 77.072914 343.79688 77.072914Q344.53125 77.072914 345.0 76.55729Q345.46875 76.041664 345.46875 75.135414ZM351.4375 80.916664L351.4375 72.322914L355.25 72.322914Q356.40625 72.322914 357.0 72.55729Q357.59375 72.791664 357.95312 73.385414Q358.3125 73.96354 358.3125 74.666664Q358.3125 75.58854 357.71875 76.21354Q357.125 76.83854 355.89062 77.010414Q356.34375 77.229164 356.57812 77.43229Q357.07812 77.885414 357.51562 78.572914L359.01562 80.916664L357.57812 80.916664L356.45312 79.135414Q355.95312 78.354164 355.625 77.947914Q355.3125 77.541664 355.04688 77.385414Q354.79688 77.21354 354.53125 77.135414Q354.34375 77.104164 353.90625 77.104164L352.57812 77.104164L352.57812 80.916664L351.4375 80.916664ZM352.57812 76.11979L355.03125 76.11979Q355.79688 76.11979 356.23438 75.96354Q356.6875 75.791664 356.90625 75.447914Q357.14062 75.08854 357.14062 74.666664Q357.14062 74.05729 356.6875 73.666664Q356.25 73.27604 355.29688 73.27604L352.57812 73.27604L352.57812 76.11979ZM359.64062 76.61979Q359.6875 76.291664 359.92188 75.947914Q360.29688 75.447914 361.14062 74.83854Q361.98438 74.229164 362.14062 74.041664Q362.35938 73.80729 362.35938 73.55729Q362.35938 73.27604 362.14062 73.104164Q361.9375 72.916664 361.54688 72.916664Q361.15625 72.916664 360.96875 73.05729Q360.78125 73.18229 360.65625 73.572914L359.76562 73.479164Q359.9375 72.83854 360.35938 72.52604Q360.78125 72.21354 361.5625 72.21354Q362.45312 72.21354 362.85938 72.572914Q363.28125 72.916664 363.28125 73.416664Q363.28125 73.90104 362.92188 74.33854Q362.67188 74.666664 361.73438 75.33854Q361.23438 75.697914 361.03125 75.916664L363.29688 75.916664L363.29688 76.61979L359.64062 76.61979ZM372.84375 75.86979L367.17188 75.86979L367.17188 74.885414L372.84375 74.885414L372.84375 75.86979ZM372.84375 78.479164L367.17188 78.479164L367.17188 77.49479L372.84375 77.49479L372.84375 78.479164ZM380.96875 80.916664L379.92188 80.916664L379.92188 74.197914Q379.53125 74.55729 378.90625 74.93229Q378.29688 75.291664 377.8125 75.46354L377.8125 74.447914Q378.6875 74.02604 379.34375 73.447914Q380.01562 72.854164 380.29688 72.291664L380.96875 72.291664L380.96875 80.916664Z" fill-rule="nonzero"/><path fill="#757575" d="M139.28125 35.55L139.28125 22.659374L143.17188 22.659374L145.5 31.45625L147.8125 22.659374L151.71875 22.659374L151.71875 35.55L149.29688 35.55L149.29688 25.409374L146.75 35.55L144.23438 35.55L141.6875 25.409374L141.6875 35.55L139.28125 35.55ZM159.70312 32.58125L162.15625 32.9875Q161.6875 34.346874 160.65625 35.065624Q159.64062 35.76875 158.09375 35.76875Q155.65625 35.76875 154.5 34.175Q153.57812 32.89375 153.57812 30.95625Q153.57812 28.628124 154.78125 27.315624Q156.0 26.003124 157.85938 26.003124Q159.9375 26.003124 161.14062 27.378124Q162.34375 28.753124 162.29688 31.596874L156.10938 31.596874Q156.125 32.690624 156.6875 33.3Q157.26562 33.909374 158.125 33.909374Q158.70312 33.909374 159.09375 33.596874Q159.5 33.284374 159.70312 32.58125ZM159.84375 30.08125Q159.8125 29.003124 159.28125 28.45625Q158.75 27.89375 158.0 27.89375Q157.1875 27.89375 156.67188 28.4875Q156.14062 29.065624 156.14062 30.08125L159.84375 30.08125ZM167.65625 35.55L165.1875 35.55L165.1875 26.221874L167.48438 26.221874L167.48438 27.55Q168.0625 26.596874 168.53125 26.3Q169.01562 26.003124 169.60938 26.003124Q170.45312 26.003124 171.23438 26.471874L170.46875 28.628124Q169.84375 28.221874 169.3125 28.221874Q168.79688 28.221874 168.42188 28.503124Q168.0625 28.784374 167.85938 29.534374Q167.65625 30.284374 167.65625 32.659374L167.65625 35.55ZM172.0625 36.159374L174.89062 36.503124Q174.95312 37.003124 175.20312 37.190624Q175.5625 37.45625 176.3125 37.45625Q177.28125 37.45625 177.76562 37.159374Q178.09375 36.971874 178.26562 36.534374Q178.375 36.221874 178.375 35.39375L178.375 34.034374Q177.26562 35.55 175.57812 35.55Q173.70312 35.55 172.59375 33.95625Q171.73438 32.70625 171.73438 30.83125Q171.73438 28.4875 172.85938 27.253124Q174.0 26.003124 175.67188 26.003124Q177.40625 26.003124 178.53125 27.51875L178.53125 26.221874L180.84375 26.221874L180.84375 34.596874Q180.84375 36.2375 180.5625 37.05Q180.29688 37.878124 179.79688 38.346874Q179.3125 38.815624 178.48438 39.065624Q177.67188 39.33125 176.42188 39.33125Q174.04688 39.33125 173.04688 38.51875Q172.0625 37.70625 172.0625 36.471874Q172.0625 36.346874 172.0625 36.159374ZM174.26562 30.690624Q174.26562 32.175 174.84375 32.8625Q175.42188 33.55 176.26562 33.55Q177.17188 33.55 177.79688 32.846874Q178.42188 32.14375 178.42188 30.753124Q178.42188 29.3 177.8125 28.596874Q177.21875 27.89375 176.3125 27.89375Q175.42188 27.89375 174.84375 28.58125Q174.26562 29.26875 174.26562 30.690624ZM188.70312 32.58125L191.15625 32.9875Q190.6875 34.346874 189.65625 35.065624Q188.64062 35.76875 187.09375 35.76875Q184.65625 35.76875 183.5 34.175Q182.57812 32.89375 182.57812 30.95625Q182.57812 28.628124 183.78125 27.315624Q185.0 26.003124 186.85938 26.003124Q188.9375 26.003124 190.14062 27.378124Q191.34375 28.753124 191.29688 31.596874L185.10938 31.596874Q185.125 32.690624 185.6875 33.3Q186.26562 33.909374 187.125 33.909374Q187.70312 33.909374 188.09375 33.596874Q188.5 33.284374 188.70312 32.58125ZM188.84375 30.08125Q188.8125 29.003124 188.28125 28.45625Q187.75 27.89375 187.0 27.89375Q186.1875 27.89375 185.67188 28.4875Q185.14062 29.065624 185.14062 30.08125L188.84375 30.08125ZM198.65625 31.3625L201.1875 31.1125Q201.40625 32.378124 202.10938 32.9875Q202.8125 33.58125 204.0 33.58125Q205.25 33.58125 205.89062 33.05Q206.53125 32.51875 206.53125 31.8Q206.53125 31.346874 206.25 31.034374Q205.98438 30.70625 205.32812 30.471874Q204.85938 30.315624 203.23438 29.909374Q201.14062 29.39375 200.29688 28.628124Q199.10938 27.565624 199.10938 26.034374Q199.10938 25.05 199.67188 24.20625Q200.23438 23.346874 201.28125 22.89375Q202.32812 22.440624 203.8125 22.440624Q206.25 22.440624 207.46875 23.503124Q208.70312 24.565624 208.76562 26.346874L206.15625 26.45625Q205.98438 25.471874 205.4375 25.034374Q204.89062 24.596874 203.79688 24.596874Q202.65625 24.596874 202.01562 25.065624Q201.60938 25.3625 201.60938 25.8625Q201.60938 26.315624 201.98438 26.64375Q202.48438 27.065624 204.375 27.51875Q206.28125 27.95625 207.1875 28.440624Q208.09375 28.909374 208.60938 29.753124Q209.125 30.58125 209.125 31.8Q209.125 32.909374 208.5 33.878124Q207.89062 34.83125 206.76562 35.315624Q205.64062 35.784374 203.96875 35.784374Q201.53125 35.784374 200.21875 34.659374Q198.90625 33.51875 198.65625 31.3625ZM210.71875 30.753124Q210.71875 29.51875 211.32812 28.378124Q211.9375 27.221874 213.04688 26.6125Q214.15625 26.003124 215.53125 26.003124Q217.64062 26.003124 219.0 27.378124Q220.35938 28.753124 220.35938 30.8625Q220.35938 32.971874 218.98438 34.378124Q217.625 35.76875 215.54688 35.76875Q214.26562 35.76875 213.09375 35.190624Q211.9375 34.596874 211.32812 33.4875Q210.71875 32.3625 210.71875 30.753124ZM213.25 30.878124Q213.25 32.26875 213.90625 33.01875Q214.57812 33.753124 215.53125 33.753124Q216.5 33.753124 217.15625 33.01875Q217.8125 32.26875 217.8125 30.8625Q217.8125 29.4875 217.15625 28.753124Q216.5 28.01875 215.53125 28.01875Q214.57812 28.01875 213.90625 28.753124Q213.25 29.4875 213.25 30.878124ZM224.65625 35.55L222.1875 35.55L222.1875 26.221874L224.48438 26.221874L224.48438 27.55Q225.0625 26.596874 225.53125 26.3Q226.01562 26.003124 226.60938 26.003124Q227.45312 26.003124 228.23438 26.471874L227.46875 28.628124Q226.84375 28.221874 226.3125 28.221874Q225.79688 28.221874 225.42188 28.503124Q225.0625 28.784374 224.85938 29.534374Q224.65625 30.284374 224.65625 32.659374L224.65625 35.55ZM233.57812 26.221874L233.57812 28.190624L231.89062 28.190624L231.89062 31.940624Q231.89062 33.08125 231.9375 33.284374Q231.98438 33.471874 232.15625 33.596874Q232.32812 33.70625 232.57812 33.70625Q232.90625 33.70625 233.5625 33.471874L233.78125 35.39375Q232.90625 35.76875 231.82812 35.76875Q231.15625 35.76875 230.60938 35.55Q230.07812 35.315624 229.82812 34.95625Q229.57812 34.596874 229.48438 33.9875Q229.40625 33.565624 229.40625 32.253124L229.40625 28.190624L228.26562 28.190624L228.26562 26.221874L229.40625 26.221874L229.40625 24.3625L231.89062 22.925L231.89062 26.221874L233.57812 26.221874ZM240.01562 32.1125L240.01562 29.64375L244.85938 29.64375L244.85938 32.1125L240.01562 32.1125ZM251.29688 22.659374L256.0625 22.659374Q257.67188 22.659374 258.51562 22.909374Q259.64062 23.2375 260.45312 24.096874Q261.26562 24.95625 261.6875 26.190624Q262.10938 27.425 262.10938 29.2375Q262.10938 30.815624 261.70312 31.971874Q261.21875 33.378124 260.32812 34.253124Q259.65625 34.909374 258.5 35.284374Q257.64062 35.55 256.20312 35.55L251.29688 35.55L251.29688 22.659374ZM253.90625 24.846874L253.90625 33.378124L255.84375 33.378124Q256.9375 33.378124 257.42188 33.253124Q258.04688 33.096874 258.46875 32.721874Q258.89062 32.346874 259.14062 31.4875Q259.40625 30.6125 259.40625 29.1125Q259.40625 27.628124 259.14062 26.83125Q258.89062 26.01875 258.40625 25.58125Q257.9375 25.128124 257.20312 24.971874Q256.65625 24.846874 255.07812 24.846874L253.90625 24.846874ZM270.4375 35.55L270.4375 34.159374Q269.92188 34.89375 269.09375 35.33125Q268.26562 35.76875 267.34375 35.76875Q266.40625 35.76875 265.65625 35.3625Q264.90625 34.940624 264.5625 34.190624Q264.23438 33.440624 264.23438 32.128124L264.23438 26.221874L266.70312 26.221874L266.70312 30.503124Q266.70312 32.471874 266.84375 32.925Q266.98438 33.3625 267.34375 33.628124Q267.70312 33.878124 268.25 33.878124Q268.89062 33.878124 269.39062 33.534374Q269.89062 33.190624 270.07812 32.675Q270.26562 32.159374 270.26562 30.159374L270.26562 26.221874L272.73438 26.221874L272.73438 35.55L270.4375 35.55ZM277.65625 35.55L275.1875 35.55L275.1875 26.221874L277.48438 26.221874L277.48438 27.55Q278.0625 26.596874 278.53125 26.3Q279.01562 26.003124 279.60938 26.003124Q280.45312 26.003124 281.23438 26.471874L280.46875 28.628124Q279.84375 28.221874 279.3125 28.221874Q278.79688 28.221874 278.42188 28.503124Q278.0625 28.784374 277.85938 29.534374Q277.65625 30.284374 277.65625 32.659374L277.65625 35.55ZM284.14062 29.065624L281.89062 28.659374Q282.28125 27.3 283.20312 26.659374Q284.125 26.003124 285.9375 26.003124Q287.59375 26.003124 288.39062 26.39375Q289.20312 26.784374 289.53125 27.39375Q289.875 27.9875 289.875 29.596874L289.84375 32.4875Q289.84375 33.70625 289.95312 34.3Q290.07812 34.878124 290.40625 35.55L287.96875 35.55Q287.85938 35.3 287.71875 34.815624Q287.65625 34.596874 287.64062 34.534374Q287.0 35.14375 286.28125 35.45625Q285.5625 35.76875 284.75 35.76875Q283.29688 35.76875 282.46875 34.9875Q281.64062 34.190624 281.64062 33.003124Q281.64062 32.20625 282.01562 31.596874Q282.39062 30.971874 283.07812 30.64375Q283.76562 30.315624 285.04688 30.065624Q286.78125 29.7375 287.4375 29.45625L287.4375 29.20625Q287.4375 28.503124 287.07812 28.20625Q286.73438 27.89375 285.76562 27.89375Q285.10938 27.89375 284.73438 28.159374Q284.35938 28.409374 284.14062 29.065624ZM287.4375 31.065624Q286.96875 31.221874 285.9375 31.440624Q284.90625 31.659374 284.59375 31.878124Q284.10938 32.221874 284.10938 32.753124Q284.10938 33.26875 284.5 33.64375Q284.89062 34.01875 285.48438 34.01875Q286.15625 34.01875 286.75 33.58125Q287.20312 33.253124 287.34375 32.76875Q287.4375 32.440624 287.4375 31.565624L287.4375 31.065624ZM296.57812 26.221874L296.57812 28.190624L294.89062 28.190624L294.89062 31.940624Q294.89062 33.08125 294.9375 33.284374Q294.98438 33.471874 295.15625 33.596874Q295.32812 33.70625 295.57812 33.70625Q295.90625 33.70625 296.5625 33.471874L296.78125 35.39375Q295.90625 35.76875 294.82812 35.76875Q294.15625 35.76875 293.60938 35.55Q293.07812 35.315624 292.82812 34.95625Q292.57812 34.596874 292.48438 33.9875Q292.40625 33.565624 292.40625 32.253124L292.40625 28.190624L291.26562 28.190624L291.26562 26.221874L292.40625 26.221874L292.40625 24.3625L294.89062 22.925L294.89062 26.221874L296.57812 26.221874ZM298.29688 24.95625L298.29688 22.659374L300.76562 22.659374L300.76562 24.95625L298.29688 24.95625ZM298.29688 35.55L298.29688 26.221874L300.76562 26.221874L300.76562 35.55L298.29688 35.55ZM302.71875 30.753124Q302.71875 29.51875 303.32812 28.378124Q303.9375 27.221874 305.04688 26.6125Q306.15625 26.003124 307.53125 26.003124Q309.64062 26.003124 311.0 27.378124Q312.35938 28.753124 312.35938 30.8625Q312.35938 32.971874 310.98438 34.378124Q309.625 35.76875 307.54688 35.76875Q306.26562 35.76875 305.09375 35.190624Q303.9375 34.596874 303.32812 33.4875Q302.71875 32.3625 302.71875 30.753124ZM305.25 30.878124Q305.25 32.26875 305.90625 33.01875Q306.57812 33.753124 307.53125 33.753124Q308.5 33.753124 309.15625 33.01875Q309.8125 32.26875 309.8125 30.8625Q309.8125 29.4875 309.15625 28.753124Q308.5 28.01875 307.53125 28.01875Q306.57812 28.01875 305.90625 28.753124Q305.25 29.4875 305.25 30.878124ZM322.78125 35.55L320.3125 35.55L320.3125 30.784374Q320.3125 29.26875 320.15625 28.83125Q320.0 28.39375 319.64062 28.14375Q319.28125 27.89375 318.78125 27.89375Q318.14062 27.89375 317.625 28.253124Q317.125 28.596874 316.9375 29.175Q316.75 29.753124 316.75 31.315624L316.75 35.55L314.28125 35.55L314.28125 26.221874L316.5625 26.221874L316.5625 27.58125Q317.79688 26.003124 319.64062 26.003124Q320.46875 26.003124 321.14062 26.3Q321.8125 26.596874 322.15625 27.05Q322.51562 27.503124 322.64062 28.096874Q322.78125 28.675 322.78125 29.753124L322.78125 35.55ZM330.32812 35.55L330.32812 22.659374L339.15625 22.659374L339.15625 24.846874L332.92188 24.846874L332.92188 27.89375L338.3125 27.89375L338.3125 30.08125L332.92188 30.08125L332.92188 35.55L330.32812 35.55ZM341.29688 24.95625L341.29688 22.659374L343.76562 22.659374L343.76562 24.95625L341.29688 24.95625ZM341.29688 35.55L341.29688 26.221874L343.76562 26.221874L343.76562 35.55L341.29688 35.55ZM350.57812 26.221874L350.57812 28.190624L348.89062 28.190624L348.89062 31.940624Q348.89062 33.08125 348.9375 33.284374Q348.98438 33.471874 349.15625 33.596874Q349.32812 33.70625 349.57812 33.70625Q349.90625 33.70625 350.5625 33.471874L350.78125 35.39375Q349.90625 35.76875 348.82812 35.76875Q348.15625 35.76875 347.60938 35.55Q347.07812 35.315624 346.82812 34.95625Q346.57812 34.596874 346.48438 33.9875Q346.40625 33.565624 346.40625 32.253124L346.40625 28.190624L345.26562 28.190624L345.26562 26.221874L346.40625 26.221874L346.40625 24.3625L348.89062 22.925L348.89062 26.221874L350.57812 26.221874ZM365.54688 30.815624L368.07812 31.6125Q367.5 33.721874 366.14062 34.753124Q364.79688 35.76875 362.71875 35.76875Q360.15625 35.76875 358.5 34.01875Q356.85938 32.26875 356.85938 29.221874Q356.85938 26.003124 358.51562 24.221874Q360.17188 22.440624 362.875 22.440624Q365.25 22.440624 366.71875 23.846874Q367.60938 24.675 368.04688 26.221874L365.46875 26.83125Q365.23438 25.83125 364.5 25.253124Q363.78125 24.675 362.75 24.675Q361.3125 24.675 360.42188 25.70625Q359.53125 26.721874 359.53125 29.034374Q359.53125 31.471874 360.40625 32.51875Q361.29688 33.55 362.70312 33.55Q363.73438 33.55 364.48438 32.89375Q365.23438 32.221874 365.54688 30.815624ZM369.71875 30.753124Q369.71875 29.51875 370.32812 28.378124Q370.9375 27.221874 372.04688 26.6125Q373.15625 26.003124 374.53125 26.003124Q376.64062 26.003124 378.0 27.378124Q379.35938 28.753124 379.35938 30.8625Q379.35938 32.971874 377.98438 34.378124Q376.625 35.76875 374.54688 35.76875Q373.26562 35.76875 372.09375 35.190624Q370.9375 34.596874 370.32812 33.4875Q369.71875 32.3625 369.71875 30.753124ZM372.25 30.878124Q372.25 32.26875 372.90625 33.01875Q373.57812 33.753124 374.53125 33.753124Q375.5 33.753124 376.15625 33.01875Q376.8125 32.26875 376.8125 30.8625Q376.8125 29.4875 376.15625 28.753124Q375.5 28.01875 374.53125 28.01875Q373.57812 28.01875 372.90625 28.753124Q372.25 29.4875 372.25 30.878124ZM381.10938 26.221874L383.39062 26.221874L383.39062 27.4875Q384.60938 26.003124 386.29688 26.003124Q387.1875 26.003124 387.84375 26.378124Q388.51562 26.7375 388.9375 27.4875Q389.54688 26.7375 390.25 26.378124Q390.96875 26.003124 391.78125 26.003124Q392.8125 26.003124 393.51562 26.425Q394.23438 26.846874 394.57812 27.64375Q394.84375 28.253124 394.84375 29.58125L394.84375 35.55L392.35938 35.55L392.35938 30.221874Q392.35938 28.83125 392.10938 28.425Q391.76562 27.89375 391.0625 27.89375Q390.53125 27.89375 390.07812 28.221874Q389.625 28.534374 389.42188 29.14375Q389.21875 29.753124 389.21875 31.065624L389.21875 35.55L386.75 35.55L386.75 30.440624Q386.75 29.065624 386.60938 28.675Q386.48438 28.284374 386.20312 28.096874Q385.9375 27.89375 385.45312 27.89375Q384.89062 27.89375 384.42188 28.20625Q383.96875 28.503124 383.76562 29.096874Q383.57812 29.675 383.57812 31.01875L383.57812 35.55L381.10938 35.55L381.10938 26.221874ZM398.21875 26.221874L400.53125 26.221874L400.53125 27.58125Q400.96875 26.878124 401.73438 26.440624Q402.5 26.003124 403.4375 26.003124Q405.0625 26.003124 406.1875 27.284374Q407.32812 28.55 407.32812 30.83125Q407.32812 33.175 406.1875 34.471874Q405.04688 35.76875 403.42188 35.76875Q402.64062 35.76875 402.01562 35.45625Q401.39062 35.14375 400.6875 34.39375L400.6875 39.096874L398.21875 39.096874L398.21875 26.221874ZM400.67188 30.721874Q400.67188 32.3 401.28125 33.05Q401.90625 33.8 402.8125 33.8Q403.67188 33.8 404.23438 33.1125Q404.8125 32.425 404.8125 30.846874Q404.8125 29.378124 404.21875 28.675Q403.64062 27.95625 402.76562 27.95625Q401.85938 27.95625 401.26562 28.659374Q400.67188 29.346874 400.67188 30.721874ZM411.14062 29.065624L408.89062 28.659374Q409.28125 27.3 410.20312 26.659374Q411.125 26.003124 412.9375 26.003124Q414.59375 26.003124 415.39062 26.39375Q416.20312 26.784374 416.53125 27.39375Q416.875 27.9875 416.875 29.596874L416.84375 32.4875Q416.84375 33.70625 416.95312 34.3Q417.07812 34.878124 417.40625 35.55L414.96875 35.55Q414.85938 35.3 414.71875 34.815624Q414.65625 34.596874 414.64062 34.534374Q414.0 35.14375 413.28125 35.45625Q412.5625 35.76875 411.75 35.76875Q410.29688 35.76875 409.46875 34.9875Q408.64062 34.190624 408.64062 33.003124Q408.64062 32.20625 409.01562 31.596874Q409.39062 30.971874 410.07812 30.64375Q410.76562 30.315624 412.04688 30.065624Q413.78125 29.7375 414.4375 29.45625L414.4375 29.20625Q414.4375 28.503124 414.07812 28.20625Q413.73438 27.89375 412.76562 27.89375Q412.10938 27.89375 411.73438 28.159374Q411.35938 28.409374 411.14062 29.065624ZM414.4375 31.065624Q413.96875 31.221874 412.9375 31.440624Q411.90625 31.659374 411.59375 31.878124Q411.10938 32.221874 411.10938 32.753124Q411.10938 33.26875 411.5 33.64375Q411.89062 34.01875 412.48438 34.01875Q413.15625 34.01875 413.75 33.58125Q414.20312 33.253124 414.34375 32.76875Q414.4375 32.440624 414.4375 31.565624L414.4375 31.065624ZM421.65625 35.55L419.1875 35.55L419.1875 26.221874L421.48438 26.221874L421.48438 27.55Q422.0625 26.596874 422.53125 26.3Q423.01562 26.003124 423.60938 26.003124Q424.45312 26.003124 425.23438 26.471874L424.46875 28.628124Q423.84375 28.221874 423.3125 28.221874Q422.79688 28.221874 422.42188 28.503124Q422.0625 28.784374 421.85938 29.534374Q421.65625 30.284374 421.65625 32.659374L421.65625 35.55ZM426.29688 24.95625L426.29688 22.659374L428.76562 22.659374L428.76562 24.95625L426.29688 24.95625ZM426.29688 35.55L426.29688 26.221874L428.76562 26.221874L428.76562 35.55L426.29688 35.55ZM430.42188 32.89375L432.90625 32.503124Q433.0625 33.221874 433.54688 33.596874Q434.03125 33.971874 434.89062 33.971874Q435.85938 33.971874 436.34375 33.628124Q436.65625 33.378124 436.65625 32.971874Q436.65625 32.690624 436.48438 32.503124Q436.29688 32.33125 435.65625 32.175Q432.67188 31.51875 431.875 30.971874Q430.76562 30.221874 430.76562 28.8625Q430.76562 27.659374 431.71875 26.83125Q432.6875 26.003124 434.6875 26.003124Q436.60938 26.003124 437.53125 26.628124Q438.46875 27.253124 438.82812 28.471874L436.5 28.909374Q436.34375 28.3625 435.92188 28.08125Q435.51562 27.784374 434.73438 27.784374Q433.76562 27.784374 433.34375 28.05Q433.0625 28.253124 433.0625 28.55Q433.0625 28.815624 433.3125 29.003124Q433.64062 29.253124 435.60938 29.70625Q437.57812 30.14375 438.375 30.8Q439.14062 31.45625 439.14062 32.628124Q439.14062 33.909374 438.0625 34.846874Q437.0 35.76875 434.89062 35.76875Q432.98438 35.76875 431.875 34.9875Q430.76562 34.20625 430.42188 32.89375ZM440.71875 30.753124Q440.71875 29.51875 441.32812 28.378124Q441.9375 27.221874 443.04688 26.6125Q444.15625 26.003124 445.53125 26.003124Q447.64062 26.003124 449.0 27.378124Q450.35938 28.753124 450.35938 30.8625Q450.35938 32.971874 448.98438 34.378124Q447.625 35.76875 445.54688 35.76875Q444.26562 35.76875 443.09375 35.190624Q441.9375 34.596874 441.32812 33.4875Q440.71875 32.3625 440.71875 30.753124ZM443.25 30.878124Q443.25 32.26875 443.90625 33.01875Q444.57812 33.753124 445.53125 33.753124Q446.5 33.753124 447.15625 33.01875Q447.8125 32.26875 447.8125 30.8625Q447.8125 29.4875 447.15625 28.753124Q446.5 28.01875 445.53125 28.01875Q444.57812 28.01875 443.90625 28.753124Q443.25 29.4875 443.25 30.878124ZM460.78125 35.55L458.3125 35.55L458.3125 30.784374Q458.3125 29.26875 458.15625 28.83125Q458.0 28.39375 457.64062 28.14375Q457.28125 27.89375 456.78125 27.89375Q456.14062 27.89375 455.625 28.253124Q455.125 28.596874 454.9375 29.175Q454.75 29.753124 454.75 31.315624L454.75 35.55L452.28125 35.55L452.28125 26.221874L454.5625 26.221874L454.5625 27.58125Q455.79688 26.003124 457.64062 26.003124Q458.46875 26.003124 459.14062 26.3Q459.8125 26.596874 460.15625 27.05Q460.51562 27.503124 460.64062 28.096874Q460.78125 28.675 460.78125 29.753124L460.78125 35.55Z" fill-rule="nonzero"/></svg>