<svg version="1.1" viewBox="0.0 0.0 705.0 351.0" fill="none" stroke="none" stroke-linecap="square" stroke-miterlimit="10" width="705" height="351" xmlns:xlink="http://www.w3.org/1999/xlink" xmlns="http://www.w3.org/2000/svg"><path fill="#ffffff" d="M0 0L705.0 0L705.0 351.0L0 351.0L0 0Z" fill-rule="nonzero"/><path stroke="#333333" stroke-width="1.0" stroke-linecap="butt" d="M76.5 82.5L76.5 281.5" fill-rule="nonzero"/><path stroke="#cccccc" stroke-width="1.0" stroke-linecap="butt" d="M227.5 82.5L227.5 281.5" fill-rule="nonzero"/><path stroke="#cccccc" stroke-width="1.0" stroke-linecap="butt" d="M378.5 82.5L378.5 281.5" fill-rule="nonzero"/><path stroke="#cccccc" stroke-width="1.0" stroke-linecap="butt" d="M530.5 82.5L530.5 281.5" fill-rule="nonzero"/><path stroke="#cccccc" stroke-width="1.0" stroke-linecap="butt" d="M681.5 82.5L681.5 281.5" fill-rule="nonzero"/><path stroke="#cccccc" stroke-width="1.0" stroke-linecap="butt" d="M76.5 254.5L687.5 254.5" fill-rule="nonzero"/><path stroke="#cccccc" stroke-width="1.0" stroke-linecap="butt" d="M76.5 212.5L687.5 212.5" fill-rule="nonzero"/><path stroke="#cccccc" stroke-width="1.0" stroke-linecap="butt" d="M76.5 169.5L687.5 169.5" fill-rule="nonzero"/><path stroke="#cccccc" stroke-width="1.0" stroke-linecap="butt" d="M76.5 127.5L687.5 127.5" fill-rule="nonzero"/><path stroke="#cccccc" stroke-width="1.0" stroke-linecap="butt" d="M76.5 84.5L687.5 84.5" fill-rule="nonzero"/><clipPath id="id_0"><path d="M76.55 82.95L687.45 82.95L687.45 281.45L76.55 281.45L76.55 82.95Z" clip-rule="nonzero"/></clipPath><path stroke="#4285f4" stroke-width="2.0" stroke-linecap="butt" stroke-opacity="0.4" clip-path="url(#id_0)" d="M0 195.56111L687.45 174.1265" fill-rule="nonzero"/><path fill="#4285f4" clip-path="url(#id_0)" d="M87.09852 218.6062C87.09852 221.09149 85.08379 223.1062 82.59852 223.1062C80.113235 223.1062 78.09852 221.09149 78.09852 218.6062C78.09852 216.12093 80.113235 214.1062 82.59852 214.1062C85.08379 214.1062 87.09852 216.12093 87.09852 218.6062Z" fill-rule="nonzero"/><path fill="#4285f4" clip-path="url(#id_0)" d="M87.09852 239.45937C87.09852 241.94464 85.08379 243.95937 82.59852 243.95937C80.113235 243.95937 78.09852 241.94464 78.09852 239.45937C78.09852 236.97408 80.113235 234.95937 82.59852 234.95937C85.08379 234.95937 87.09852 236.97408 87.09852 239.45937Z" fill-rule="nonzero"/><path fill="#4285f4" clip-path="url(#id_0)" d="M87.09852 168.1671C87.09852 170.65239 85.08379 172.6671 82.59852 172.6671C80.113235 172.6671 78.09852 170.65239 78.09852 168.1671C78.09852 165.68182 80.113235 163.6671 82.59852 163.6671C85.08379 163.6671 87.09852 165.68182 87.09852 168.1671Z" fill-rule="nonzero"/><path fill="#4285f4" clip-path="url(#id_0)" d="M141.53514 205.633C141.53514 208.11827 139.52043 210.133 137.03514 210.133C134.54987 210.133 132.53514 208.11827 132.53514 205.633C132.53514 203.1477 134.54987 201.133 137.03514 201.133C139.52043 201.133 141.53514 203.1477 141.53514 205.633Z" fill-rule="nonzero"/><path fill="#4285f4" clip-path="url(#id_0)" d="M141.53514 124.940636C141.53514 127.42592 139.52043 129.44064 137.03514 129.44064C134.54987 129.44064 132.53514 127.42592 132.53514 124.940636C132.53514 122.45535 134.54987 120.440636 137.03514 120.440636C139.52043 120.440636 141.53514 122.45535 141.53514 124.940636Z" fill-rule="nonzero"/><path fill="#4285f4" clip-path="url(#id_0)" d="M685.9015 127.8085C685.9015 130.29378 683.8868 132.3085 681.4015 132.3085C678.9162 132.3085 676.9015 130.29378 676.9015 127.8085C676.9015 125.32322 678.9162 123.3085 681.4015 123.3085C683.8868 123.3085 685.9015 125.32322 685.9015 127.8085Z" fill-rule="nonzero"/><path fill="#4285f4" clip-path="url(#id_0)" d="M685.9015 189.52057C685.9015 192.00584 683.8868 194.02057 681.4015 194.02057C678.9162 194.02057 676.9015 192.00584 676.9015 189.52057C676.9015 187.03528 678.9162 185.02057 681.4015 185.02057C683.8868 185.02057 685.9015 187.03528 685.9015 189.52057Z" fill-rule="nonzero"/><path fill="#4285f4" clip-path="url(#id_0)" d="M685.9015 210.34377C685.9015 212.82904 683.8868 214.84377 681.4015 214.84377C678.9162 214.84377 676.9015 212.82904 676.9015 210.34377C676.9015 207.85847 678.9162 205.84377 681.4015 205.84377C683.8868 205.84377 685.9015 207.85847 685.9015 210.34377Z" fill-rule="nonzero"/><path fill="#000000" d="M378.42188 330.45L378.42188 321.85626L379.57812 321.85626L384.09375 328.60626L384.09375 321.85626L385.1875 321.85626L385.1875 330.45L384.01562 330.45L379.5 323.7L379.5 330.45L378.42188 330.45Z" fill-rule="nonzero"/><path fill="#000000" d="M28.550013 203.90312L22.331263 203.90312L22.331263 202.96562L23.206263 202.96562Q22.190638 202.27812 22.190638 200.98125Q22.190638 200.41875 22.393763 199.95Q22.596888 199.46562 22.925013 199.23125Q23.253138 198.99687 23.690638 198.90312Q23.987513 198.85625 24.721888 198.85625L28.550013 198.85625L28.550013 199.90312L24.768763 199.90312Q24.112513 199.90312 23.800013 200.02812Q23.487513 200.15312 23.300013 200.46562Q23.096888 200.77812 23.096888 201.2Q23.096888 201.87187 23.534388 202.37187Q23.956263 202.85625 25.143763 202.85625L28.550013 202.85625L28.550013 203.90312ZM26.690638 197.325L26.534388 196.29375Q27.159388 196.2 27.487513 195.80937Q27.815638 195.40312 27.815638 194.66875Q27.815638 193.95 27.534388 193.60625Q27.237513 193.24687 26.831263 193.24687Q26.471888 193.24687 26.268763 193.55937Q26.128138 193.77812 25.909388 194.6375Q25.612513 195.79375 25.409388 196.24687Q25.190638 196.68437 24.815638 196.91875Q24.440638 197.15312 23.971888 197.15312Q23.565638 197.15312 23.206263 196.96562Q22.846888 196.77812 22.612513 196.45Q22.440638 196.2 22.315638 195.77812Q22.190638 195.35625 22.190638 194.85625Q22.190638 194.1375 22.409388 193.59062Q22.612513 193.02812 22.971888 192.7625Q23.331263 192.49687 23.925013 192.40312L24.065638 193.43437Q23.596888 193.49687 23.331263 193.84062Q23.050013 194.16875 23.050013 194.79375Q23.050013 195.5125 23.300013 195.825Q23.534388 196.1375 23.862513 196.1375Q24.065638 196.1375 24.221888 196.0125Q24.393763 195.87187 24.503138 195.60625Q24.565638 195.45 24.768763 194.66875Q25.081263 193.54375 25.268763 193.10625Q25.456263 192.66875 25.815638 192.41875Q26.175013 192.16875 26.721888 192.16875Q27.253138 192.16875 27.721888 192.48125Q28.175013 192.77812 28.440638 193.35625Q28.690638 193.93437 28.690638 194.66875Q28.690638 195.8875 28.190638 196.52812Q27.675013 197.15312 26.690638 197.325ZM28.690638 187.7L19.815638 185.21562L19.815638 184.37187L28.690638 186.85625L28.690638 187.7ZM28.550013 180.77812L19.956263 180.77812L19.956263 179.62187L26.706263 175.10625L19.956263 175.10625L19.956263 174.0125L28.550013 174.0125L28.550013 175.18437L21.800013 179.7L28.550013 179.7L28.550013 180.77812Z" fill-rule="nonzero"/><path fill="#000000" d="M54.01875 258.746L52.971874 258.746L52.971874 252.02725Q52.58125 252.38663 51.95625 252.76163Q51.346874 253.121 50.8625 253.29288L50.8625 252.27725Q51.7375 251.85538 52.39375 251.27725Q53.065624 250.6835 53.346874 250.121L54.01875 250.121L54.01875 258.746ZM57.1125 251.27725L57.1125 250.26163L62.675 250.26163L62.675 251.08975Q61.8625 251.96475 61.05 253.41788Q60.253124 254.85538 59.815624 256.38663Q59.4875 257.46475 59.409374 258.746L58.315624 258.746Q58.33125 257.73038 58.70625 256.29288Q59.096874 254.85538 59.8 253.52725Q60.51875 252.19913 61.33125 251.27725L57.1125 251.27725ZM64.05 256.496L65.15938 256.40225Q65.28438 257.21475 65.72188 257.621Q66.175 258.02725 66.81563 258.02725Q67.56563 258.02725 68.09688 257.44913Q68.62813 256.871 68.62813 255.9335Q68.62813 255.02725 68.1125 254.51163Q67.6125 253.98038 66.78438 253.98038Q66.28438 253.98038 65.8625 254.21475Q65.45625 254.44913 65.22188 254.8085L64.2375 254.6835L65.06563 250.27725L69.34688 250.27725L69.34688 251.27725L65.90938 251.27725L65.45625 253.58975Q66.22188 253.04288 67.06563 253.04288Q68.19063 253.04288 68.95625 253.82413Q69.7375 254.60538 69.7375 255.83975Q69.7375 256.996 69.06563 257.85538Q68.2375 258.88663 66.81563 258.88663Q65.64375 258.88663 64.89375 258.23038Q64.15938 257.57413 64.05 256.496Z" fill-rule="nonzero"/><path fill="#000000" d="M55.596874 215.17291L55.596874 216.18854L49.909374 216.18854Q49.909374 215.81354 50.034374 215.45416Q50.253124 214.87604 50.721874 214.31354Q51.20625 213.75104 52.1125 213.01666Q53.51875 211.86041 54.003124 211.18854Q54.503124 210.51666 54.503124 209.92291Q54.503124 209.29791 54.05 208.87604Q53.596874 208.43854 52.878124 208.43854Q52.1125 208.43854 51.659374 208.89166Q51.20625 209.34479 51.190624 210.15729L50.1125 210.04791Q50.221874 208.82916 50.940624 208.20416Q51.675 207.56354 52.909374 207.56354Q54.14375 207.56354 54.8625 208.25104Q55.58125 208.93854 55.58125 209.95416Q55.58125 210.46979 55.3625 210.96979Q55.159374 211.45416 54.659374 212.01666Q54.175 212.56354 53.05 213.51666Q52.096874 214.31354 51.815624 214.61041Q51.55 214.89166 51.378124 215.17291L55.596874 215.17291ZM57.05 211.95416Q57.05 210.42291 57.3625 209.50104Q57.675 208.56354 58.284374 208.06354Q58.909374 207.56354 59.846874 207.56354Q60.534374 207.56354 61.05 207.84479Q61.58125 208.12604 61.925 208.65729Q62.26875 209.17291 62.45625 209.92291Q62.64375 210.67291 62.64375 211.95416Q62.64375 213.46979 62.33125 214.39166Q62.034374 215.31354 61.409374 215.82916Q60.8 216.32916 59.846874 216.32916Q58.6125 216.32916 57.89375 215.43854Q57.05 214.37604 57.05 211.95416ZM58.128124 211.95416Q58.128124 214.06354 58.628124 214.76666Q59.128124 215.46979 59.846874 215.46979Q60.58125 215.46979 61.065624 214.76666Q61.565624 214.06354 61.565624 211.95416Q61.565624 209.82916 61.065624 209.14166Q60.58125 208.43854 59.83125 208.43854Q59.1125 208.43854 58.675 209.04791Q58.128124 209.82916 58.128124 211.95416ZM64.05 211.95416Q64.05 210.42291 64.3625 209.50104Q64.675 208.56354 65.28438 208.06354Q65.90938 207.56354 66.84688 207.56354Q67.53438 207.56354 68.05 207.84479Q68.58125 208.12604 68.925 208.65729Q69.26875 209.17291 69.45625 209.92291Q69.64375 210.67291 69.64375 211.95416Q69.64375 213.46979 69.33125 214.39166Q69.03438 215.31354 68.40938 215.82916Q67.8 216.32916 66.84688 216.32916Q65.6125 216.32916 64.89375 215.43854Q64.05 214.37604 64.05 211.95416ZM65.12813 211.95416Q65.12813 214.06354 65.62813 214.76666Q66.12813 215.46979 66.84688 215.46979Q67.58125 215.46979 68.06563 214.76666Q68.56563 214.06354 68.56563 211.95416Q68.56563 209.82916 68.06563 209.14166Q67.58125 208.43854 66.83125 208.43854Q66.1125 208.43854 65.675 209.04791Q65.12813 209.82916 65.12813 211.95416Z" fill-rule="nonzero"/><path fill="#000000" d="M55.596874 172.61545L55.596874 173.63107L49.909374 173.63107Q49.909374 173.25607 50.034374 172.8967Q50.253124 172.31857 50.721874 171.75607Q51.20625 171.19357 52.1125 170.4592Q53.51875 169.30295 54.003124 168.63107Q54.503124 167.9592 54.503124 167.36545Q54.503124 166.74045 54.05 166.31857Q53.596874 165.88107 52.878124 165.88107Q52.1125 165.88107 51.659374 166.3342Q51.20625 166.78732 51.190624 167.59982L50.1125 167.49045Q50.221874 166.2717 50.940624 165.6467Q51.675 165.00607 52.909374 165.00607Q54.14375 165.00607 54.8625 165.69357Q55.58125 166.38107 55.58125 167.3967Q55.58125 167.91232 55.3625 168.41232Q55.159374 168.8967 54.659374 169.4592Q54.175 170.00607 53.05 170.9592Q52.096874 171.75607 51.815624 172.05295Q51.55 172.3342 51.378124 172.61545L55.596874 172.61545ZM62.596874 172.61545L62.596874 173.63107L56.909374 173.63107Q56.909374 173.25607 57.034374 172.8967Q57.253124 172.31857 57.721874 171.75607Q58.20625 171.19357 59.1125 170.4592Q60.51875 169.30295 61.003124 168.63107Q61.503124 167.9592 61.503124 167.36545Q61.503124 166.74045 61.05 166.31857Q60.596874 165.88107 59.878124 165.88107Q59.1125 165.88107 58.659374 166.3342Q58.20625 166.78732 58.190624 167.59982L57.1125 167.49045Q57.221874 166.2717 57.940624 165.6467Q58.675 165.00607 59.909374 165.00607Q61.14375 165.00607 61.8625 165.69357Q62.58125 166.38107 62.58125 167.3967Q62.58125 167.91232 62.3625 168.41232Q62.159374 168.8967 61.659374 169.4592Q61.175 170.00607 60.05 170.9592Q59.096874 171.75607 58.815624 172.05295Q58.55 172.3342 58.378124 172.61545L62.596874 172.61545ZM64.05 171.38107L65.15938 171.28732Q65.28438 172.09982 65.72188 172.50607Q66.175 172.91232 66.81563 172.91232Q67.56563 172.91232 68.09688 172.3342Q68.62813 171.75607 68.62813 170.81857Q68.62813 169.91232 68.1125 169.3967Q67.6125 168.86545 66.78438 168.86545Q66.28438 168.86545 65.8625 169.09982Q65.45625 169.3342 65.22188 169.69357L64.2375 169.56857L65.06563 165.16232L69.34688 165.16232L69.34688 166.16232L65.90938 166.16232L65.45625 168.47482Q66.22188 167.92795 67.06563 167.92795Q68.19063 167.92795 68.95625 168.7092Q69.7375 169.49045 69.7375 170.72482Q69.7375 171.88107 69.06563 172.74045Q68.2375 173.7717 66.81563 173.7717Q65.64375 173.7717 64.89375 173.11545Q64.15938 172.4592 64.05 171.38107Z" fill-rule="nonzero"/><path fill="#000000" d="M55.596874 130.058L55.596874 131.07362L49.909374 131.07362Q49.909374 130.69862 50.034374 130.33925Q50.253124 129.76112 50.721874 129.19862Q51.20625 128.63612 52.1125 127.90175Q53.51875 126.7455 54.003124 126.07362Q54.503124 125.40175 54.503124 124.808Q54.503124 124.183 54.05 123.76112Q53.596874 123.32362 52.878124 123.32362Q52.1125 123.32362 51.659374 123.77675Q51.20625 124.22987 51.190624 125.04237L50.1125 124.933Q50.221874 123.71425 50.940624 123.08925Q51.675 122.44862 52.909374 122.44862Q54.14375 122.44862 54.8625 123.13612Q55.58125 123.82362 55.58125 124.83925Q55.58125 125.35487 55.3625 125.85487Q55.159374 126.33925 54.659374 126.90175Q54.175 127.44862 53.05 128.40175Q52.096874 129.19862 51.815624 129.4955Q51.55 129.77675 51.378124 130.058L55.596874 130.058ZM57.05 128.82362L58.159374 128.72987Q58.284374 129.54237 58.721874 129.94862Q59.175 130.35487 59.815624 130.35487Q60.565624 130.35487 61.096874 129.77675Q61.628124 129.19862 61.628124 128.26112Q61.628124 127.35487 61.1125 126.83925Q60.6125 126.308 59.784374 126.308Q59.284374 126.308 58.8625 126.54237Q58.45625 126.77675 58.221874 127.13612L57.2375 127.01112L58.065624 122.60487L62.346874 122.60487L62.346874 123.60487L58.909374 123.60487L58.45625 125.91737Q59.221874 125.3705 60.065624 125.3705Q61.190624 125.3705 61.95625 126.15175Q62.7375 126.933 62.7375 128.16737Q62.7375 129.32362 62.065624 130.183Q61.2375 131.21425 59.815624 131.21425Q58.64375 131.21425 57.89375 130.558Q57.159374 129.90175 57.05 128.82362ZM64.05 126.83925Q64.05 125.308 64.3625 124.38612Q64.675 123.44862 65.28438 122.94862Q65.90938 122.44862 66.84688 122.44862Q67.53438 122.44862 68.05 122.72987Q68.58125 123.01112 68.925 123.54237Q69.26875 124.058 69.45625 124.808Q69.64375 125.558 69.64375 126.83925Q69.64375 128.35487 69.33125 129.27675Q69.03438 130.19862 68.40938 130.71425Q67.8 131.21425 66.84688 131.21425Q65.6125 131.21425 64.89375 130.32362Q64.05 129.26112 64.05 126.83925ZM65.12813 126.83925Q65.12813 128.94862 65.62813 129.65175Q66.12813 130.35487 66.84688 130.35487Q67.58125 130.35487 68.06563 129.65175Q68.56563 128.94862 68.56563 126.83925Q68.56563 124.71425 68.06563 124.02675Q67.58125 123.32362 66.83125 123.32362Q66.1125 123.32362 65.675 123.933Q65.12813 124.71425 65.12813 126.83925Z" fill-rule="nonzero"/><path fill="#000000" d="M55.596874 87.50053L55.596874 88.51615L49.909374 88.51615Q49.909374 88.14115 50.034374 87.78178Q50.253124 87.20365 50.721874 86.64115Q51.20625 86.07865 52.1125 85.34428Q53.51875 84.18803 54.003124 83.51615Q54.503124 82.84428 54.503124 82.25053Q54.503124 81.62553 54.05 81.20365Q53.596874 80.76615 52.878124 80.76615Q52.1125 80.76615 51.659374 81.21928Q51.20625 81.6724 51.190624 82.4849L50.1125 82.37553Q50.221874 81.15678 50.940624 80.53178Q51.675 79.89115 52.909374 79.89115Q54.14375 79.89115 54.8625 80.57865Q55.58125 81.26615 55.58125 82.28178Q55.58125 82.7974 55.3625 83.2974Q55.159374 83.78178 54.659374 84.34428Q54.175 84.89115 53.05 85.84428Q52.096874 86.64115 51.815624 86.93803Q51.55 87.21928 51.378124 87.50053L55.596874 87.50053ZM57.1125 81.0474L57.1125 80.03178L62.675 80.03178L62.675 80.8599Q61.8625 81.7349 61.05 83.18803Q60.253124 84.62553 59.815624 86.15678Q59.4875 87.2349 59.409374 88.51615L58.315624 88.51615Q58.33125 87.50053 58.70625 86.06303Q59.096874 84.62553 59.8 83.2974Q60.51875 81.96928 61.33125 81.0474L57.1125 81.0474ZM64.05 86.26615L65.15938 86.1724Q65.28438 86.9849 65.72188 87.39115Q66.175 87.7974 66.81563 87.7974Q67.56563 87.7974 68.09688 87.21928Q68.62813 86.64115 68.62813 85.70365Q68.62813 84.7974 68.1125 84.28178Q67.6125 83.75053 66.78438 83.75053Q66.28438 83.75053 65.8625 83.9849Q65.45625 84.21928 65.22188 84.57865L64.2375 84.45365L65.06563 80.0474L69.34688 80.0474L69.34688 81.0474L65.90938 81.0474L65.45625 83.3599Q66.22188 82.81303 67.06563 82.81303Q68.19063 82.81303 68.95625 83.59428Q69.7375 84.37553 69.7375 85.6099Q69.7375 86.76615 69.06563 87.62553Q68.2375 88.65678 66.81563 88.65678Q65.64375 88.65678 64.89375 88.00053Q64.15938 87.34428 64.05 86.26615Z" fill-rule="nonzero"/><path fill="#000000" d="M73.55 294.21564Q73.55 292.6844 73.8625 291.7625Q74.175 290.825 74.78438 290.325Q75.40938 289.825 76.34688 289.825Q77.03438 289.825 77.55 290.10626Q78.08125 290.3875 78.425 290.91876Q78.76875 291.4344 78.95625 292.1844Q79.14375 292.9344 79.14375 294.21564Q79.14375 295.73126 78.83125 296.65314Q78.53438 297.575 77.90938 298.09064Q77.3 298.59064 76.34688 298.59064Q75.1125 298.59064 74.39375 297.7Q73.55 296.6375 73.55 294.21564ZM74.62813 294.21564Q74.62813 296.325 75.12813 297.02814Q75.62813 297.73126 76.34688 297.73126Q77.08125 297.73126 77.56563 297.02814Q78.06563 296.325 78.06563 294.21564Q78.06563 292.09064 77.56563 291.40314Q77.08125 290.7 76.33125 290.7Q75.6125 290.7 75.175 291.3094Q74.62813 292.09064 74.62813 294.21564Z" fill-rule="nonzero"/><path fill="#000000" d="M212.80975 297.4344L212.80975 298.45L207.12225 298.45Q207.12225 298.075 207.24725 297.71564Q207.466 297.1375 207.93475 296.575Q208.41913 296.0125 209.32538 295.27814Q210.73163 294.1219 211.216 293.45Q211.716 292.77814 211.716 292.1844Q211.716 291.5594 211.26288 291.1375Q210.80975 290.7 210.091 290.7Q209.32538 290.7 208.87225 291.15314Q208.41913 291.60626 208.4035 292.41876L207.32538 292.3094Q207.43475 291.09064 208.1535 290.46564Q208.88788 289.825 210.12225 289.825Q211.35663 289.825 212.07538 290.5125Q212.79413 291.2 212.79413 292.21564Q212.79413 292.73126 212.57538 293.23126Q212.37225 293.71564 211.87225 294.27814Q211.38788 294.825 210.26288 295.77814Q209.30975 296.575 209.0285 296.8719Q208.76288 297.15314 208.591 297.4344L212.80975 297.4344ZM214.26288 296.2L215.37225 296.10626Q215.49725 296.91876 215.93475 297.325Q216.38788 297.73126 217.0285 297.73126Q217.7785 297.73126 218.30975 297.15314Q218.841 296.575 218.841 295.6375Q218.841 294.73126 218.32538 294.21564Q217.82538 293.6844 216.99725 293.6844Q216.49725 293.6844 216.07538 293.91876Q215.66913 294.15314 215.43475 294.5125L214.45038 294.3875L215.2785 289.98126L219.55975 289.98126L219.55975 290.98126L216.12225 290.98126L215.66913 293.29376Q216.43475 292.7469 217.2785 292.7469Q218.4035 292.7469 219.16913 293.52814Q219.95038 294.3094 219.95038 295.54376Q219.95038 296.7 219.2785 297.5594Q218.45038 298.59064 217.0285 298.59064Q215.85663 298.59064 215.10663 297.9344Q214.37225 297.27814 214.26288 296.2ZM221.26288 294.21564Q221.26288 292.6844 221.57538 291.7625Q221.88788 290.825 222.49725 290.325Q223.12225 289.825 224.05975 289.825Q224.74725 289.825 225.26288 290.10626Q225.79413 290.3875 226.13788 290.91876Q226.48163 291.4344 226.66913 292.1844Q226.85663 292.9344 226.85663 294.21564Q226.85663 295.73126 226.54413 296.65314Q226.24725 297.575 225.62225 298.09064Q225.01288 298.59064 224.05975 298.59064Q222.82538 298.59064 222.10663 297.7Q221.26288 296.6375 221.26288 294.21564ZM222.341 294.21564Q222.341 296.325 222.841 297.02814Q223.341 297.73126 224.05975 297.73126Q224.79413 297.73126 225.2785 297.02814Q225.7785 296.325 225.7785 294.21564Q225.7785 292.09064 225.2785 291.40314Q224.79413 290.7 224.04413 290.7Q223.32538 290.7 222.88788 291.3094Q222.341 292.09064 222.341 294.21564ZM228.26288 294.21564Q228.26288 292.6844 228.57538 291.7625Q228.88788 290.825 229.49725 290.325Q230.12225 289.825 231.05975 289.825Q231.74725 289.825 232.26288 290.10626Q232.79413 290.3875 233.13788 290.91876Q233.48163 291.4344 233.66913 292.1844Q233.85663 292.9344 233.85663 294.21564Q233.85663 295.73126 233.54413 296.65314Q233.24725 297.575 232.62225 298.09064Q232.01288 298.59064 231.05975 298.59064Q229.82538 298.59064 229.10663 297.7Q228.26288 296.6375 228.26288 294.21564ZM229.341 294.21564Q229.341 296.325 229.841 297.02814Q230.341 297.73126 231.05975 297.73126Q231.79413 297.73126 232.2785 297.02814Q232.7785 296.325 232.7785 294.21564Q232.7785 292.09064 232.2785 291.40314Q231.79413 290.7 231.04413 290.7Q230.32538 290.7 229.88788 291.3094Q229.341 292.09064 229.341 294.21564ZM235.26288 294.21564Q235.26288 292.6844 235.57538 291.7625Q235.88788 290.825 236.49725 290.325Q237.12225 289.825 238.05975 289.825Q238.74725 289.825 239.26288 290.10626Q239.79413 290.3875 240.13788 290.91876Q240.48163 291.4344 240.66913 292.1844Q240.85663 292.9344 240.85663 294.21564Q240.85663 295.73126 240.54413 296.65314Q240.24725 297.575 239.62225 298.09064Q239.01288 298.59064 238.05975 298.59064Q236.82538 298.59064 236.10663 297.7Q235.26288 296.6375 235.26288 294.21564ZM236.341 294.21564Q236.341 296.325 236.841 297.02814Q237.341 297.73126 238.05975 297.73126Q238.79413 297.73126 239.2785 297.02814Q239.7785 296.325 239.7785 294.21564Q239.7785 292.09064 239.2785 291.40314Q238.79413 290.7 238.04413 290.7Q237.32538 290.7 236.88788 291.3094Q236.341 292.09064 236.341 294.21564ZM242.26288 294.21564Q242.26288 292.6844 242.57538 291.7625Q242.88788 290.825 243.49725 290.325Q244.12225 289.825 245.05975 289.825Q245.74725 289.825 246.26288 290.10626Q246.79413 290.3875 247.13788 290.91876Q247.48163 291.4344 247.66913 292.1844Q247.85663 292.9344 247.85663 294.21564Q247.85663 295.73126 247.54413 296.65314Q247.24725 297.575 246.62225 298.09064Q246.01288 298.59064 245.05975 298.59064Q243.82538 298.59064 243.10663 297.7Q242.26288 296.6375 242.26288 294.21564ZM243.341 294.21564Q243.341 296.325 243.841 297.02814Q244.341 297.73126 245.05975 297.73126Q245.79413 297.73126 246.2785 297.02814Q246.7785 296.325 246.7785 294.21564Q246.7785 292.09064 246.2785 291.40314Q245.79413 290.7 245.04413 290.7Q244.32538 290.7 243.88788 291.3094Q243.341 292.09064 243.341 294.21564Z" fill-rule="nonzero"/><path fill="#000000" d="M358.47574 296.2L359.5851 296.10626Q359.7101 296.91876 360.1476 297.325Q360.60074 297.73126 361.24136 297.73126Q361.99136 297.73126 362.5226 297.15314Q363.05386 296.575 363.05386 295.6375Q363.05386 294.73126 362.53824 294.21564Q362.03824 293.6844 361.2101 293.6844Q360.7101 293.6844 360.28824 293.91876Q359.882 294.15314 359.6476 294.5125L358.66324 294.3875L359.49136 289.98126L363.7726 289.98126L363.7726 290.98126L360.3351 290.98126L359.882 293.29376Q360.6476 292.7469 361.49136 292.7469Q362.61636 292.7469 363.382 293.52814Q364.16324 294.3094 364.16324 295.54376Q364.16324 296.7 363.49136 297.5594Q362.66324 298.59064 361.24136 298.59064Q360.0695 298.59064 359.3195 297.9344Q358.5851 297.27814 358.47574 296.2ZM365.47574 294.21564Q365.47574 292.6844 365.78824 291.7625Q366.10074 290.825 366.7101 290.325Q367.3351 289.825 368.2726 289.825Q368.9601 289.825 369.47574 290.10626Q370.007 290.3875 370.35074 290.91876Q370.6945 291.4344 370.882 292.1844Q371.0695 292.9344 371.0695 294.21564Q371.0695 295.73126 370.757 296.65314Q370.4601 297.575 369.8351 298.09064Q369.22574 298.59064 368.2726 298.59064Q367.03824 298.59064 366.3195 297.7Q365.47574 296.6375 365.47574 294.21564ZM366.55386 294.21564Q366.55386 296.325 367.05386 297.02814Q367.55386 297.73126 368.2726 297.73126Q369.007 297.73126 369.49136 297.02814Q369.99136 296.325 369.99136 294.21564Q369.99136 292.09064 369.49136 291.40314Q369.007 290.7 368.257 290.7Q367.53824 290.7 367.10074 291.3094Q366.55386 292.09064 366.55386 294.21564ZM372.47574 294.21564Q372.47574 292.6844 372.78824 291.7625Q373.10074 290.825 373.7101 290.325Q374.3351 289.825 375.2726 289.825Q375.9601 289.825 376.47574 290.10626Q377.007 290.3875 377.35074 290.91876Q377.6945 291.4344 377.882 292.1844Q378.0695 292.9344 378.0695 294.21564Q378.0695 295.73126 377.757 296.65314Q377.4601 297.575 376.8351 298.09064Q376.22574 298.59064 375.2726 298.59064Q374.03824 298.59064 373.3195 297.7Q372.47574 296.6375 372.47574 294.21564ZM373.55386 294.21564Q373.55386 296.325 374.05386 297.02814Q374.55386 297.73126 375.2726 297.73126Q376.007 297.73126 376.49136 297.02814Q376.99136 296.325 376.99136 294.21564Q376.99136 292.09064 376.49136 291.40314Q376.007 290.7 375.257 290.7Q374.53824 290.7 374.10074 291.3094Q373.55386 292.09064 373.55386 294.21564ZM379.47574 294.21564Q379.47574 292.6844 379.78824 291.7625Q380.10074 290.825 380.7101 290.325Q381.3351 289.825 382.2726 289.825Q382.9601 289.825 383.47574 290.10626Q384.007 290.3875 384.35074 290.91876Q384.6945 291.4344 384.882 292.1844Q385.0695 292.9344 385.0695 294.21564Q385.0695 295.73126 384.757 296.65314Q384.4601 297.575 383.8351 298.09064Q383.22574 298.59064 382.2726 298.59064Q381.03824 298.59064 380.3195 297.7Q379.47574 296.6375 379.47574 294.21564ZM380.55386 294.21564Q380.55386 296.325 381.05386 297.02814Q381.55386 297.73126 382.2726 297.73126Q383.007 297.73126 383.49136 297.02814Q383.99136 296.325 383.99136 294.21564Q383.99136 292.09064 383.49136 291.40314Q383.007 290.7 382.257 290.7Q381.53824 290.7 381.10074 291.3094Q380.55386 292.09064 380.55386 294.21564ZM386.47574 294.21564Q386.47574 292.6844 386.78824 291.7625Q387.10074 290.825 387.7101 290.325Q388.3351 289.825 389.2726 289.825Q389.9601 289.825 390.47574 290.10626Q391.007 290.3875 391.35074 290.91876Q391.6945 291.4344 391.882 292.1844Q392.0695 292.9344 392.0695 294.21564Q392.0695 295.73126 391.757 296.65314Q391.4601 297.575 390.8351 298.09064Q390.22574 298.59064 389.2726 298.59064Q388.03824 298.59064 387.3195 297.7Q386.47574 296.6375 386.47574 294.21564ZM387.55386 294.21564Q387.55386 296.325 388.05386 297.02814Q388.55386 297.73126 389.2726 297.73126Q390.007 297.73126 390.49136 297.02814Q390.99136 296.325 390.99136 294.21564Q390.99136 292.09064 390.49136 291.40314Q390.007 290.7 389.257 290.7Q388.53824 290.7 388.10074 291.3094Q387.55386 292.09064 387.55386 294.21564ZM393.47574 294.21564Q393.47574 292.6844 393.78824 291.7625Q394.10074 290.825 394.7101 290.325Q395.3351 289.825 396.2726 289.825Q396.9601 289.825 397.47574 290.10626Q398.007 290.3875 398.35074 290.91876Q398.6945 291.4344 398.882 292.1844Q399.0695 292.9344 399.0695 294.21564Q399.0695 295.73126 398.757 296.65314Q398.4601 297.575 397.8351 298.09064Q397.22574 298.59064 396.2726 298.59064Q395.03824 298.59064 394.3195 297.7Q393.47574 296.6375 393.47574 294.21564ZM394.55386 294.21564Q394.55386 296.325 395.05386 297.02814Q395.55386 297.73126 396.2726 297.73126Q397.007 297.73126 397.49136 297.02814Q397.99136 296.325 397.99136 294.21564Q397.99136 292.09064 397.49136 291.40314Q397.007 290.7 396.257 290.7Q395.53824 290.7 395.10074 291.3094Q394.55386 292.09064 394.55386 294.21564Z" fill-rule="nonzero"/><path fill="#000000" d="M509.7511 290.98126L509.7511 289.96564L515.3136 289.96564L515.3136 290.79376Q514.5011 291.66876 513.6886 293.1219Q512.8917 294.5594 512.4542 296.09064Q512.1261 297.16876 512.048 298.45L510.95422 298.45Q510.96985 297.4344 511.34485 295.9969Q511.73547 294.5594 512.4386 293.23126Q513.15735 291.90314 513.96985 290.98126L509.7511 290.98126ZM516.6886 296.2L517.798 296.10626Q517.923 296.91876 518.3605 297.325Q518.8136 297.73126 519.4542 297.73126Q520.2042 297.73126 520.7355 297.15314Q521.2667 296.575 521.2667 295.6375Q521.2667 294.73126 520.7511 294.21564Q520.2511 293.6844 519.423 293.6844Q518.923 293.6844 518.5011 293.91876Q518.09485 294.15314 517.8605 294.5125L516.8761 294.3875L517.7042 289.98126L521.9855 289.98126L521.9855 290.98126L518.548 290.98126L518.09485 293.29376Q518.8605 292.7469 519.7042 292.7469Q520.8292 292.7469 521.59485 293.52814Q522.3761 294.3094 522.3761 295.54376Q522.3761 296.7 521.7042 297.5594Q520.8761 298.59064 519.4542 298.59064Q518.28235 298.59064 517.53235 297.9344Q516.798 297.27814 516.6886 296.2ZM523.6886 294.21564Q523.6886 292.6844 524.0011 291.7625Q524.3136 290.825 524.923 290.325Q525.548 289.825 526.4855 289.825Q527.173 289.825 527.6886 290.10626Q528.21985 290.3875 528.5636 290.91876Q528.90735 291.4344 529.09485 292.1844Q529.28235 292.9344 529.28235 294.21564Q529.28235 295.73126 528.96985 296.65314Q528.673 297.575 528.048 298.09064Q527.4386 298.59064 526.4855 298.59064Q525.2511 298.59064 524.53235 297.7Q523.6886 296.6375 523.6886 294.21564ZM524.7667 294.21564Q524.7667 296.325 525.2667 297.02814Q525.7667 297.73126 526.4855 297.73126Q527.21985 297.73126 527.7042 297.02814Q528.2042 296.325 528.2042 294.21564Q528.2042 292.09064 527.7042 291.40314Q527.21985 290.7 526.46985 290.7Q525.7511 290.7 525.3136 291.3094Q524.7667 292.09064 524.7667 294.21564ZM530.6886 294.21564Q530.6886 292.6844 531.0011 291.7625Q531.3136 290.825 531.923 290.325Q532.548 289.825 533.4855 289.825Q534.173 289.825 534.6886 290.10626Q535.21985 290.3875 535.5636 290.91876Q535.90735 291.4344 536.09485 292.1844Q536.28235 292.9344 536.28235 294.21564Q536.28235 295.73126 535.96985 296.65314Q535.673 297.575 535.048 298.09064Q534.4386 298.59064 533.4855 298.59064Q532.2511 298.59064 531.53235 297.7Q530.6886 296.6375 530.6886 294.21564ZM531.7667 294.21564Q531.7667 296.325 532.2667 297.02814Q532.7667 297.73126 533.4855 297.73126Q534.21985 297.73126 534.7042 297.02814Q535.2042 296.325 535.2042 294.21564Q535.2042 292.09064 534.7042 291.40314Q534.21985 290.7 533.46985 290.7Q532.7511 290.7 532.3136 291.3094Q531.7667 292.09064 531.7667 294.21564ZM537.6886 294.21564Q537.6886 292.6844 538.0011 291.7625Q538.3136 290.825 538.923 290.325Q539.548 289.825 540.4855 289.825Q541.173 289.825 541.6886 290.10626Q542.21985 290.3875 542.5636 290.91876Q542.90735 291.4344 543.09485 292.1844Q543.28235 292.9344 543.28235 294.21564Q543.28235 295.73126 542.96985 296.65314Q542.673 297.575 542.048 298.09064Q541.4386 298.59064 540.4855 298.59064Q539.2511 298.59064 538.53235 297.7Q537.6886 296.6375 537.6886 294.21564ZM538.7667 294.21564Q538.7667 296.325 539.2667 297.02814Q539.7667 297.73126 540.4855 297.73126Q541.21985 297.73126 541.7042 297.02814Q542.2042 296.325 542.2042 294.21564Q542.2042 292.09064 541.7042 291.40314Q541.21985 290.7 540.46985 290.7Q539.7511 290.7 539.3136 291.3094Q538.7667 292.09064 538.7667 294.21564ZM544.6886 294.21564Q544.6886 292.6844 545.0011 291.7625Q545.3136 290.825 545.923 290.325Q546.548 289.825 547.4855 289.825Q548.173 289.825 548.6886 290.10626Q549.21985 290.3875 549.5636 290.91876Q549.90735 291.4344 550.09485 292.1844Q550.28235 292.9344 550.28235 294.21564Q550.28235 295.73126 549.96985 296.65314Q549.673 297.575 549.048 298.09064Q548.4386 298.59064 547.4855 298.59064Q546.2511 298.59064 545.53235 297.7Q544.6886 296.6375 544.6886 294.21564ZM545.7667 294.21564Q545.7667 296.325 546.2667 297.02814Q546.7667 297.73126 547.4855 297.73126Q548.21985 297.73126 548.7042 297.02814Q549.2042 296.325 549.2042 294.21564Q549.2042 292.09064 548.7042 291.40314Q548.21985 290.7 547.46985 290.7Q546.7511 290.7 546.3136 291.3094Q545.7667 292.09064 545.7667 294.21564Z" fill-rule="nonzero"/><path fill="#4285f4" d="M243.5 57.25C243.5 60.56371 240.8137 63.25 237.5 63.25C234.1863 63.25 231.5 60.56371 231.5 57.25C231.5 53.93629 234.1863 51.25 237.5 51.25C240.8137 51.25 243.5 53.93629 243.5 57.25Z" fill-rule="nonzero"/><path fill="#1a1a1a" d="M252.29688 61.25L252.29688 55.03125L253.23438 55.03125L253.23438 55.90625Q253.92188 54.890625 255.21875 54.890625Q255.78125 54.890625 256.25 55.09375Q256.73438 55.296875 256.96875 55.625Q257.20312 55.953125 257.29688 56.390625Q257.34375 56.6875 257.34375 57.421875L257.34375 61.25L256.29688 61.25L256.29688 57.46875Q256.29688 56.8125 256.17188 56.5Q256.04688 56.1875 255.73438 56.0Q255.42188 55.796875 255.0 55.796875Q254.32812 55.796875 253.82812 56.234375Q253.34375 56.65625 253.34375 57.84375L253.34375 61.25L252.29688 61.25ZM258.875 59.390625L259.90625 59.234375Q260.0 59.859375 260.39062 60.1875Q260.79688 60.515625 261.53125 60.515625Q262.25 60.515625 262.59375 60.234375Q262.95312 59.9375 262.95312 59.53125Q262.95312 59.171875 262.64062 58.96875Q262.42188 58.828125 261.5625 58.609375Q260.40625 58.3125 259.95312 58.109375Q259.51562 57.890625 259.28125 57.515625Q259.04688 57.140625 259.04688 56.671875Q259.04688 56.265625 259.23438 55.90625Q259.42188 55.546875 259.75 55.3125Q260.0 55.140625 260.42188 55.015625Q260.84375 54.890625 261.34375 54.890625Q262.0625 54.890625 262.60938 55.109375Q263.17188 55.3125 263.4375 55.671875Q263.70312 56.03125 263.79688 56.625L262.76562 56.765625Q262.70312 56.296875 262.35938 56.03125Q262.03125 55.75 261.40625 55.75Q260.6875 55.75 260.375 56.0Q260.0625 56.234375 260.0625 56.5625Q260.0625 56.765625 260.1875 56.921875Q260.32812 57.09375 260.59375 57.203125Q260.75 57.265625 261.53125 57.46875Q262.65625 57.78125 263.09375 57.96875Q263.53125 58.15625 263.78125 58.515625Q264.03125 58.875 264.03125 59.421875Q264.03125 59.953125 263.71875 60.421875Q263.42188 60.875 262.84375 61.140625Q262.26562 61.390625 261.53125 61.390625Q260.3125 61.390625 259.67188 60.890625Q259.04688 60.375 258.875 59.390625ZM268.5 61.390625L270.98438 52.515625L271.82812 52.515625L269.34375 61.390625L268.5 61.390625ZM275.42188 61.25L275.42188 52.65625L276.57812 52.65625L281.09375 59.40625L281.09375 52.65625L282.1875 52.65625L282.1875 61.25L281.01562 61.25L276.5 54.5L276.5 61.25L275.42188 61.25Z" fill-rule="nonzero"/><path stroke="#4285f4" stroke-width="4.0" stroke-linecap="butt" stroke-opacity="0.4" d="M299.5 57.25L311.5 57.25" fill-rule="nonzero"/><path fill="#1a1a1a" d="M323.96875 61.25L322.92188 61.25L322.92188 54.53125Q322.53125 54.890625 321.90625 55.265625Q321.29688 55.625 320.8125 55.796875L320.8125 54.78125Q321.6875 54.359375 322.34375 53.78125Q323.01562 53.1875 323.29688 52.625L323.96875 52.625L323.96875 61.25ZM327.59375 61.25L327.59375 60.046875L328.79688 60.046875L328.79688 61.25L327.59375 61.25ZM333.96875 61.25L332.92188 61.25L332.92188 54.53125Q332.53125 54.890625 331.90625 55.265625Q331.29688 55.625 330.8125 55.796875L330.8125 54.78125Q331.6875 54.359375 332.34375 53.78125Q333.01562 53.1875 333.29688 52.625L333.96875 52.625L333.96875 61.25ZM340.96875 61.25L339.92188 61.25L339.92188 54.53125Q339.53125 54.890625 338.90625 55.265625Q338.29688 55.625 337.8125 55.796875L337.8125 54.78125Q338.6875 54.359375 339.34375 53.78125Q340.01562 53.1875 340.29688 52.625L340.96875 52.625L340.96875 61.25ZM344.45312 61.25L344.45312 52.65625L350.65625 52.65625L350.65625 53.671875L345.59375 53.671875L345.59375 56.296875L350.34375 56.296875L350.34375 57.3125L345.59375 57.3125L345.59375 60.234375L350.85938 60.234375L350.85938 61.25L344.45312 61.25ZM351.875 58.671875L351.875 57.609375L355.125 57.609375L355.125 58.671875L351.875 58.671875ZM356.0 57.015625Q356.0 55.484375 356.3125 54.5625Q356.625 53.625 357.23438 53.125Q357.85938 52.625 358.79688 52.625Q359.48438 52.625 360.0 52.90625Q360.53125 53.1875 360.875 53.71875Q361.21875 54.234375 361.40625 54.984375Q361.59375 55.734375 361.59375 57.015625Q361.59375 58.53125 361.28125 59.453125Q360.98438 60.375 360.35938 60.890625Q359.75 61.390625 358.79688 61.390625Q357.5625 61.390625 356.84375 60.5Q356.0 59.4375 356.0 57.015625ZM357.07812 57.015625Q357.07812 59.125 357.57812 59.828125Q358.07812 60.53125 358.79688 60.53125Q359.53125 60.53125 360.01562 59.828125Q360.51562 59.125 360.51562 57.015625Q360.51562 54.890625 360.01562 54.203125Q359.53125 53.5 358.78125 53.5Q358.0625 53.5 357.625 54.109375Q357.07812 54.890625 357.07812 57.015625ZM363.0 59.0L364.10938 58.90625Q364.23438 59.71875 364.67188 60.125Q365.125 60.53125 365.76562 60.53125Q366.51562 60.53125 367.04688 59.953125Q367.57812 59.375 367.57812 58.4375Q367.57812 57.53125 367.0625 57.015625Q366.5625 56.484375 365.73438 56.484375Q365.23438 56.484375 364.8125 56.71875Q364.40625 56.953125 364.17188 57.3125L363.1875 57.1875L364.01562 52.78125L368.29688 52.78125L368.29688 53.78125L364.85938 53.78125L364.40625 56.09375Q365.17188 55.546875 366.01562 55.546875Q367.14062 55.546875 367.90625 56.328125Q368.6875 57.109375 368.6875 58.34375Q368.6875 59.5 368.01562 60.359375Q367.1875 61.390625 365.76562 61.390625Q364.59375 61.390625 363.84375 60.734375Q363.10938 60.078125 363.0 59.0ZM369.875 54.234375L370.14062 53.40625Q371.07812 53.734375 371.5 53.96875Q371.39062 52.90625 371.375 52.515625L372.23438 52.515625Q372.21875 53.09375 372.09375 53.96875Q372.70312 53.65625 373.48438 53.40625L373.75 54.234375Q373.0 54.484375 372.29688 54.5625Q372.64062 54.875 373.29688 55.671875L372.59375 56.171875Q372.25 55.703125 371.79688 54.90625Q371.35938 55.734375 371.03125 56.171875L370.34375 55.671875Q371.01562 54.828125 371.3125 54.5625Q370.5625 54.421875 369.875 54.234375ZM374.59375 61.25L376.85938 58.015625L374.76562 55.03125L376.07812 55.03125L377.03125 56.484375Q377.29688 56.90625 377.46875 57.1875Q377.71875 56.796875 377.9375 56.5L378.98438 55.03125L380.25 55.03125L378.09375 57.953125L380.40625 61.25L379.125 61.25L377.84375 59.3125L377.5 58.796875L375.85938 61.25L374.59375 61.25ZM385.5 59.859375L385.5 57.5L383.17188 57.5L383.17188 56.515625L385.5 56.515625L385.5 54.1875L386.5 54.1875L386.5 56.515625L388.84375 56.515625L388.84375 57.5L386.5 57.5L386.5 59.859375L385.5 59.859375ZM398.54688 60.234375L398.54688 61.25L392.85938 61.25Q392.85938 60.875 392.98438 60.515625Q393.20312 59.9375 393.67188 59.375Q394.15625 58.8125 395.0625 58.078125Q396.46875 56.921875 396.95312 56.25Q397.45312 55.578125 397.45312 54.984375Q397.45312 54.359375 397.0 53.9375Q396.54688 53.5 395.82812 53.5Q395.0625 53.5 394.60938 53.953125Q394.15625 54.40625 394.14062 55.21875L393.0625 55.109375Q393.17188 53.890625 393.89062 53.265625Q394.625 52.625 395.85938 52.625Q397.09375 52.625 397.8125 53.3125Q398.53125 54.0 398.53125 55.015625Q398.53125 55.53125 398.3125 56.03125Q398.10938 56.515625 397.60938 57.078125Q397.125 57.625 396.0 58.578125Q395.04688 59.375 394.76562 59.671875Q394.5 59.953125 394.32812 60.234375L398.54688 60.234375ZM403.96875 61.25L402.92188 61.25L402.92188 54.53125Q402.53125 54.890625 401.90625 55.265625Q401.29688 55.625 400.8125 55.796875L400.8125 54.78125Q401.6875 54.359375 402.34375 53.78125Q403.01562 53.1875 403.29688 52.625L403.96875 52.625L403.96875 61.25ZM410.96875 61.25L409.92188 61.25L409.92188 54.53125Q409.53125 54.890625 408.90625 55.265625Q408.29688 55.625 407.8125 55.796875L407.8125 54.78125Q408.6875 54.359375 409.34375 53.78125Q410.01562 53.1875 410.29688 52.625L410.96875 52.625L410.96875 61.25ZM417.4375 61.25L417.4375 52.65625L421.25 52.65625Q422.40625 52.65625 423.0 52.890625Q423.59375 53.125 423.95312 53.71875Q424.3125 54.296875 424.3125 55.0Q424.3125 55.921875 423.71875 56.546875Q423.125 57.171875 421.89062 57.34375Q422.34375 57.5625 422.57812 57.765625Q423.07812 58.21875 423.51562 58.90625L425.01562 61.25L423.57812 61.25L422.45312 59.46875Q421.95312 58.6875 421.625 58.28125Q421.3125 57.875 421.04688 57.71875Q420.79688 57.546875 420.53125 57.46875Q420.34375 57.4375 419.90625 57.4375L418.57812 57.4375L418.57812 61.25L417.4375 61.25ZM418.57812 56.453125L421.03125 56.453125Q421.79688 56.453125 422.23438 56.296875Q422.6875 56.125 422.90625 55.78125Q423.14062 55.421875 423.14062 55.0Q423.14062 54.390625 422.6875 54.0Q422.25 53.609375 421.29688 53.609375L418.57812 53.609375L418.57812 56.453125ZM425.64062 56.953125Q425.6875 56.625 425.92188 56.28125Q426.29688 55.78125 427.14062 55.171875Q427.98438 54.5625 428.14062 54.375Q428.35938 54.140625 428.35938 53.890625Q428.35938 53.609375 428.14062 53.4375Q427.9375 53.25 427.54688 53.25Q427.15625 53.25 426.96875 53.390625Q426.78125 53.515625 426.65625 53.90625L425.76562 53.8125Q425.9375 53.171875 426.35938 52.859375Q426.78125 52.546875 427.5625 52.546875Q428.45312 52.546875 428.85938 52.90625Q429.28125 53.25 429.28125 53.75Q429.28125 54.234375 428.92188 54.671875Q428.67188 55.0 427.73438 55.671875Q427.23438 56.03125 427.03125 56.25L429.29688 56.25L429.29688 56.953125L425.64062 56.953125ZM438.84375 56.203125L433.17188 56.203125L433.17188 55.21875L438.84375 55.21875L438.84375 56.203125ZM438.84375 58.8125L433.17188 58.8125L433.17188 57.828125L438.84375 57.828125L438.84375 58.8125ZM443.0 57.015625Q443.0 55.484375 443.3125 54.5625Q443.625 53.625 444.23438 53.125Q444.85938 52.625 445.79688 52.625Q446.48438 52.625 447.0 52.90625Q447.53125 53.1875 447.875 53.71875Q448.21875 54.234375 448.40625 54.984375Q448.59375 55.734375 448.59375 57.015625Q448.59375 58.53125 448.28125 59.453125Q447.98438 60.375 447.35938 60.890625Q446.75 61.390625 445.79688 61.390625Q444.5625 61.390625 443.84375 60.5Q443.0 59.4375 443.0 57.015625ZM444.07812 57.015625Q444.07812 59.125 444.57812 59.828125Q445.07812 60.53125 445.79688 60.53125Q446.53125 60.53125 447.01562 59.828125Q447.51562 59.125 447.51562 57.015625Q447.51562 54.890625 447.01562 54.203125Q446.53125 53.5 445.78125 53.5Q445.0625 53.5 444.625 54.109375Q444.07812 54.890625 444.07812 57.015625ZM450.59375 61.25L450.59375 60.046875L451.79688 60.046875L451.79688 61.25L450.59375 61.25ZM453.0 57.015625Q453.0 55.484375 453.3125 54.5625Q453.625 53.625 454.23438 53.125Q454.85938 52.625 455.79688 52.625Q456.48438 52.625 457.0 52.90625Q457.53125 53.1875 457.875 53.71875Q458.21875 54.234375 458.40625 54.984375Q458.59375 55.734375 458.59375 57.015625Q458.59375 58.53125 458.28125 59.453125Q457.98438 60.375 457.35938 60.890625Q456.75 61.390625 455.79688 61.390625Q454.5625 61.390625 453.84375 60.5Q453.0 59.4375 453.0 57.015625ZM454.07812 57.015625Q454.07812 59.125 454.57812 59.828125Q455.07812 60.53125 455.79688 60.53125Q456.53125 60.53125 457.01562 59.828125Q457.51562 59.125 457.51562 57.015625Q457.51562 54.890625 457.01562 54.203125Q456.53125 53.5 455.78125 53.5Q455.0625 53.5 454.625 54.109375Q454.07812 54.890625 454.07812 57.015625ZM463.375 61.25L463.375 59.1875L459.65625 59.1875L459.65625 58.21875L463.57812 52.65625L464.4375 52.65625L464.4375 58.21875L465.59375 58.21875L465.59375 59.1875L464.4375 59.1875L464.4375 61.25L463.375 61.25ZM463.375 58.21875L463.375 54.359375L460.6875 58.21875L463.375 58.21875ZM467.15625 59.265625L468.17188 59.171875Q468.29688 59.890625 468.65625 60.21875Q469.03125 60.53125 469.59375 60.53125Q470.07812 60.53125 470.4375 60.3125Q470.8125 60.078125 471.04688 59.71875Q471.28125 59.34375 471.4375 58.71875Q471.59375 58.078125 471.59375 57.421875Q471.59375 57.34375 471.59375 57.203125Q471.28125 57.703125 470.73438 58.03125Q470.1875 58.34375 469.54688 58.34375Q468.46875 58.34375 467.73438 57.578125Q467.0 56.796875 467.0 55.53125Q467.0 54.21875 467.76562 53.421875Q468.54688 52.625 469.70312 52.625Q470.53125 52.625 471.21875 53.078125Q471.92188 53.53125 472.28125 54.375Q472.64062 55.203125 472.64062 56.78125Q472.64062 58.421875 472.28125 59.40625Q471.9375 60.375 471.21875 60.890625Q470.51562 61.390625 469.57812 61.390625Q468.5625 61.390625 467.92188 60.84375Q467.28125 60.28125 467.15625 59.265625ZM471.46875 55.46875Q471.46875 54.5625 470.98438 54.03125Q470.51562 53.5 469.82812 53.5Q469.125 53.5 468.59375 54.078125Q468.07812 54.640625 468.07812 55.5625Q468.07812 56.375 468.57812 56.890625Q469.07812 57.40625 469.79688 57.40625Q470.53125 57.40625 471.0 56.890625Q471.46875 56.375 471.46875 55.46875Z" fill-rule="nonzero"/><path fill="#757575" d="M255.73438 34.55L255.73438 21.659374L258.32812 21.659374L258.32812 34.55L255.73438 34.55ZM269.28125 34.55L266.8125 34.55L266.8125 29.784374Q266.8125 28.26875 266.65625 27.83125Q266.5 27.39375 266.14062 27.14375Q265.78125 26.89375 265.28125 26.89375Q264.64062 26.89375 264.125 27.253124Q263.625 27.596874 263.4375 28.175Q263.25 28.753124 263.25 30.315624L263.25 34.55L260.78125 34.55L260.78125 25.221874L263.0625 25.221874L263.0625 26.58125Q264.29688 25.003124 266.14062 25.003124Q266.96875 25.003124 267.64062 25.3Q268.3125 25.596874 268.65625 26.05Q269.01562 26.503124 269.14062 27.096874Q269.28125 27.675 269.28125 28.753124L269.28125 34.55ZM270.92188 31.89375L273.40625 31.503124Q273.5625 32.221874 274.04688 32.596874Q274.53125 32.971874 275.39062 32.971874Q276.35938 32.971874 276.84375 32.628124Q277.15625 32.378124 277.15625 31.971874Q277.15625 31.690624 276.98438 31.503124Q276.79688 31.33125 276.15625 31.175Q273.17188 30.51875 272.375 29.971874Q271.26562 29.221874 271.26562 27.8625Q271.26562 26.659374 272.21875 25.83125Q273.1875 25.003124 275.1875 25.003124Q277.10938 25.003124 278.03125 25.628124Q278.96875 26.253124 279.32812 27.471874L277.0 27.909374Q276.84375 27.3625 276.42188 27.08125Q276.01562 26.784374 275.23438 26.784374Q274.26562 26.784374 273.84375 27.05Q273.5625 27.253124 273.5625 27.55Q273.5625 27.815624 273.8125 28.003124Q274.14062 28.253124 276.10938 28.70625Q278.07812 29.14375 278.875 29.8Q279.64062 30.45625 279.64062 31.628124Q279.64062 32.909374 278.5625 33.846874Q277.5 34.76875 275.39062 34.76875Q273.48438 34.76875 272.375 33.9875Q271.26562 33.20625 270.92188 31.89375ZM287.20312 31.58125L289.65625 31.9875Q289.1875 33.346874 288.15625 34.065624Q287.14062 34.76875 285.59375 34.76875Q283.15625 34.76875 282.0 33.175Q281.07812 31.89375 281.07812 29.95625Q281.07812 27.628124 282.28125 26.315624Q283.5 25.003124 285.35938 25.003124Q287.4375 25.003124 288.64062 26.378124Q289.84375 27.753124 289.79688 30.596874L283.60938 30.596874Q283.625 31.690624 284.1875 32.3Q284.76562 32.909374 285.625 32.909374Q286.20312 32.909374 286.59375 32.596874Q287.0 32.284374 287.20312 31.58125ZM287.34375 29.08125Q287.3125 28.003124 286.78125 27.45625Q286.25 26.89375 285.5 26.89375Q284.6875 26.89375 284.17188 27.4875Q283.64062 28.065624 283.64062 29.08125L287.34375 29.08125ZM295.15625 34.55L292.6875 34.55L292.6875 25.221874L294.98438 25.221874L294.98438 26.55Q295.5625 25.596874 296.03125 25.3Q296.51562 25.003124 297.10938 25.003124Q297.95312 25.003124 298.73438 25.471874L297.96875 27.628124Q297.34375 27.221874 296.8125 27.221874Q296.29688 27.221874 295.92188 27.503124Q295.5625 27.784374 295.35938 28.534374Q295.15625 29.284374 295.15625 31.659374L295.15625 34.55ZM304.07812 25.221874L304.07812 27.190624L302.39062 27.190624L302.39062 30.940624Q302.39062 32.08125 302.4375 32.284374Q302.48438 32.471874 302.65625 32.596874Q302.82812 32.70625 303.07812 32.70625Q303.40625 32.70625 304.0625 32.471874L304.28125 34.39375Q303.40625 34.76875 302.32812 34.76875Q301.65625 34.76875 301.10938 34.55Q300.57812 34.315624 300.32812 33.95625Q300.07812 33.596874 299.98438 32.9875Q299.90625 32.565624 299.90625 31.253124L299.90625 27.190624L298.76562 27.190624L298.76562 25.221874L299.90625 25.221874L299.90625 23.3625L302.39062 21.925L302.39062 25.221874L304.07812 25.221874ZM305.79688 23.95625L305.79688 21.659374L308.26562 21.659374L308.26562 23.95625L305.79688 23.95625ZM305.79688 34.55L305.79688 25.221874L308.26562 25.221874L308.26562 34.55L305.79688 34.55ZM310.21875 29.753124Q310.21875 28.51875 310.82812 27.378124Q311.4375 26.221874 312.54688 25.6125Q313.65625 25.003124 315.03125 25.003124Q317.14062 25.003124 318.5 26.378124Q319.85938 27.753124 319.85938 29.8625Q319.85938 31.971874 318.48438 33.378124Q317.125 34.76875 315.04688 34.76875Q313.76562 34.76875 312.59375 34.190624Q311.4375 33.596874 310.82812 32.4875Q310.21875 31.3625 310.21875 29.753124ZM312.75 29.878124Q312.75 31.26875 313.40625 32.01875Q314.07812 32.753124 315.03125 32.753124Q316.0 32.753124 316.65625 32.01875Q317.3125 31.26875 317.3125 29.8625Q317.3125 28.4875 316.65625 27.753124Q316.0 27.01875 315.03125 27.01875Q314.07812 27.01875 313.40625 27.753124Q312.75 28.4875 312.75 29.878124ZM330.28125 34.55L327.8125 34.55L327.8125 29.784374Q327.8125 28.26875 327.65625 27.83125Q327.5 27.39375 327.14062 27.14375Q326.78125 26.89375 326.28125 26.89375Q325.64062 26.89375 325.125 27.253124Q324.625 27.596874 324.4375 28.175Q324.25 28.753124 324.25 30.315624L324.25 34.55L321.78125 34.55L321.78125 25.221874L324.0625 25.221874L324.0625 26.58125Q325.29688 25.003124 327.14062 25.003124Q327.96875 25.003124 328.64062 25.3Q329.3125 25.596874 329.65625 26.05Q330.01562 26.503124 330.14062 27.096874Q330.28125 27.675 330.28125 28.753124L330.28125 34.55ZM337.15625 30.3625L339.6875 30.1125Q339.90625 31.378124 340.60938 31.9875Q341.3125 32.58125 342.5 32.58125Q343.75 32.58125 344.39062 32.05Q345.03125 31.51875 345.03125 30.8Q345.03125 30.346874 344.75 30.034374Q344.48438 29.70625 343.82812 29.471874Q343.35938 29.315624 341.73438 28.909374Q339.64062 28.39375 338.79688 27.628124Q337.60938 26.565624 337.60938 25.034374Q337.60938 24.05 338.17188 23.20625Q338.73438 22.346874 339.78125 21.89375Q340.82812 21.440624 342.3125 21.440624Q344.75 21.440624 345.96875 22.503124Q347.20312 23.565624 347.26562 25.346874L344.65625 25.45625Q344.48438 24.471874 343.9375 24.034374Q343.39062 23.596874 342.29688 23.596874Q341.15625 23.596874 340.51562 24.065624Q340.10938 24.3625 340.10938 24.8625Q340.10938 25.315624 340.48438 25.64375Q340.98438 26.065624 342.875 26.51875Q344.78125 26.95625 345.6875 27.440624Q346.59375 27.909374 347.10938 28.753124Q347.625 29.58125 347.625 30.8Q347.625 31.909374 347.0 32.878124Q346.39062 33.83125 345.26562 34.315624Q344.14062 34.784374 342.46875 34.784374Q340.03125 34.784374 338.71875 33.659374Q337.40625 32.51875 337.15625 30.3625ZM349.21875 29.753124Q349.21875 28.51875 349.82812 27.378124Q350.4375 26.221874 351.54688 25.6125Q352.65625 25.003124 354.03125 25.003124Q356.14062 25.003124 357.5 26.378124Q358.85938 27.753124 358.85938 29.8625Q358.85938 31.971874 357.48438 33.378124Q356.125 34.76875 354.04688 34.76875Q352.76562 34.76875 351.59375 34.190624Q350.4375 33.596874 349.82812 32.4875Q349.21875 31.3625 349.21875 29.753124ZM351.75 29.878124Q351.75 31.26875 352.40625 32.01875Q353.07812 32.753124 354.03125 32.753124Q355.0 32.753124 355.65625 32.01875Q356.3125 31.26875 356.3125 29.8625Q356.3125 28.4875 355.65625 27.753124Q355.0 27.01875 354.03125 27.01875Q353.07812 27.01875 352.40625 27.753124Q351.75 28.4875 351.75 29.878124ZM363.15625 34.55L360.6875 34.55L360.6875 25.221874L362.98438 25.221874L362.98438 26.55Q363.5625 25.596874 364.03125 25.3Q364.51562 25.003124 365.10938 25.003124Q365.95312 25.003124 366.73438 25.471874L365.96875 27.628124Q365.34375 27.221874 364.8125 27.221874Q364.29688 27.221874 363.92188 27.503124Q363.5625 27.784374 363.35938 28.534374Q363.15625 29.284374 363.15625 31.659374L363.15625 34.55ZM372.07812 25.221874L372.07812 27.190624L370.39062 27.190624L370.39062 30.940624Q370.39062 32.08125 370.4375 32.284374Q370.48438 32.471874 370.65625 32.596874Q370.82812 32.70625 371.07812 32.70625Q371.40625 32.70625 372.0625 32.471874L372.28125 34.39375Q371.40625 34.76875 370.32812 34.76875Q369.65625 34.76875 369.10938 34.55Q368.57812 34.315624 368.32812 33.95625Q368.07812 33.596874 367.98438 32.9875Q367.90625 32.565624 367.90625 31.253124L367.90625 27.190624L366.76562 27.190624L366.76562 25.221874L367.90625 25.221874L367.90625 23.3625L370.39062 21.925L370.39062 25.221874L372.07812 25.221874ZM378.51562 31.1125L378.51562 28.64375L383.35938 28.64375L383.35938 31.1125L378.51562 31.1125ZM398.04688 29.815624L400.57812 30.6125Q400.0 32.721874 398.64062 33.753124Q397.29688 34.76875 395.21875 34.76875Q392.65625 34.76875 391.0 33.01875Q389.35938 31.26875 389.35938 28.221874Q389.35938 25.003124 391.01562 23.221874Q392.67188 21.440624 395.375 21.440624Q397.75 21.440624 399.21875 22.846874Q400.10938 23.675 400.54688 25.221874L397.96875 25.83125Q397.73438 24.83125 397.0 24.253124Q396.28125 23.675 395.25 23.675Q393.8125 23.675 392.92188 24.70625Q392.03125 25.721874 392.03125 28.034374Q392.03125 30.471874 392.90625 31.51875Q393.79688 32.55 395.20312 32.55Q396.23438 32.55 396.98438 31.89375Q397.73438 31.221874 398.04688 29.815624ZM404.64062 28.065624L402.39062 27.659374Q402.78125 26.3 403.70312 25.659374Q404.625 25.003124 406.4375 25.003124Q408.09375 25.003124 408.89062 25.39375Q409.70312 25.784374 410.03125 26.39375Q410.375 26.9875 410.375 28.596874L410.34375 31.4875Q410.34375 32.70625 410.45312 33.3Q410.57812 33.878124 410.90625 34.55L408.46875 34.55Q408.35938 34.3 408.21875 33.815624Q408.15625 33.596874 408.14062 33.534374Q407.5 34.14375 406.78125 34.45625Q406.0625 34.76875 405.25 34.76875Q403.79688 34.76875 402.96875 33.9875Q402.14062 33.190624 402.14062 32.003124Q402.14062 31.20625 402.51562 30.596874Q402.89062 29.971874 403.57812 29.64375Q404.26562 29.315624 405.54688 29.065624Q407.28125 28.7375 407.9375 28.45625L407.9375 28.20625Q407.9375 27.503124 407.57812 27.20625Q407.23438 26.89375 406.26562 26.89375Q405.60938 26.89375 405.23438 27.159374Q404.85938 27.409374 404.64062 28.065624ZM407.9375 30.065624Q407.46875 30.221874 406.4375 30.440624Q405.40625 30.659374 405.09375 30.878124Q404.60938 31.221874 404.60938 31.753124Q404.60938 32.26875 405.0 32.64375Q405.39062 33.01875 405.98438 33.01875Q406.65625 33.01875 407.25 32.58125Q407.70312 32.253124 407.84375 31.76875Q407.9375 31.440624 407.9375 30.565624L407.9375 30.065624ZM411.92188 31.89375L414.40625 31.503124Q414.5625 32.221874 415.04688 32.596874Q415.53125 32.971874 416.39062 32.971874Q417.35938 32.971874 417.84375 32.628124Q418.15625 32.378124 418.15625 31.971874Q418.15625 31.690624 417.98438 31.503124Q417.79688 31.33125 417.15625 31.175Q414.17188 30.51875 413.375 29.971874Q412.26562 29.221874 412.26562 27.8625Q412.26562 26.659374 413.21875 25.83125Q414.1875 25.003124 416.1875 25.003124Q418.10938 25.003124 419.03125 25.628124Q419.96875 26.253124 420.32812 27.471874L418.0 27.909374Q417.84375 27.3625 417.42188 27.08125Q417.01562 26.784374 416.23438 26.784374Q415.26562 26.784374 414.84375 27.05Q414.5625 27.253124 414.5625 27.55Q414.5625 27.815624 414.8125 28.003124Q415.14062 28.253124 417.10938 28.70625Q419.07812 29.14375 419.875 29.8Q420.64062 30.45625 420.64062 31.628124Q420.64062 32.909374 419.5625 33.846874Q418.5 34.76875 416.39062 34.76875Q414.48438 34.76875 413.375 33.9875Q412.26562 33.20625 411.92188 31.89375ZM428.20312 31.58125L430.65625 31.9875Q430.1875 33.346874 429.15625 34.065624Q428.14062 34.76875 426.59375 34.76875Q424.15625 34.76875 423.0 33.175Q422.07812 31.89375 422.07812 29.95625Q422.07812 27.628124 423.28125 26.315624Q424.5 25.003124 426.35938 25.003124Q428.4375 25.003124 429.64062 26.378124Q430.84375 27.753124 430.79688 30.596874L424.60938 30.596874Q424.625 31.690624 425.1875 32.3Q425.76562 32.909374 426.625 32.909374Q427.20312 32.909374 427.59375 32.596874Q428.0 32.284374 428.20312 31.58125ZM428.34375 29.08125Q428.3125 28.003124 427.78125 27.45625Q427.25 26.89375 426.5 26.89375Q425.6875 26.89375 425.17188 27.4875Q424.64062 28.065624 424.64062 29.08125L428.34375 29.08125ZM450.42188 34.55L447.59375 34.55L446.46875 31.628124L441.32812 31.628124L440.26562 34.55L437.5 34.55L442.51562 21.659374L445.26562 21.659374L450.42188 34.55ZM445.64062 29.45625L443.85938 24.675L442.125 29.45625L445.64062 29.45625Z" fill-rule="nonzero"/></svg>